<svg viewBox="0 0 172 23" fill="none" xmlns="http://www.w3.org/2000/svg">
    <path d="M30.883 4.66374C27.9237 4.66374 25.7634 6.76482 25.7634 9.6945V17.3886C25.7634 17.6845 26.0002 17.9213 26.2961 17.9213H26.9471C27.2431 17.9213 27.4798 17.6845 27.4798 17.3886V13.2752H34.3157V17.3886C34.3157 17.6845 34.5525 17.9213 34.8484 17.9213H35.4994C35.7954 17.9213 36.0321 17.6845 36.0321 17.3886V9.6945C36.0025 6.73523 33.9014 4.66374 30.883 4.66374ZM34.3157 11.4109H27.4798V9.6945C27.4798 7.71179 28.8411 6.38011 30.883 6.38011C32.9249 6.38011 34.3157 7.6822 34.3157 9.6945V11.4109ZM47.9876 7.74138C46.8039 7.71179 45.6793 8.24446 44.9395 9.19142C43.5487 7.53423 41.0925 7.29749 39.4057 8.65876C38.5179 9.39858 37.9852 10.4935 37.9852 11.6476V17.359C37.9852 17.6549 38.222 17.8917 38.5179 17.8917H39.1689C39.4649 17.8917 39.672 17.6549 39.672 17.359V11.6476C39.672 10.4343 40.6486 9.45776 41.8619 9.45776C43.0752 9.45776 44.0517 10.4343 44.0517 11.6476V17.359C44.0517 17.6549 44.2885 17.8917 44.5844 17.8917H45.2354C45.5314 17.8917 45.7681 17.6549 45.7681 17.359V11.6476C45.8273 10.4343 46.863 9.48736 48.0763 9.57613C49.2009 9.63532 50.0887 10.5231 50.1478 11.6476V17.359C50.1478 17.6549 50.3846 17.8917 50.6805 17.8917H51.3315C51.6275 17.8917 51.8642 17.6549 51.8642 17.359V11.6476C51.9234 9.54654 50.2958 7.80057 48.2243 7.74138C48.1651 7.74138 48.0763 7.74138 47.9876 7.74138ZM58.2562 11.7956C56.1848 11.4997 55.8 11.2037 55.8 10.7007C55.8 10.4639 55.8888 10.2272 56.0664 10.0496C56.5991 9.60572 57.2797 9.39858 57.9603 9.42817C58.8777 9.42817 60.0318 9.6945 60.4165 10.9374C60.4757 11.1741 60.6828 11.3221 60.9196 11.3221H61.5706C61.8666 11.3221 62.1033 11.0854 62.1033 10.7894C62.1033 10.7598 62.1033 10.7007 62.1033 10.6711C61.689 8.83631 60.1502 7.77098 57.9603 7.77098C55.4153 7.77098 54.0541 9.25061 54.0541 10.7302C54.0837 12.9201 56.3919 13.2456 57.9899 13.4824C60.3869 13.8079 60.5941 14.3997 60.6237 14.9324C60.6533 15.2283 60.5349 15.5243 60.3277 15.7314C59.7359 16.2345 58.9961 16.5008 58.2267 16.4416C57.2797 16.4416 55.6225 16.2049 55.2674 14.6661C55.2082 14.4293 55.001 14.2518 54.7347 14.2518H54.0837C53.9357 14.2518 53.7877 14.311 53.6694 14.4293C53.5806 14.5477 53.5214 14.6957 53.551 14.8732C53.8765 16.9151 55.6225 18.0988 58.1971 18.0988C59.5879 18.0988 60.742 17.6845 61.5114 16.9151C62.0441 16.3529 62.3104 15.613 62.2809 14.8436C62.2217 12.3874 59.5583 12.0027 58.2562 11.7956ZM67.8147 9.66491C68.1106 9.66491 68.3474 9.42817 68.3474 9.13224V8.4812C68.3474 8.18527 68.1106 7.94853 67.8147 7.94853H65.9503V6.58727C65.9503 6.29134 65.7136 6.05459 65.4177 6.05459H64.7666C64.4707 6.05459 64.234 6.29134 64.234 6.58727V7.94853H63.5533C63.2574 7.94853 63.0207 8.18527 63.0207 8.4812V9.13224C63.0207 9.42817 63.2574 9.66491 63.5533 9.66491H64.234V14.311C64.234 15.5243 64.6187 16.5008 65.2993 17.1519C65.8912 17.6845 66.6606 17.9509 67.43 17.9509C67.5484 17.9509 67.6963 17.9509 67.8147 17.9213C68.081 17.8917 68.2882 17.6549 68.2882 17.3886V16.7968C68.2882 16.5008 68.0514 16.2641 67.7555 16.2641H67.7259C67.2524 16.3233 66.7494 16.1753 66.3646 15.8794C65.9503 15.4947 65.8616 14.814 65.8616 14.311V9.66491H67.8147ZM85.3928 7.80057C84.2978 7.65261 83.1733 7.91893 82.2559 8.56997V8.51079C82.2559 8.21487 82.0192 7.97812 81.7233 7.97812H81.0722C80.7763 7.97812 80.5396 8.21487 80.5396 8.51079V17.3886C80.5396 17.6845 80.7763 17.9213 81.0722 17.9213H81.7233C82.0192 17.9213 82.2559 17.6845 82.2559 17.3886V12.0323C82.2264 11.2925 82.5223 10.5527 83.0845 10.0496C83.5876 9.57613 84.357 9.36898 85.2744 9.42817C85.5703 9.45776 85.8367 9.25061 85.8367 8.95468C85.8367 8.92509 85.8367 8.92509 85.8367 8.8955V8.30364C85.8663 8.03731 85.6591 7.83016 85.3928 7.80057ZM118.981 7.74138C117.797 7.71179 116.672 8.24446 115.932 9.19142C114.571 7.50464 112.085 7.2679 110.399 8.65876C109.481 9.39858 108.978 10.4935 108.949 11.6772V17.3886C108.949 17.6845 109.185 17.9213 109.481 17.9213H110.132C110.428 17.9213 110.665 17.6845 110.665 17.3886V11.6772C110.724 10.4639 111.76 9.51694 112.973 9.60572C114.098 9.6649 114.985 10.5527 115.045 11.6772V17.3886C115.045 17.6845 115.281 17.9213 115.577 17.9213H116.228C116.524 17.9213 116.761 17.6845 116.761 17.3886V11.6772C116.82 10.4639 117.856 9.51694 119.069 9.60572C120.194 9.6649 121.082 10.5527 121.141 11.6772V17.3886C121.141 17.6845 121.378 17.9213 121.673 17.9213H122.324C122.62 17.9213 122.857 17.6845 122.857 17.3886V11.6772C122.916 9.57613 121.289 7.83016 119.217 7.77098C119.158 7.74138 119.069 7.74138 118.981 7.74138ZM139.074 4.90048H138.423C138.127 4.90048 137.89 5.13722 137.89 5.43315V13.1273C137.89 15.1396 136.529 16.4416 134.487 16.4416C132.416 16.4416 131.084 15.11 131.084 13.1273V5.43315C131.084 5.13722 130.847 4.90048 130.551 4.90048H129.9C129.604 4.90048 129.368 5.13722 129.368 5.43315V13.1273C129.368 16.0273 131.528 18.158 134.487 18.158C137.446 18.158 139.607 16.0865 139.607 13.1273V5.43315C139.607 5.13722 139.37 4.90048 139.074 4.90048C139.074 4.90048 139.104 4.90048 139.074 4.90048ZM153.278 4.57496C151.858 4.57496 150.526 5.25559 149.727 6.4393C148.928 5.28519 147.597 4.60455 146.176 4.60455C143.75 4.60455 141.767 6.58726 141.767 9.01386V17.4182C141.767 17.7141 142.004 17.9509 142.3 17.9509H142.951C143.247 17.9509 143.483 17.7141 143.483 17.4182V9.01386C143.483 7.50464 144.697 6.29134 146.206 6.29134C147.715 6.29134 148.928 7.50464 148.928 9.01386V17.4182C148.928 17.6845 149.136 17.9213 149.402 17.9509H150.053C150.349 17.9509 150.586 17.7141 150.586 17.4182V9.01386C150.586 7.50464 151.799 6.29134 153.308 6.29134C154.817 6.29134 156.031 7.50464 156.031 9.01386V17.4182C156.031 17.7141 156.267 17.9509 156.563 17.9509H157.214C157.51 17.9509 157.747 17.7141 157.747 17.4182V9.01386C157.658 6.55767 155.676 4.57496 153.278 4.57496ZM106.818 10.316C106.374 9.54654 105.753 8.8955 104.983 8.4516C104.184 8.00771 103.296 7.77098 102.409 7.77098C101.491 7.77098 100.603 8.00771 99.8044 8.4516C99.035 8.8955 98.384 9.54654 97.9401 10.316C97.4962 11.115 97.2595 12.0323 97.2595 12.9497C97.2595 13.8671 97.4666 14.7549 97.9105 15.5835C98.2952 16.3529 98.8871 16.9743 99.5973 17.4182C100.337 17.8621 101.166 18.0988 102.024 18.0988H102.231C102.823 18.0988 103.385 18.0101 103.918 17.8029L104.125 17.7437C104.273 17.6845 104.391 17.6254 104.539 17.5366L104.628 17.4774C105.042 17.2406 105.427 16.9151 105.753 16.56V17.4478C105.753 17.7437 105.989 18.0101 106.315 18.0101H106.995C107.291 18.0101 107.558 17.7733 107.558 17.4478V12.9497C107.499 12.0323 107.262 11.115 106.818 10.316ZM105.22 14.6957C104.362 16.2641 102.379 16.8559 100.811 15.9682C100.781 15.9386 100.751 15.9386 100.722 15.909C100.219 15.613 99.834 15.1987 99.5381 14.6661C99.2422 14.1334 99.0942 13.512 99.0942 12.9201C99.0942 12.2987 99.2422 11.6772 99.5381 11.1445C99.8044 10.6415 100.219 10.1976 100.722 9.90165C102.231 8.98427 104.214 9.45776 105.131 10.967C105.161 11.0262 105.19 11.0854 105.22 11.1445C105.516 11.6772 105.664 12.2987 105.634 12.9201C105.664 13.5416 105.516 14.163 105.22 14.6957ZM95.5135 4.0127H94.892C94.5961 4.0127 94.3594 4.24944 94.3594 4.54537V9.07305C93.4716 8.24446 92.3175 7.77097 91.1042 7.74138C88.3816 7.74138 86.1326 10.0792 86.1326 12.9497C86.103 15.5539 88.0265 17.7733 90.6307 18.0692C90.7786 18.0988 90.9562 18.0988 91.1042 18.0988C91.2521 18.0988 91.4297 18.0988 91.5777 18.0692C94.093 17.8325 96.0462 15.7314 96.0758 13.1864V4.51578C96.0462 4.27903 95.8094 4.0127 95.5135 4.0127ZM87.8194 12.9793C87.8194 11.0558 89.299 9.48735 91.0746 9.48735C92.8501 9.48735 94.3298 11.0558 94.3298 12.9793C94.3298 14.9028 92.8797 16.4416 91.0746 16.4416C89.2398 16.3529 87.7602 14.814 87.8194 12.9793ZM77.166 15.2875C76.9588 15.1396 76.6629 15.1692 76.4854 15.3763C75.9231 16.0273 75.1537 16.3233 74.1179 16.3233C72.4312 16.3233 70.9811 15.0508 70.8036 13.364H78.4681C78.764 13.364 79.0007 13.1273 79.0007 12.8313C79.0007 11.4405 78.4385 10.1088 77.4619 9.10265C76.5741 8.18527 75.3312 7.65261 74.0292 7.65261C71.3066 7.65261 69.0576 9.99042 69.0576 12.8609C68.9984 15.6426 71.2179 17.9509 73.9996 18.0101C74.0292 18.0101 74.0884 18.0101 74.1179 18.0101C75.6864 18.0101 76.9588 17.4478 77.817 16.412C77.9946 16.2049 77.965 15.8794 77.7578 15.7018C77.7578 15.7018 77.7579 15.7018 77.7283 15.6722L77.166 15.2875ZM73.9996 9.36898C75.3904 9.39857 76.6333 10.3455 77.0476 11.6772H70.9515C71.3658 10.3159 72.6087 9.39857 73.9996 9.36898ZM170.561 13.9559C170.324 13.8079 170.028 13.8967 169.88 14.1038C169.051 15.5243 167.572 16.3825 165.915 16.412C163.31 16.412 161.18 14.1334 161.18 11.3221C161.18 8.51079 163.31 6.26174 165.915 6.26174C167.601 6.26174 169.14 7.17912 169.969 8.65876C170.117 8.8955 170.413 8.98428 170.649 8.83632L171.271 8.51079C171.508 8.39242 171.626 8.0669 171.478 7.83016C171.478 7.83016 171.478 7.83016 171.478 7.80057C170.353 5.78826 168.252 4.54537 165.944 4.54537C162.393 4.54537 159.523 7.59342 159.523 11.3221C159.523 15.0508 162.423 18.0988 165.944 18.0988C168.164 18.0692 170.206 16.8855 171.36 14.962C171.508 14.7253 171.419 14.4293 171.182 14.2814L170.561 13.9559Z" fill="currentColor"/>
    <path d="M5.1936 3.46631V11.1937C5.1936 14.1457 5.71455 15.5132 6.69133 16.3164C7.32081 16.7939 8.03711 17.1412 8.77512 17.38V10.4774C8.75342 7.72072 7.42934 5.11598 5.1936 3.46631ZM13.4854 3.46631V11.1937C13.4854 14.1457 12.9644 15.5132 11.9876 16.3164C11.3582 16.7939 10.6419 17.1412 9.88214 17.38V10.4774C9.92555 7.72072 11.2496 5.11598 13.4854 3.46631Z" fill="currentColor"/>
    <path d="M9.33934 22.0902C14.2449 22.0902 18.2172 18.183 18.2172 13.0604V1.75146C16.9582 1.81658 15.7427 2.16388 14.6357 2.74995V12.0836C14.6357 18.2916 10.1642 18.4869 9.33934 18.4869C8.51451 18.4869 4.04303 18.2699 4.04303 12.0836V2.74995C2.93602 2.16388 1.72047 1.81658 0.461514 1.75146V13.0604C0.439808 18.183 4.43375 22.0902 9.33934 22.0902Z" fill="currentColor"/>
    <path d="M9.33912 6.24463C9.9686 4.98567 10.8585 3.85695 11.9439 2.967C11.2927 1.81657 10.4027 0.839794 9.33912 0.0800781C8.27551 0.839794 7.36385 1.81657 6.73438 2.967C7.81968 3.85695 8.70964 4.98567 9.33912 6.24463Z" fill="currentColor"/>
</svg>
