<svg width="42" height="40" viewBox="0 0 42 40" fill="none" xmlns="http://www.w3.org/2000/svg">
<path fill-rule="evenodd" clip-rule="evenodd" d="M29.6566 16.3283C29.6566 23.6893 23.6893 29.6566 16.3283 29.6566C8.96729 29.6566 3 23.6893 3 16.3283C3 8.96729 8.96729 3 16.3283 3C23.6893 3 29.6566 8.96729 29.6566 16.3283ZM32.6566 16.3283C32.6566 25.3462 25.3462 32.6566 16.3283 32.6566C7.31043 32.6566 0 25.3462 0 16.3283C0 7.31043 7.31043 0 16.3283 0C25.3462 0 32.6566 7.31043 32.6566 16.3283ZM33.5011 38.9496L36.5011 36.511L39.5 34.0732L41.8781 32.1402L39.5 30.2071L36.5011 27.7694L33.5011 25.3308V29.1969V29.2219C28.7648 29.7719 25.5588 31.5657 23.4503 33.9001C21.8295 35.6945 20.8573 37.8084 20.3372 39.9223C21.7151 38.3543 23.3469 37.1782 25.2909 36.3657C26.8239 35.7251 28.5511 35.3104 30.5011 35.1079C31.4475 35.0096 32.4464 34.9612 33.5011 34.9612V35.0835V37.9612V38.9496ZM37.122 32.1402L36.5011 32.6449V31.9612H35.9194L36.5011 31.8937V31.6355L37.122 32.1402Z" fill="url(#paint0_linear_2978_1418)"/>
<defs>
<linearGradient id="paint0_linear_2978_1418" x1="-1.43635e-06" y1="0.000114839" x2="37.0263" y2="46.8193" gradientUnits="userSpaceOnUse">
<stop stop-color="white"/>
<stop offset="0.585289" stop-color="white" stop-opacity="0.414711"/>
<stop offset="1" stop-color="white" stop-opacity="0"/>
</linearGradient>
</defs>
</svg>
