<svg width="32" height="34" viewBox="0 0 32 34" fill="none" xmlns="http://www.w3.org/2000/svg">
<mask id="path-1-inside-1_2978_1417" fill="white">
<path fill-rule="evenodd" clip-rule="evenodd" d="M28.9998 15.5021C28.9998 22.4056 23.4033 28.0021 16.4998 28.0021C9.5962 28.0021 3.99976 22.4056 3.99976 15.5021C3.99976 8.59852 9.5962 3.00208 16.4998 3.00208C23.4033 3.00208 28.9998 8.59852 28.9998 15.5021ZM31.9998 15.5021C31.9998 24.0625 25.0602 31.0021 16.4998 31.0021C13.0677 31.0021 9.89618 29.8866 7.32794 27.9985L3.62195 32.6067C3.10278 33.2522 2.15858 33.3547 1.51301 32.8355C0.867449 32.3164 0.764988 31.3721 1.28416 30.7266L5.09031 25.9938C2.55057 23.2334 0.999764 19.5488 0.999764 15.5021C0.999764 6.94166 7.93935 0.0020752 16.4998 0.0020752C25.0602 0.0020752 31.9998 6.94166 31.9998 15.5021Z"/>
</mask>
<path d="M7.32794 27.9985L9.10495 25.5814L6.79045 23.8798L4.99014 26.1184L7.32794 27.9985ZM3.62195 32.6067L5.95974 34.4868L5.95975 34.4868L3.62195 32.6067ZM1.51301 32.8355L3.3931 30.4977L3.39309 30.4977L1.51301 32.8355ZM1.28416 30.7266L3.62195 32.6067L3.62195 32.6067L1.28416 30.7266ZM5.09031 25.9938L7.4281 27.8739L9.04586 25.8623L7.29805 23.9626L5.09031 25.9938ZM16.4998 31.0021C25.0602 31.0021 31.9998 24.0625 31.9998 15.5021H25.9998C25.9998 20.7488 21.7465 25.0021 16.4998 25.0021V31.0021ZM0.999764 15.5021C0.999764 24.0625 7.93935 31.0021 16.4998 31.0021V25.0021C11.2531 25.0021 6.99976 20.7488 6.99976 15.5021H0.999764ZM16.4998 0.0020752C7.93935 0.0020752 0.999764 6.94166 0.999764 15.5021H6.99976C6.99976 10.2554 11.2531 6.00208 16.4998 6.00208V0.0020752ZM31.9998 15.5021C31.9998 6.94166 25.0602 0.0020752 16.4998 0.0020752V6.00208C21.7465 6.00208 25.9998 10.2554 25.9998 15.5021H31.9998ZM16.4998 34.0021C26.717 34.0021 34.9998 25.7193 34.9998 15.5021H28.9998C28.9998 22.4056 23.4033 28.0021 16.4998 28.0021V34.0021ZM5.55092 30.4155C8.61679 32.6695 12.407 34.0021 16.4998 34.0021V28.0021C13.7284 28.0021 11.1756 27.1037 9.10495 25.5814L5.55092 30.4155ZM4.99014 26.1184L1.28416 30.7266L5.95975 34.4868L9.66573 29.8785L4.99014 26.1184ZM1.28416 30.7266C1.80333 30.081 2.74753 29.9786 3.3931 30.4977L-0.367076 35.1733C1.56962 36.7308 4.40223 36.4234 5.95974 34.4868L1.28416 30.7266ZM3.39309 30.4977C4.03867 31.0169 4.14112 31.9611 3.62195 32.6067L-1.05363 28.8465C-2.61115 30.7832 -2.30377 33.6158 -0.367068 35.1733L3.39309 30.4977ZM3.62195 32.6067L7.4281 27.8739L2.75251 24.1137L-1.05363 28.8465L3.62195 32.6067ZM-2.00024 15.5021C-2.00024 20.3304 -0.146587 24.7327 2.88256 28.0251L7.29805 23.9626C5.24773 21.7341 3.99976 18.7672 3.99976 15.5021H-2.00024ZM16.4998 -2.99792C6.2825 -2.99792 -2.00024 5.28481 -2.00024 15.5021H3.99976C3.99976 8.59852 9.5962 3.00208 16.4998 3.00208V-2.99792ZM34.9998 15.5021C34.9998 5.28481 26.717 -2.99792 16.4998 -2.99792V3.00208C23.4033 3.00208 28.9998 8.59852 28.9998 15.5021H34.9998Z" fill="url(#paint0_linear_2978_1417)" mask="url(#path-1-inside-1_2978_1417)"/>
<defs>
<linearGradient id="paint0_linear_2978_1417" x1="0.953246" y1="0.0021702" x2="32.3333" y2="35.4132" gradientUnits="userSpaceOnUse">
<stop stop-color="white"/>
<stop offset="0.585289" stop-color="white" stop-opacity="0.414711"/>
<stop offset="1" stop-color="white" stop-opacity="0"/>
</linearGradient>
</defs>
</svg>
