<svg id="Laag_1" data-name="Laag 1" xmlns="http://www.w3.org/2000/svg" viewBox="0 0 191 51"><defs><style>.cls-1{fill:#fff;}</style></defs><path class="cls-1" d="M6.79,13.18V7.4a2.56,2.56,0,0,0-.45-1.6A1.87,1.87,0,0,0,4.8,5.23a1.83,1.83,0,0,0-1.17.39,2.63,2.63,0,0,0-.81,1,3.19,3.19,0,0,0-.28,1.15c0,.43,0,.82,0,1.17v4.23H1V4.08H2.3l.12,1.36a2.41,2.41,0,0,1,.49-.69,2.74,2.74,0,0,1,.68-.49A3.81,3.81,0,0,1,4.38,4a3.27,3.27,0,0,1,.8-.11,3,3,0,0,1,2.35.89,3.52,3.52,0,0,1,.79,2.46v6Z"/><path class="cls-1" d="M18.83,8.14v.5c0,.16,0,.32,0,.49H12.37a3.63,3.63,0,0,0,.23,1.25,2.88,2.88,0,0,0,.65,1,2.26,2.26,0,0,0,1.67.64,2.22,2.22,0,0,0,1.69-.59,2,2,0,0,0,.33-.41,2.55,2.55,0,0,0,.21-.58h1.5a3.15,3.15,0,0,1-.47,1.28,3.35,3.35,0,0,1-.94,1,4.12,4.12,0,0,1-1.08.5,4.23,4.23,0,0,1-1.24.18A3.89,3.89,0,0,1,13.19,13a3.74,3.74,0,0,1-1.29-1,4.25,4.25,0,0,1-.85-1.53,5.92,5.92,0,0,1-.28-1.85,7,7,0,0,1,.16-1.55,4.61,4.61,0,0,1,.54-1.36,3.91,3.91,0,0,1,1.37-1.37,3.84,3.84,0,0,1,2.06-.54,3.78,3.78,0,0,1,1.58.32A3.64,3.64,0,0,1,17.67,5a4.35,4.35,0,0,1,.85,1.41A4.9,4.9,0,0,1,18.83,8.14Zm-1.57-.32a3.79,3.79,0,0,0-.14-1A2.76,2.76,0,0,0,16.7,6,2,2,0,0,0,16,5.36a2.38,2.38,0,0,0-1.07-.22,2.42,2.42,0,0,0-1.08.23A2.49,2.49,0,0,0,13,6a2.55,2.55,0,0,0-.46.86,3.25,3.25,0,0,0-.17,1Z"/><path class="cls-1" d="M26,13.05a6.14,6.14,0,0,1-.75.17,5.49,5.49,0,0,1-1.07.08A3.07,3.07,0,0,1,23,13.09a2,2,0,0,1-.76-.56,2.07,2.07,0,0,1-.4-.78,3.5,3.5,0,0,1-.12-.91V5.39H19.94V4.08H21.7V1.76l1.53-.36V4.08h2.7V5.39h-2.7v5.27a1.27,1.27,0,0,0,.3.95,1.26,1.26,0,0,0,.92.29,4.78,4.78,0,0,0,.53,0l.5-.05.54-.09Z"/><path class="cls-1" d="M34.06,13.18V7.4a2.5,2.5,0,0,0-.46-1.6,2.17,2.17,0,0,0-2.71-.18,2.83,2.83,0,0,0-.81,1,3.41,3.41,0,0,0-.27,1.15c0,.43,0,.82,0,1.17v4.23H28.23V.19h1.53V5.28a2.83,2.83,0,0,1,1.15-1.07,3.43,3.43,0,0,1,1.51-.37,3,3,0,0,1,2.37.89,3.52,3.52,0,0,1,.8,2.46v6Z"/><path class="cls-1" d="M46.13,8.14v.5c0,.16,0,.32,0,.49H39.67a3.63,3.63,0,0,0,.23,1.25,2.88,2.88,0,0,0,.65,1,2.26,2.26,0,0,0,1.67.64,2.22,2.22,0,0,0,1.69-.59,2,2,0,0,0,.33-.41,2.55,2.55,0,0,0,.21-.58H46a3.15,3.15,0,0,1-.47,1.28,3.35,3.35,0,0,1-.94,1,4.12,4.12,0,0,1-1.08.5,4.23,4.23,0,0,1-1.24.18A3.89,3.89,0,0,1,40.49,13a3.74,3.74,0,0,1-1.29-1,4.25,4.25,0,0,1-.85-1.53,5.92,5.92,0,0,1-.28-1.85,7,7,0,0,1,.16-1.55,4.61,4.61,0,0,1,.54-1.36,3.91,3.91,0,0,1,1.37-1.37,3.85,3.85,0,0,1,2.07-.54,3.76,3.76,0,0,1,1.57.32A3.64,3.64,0,0,1,45,5a4.35,4.35,0,0,1,.85,1.41A4.9,4.9,0,0,1,46.13,8.14Zm-1.57-.32a3.79,3.79,0,0,0-.14-1A2.76,2.76,0,0,0,44,6a2,2,0,0,0-.73-.61,2.36,2.36,0,0,0-1.06-.22,2.44,2.44,0,0,0-1.09.23,2.49,2.49,0,0,0-.78.61,2.55,2.55,0,0,0-.46.86,3.25,3.25,0,0,0-.17,1Z"/><path class="cls-1" d="M53.61,5.57l-.43-.05a3.1,3.1,0,0,0-.42,0,2.27,2.27,0,0,0-1,.21,2.32,2.32,0,0,0-.74.51,2.12,2.12,0,0,0-.44.62,3.09,3.09,0,0,0-.26.74,5.47,5.47,0,0,0-.1.8q0,.39,0,.75v4H48.7V4.08h1.35l.12,1.6a2.44,2.44,0,0,1,1.11-1.25A3.32,3.32,0,0,1,52.89,4a4.37,4.37,0,0,1,.72.06Z"/><path class="cls-1" d="M58.53,13.18l-.26.05a4,4,0,0,1-.81.06A1.74,1.74,0,0,1,56,12.71a2.62,2.62,0,0,1-.45-1.65V.19h1.53V11a1.15,1.15,0,0,0,.18.7.78.78,0,0,0,.65.23h.5a.22.22,0,0,0,.12,0Z"/><path class="cls-1" d="M68.46,13.09a2.14,2.14,0,0,1-.48.17,2.82,2.82,0,0,1-.52,0,1.22,1.22,0,0,1-1-.4,1.47,1.47,0,0,1-.35-1h0A2.9,2.9,0,0,1,64.93,13a3.77,3.77,0,0,1-1.76.4,3.61,3.61,0,0,1-1.37-.24,2.93,2.93,0,0,1-1-.64,2.7,2.7,0,0,1-.59-.9,2.79,2.79,0,0,1-.19-1,3.1,3.1,0,0,1,.15-.92,2.34,2.34,0,0,1,.53-.89,3.05,3.05,0,0,1,1-.69,4.17,4.17,0,0,1,1.55-.35l2.77-.16V6.94A3.05,3.05,0,0,0,66,6.22a1.22,1.22,0,0,0-.39-.67A1.65,1.65,0,0,0,65,5.21a2.83,2.83,0,0,0-.91-.13,2.87,2.87,0,0,0-1,.16,1.73,1.73,0,0,0-.63.38A1.5,1.5,0,0,0,62,6.72H60.5a2.78,2.78,0,0,1,.22-1.09,2.83,2.83,0,0,1,.57-.81,2.77,2.77,0,0,1,1.21-.73,4.9,4.9,0,0,1,1.59-.25,3.9,3.9,0,0,1,2.11.5,2.72,2.72,0,0,1,1.09,1.25A3.53,3.53,0,0,1,67.56,7V11.4a.64.64,0,0,0,.14.48.49.49,0,0,0,.37.13h.12l.13,0,.14,0Zm-2.41-4.3-2.44.14a3.64,3.64,0,0,0-.71.12,2.2,2.2,0,0,0-.64.29,1.47,1.47,0,0,0-.47.49,1.45,1.45,0,0,0-.18.74A1.64,1.64,0,0,0,62,11.66a1.76,1.76,0,0,0,1.39.47,2.9,2.9,0,0,0,1-.17,2.25,2.25,0,0,0,.86-.56,2.53,2.53,0,0,0,.59-1,3.49,3.49,0,0,0,.18-1.11Z"/><path class="cls-1" d="M76.72,13.18V7.4a2.56,2.56,0,0,0-.46-1.6,2.17,2.17,0,0,0-2.71-.18,2.83,2.83,0,0,0-.81,1,3.41,3.41,0,0,0-.28,1.15c0,.43,0,.82,0,1.17v4.23H70.89V4.08h1.33l.13,1.36a2.38,2.38,0,0,1,.48-.69,2.79,2.79,0,0,1,.69-.49A3.61,3.61,0,0,1,74.31,4a3.2,3.2,0,0,1,.79-.11,3,3,0,0,1,2.35.89,3.52,3.52,0,0,1,.8,2.46v6Z"/><path class="cls-1" d="M87.42,13.18,87.31,12a2.5,2.5,0,0,1-1.17,1,3.52,3.52,0,0,1-1.55.37,4,4,0,0,1-1.48-.26A3.08,3.08,0,0,1,82,12.42a4.24,4.24,0,0,1-1-1.65,6.68,6.68,0,0,1-.33-2.12,6.83,6.83,0,0,1,.35-2.21,4.33,4.33,0,0,1,1-1.68,3.51,3.51,0,0,1,1.07-.66,3.76,3.76,0,0,1,1.43-.26,3.37,3.37,0,0,1,.77.09,3.82,3.82,0,0,1,.74.26,2.77,2.77,0,0,1,.66.4,2.07,2.07,0,0,1,.48.55V.19h1.53v13Zm-.09-4.55A5.73,5.73,0,0,0,87.11,7a2.59,2.59,0,0,0-.79-1.27,2.42,2.42,0,0,0-.62-.42,2,2,0,0,0-.85-.17,2.4,2.4,0,0,0-1.26.3,2.27,2.27,0,0,0-.79.81,3.46,3.46,0,0,0-.41,1.13,6.54,6.54,0,0,0-.12,1.25,6.62,6.62,0,0,0,.12,1.25A3.41,3.41,0,0,0,82.8,11a2.12,2.12,0,0,0,.79.81,2.31,2.31,0,0,0,1.26.31A2,2,0,0,0,85.7,12a2.74,2.74,0,0,0,.62-.43,2.52,2.52,0,0,0,.79-1.26A5.78,5.78,0,0,0,87.33,8.63Z"/><path class="cls-1" d="M98.86,10.53a2.71,2.71,0,0,1-.2,1.06,2.9,2.9,0,0,1-.52.8,3,3,0,0,1-1.3.78,6,6,0,0,1-3.29,0,3.15,3.15,0,0,1-1.33-.8,3.06,3.06,0,0,1-.65-1,2.91,2.91,0,0,1-.23-1.12h1.53a1.81,1.81,0,0,0,.21.82,2.13,2.13,0,0,0,.52.6,1.69,1.69,0,0,0,.76.32,3.81,3.81,0,0,0,.88.09,4.26,4.26,0,0,0,.89-.09,1.84,1.84,0,0,0,.78-.41,1.07,1.07,0,0,0,.33-.41,1.4,1.4,0,0,0,.12-.58A1.13,1.13,0,0,0,97,9.78a1.82,1.82,0,0,0-1.06-.43l-.39-.06L95,9.22l-.59-.07-.53-.07a2.88,2.88,0,0,1-1.63-.78,2.31,2.31,0,0,1-.6-1.67,2.32,2.32,0,0,1,.23-1,2.82,2.82,0,0,1,.53-.78,3.13,3.13,0,0,1,1.13-.74,4.2,4.2,0,0,1,1.55-.27,4.68,4.68,0,0,1,1.67.29A2.79,2.79,0,0,1,98,5a2.83,2.83,0,0,1,.48.77,2.59,2.59,0,0,1,.17,1H97.11a1.61,1.61,0,0,0-.17-.66,1.75,1.75,0,0,0-.35-.47,2.13,2.13,0,0,0-1.49-.49l-.51,0A1.81,1.81,0,0,0,94,5.3a1.55,1.55,0,0,0-.68.51,1.21,1.21,0,0,0-.24.71,1,1,0,0,0,.32.84,2,2,0,0,0,.9.35l.92.12c.36,0,.78.1,1.28.19a3,3,0,0,1,1.64.82A2.29,2.29,0,0,1,98.86,10.53Z"/><path class="cls-1" d="M118.05,39.08a6.58,6.58,0,0,1-.34,1.7,5.16,5.16,0,0,1-.78,1.47,6.36,6.36,0,0,1-2,1.63,6.21,6.21,0,0,1-3,.67,6.38,6.38,0,0,1-3-.69,6.53,6.53,0,0,1-2.07-1.61,7.23,7.23,0,0,1-1.21-2.38,11.31,11.31,0,0,1,0-5.89,7.14,7.14,0,0,1,1.21-2.38,6.52,6.52,0,0,1,5.07-2.3,6.21,6.21,0,0,1,3,.67,6.36,6.36,0,0,1,2,1.63,5.16,5.16,0,0,1,.78,1.47,6.5,6.5,0,0,1,.34,1.69H114.6a3.37,3.37,0,0,0-.14-.73,3.78,3.78,0,0,0-.28-.61,2.47,2.47,0,0,0-.87-.79,2.9,2.9,0,0,0-1.38-.31,2.77,2.77,0,0,0-1.24.26,3.07,3.07,0,0,0-.89.64A3.23,3.23,0,0,0,109,34.9a12.24,12.24,0,0,0-.17,2,12,12,0,0,0,.17,2,3.24,3.24,0,0,0,.81,1.67,3.1,3.1,0,0,0,.89.65,2.64,2.64,0,0,0,1.24.27,2.79,2.79,0,0,0,1.38-.31,2.36,2.36,0,0,0,.87-.78,3.89,3.89,0,0,0,.28-.62,3.26,3.26,0,0,0,.14-.73Z"/><path class="cls-1" d="M144,44.24V35.3a3.55,3.55,0,0,0-.5-2,2.16,2.16,0,0,0-1.91-.73,2.28,2.28,0,0,0-1.54.52,3.61,3.61,0,0,0-1,1.33,5,5,0,0,0-.42,1.89q-.06,1.08-.06,2v5.94h-3.5V29.66H138l.25,1.88a3.94,3.94,0,0,1,1.84-1.7,5.86,5.86,0,0,1,2.45-.54,5.26,5.26,0,0,1,2.09.39,4.37,4.37,0,0,1,1.54,1.08,4.68,4.68,0,0,1,1,1.65,6.45,6.45,0,0,1,.34,2.09v9.73Z"/><path class="cls-1" d="M159,44a11.46,11.46,0,0,1-3,.4,4.27,4.27,0,0,1-3.3-1.19,4.71,4.71,0,0,1-1.1-3.3v-7.4h-2.66V29.66h2.66V26l3.51-.87v4.57h3.67v2.89h-3.67v7.09a1.64,1.64,0,0,0,.39,1.22,1.72,1.72,0,0,0,1.23.38q.57,0,1,0c.33,0,.74-.05,1.22-.11Z"/><path class="cls-1" d="M183.94,32.91a6,6,0,0,0-1.21-.14,3.4,3.4,0,0,0-2.8,1.18,4.52,4.52,0,0,0-1,2.94v7.35h-3.53V29.66h3l.31,2.19A3.29,3.29,0,0,1,180.39,30a5.51,5.51,0,0,1,2.45-.57,7,7,0,0,1,1.1.09Z"/><path class="cls-1" d="M3.24,32.94a2.58,2.58,0,0,0-.91-.62A3.66,3.66,0,0,0,1,32.1H1v3.39H4.14A3.76,3.76,0,0,0,3.24,32.94Z"/><path class="cls-1" d="M55.86,32.32a3.66,3.66,0,0,0-1.31-.22,3.1,3.1,0,0,0-1.43.31,3,3,0,0,0-1,.81,3.27,3.27,0,0,0-.56,1,5.06,5.06,0,0,0-.19,1.26h6.31a3.76,3.76,0,0,0-.9-2.55A2.58,2.58,0,0,0,55.86,32.32Z"/><path class="cls-1" d="M96.47,33.22a3.08,3.08,0,0,0-.56,1,4.64,4.64,0,0,0-.19,1.26h3.14V32.1a3.18,3.18,0,0,0-1.38.31A2.9,2.9,0,0,0,96.47,33.22Z"/><path class="cls-1" d="M96,39.64a3,3,0,0,0,.8,1.26,3.8,3.8,0,0,0,.91.64,2.82,2.82,0,0,0,1.14.26V38H95.74A4.67,4.67,0,0,0,96,39.64Z"/><path class="cls-1" d="M96.4,44.11a6.75,6.75,0,0,1-2-1.3,7,7,0,0,1-1.67-2.55A8.86,8.86,0,0,1,92.18,37a10.1,10.1,0,0,1,.52-3.27,6.56,6.56,0,0,1,1.59-2.56,6.16,6.16,0,0,1,2-1.35,6.62,6.62,0,0,1,2.6-.5V26.17a6,6,0,0,0-6-6H1V29.3h.08a7,7,0,0,1,3,.66,5.46,5.46,0,0,1,2.3,2,6.43,6.43,0,0,1,1,2.45,14.88,14.88,0,0,1,.22,2.45V38H1V41.8h.11a4.4,4.4,0,0,0,1.25-.15,2.17,2.17,0,0,0,.88-.55,2.7,2.7,0,0,0,.7-1.23H7.28a4.13,4.13,0,0,1-.44,1.41A6.28,6.28,0,0,1,6,42.56a5.2,5.2,0,0,1-2.21,1.57,7.66,7.66,0,0,1-2.69.48H1a6,6,0,0,0,6,5.85H98.86V44.6A6.37,6.37,0,0,1,96.4,44.11ZM24.54,40.74a6,6,0,0,1-1.19,1.73,6.45,6.45,0,0,1-2.79,1.64,12.07,12.07,0,0,1-3.49.5,11,11,0,0,1-3.16-.47,7.07,7.07,0,0,1-2.79-1.58,6.48,6.48,0,0,1-1.48-2,5.7,5.7,0,0,1-.59-2.62h3.7A3.25,3.25,0,0,0,13,39.29a3.85,3.85,0,0,0,.75,1.08,3.14,3.14,0,0,0,1.55.86,7.93,7.93,0,0,0,3.75,0,3.07,3.07,0,0,0,1.48-.83,3.68,3.68,0,0,0,.56-.77,2.35,2.35,0,0,0,.23-1.13,2,2,0,0,0-.72-1.65A3.74,3.74,0,0,0,19,36.11a19.27,19.27,0,0,0-2.21-.28c-.81-.06-1.54-.14-2.19-.25A7.48,7.48,0,0,1,12.65,35a5.46,5.46,0,0,1-1.6-1.11A5.1,5.1,0,0,1,10,32.23,5.68,5.68,0,0,1,9.55,30,4.82,4.82,0,0,1,10,27.87a6.49,6.49,0,0,1,1.26-1.77,6.8,6.8,0,0,1,2.52-1.54,10,10,0,0,1,6.38-.07,6.68,6.68,0,0,1,2.48,1.44,7,7,0,0,1,1.45,1.91,5.34,5.34,0,0,1,.57,2.33H21a3.11,3.11,0,0,0-.26-1.06,3.54,3.54,0,0,0-.61-.91,3.21,3.21,0,0,0-1.34-.78,5.39,5.39,0,0,0-1.69-.28,6.94,6.94,0,0,0-1.72.22,3.08,3.08,0,0,0-1.5.87,2.83,2.83,0,0,0-.49.73,2.27,2.27,0,0,0-.18.95,1.9,1.9,0,0,0,.56,1.5,2.64,2.64,0,0,0,1.46.66c.63.1,1.35.18,2.14.25s1.52.16,2.17.26a8.22,8.22,0,0,1,2.12.6,5.92,5.92,0,0,1,1.74,1.15,5.37,5.37,0,0,1,1.18,1.72A5.71,5.71,0,0,1,25,38.32,5.77,5.77,0,0,1,24.54,40.74Zm5.9-1.81a3.24,3.24,0,0,0,.81,1.67,3.33,3.33,0,0,0,.89.66,3.16,3.16,0,0,0,2.62,0,2.36,2.36,0,0,0,.87-.78,3.53,3.53,0,0,0,.28-.62,3.26,3.26,0,0,0,.14-.73H39.5a6.58,6.58,0,0,1-.34,1.7,5.16,5.16,0,0,1-.78,1.47,6.36,6.36,0,0,1-2,1.63,6.21,6.21,0,0,1-3,.67,6.38,6.38,0,0,1-3-.69,6.53,6.53,0,0,1-2.07-1.61,7.23,7.23,0,0,1-1.21-2.38,11.31,11.31,0,0,1,0-5.89,7.14,7.14,0,0,1,1.21-2.38,6.52,6.52,0,0,1,5.07-2.3,6.21,6.21,0,0,1,3,.67,6.36,6.36,0,0,1,2,1.63,5.16,5.16,0,0,1,.78,1.47,6.59,6.59,0,0,1,.34,1.69H36.05a3.17,3.17,0,0,0-.14-.72,3.53,3.53,0,0,0-.28-.62,2.47,2.47,0,0,0-.87-.79,2.9,2.9,0,0,0-1.38-.31,2.77,2.77,0,0,0-1.24.26,3.07,3.07,0,0,0-.89.64,3.23,3.23,0,0,0-.81,1.68,12.24,12.24,0,0,0-.17,2A12,12,0,0,0,30.44,38.93Zm14.92,5.31H41.8V29.66h3.56Zm.08-16.6H41.68V24h3.76ZM61.17,38H51.39a4.67,4.67,0,0,0,.26,1.6,3.14,3.14,0,0,0,.8,1.26,4,4,0,0,0,.91.64,2.81,2.81,0,0,0,1.25.26,4.4,4.4,0,0,0,1.25-.15,2.17,2.17,0,0,0,.88-.55,2.7,2.7,0,0,0,.7-1.23h3.37a4.13,4.13,0,0,1-.44,1.41,6.28,6.28,0,0,1-.8,1.28,5.2,5.2,0,0,1-2.21,1.57,7.66,7.66,0,0,1-2.69.48,6.43,6.43,0,0,1-2.63-.5,6.68,6.68,0,0,1-3.64-3.85A9.07,9.07,0,0,1,47.82,37a10.1,10.1,0,0,1,.52-3.27,6.68,6.68,0,0,1,1.59-2.56,6.16,6.16,0,0,1,2-1.35,6.64,6.64,0,0,1,2.68-.5,7,7,0,0,1,3,.66,5.46,5.46,0,0,1,2.3,2,6.43,6.43,0,0,1,1,2.45,14.88,14.88,0,0,1,.22,2.45V38ZM76,44.24H72.47V35.3a3.55,3.55,0,0,0-.5-2,2.18,2.18,0,0,0-1.91-.73,2.28,2.28,0,0,0-1.54.52,3.61,3.61,0,0,0-1,1.33,5,5,0,0,0-.42,1.89q-.06,1.08-.06,2v5.94H63.55V29.66h3l.25,1.88a3.94,3.94,0,0,1,1.84-1.7A5.86,5.86,0,0,1,71,29.3a5.26,5.26,0,0,1,2.09.39,4.37,4.37,0,0,1,1.54,1.08,4.83,4.83,0,0,1,1,1.65A6.45,6.45,0,0,1,76,34.51Zm5.94-5.31a3.24,3.24,0,0,0,.81,1.67,3.18,3.18,0,0,0,.89.66,3.16,3.16,0,0,0,2.62,0,2.36,2.36,0,0,0,.87-.78,3.53,3.53,0,0,0,.28-.62,3.26,3.26,0,0,0,.14-.73H91a6.58,6.58,0,0,1-.34,1.7,5,5,0,0,1-.79,1.47,6.27,6.27,0,0,1-5,2.3,6.61,6.61,0,0,1-5.07-2.3,7,7,0,0,1-1.21-2.38,11.31,11.31,0,0,1,0-5.89,7,7,0,0,1,1.21-2.38,6.52,6.52,0,0,1,5.07-2.3,6.27,6.27,0,0,1,5,2.3,5,5,0,0,1,.79,1.47A6.59,6.59,0,0,1,91,34.76H87.53a3.17,3.17,0,0,0-.14-.72,3.53,3.53,0,0,0-.28-.62,2.47,2.47,0,0,0-.87-.79,2.9,2.9,0,0,0-1.38-.31,2.77,2.77,0,0,0-1.24.26,2.94,2.94,0,0,0-.89.64,3.23,3.23,0,0,0-.81,1.68,12.24,12.24,0,0,0-.17,2A12,12,0,0,0,81.92,38.93Z"/><path class="cls-1" d="M132.69,36.89a14.88,14.88,0,0,0-.22-2.45,6.41,6.41,0,0,0-1-2.45,5.46,5.46,0,0,0-2.3-2,7.06,7.06,0,0,0-3-.66,6.64,6.64,0,0,0-2.68.5,6.2,6.2,0,0,0-2,1.35,6.54,6.54,0,0,0-1.58,2.56,9.84,9.84,0,0,0-.52,3.27,8.86,8.86,0,0,0,.58,3.28,6.6,6.6,0,0,0,3.64,3.85,6.38,6.38,0,0,0,2.62.5,7.62,7.62,0,0,0,2.69-.48,5.29,5.29,0,0,0,2.22-1.57,6.28,6.28,0,0,0,.8-1.28,4.09,4.09,0,0,0,.43-1.41H129a2.79,2.79,0,0,1-.7,1.23,2.21,2.21,0,0,1-.89.55,4.28,4.28,0,0,1-1.24.15,2.78,2.78,0,0,1-1.25-.26,3.8,3.8,0,0,1-.91-.64,3,3,0,0,1-.8-1.26,4.67,4.67,0,0,1-.27-1.6h9.79Zm-9.81-1.4a5,5,0,0,1,.2-1.26,3.08,3.08,0,0,1,.56-1,2.9,2.9,0,0,1,1-.81,3.1,3.1,0,0,1,1.43-.31,3.61,3.61,0,0,1,1.3.22,2.49,2.49,0,0,1,.91.62,3.76,3.76,0,0,1,.9,2.55Z"/><path class="cls-1" d="M173.08,36.89a14.88,14.88,0,0,0-.22-2.45,6.28,6.28,0,0,0-1-2.45,5.35,5.35,0,0,0-2.3-2,7,7,0,0,0-3-.66,6.61,6.61,0,0,0-2.68.5,6.1,6.1,0,0,0-2,1.35,6.54,6.54,0,0,0-1.58,2.56,9.84,9.84,0,0,0-.52,3.27,9.07,9.07,0,0,0,.57,3.28A7.15,7.15,0,0,0,162,42.81a6.93,6.93,0,0,0,2,1.3,6.38,6.38,0,0,0,2.62.5,7.62,7.62,0,0,0,2.69-.48,5.29,5.29,0,0,0,2.22-1.57,6.75,6.75,0,0,0,.8-1.28,4.09,4.09,0,0,0,.43-1.41h-3.36a2.79,2.79,0,0,1-.7,1.23,2.21,2.21,0,0,1-.89.55,4.31,4.31,0,0,1-1.25.15,2.77,2.77,0,0,1-1.24-.26,3.8,3.8,0,0,1-.91-.64,2.94,2.94,0,0,1-.8-1.26,4.67,4.67,0,0,1-.27-1.6h9.79Zm-9.81-1.4a5,5,0,0,1,.2-1.26,3.08,3.08,0,0,1,.56-1,2.9,2.9,0,0,1,1-.81,3.1,3.1,0,0,1,1.43-.31,3.61,3.61,0,0,1,1.3.22,2.49,2.49,0,0,1,.91.62,3.76,3.76,0,0,1,.9,2.55Z"/></svg>