<?xml version="1.0" encoding="UTF-8"?><svg id="Layer_1" xmlns="http://www.w3.org/2000/svg" viewBox="0 0 16 16"><defs><style>.cls-1{fill:#e95420;;}.cls-2{fill:#fff;}</style></defs><rect class="cls-1" width="16" height="16"/><g><path class="cls-2" d="M15.69,5.56l-1.4-2.83s-.07-.08-.12-.08h-5.63c-.06,0-.12,.05-.13,.11-.01,.06,.02,.13,.08,.15l7.04,2.83s.03,0,.05,0c.04,0,.07-.02,.1-.04,.04-.04,.05-.1,.02-.15Z"/><path class="cls-2" d="M11.81,5.21L.39,.44s-.06,0-.08,.02c-.02,.03-.02,.06,0,.09l7.73,8.27s.03,.02,.05,.02h0s.03,0,.05-.02l3.69-3.5s.02-.04,.02-.06c0-.02-.02-.04-.04-.05Z"/><path class="cls-2" d="M5.54,7.46s-.04-.03-.06-.02c-.02,0-.04,.02-.05,.04L1.42,15.25s0,.07,.02,.09c.01,0,.03,.01,.04,.01,.02,0,.04,0,.05-.02l5.71-5.85s.03-.07,0-.09l-1.7-1.93Z"/></g></svg>