<svg xmlns="http://www.w3.org/2000/svg" xmlns:xlink="http://www.w3.org/1999/xlink" viewBox="0 0 200 173"><defs><style>.a{fill:none;}.b{clip-path:url(#a);}.c{fill:#1b1c30;}.d{clip-path:url(#c);}.e{fill:url(#d);}</style><clipPath id="a"><rect class="a" x="14.6673" y="11.0446" width="170.6654" height="150.9109"/></clipPath><clipPath id="c"><path class="a" d="M69.8146,77.3481V42.49L100,25.0605,130.1864,42.49V77.3481L100,94.7666ZM100,11.0446,57.675,35.4817V84.356L100,108.7932,142.324,84.356V35.4817Z"/></clipPath><linearGradient id="d" x1="1572.1226" y1="-3377.6559" x2="1573.1892" y2="-3377.6559" gradientTransform="matrix(0, 118.6204, -118.6204, 0, -400558.8972, -186507.8249)" gradientUnits="userSpaceOnUse"><stop offset="0" stop-color="#8002ef"/><stop offset="1" stop-color="#4ba9ea"/></linearGradient></defs><g class="b"><g class="b"><path class="c" d="M16.7262,147.5769a10.6676,10.6676,0,0,0,7.0186,2.912c2.6986,0,4.0639-.992,4.0639-2.528,0-1.8027-2.1333-2.4427-4.7039-2.9973-3.552-.736-7.7973-1.6534-7.7973-6.304,0-3.3813,2.912-6.2933,8.1386-6.2933a11.8181,11.8181,0,0,1,8.0533,2.912l-1.888,3.2a8.3133,8.3133,0,0,0-6.1226-2.4853c-2.3573,0-3.8507.8533-3.8507,2.3146s2.048,2.1333,4.4907,2.6987c3.5946.768,8.0106,1.792,8.0106,6.6773,0,3.6373-3.04,6.4-8.608,6.4a12.5713,12.5713,0,0,1-8.8639-3.2Z"/><path class="c" d="M34.4006,143.1925c0-5.9093,4.0746-10.8255,10.6666-10.8255s10.6666,4.9162,10.6666,10.8255-4.032,10.88-10.6666,10.88-10.6666-4.928-10.6666-10.88m16.6185,0c0-3.6362-2.1333-6.848-5.9946-6.848s-5.9519,3.2-5.9519,6.848,2.1333,6.9023,5.9519,6.9023,5.9946-3.2117,5.9946-6.9023"/><path class="c" d="M73.195,140.6227c0-3.2-1.6214-4.2666-4.1493-4.2666a6.7832,6.7832,0,0,0-5.3333,2.7829v14.4329h-4.48V132.8777h4.5013v2.8277a9.7434,9.7434,0,0,1,7.2746-3.3386c4.4586,0,6.688,2.3893,6.688,6.6335v14.561H73.195Z"/><path class="c" d="M95.488,151.3312a8.7037,8.7037,0,0,1-6.6773,2.7413c-3.3813,0-7.2-2.272-7.2-6.8479,0-4.7573,3.8186-6.73,7.2-6.73A8.5336,8.5336,0,0,1,95.488,143.15v-3.04c0-2.4-1.9626-3.8507-4.8319-3.8507a8.5383,8.5383,0,0,0-6.1333,2.6133l-1.8347-3.1253a12.2949,12.2949,0,0,1,8.6933-3.3376c4.576,0,8.6079,1.919,8.6079,7.4667v13.7055H95.488Zm0-5.6106a6.0694,6.0694,0,0,0-4.9279-2.1333c-2.5174,0-4.4053,1.4613-4.4053,3.7333s1.8879,3.68,4.4053,3.68a6.0354,6.0354,0,0,0,4.9279-2.1333Z"/><path class="c" d="M106.7093,148.7612V136.8146h-3.424v-3.937h3.424v-5.6522H111.2v5.6522h4.2026v3.937H111.2v10.8373c0,1.4069.6933,2.4426,1.9733,2.4426a2.8776,2.8776,0,0,0,2.016-.736l1.0667,3.3909a5.934,5.934,0,0,1-4.2667,1.3227c-3.4559,0-5.28-1.8869-5.28-5.3109"/><path class="c" d="M121.8988,157.9664a2.8168,2.8168,0,0,0,2.9547-1.7931l1.0666-2.3573-8.5332-20.9385h4.8l6.0373,15.5,6.0373-15.5h4.832L129.12,157.2826c-1.408,3.5093-3.8933,4.63-7.105,4.6731a12.6322,12.6322,0,0,1-2.528-.2987l.6837-4.032a4.7017,4.7017,0,0,0,1.728.3414"/><path class="c" d="M141.28,161.4431V132.878h4.4907v2.8267a8.2521,8.2521,0,0,1,6.6335-3.3376c5.3333,0,9.1743,4.02,9.1743,10.8255s-3.8186,10.88-9.1743,10.88a8.1223,8.1223,0,0,1-6.6335-3.3813v10.7519Zm9.8016-25.0985a6.713,6.713,0,0,0-5.3333,2.784V147.31a6.8607,6.8607,0,0,0,5.3333,2.785c3.5519,0,5.8239-2.87,5.8239-6.9023s-2.272-6.848-5.8239-6.848"/><path class="c" d="M175.1461,132.3664c6.208,0,10.1866,4.7467,10.1866,11.2533v1.0666h-16a6.2626,6.2626,0,0,0,6.592,5.696,8.7919,8.7919,0,0,0,5.8666-2.272l2.048,2.9536a12.0118,12.0118,0,0,1-8.384,2.9984,10.8586,10.8586,0,0,1-.3413-21.7065Zm-5.8133,9.1626h11.6479a5.5458,5.5458,0,0,0-5.6031-5.489q-.11,0-.2208.0064a5.6955,5.6955,0,0,0-5.824,5.4826"/></g><g class="d"><rect class="e" x="35.4388" y="-3.4844" width="129.1212" height="126.8065" transform="translate(-8.6527 102.1667) rotate(-52.1775)"/></g></g></svg>