<svg viewBox="0 0 142 21" fill="none" xmlns="http://www.w3.org/2000/svg">
    <path d="M10.2365 0.857422H13.8856V20.0152H10.2365V12.2608H3.66814V20.0152H0.019043V0.857422H3.66814V8.61175H10.2365V0.857422ZM19.9066 0.857422C19.7241 0.857422 19.5417 0.94865 19.4505 1.03988L18.2645 2.22583C18.1733 2.31706 18.0821 2.49951 18.0821 2.68197V18.1906C18.0821 18.3731 18.1733 18.5555 18.2645 18.6468L19.4505 19.8327C19.5417 19.9239 19.7241 20.0152 19.9066 20.0152H30.2153V16.3661H21.8224V12.3521H29.1206V8.70297H21.8224V4.50652H30.2153V0.857422H19.9066ZM35.6889 20.0152H44.2643V16.3661H37.6047V0.857422H33.9556V18.1906C33.9556 18.3731 34.0468 18.5555 34.1381 18.6468L35.324 19.8327C35.324 19.9239 35.5065 20.0152 35.6889 20.0152V20.0152ZM71.7237 8.61175V0.857422H68.0746V20.0152H71.7237V12.2608H78.2921V20.0152H81.9412V0.857422H78.2921V8.61175H71.7237ZM96.1726 14.5415C96.1726 14.724 96.0814 14.8152 95.9902 14.9977L94.8042 16.1836C94.713 16.2748 94.5306 16.3661 94.3481 16.3661H91.0639C90.8815 16.3661 90.699 16.2748 90.6078 16.1836L89.4218 14.9977C89.3306 14.9064 89.2394 14.724 89.2394 14.5415V6.33106C89.2394 6.14861 89.3306 5.96615 89.4218 5.87493L90.6078 4.68897C90.699 4.59774 90.8815 4.50652 91.0639 4.50652H94.3481C94.5306 4.50652 94.713 4.59774 94.8042 4.68897L95.9902 5.87493C96.0814 5.96615 96.1726 6.14861 96.1726 6.33106V14.5415ZM96.9937 1.7697C96.4463 1.22233 95.6253 0.857422 94.8042 0.857422H90.5166C89.6955 0.857422 88.8745 1.22233 88.3271 1.7697L86.4113 3.68547C85.864 4.23283 85.4991 5.05388 85.4991 5.87493V15.0889C85.4991 15.9099 85.864 16.6398 86.4113 17.2783L88.3271 19.1941C88.8745 19.7415 89.6955 20.1064 90.5166 20.1064H94.8042C95.6253 20.1064 96.3551 19.7415 96.9937 19.1941L98.9095 17.2783C99.4568 16.731 99.8217 15.9099 99.8217 15.0889V5.87493C99.8217 5.05388 99.4568 4.32406 98.9095 3.68547L96.9937 1.7697ZM105.204 20.0152H113.871V16.3661H107.029V0.857422H103.38V18.1906C103.38 18.3731 103.471 18.5555 103.562 18.6468L104.748 19.8327C104.839 19.9239 105.022 20.0152 105.204 20.0152ZM118.067 4.50652V20.0152H121.716V4.50652H126.825V0.857422H112.958V4.50652H118.067ZM139.962 1.03988C139.871 0.94865 139.688 0.857422 139.506 0.857422H128.741V4.50652H136.313L128.376 17.0959V18.1906C128.376 18.3731 128.467 18.4643 128.558 18.6468L129.744 19.8327C129.836 19.9239 130.018 20.0152 130.2 20.0152H141.148V16.3661H133.211L141.239 3.59424V2.68197C141.239 2.49951 141.148 2.40829 141.056 2.22583L139.962 1.03988ZM60.2291 0.857422L55.1204 9.70647L50.0116 0.857422H46.4538V20.0152H50.1028V8.15561L53.387 13.9029C53.4783 14.0854 53.6607 14.1766 53.9344 14.1766H56.2151C56.3975 14.1766 56.6712 14.0854 56.7624 13.9029L60.0466 8.24684V20.0152H63.6957V0.857422H60.2291Z" fill="currentColor"/>
</svg>
