<svg width="360"  viewBox="0 0 386 31" fill="none" xmlns="http://www.w3.org/2000/svg">
    <path d="M47.3248 24.6572V6.69819H53.393C54.7961 6.69819 55.9478 6.93788 56.848 7.41725C57.7483 7.89078 58.4148 8.54261 58.8474 9.37275C59.28 10.2029 59.4963 11.147 59.4963 12.2052C59.4963 13.2633 59.28 14.2016 58.8474 15.02C58.4148 15.8385 57.7513 16.4815 56.8568 16.9492C55.9624 17.4111 54.8195 17.642 53.4281 17.642H48.5174V15.6777H53.358C54.3167 15.6777 55.0884 15.5374 55.673 15.2568C56.2634 14.9762 56.6902 14.5787 56.9533 14.0642C57.2222 13.5439 57.3567 12.9242 57.3567 12.2052C57.3567 11.4861 57.2222 10.8576 56.9533 10.3198C56.6844 9.78197 56.2547 9.36691 55.6642 9.0746C55.0738 8.77646 54.2933 8.62738 53.3229 8.62738H49.4996V24.6572H47.3248ZM55.7782 16.5897L60.1978 24.6572H57.6723L53.3229 16.5897H55.7782ZM68.589 24.9378C67.2912 24.9378 66.1717 24.6514 65.2305 24.0785C64.2951 23.4997 63.5731 22.693 63.0645 21.6582C62.5618 20.6176 62.3104 19.4075 62.3104 18.0278C62.3104 16.6481 62.5618 15.4322 63.0645 14.3799C63.5731 13.3218 64.2805 12.4975 65.1866 11.907C66.0986 11.3107 67.1626 11.0126 68.3786 11.0126C69.0801 11.0126 69.7729 11.1295 70.4568 11.3633C71.1408 11.5972 71.7634 11.9772 72.3246 12.5033C72.8859 13.0236 73.3331 13.7134 73.6663 14.5728C73.9995 15.4322 74.1662 16.4903 74.1662 17.7472V18.6241H63.7836V16.8352H72.0616C72.0616 16.0752 71.9096 15.3971 71.6056 14.8008C71.3074 14.2045 70.8807 13.7339 70.3253 13.389C69.7758 13.0441 69.1269 12.8716 68.3786 12.8716C67.5543 12.8716 66.8411 13.0762 66.2389 13.4854C65.6426 13.8888 65.1837 14.415 64.8622 15.0639C64.5406 15.7128 64.3799 16.4085 64.3799 17.1509V18.3435C64.3799 19.3607 64.5553 20.223 64.906 20.9304C65.2626 21.6319 65.7566 22.1668 66.388 22.5351C67.0194 22.8976 67.753 23.0788 68.589 23.0788C69.1327 23.0788 69.6238 23.0028 70.0622 22.8508C70.5065 22.693 70.8894 22.4591 71.211 22.1493C71.5325 21.8336 71.781 21.4419 71.9563 20.9742L73.9557 21.5354C73.7452 22.2136 73.3916 22.8099 72.8946 23.3243C72.3977 23.8329 71.7839 24.2305 71.0531 24.5169C70.3224 24.7975 69.501 24.9378 68.589 24.9378ZM87.1019 14.2045L85.2429 14.7306C85.126 14.4208 84.9535 14.1197 84.7255 13.8274C84.5034 13.5293 84.1994 13.2838 83.8135 13.0908C83.4277 12.8979 82.9337 12.8015 82.3316 12.8015C81.5073 12.8015 80.8204 12.9915 80.2708 13.3714C79.7271 13.7456 79.4553 14.222 79.4553 14.8008C79.4553 15.3153 79.6424 15.7216 80.0165 16.0197C80.3907 16.3178 80.9753 16.5663 81.7703 16.7651L83.7697 17.2561C84.974 17.5484 85.8713 17.9957 86.4618 18.5978C87.0522 19.1941 87.3475 19.9629 87.3475 20.9041C87.3475 21.6757 87.1253 22.3656 86.681 22.9736C86.2426 23.5816 85.6287 24.0609 84.8395 24.4117C84.0503 24.7625 83.1325 24.9378 82.086 24.9378C80.7122 24.9378 79.5751 24.6397 78.6749 24.0434C77.7746 23.4471 77.2046 22.576 76.9649 21.4302L78.9292 20.9391C79.1162 21.6641 79.4699 22.2077 79.9902 22.5702C80.5164 22.9326 81.2033 23.1139 82.0509 23.1139C83.0155 23.1139 83.7814 22.9093 84.3484 22.5C84.9213 22.085 85.2078 21.5881 85.2078 21.0093C85.2078 20.5416 85.0441 20.1499 84.7167 19.8342C84.3894 19.5127 83.8866 19.273 83.2085 19.1152L80.9636 18.589C79.7301 18.2967 78.8239 17.8437 78.2452 17.2298C77.6723 16.6102 77.3858 15.8356 77.3858 14.906C77.3858 14.146 77.5992 13.4737 78.0259 12.8891C78.4585 12.3045 79.0461 11.8456 79.7885 11.5124C80.5368 11.1792 81.3845 11.0126 82.3316 11.0126C83.6644 11.0126 84.7109 11.3049 85.4709 11.8895C86.2367 12.4741 86.7804 13.2458 87.1019 14.2045ZM96.3569 24.9378C95.0591 24.9378 93.9395 24.6514 92.9983 24.0785C92.063 23.4997 91.341 22.693 90.8324 21.6582C90.3296 20.6176 90.0782 19.4075 90.0782 18.0278C90.0782 16.6481 90.3296 15.4322 90.8324 14.3799C91.341 13.3218 92.0483 12.4975 92.9545 11.907C93.8665 11.3107 94.9304 11.0126 96.1464 11.0126C96.8479 11.0126 97.5407 11.1295 98.2247 11.3633C98.9087 11.5972 99.5313 11.9772 100.092 12.5033C100.654 13.0236 101.101 13.7134 101.434 14.5728C101.767 15.4322 101.934 16.4903 101.934 17.7472V18.6241H91.5514V16.8352H99.8294C99.8294 16.0752 99.6774 15.3971 99.3734 14.8008C99.0753 14.2045 98.6485 13.7339 98.0932 13.389C97.5436 13.0441 96.8947 12.8716 96.1464 12.8716C95.3221 12.8716 94.6089 13.0762 94.0068 13.4854C93.4105 13.8888 92.9516 14.415 92.63 15.0639C92.3085 15.7128 92.1477 16.4085 92.1477 17.1509V18.3435C92.1477 19.3607 92.3231 20.223 92.6739 20.9304C93.0305 21.6319 93.5245 22.1668 94.1558 22.5351C94.7872 22.8976 95.5209 23.0788 96.3569 23.0788C96.9006 23.0788 97.3916 23.0028 97.8301 22.8508C98.2744 22.693 98.6573 22.4591 98.9788 22.1493C99.3004 21.8336 99.5488 21.4419 99.7242 20.9742L101.724 21.5354C101.513 22.2136 101.159 22.8099 100.662 23.3243C100.166 23.8329 99.5517 24.2305 98.821 24.5169C98.0902 24.7975 97.2689 24.9378 96.3569 24.9378ZM109.293 24.9729C108.439 24.9729 107.665 24.8121 106.969 24.4906C106.273 24.1632 105.721 23.6926 105.311 23.0788C104.902 22.4591 104.698 21.7108 104.698 20.8339C104.698 20.0622 104.85 19.4367 105.154 18.9573C105.458 18.4721 105.864 18.0921 106.373 17.8174C106.881 17.5426 107.442 17.338 108.056 17.2035C108.676 17.0632 109.298 16.9521 109.924 16.8703C110.742 16.7651 111.406 16.6861 111.915 16.6335C112.429 16.5751 112.803 16.4786 113.037 16.3442C113.277 16.2097 113.397 15.9759 113.397 15.6426V15.5725C113.397 14.7073 113.16 14.035 112.686 13.5556C112.219 13.0762 111.508 12.8365 110.555 12.8365C109.567 12.8365 108.793 13.0528 108.232 13.4854C107.67 13.918 107.276 14.3799 107.048 14.871L105.083 14.1694C105.434 13.351 105.902 12.7138 106.487 12.2578C107.077 11.7959 107.72 11.4744 108.416 11.2932C109.117 11.1061 109.807 11.0126 110.485 11.0126C110.918 11.0126 111.415 11.0652 111.976 11.1704C112.543 11.2698 113.09 11.4773 113.616 11.793C114.148 12.1087 114.589 12.5852 114.94 13.2224C115.291 13.8596 115.466 14.7131 115.466 15.7829V24.6572H113.397V22.8333H113.291C113.151 23.1256 112.917 23.4383 112.59 23.7716C112.262 24.1048 111.827 24.3883 111.283 24.6222C110.74 24.856 110.076 24.9729 109.293 24.9729ZM109.608 23.1139C110.427 23.1139 111.117 22.9531 111.678 22.6316C112.245 22.31 112.672 21.895 112.958 21.3864C113.25 20.8778 113.397 20.3428 113.397 19.7816V17.8875C113.309 17.9927 113.116 18.0892 112.818 18.1769C112.526 18.2587 112.186 18.3318 111.801 18.3961C111.421 18.4546 111.049 18.5072 110.687 18.554C110.33 18.5949 110.041 18.63 109.819 18.6592C109.281 18.7293 108.778 18.8433 108.311 19.0012C107.849 19.1532 107.475 19.3841 107.188 19.6939C106.907 19.9979 106.767 20.413 106.767 20.9391C106.767 21.6582 107.033 22.2019 107.565 22.5702C108.103 22.9326 108.784 23.1139 109.608 23.1139ZM119.49 24.6572V11.1879H121.49V13.2224H121.63C121.875 12.5559 122.32 12.0152 122.963 11.6001C123.606 11.185 124.331 10.9775 125.138 10.9775C125.29 10.9775 125.48 10.9804 125.708 10.9863C125.936 10.9921 126.108 11.0009 126.225 11.0126V13.1171C126.155 13.0996 125.994 13.0733 125.743 13.0382C125.497 12.9973 125.237 12.9768 124.962 12.9768C124.307 12.9768 123.723 13.1142 123.208 13.389C122.7 13.6579 122.296 14.032 121.998 14.5114C121.706 14.985 121.56 15.5257 121.56 16.1337V24.6572H119.49ZM133.987 24.9378C132.724 24.9378 131.637 24.6397 130.725 24.0434C129.813 23.4471 129.111 22.6257 128.62 21.5793C128.129 20.5328 127.884 19.3373 127.884 17.9927C127.884 16.6248 128.135 15.4176 128.638 14.3711C129.146 13.3188 129.854 12.4975 130.76 11.907C131.672 11.3107 132.736 11.0126 133.952 11.0126C134.899 11.0126 135.752 11.1879 136.512 11.5387C137.272 11.8895 137.895 12.3805 138.38 13.0119C138.865 13.6433 139.167 14.3799 139.283 15.2217H137.214C137.056 14.6079 136.705 14.0642 136.162 13.5907C135.624 13.1113 134.899 12.8716 133.987 12.8716C133.18 12.8716 132.473 13.0821 131.865 13.503C131.263 13.918 130.792 14.5056 130.453 15.2656C130.12 16.0197 129.953 16.9054 129.953 17.9226C129.953 18.9632 130.117 19.8693 130.444 20.641C130.777 21.4127 131.245 22.0119 131.847 22.4387C132.455 22.8654 133.168 23.0788 133.987 23.0788C134.525 23.0788 135.013 22.9853 135.451 22.7982C135.89 22.6111 136.261 22.3422 136.565 21.9914C136.869 21.6407 137.085 21.2198 137.214 20.7287H139.283C139.167 21.5237 138.877 22.2399 138.415 22.8771C137.959 23.5085 137.354 24.0112 136.6 24.3854C135.852 24.7537 134.981 24.9378 133.987 24.9378ZM144.625 16.5546V24.6572H142.556V6.69819H144.625V13.2925H144.801C145.116 12.5968 145.59 12.0444 146.221 11.6352C146.858 11.2201 147.706 11.0126 148.764 11.0126C149.682 11.0126 150.486 11.1967 151.176 11.565C151.866 11.9275 152.4 12.4858 152.78 13.2399C153.166 13.9882 153.359 14.9411 153.359 16.0986V24.6572H151.29V16.2389C151.29 15.1691 151.012 14.3419 150.457 13.7573C149.907 13.1668 149.144 12.8716 148.168 12.8716C147.49 12.8716 146.882 13.0148 146.344 13.3013C145.812 13.5877 145.391 14.0057 145.081 14.5553C144.777 15.1048 144.625 15.7712 144.625 16.5546ZM174.686 11.1879C174.581 10.2993 174.154 9.60952 173.406 9.11845C172.658 8.62738 171.74 8.38185 170.652 8.38185C169.857 8.38185 169.162 8.51046 168.565 8.76769C167.975 9.02491 167.513 9.3786 167.18 9.82874C166.852 10.2789 166.689 10.7904 166.689 11.3633C166.689 11.8427 166.803 12.2548 167.031 12.5998C167.265 12.9388 167.563 13.2224 167.925 13.4504C168.288 13.6725 168.668 13.8567 169.065 14.0028C169.463 14.1431 169.828 14.2571 170.161 14.3448L171.985 14.8359C172.453 14.9586 172.973 15.1282 173.546 15.3445C174.125 15.5608 174.677 15.856 175.204 16.2302C175.736 16.5985 176.174 17.072 176.519 17.6507C176.864 18.2295 177.036 18.9398 177.036 19.7816C177.036 20.7521 176.782 21.629 176.273 22.4123C175.771 23.1957 175.034 23.8183 174.064 24.2802C173.099 24.742 171.927 24.9729 170.547 24.9729C169.261 24.9729 168.147 24.7654 167.206 24.3503C166.271 23.9352 165.534 23.3565 164.996 22.614C164.464 21.8716 164.163 21.0093 164.093 20.0272H166.338C166.396 20.7053 166.624 21.2665 167.022 21.7108C167.425 22.1493 167.934 22.4767 168.548 22.693C169.168 22.9034 169.834 23.0086 170.547 23.0086C171.377 23.0086 172.123 22.8742 172.783 22.6053C173.444 22.3305 173.967 21.9505 174.353 21.4653C174.739 20.9742 174.932 20.4013 174.932 19.7466C174.932 19.1503 174.765 18.665 174.432 18.2909C174.099 17.9167 173.66 17.6127 173.117 17.3789C172.573 17.1451 171.985 16.9405 171.354 16.7651L169.144 16.1337C167.741 15.7303 166.63 15.1545 165.812 14.4062C164.993 13.6579 164.584 12.6787 164.584 11.4686C164.584 10.463 164.856 9.58613 165.4 8.83784C165.949 8.0837 166.686 7.4991 167.61 7.08403C168.539 6.66311 169.577 6.45265 170.723 6.45265C171.88 6.45265 172.909 6.66019 173.809 7.07526C174.71 7.48448 175.423 8.0457 175.949 8.75892C176.481 9.47213 176.762 10.2818 176.791 11.1879H174.686ZM186.05 24.9378C184.834 24.9378 183.767 24.6485 182.849 24.0697C181.937 23.4909 181.224 22.6813 180.71 21.6407C180.201 20.6001 179.947 19.3841 179.947 17.9927C179.947 16.5897 180.201 15.3649 180.71 14.3185C181.224 13.2721 181.937 12.4595 182.849 11.8807C183.767 11.3019 184.834 11.0126 186.05 11.0126C187.266 11.0126 188.33 11.3019 189.242 11.8807C190.16 12.4595 190.873 13.2721 191.382 14.3185C191.896 15.3649 192.153 16.5897 192.153 17.9927C192.153 19.3841 191.896 20.6001 191.382 21.6407C190.873 22.6813 190.16 23.4909 189.242 24.0697C188.33 24.6485 187.266 24.9378 186.05 24.9378ZM186.05 23.0788C186.974 23.0788 187.734 22.842 188.33 22.3685C188.926 21.895 189.368 21.2724 189.654 20.5007C189.941 19.729 190.084 18.893 190.084 17.9927C190.084 17.0924 189.941 16.2535 189.654 15.476C189.368 14.6985 188.926 14.07 188.33 13.5907C187.734 13.1113 186.974 12.8716 186.05 12.8716C185.126 12.8716 184.366 13.1113 183.77 13.5907C183.174 14.07 182.732 14.6985 182.446 15.476C182.16 16.2535 182.016 17.0924 182.016 17.9927C182.016 18.893 182.16 19.729 182.446 20.5007C182.732 21.2724 183.174 21.895 183.77 22.3685C184.366 22.842 185.126 23.0788 186.05 23.0788ZM201.557 11.1879V12.9418H194.297V11.1879H201.557ZM196.471 24.6572V9.32891C196.471 8.55723 196.653 7.91416 197.015 7.39971C197.377 6.88526 197.848 6.49942 198.427 6.2422C199.006 5.98497 199.616 5.85636 200.26 5.85636C200.768 5.85636 201.183 5.89728 201.505 5.97912C201.826 6.06097 202.066 6.13697 202.224 6.20712L201.628 7.99601C201.522 7.96093 201.376 7.91709 201.189 7.86447C201.008 7.81186 200.768 7.78555 200.47 7.78555C199.786 7.78555 199.292 7.95801 198.988 8.30293C198.69 8.64784 198.541 9.15352 198.541 9.81997V24.6572H196.471ZM210.562 11.1879V12.9418H203.582V11.1879H210.562ZM205.617 7.96093H207.686V20.7988C207.686 21.3834 207.771 21.8219 207.94 22.1142C208.116 22.4007 208.338 22.5936 208.607 22.693C208.882 22.7865 209.171 22.8333 209.475 22.8333C209.703 22.8333 209.89 22.8216 210.036 22.7982C210.182 22.769 210.299 22.7456 210.387 22.728L210.808 24.5871C210.668 24.6397 210.472 24.6923 210.22 24.7449C209.969 24.8034 209.65 24.8326 209.265 24.8326C208.68 24.8326 208.107 24.7069 207.546 24.4555C206.99 24.2042 206.529 23.8212 206.16 23.3068C205.798 22.7923 205.617 22.1434 205.617 21.3601V7.96093ZM216.974 24.6572L212.87 11.1879H215.045L217.956 21.5004H218.096L220.973 11.1879H223.183L226.024 21.4653H226.164L229.075 11.1879H231.25L227.146 24.6572H225.112L222.165 14.3097H221.955L219.008 24.6572H216.974ZM238.197 24.9729C237.343 24.9729 236.568 24.8121 235.873 24.4906C235.177 24.1632 234.625 23.6926 234.215 23.0788C233.806 22.4591 233.602 21.7108 233.602 20.8339C233.602 20.0622 233.754 19.4367 234.058 18.9573C234.362 18.4721 234.768 18.0921 235.276 17.8174C235.785 17.5426 236.346 17.338 236.96 17.2035C237.58 17.0632 238.202 16.9521 238.828 16.8703C239.646 16.7651 240.31 16.6861 240.818 16.6335C241.333 16.5751 241.707 16.4786 241.941 16.3442C242.181 16.2097 242.3 15.9759 242.3 15.6426V15.5725C242.3 14.7073 242.064 14.035 241.59 13.5556C241.122 13.0762 240.412 12.8365 239.459 12.8365C238.471 12.8365 237.697 13.0528 237.135 13.4854C236.574 13.918 236.18 14.3799 235.952 14.871L233.987 14.1694C234.338 13.351 234.806 12.7138 235.39 12.2578C235.981 11.7959 236.624 11.4744 237.32 11.2932C238.021 11.1061 238.711 11.0126 239.389 11.0126C239.822 11.0126 240.319 11.0652 240.88 11.1704C241.447 11.2698 241.994 11.4773 242.52 11.793C243.052 12.1087 243.493 12.5852 243.844 13.2224C244.195 13.8596 244.37 14.7131 244.37 15.7829V24.6572H242.3V22.8333H242.195C242.055 23.1256 241.821 23.4383 241.494 23.7716C241.166 24.1048 240.731 24.3883 240.187 24.6222C239.643 24.856 238.98 24.9729 238.197 24.9729ZM238.512 23.1139C239.331 23.1139 240.021 22.9531 240.582 22.6316C241.149 22.31 241.576 21.895 241.862 21.3864C242.154 20.8778 242.3 20.3428 242.3 19.7816V17.8875C242.213 17.9927 242.02 18.0892 241.722 18.1769C241.429 18.2587 241.09 18.3318 240.704 18.3961C240.324 18.4546 239.953 18.5072 239.591 18.554C239.234 18.5949 238.945 18.63 238.723 18.6592C238.185 18.7293 237.682 18.8433 237.214 19.0012C236.753 19.1532 236.378 19.3841 236.092 19.6939C235.811 19.9979 235.671 20.413 235.671 20.9391C235.671 21.6582 235.937 22.2019 236.469 22.5702C237.007 22.9326 237.688 23.1139 238.512 23.1139ZM248.394 24.6572V11.1879H250.394V13.2224H250.534C250.779 12.5559 251.224 12.0152 251.867 11.6001C252.51 11.185 253.235 10.9775 254.041 10.9775C254.193 10.9775 254.383 10.9804 254.611 10.9863C254.839 10.9921 255.012 11.0009 255.129 11.0126V13.1171C255.059 13.0996 254.898 13.0733 254.647 13.0382C254.401 12.9973 254.141 12.9768 253.866 12.9768C253.211 12.9768 252.627 13.1142 252.112 13.389C251.604 13.6579 251.2 14.032 250.902 14.5114C250.61 14.985 250.464 15.5257 250.464 16.1337V24.6572H248.394ZM263.066 24.9378C261.768 24.9378 260.649 24.6514 259.708 24.0785C258.772 23.4997 258.05 22.693 257.542 21.6582C257.039 20.6176 256.788 19.4075 256.788 18.0278C256.788 16.6481 257.039 15.4322 257.542 14.3799C258.05 13.3218 258.758 12.4975 259.664 11.907C260.576 11.3107 261.64 11.0126 262.856 11.0126C263.557 11.0126 264.25 11.1295 264.934 11.3633C265.618 11.5972 266.241 11.9772 266.802 12.5033C267.363 13.0236 267.81 13.7134 268.143 14.5728C268.477 15.4322 268.643 16.4903 268.643 17.7472V18.6241H258.261V16.8352H266.539C266.539 16.0752 266.387 15.3971 266.083 14.8008C265.785 14.2045 265.358 13.7339 264.802 13.389C264.253 13.0441 263.604 12.8716 262.856 12.8716C262.031 12.8716 261.318 13.0762 260.716 13.4854C260.12 13.8888 259.661 14.415 259.339 15.0639C259.018 15.7128 258.857 16.4085 258.857 17.1509V18.3435C258.857 19.3607 259.032 20.223 259.383 20.9304C259.74 21.6319 260.234 22.1668 260.865 22.5351C261.497 22.8976 262.23 23.0788 263.066 23.0788C263.61 23.0788 264.101 23.0028 264.539 22.8508C264.984 22.693 265.367 22.4591 265.688 22.1493C266.01 21.8336 266.258 21.4419 266.434 20.9742L268.433 21.5354C268.222 22.2136 267.869 22.8099 267.372 23.3243C266.875 23.8329 266.261 24.2305 265.53 24.5169C264.8 24.7975 263.978 24.9378 263.066 24.9378ZM285.053 24.6572H279.511V6.69819H285.299C287.041 6.69819 288.531 7.05772 289.771 7.77678C291.01 8.49 291.96 9.51598 292.621 10.8547C293.281 12.1876 293.612 13.7836 293.612 15.6426C293.612 17.5134 293.278 19.1239 292.612 20.4744C291.946 21.819 290.975 22.8537 289.701 23.5786C288.426 24.2977 286.877 24.6572 285.053 24.6572ZM281.686 22.728H284.913C286.398 22.728 287.628 22.4416 288.605 21.8687C289.581 21.2958 290.309 20.4802 290.788 19.4221C291.267 18.364 291.507 17.1041 291.507 15.6426C291.507 14.1928 291.27 12.9447 290.797 11.8982C290.323 10.846 289.616 10.0392 288.675 9.47798C287.733 8.91091 286.561 8.62738 285.158 8.62738H281.686V22.728ZM297.226 24.6572V11.1879H299.295V24.6572H297.226ZM298.278 8.94307C297.875 8.94307 297.527 8.80569 297.235 8.53092C296.948 8.25616 296.805 7.92586 296.805 7.54002C296.805 7.15418 296.948 6.82388 297.235 6.54911C297.527 6.27435 297.875 6.13697 298.278 6.13697C298.682 6.13697 299.027 6.27435 299.313 6.54911C299.605 6.82388 299.751 7.15418 299.751 7.54002C299.751 7.92586 299.605 8.25616 299.313 8.53092C299.027 8.80569 298.682 8.94307 298.278 8.94307ZM303.333 24.6572V11.1879H305.332V13.2224H305.472C305.718 12.5559 306.162 12.0152 306.805 11.6001C307.448 11.185 308.173 10.9775 308.98 10.9775C309.132 10.9775 309.322 10.9804 309.55 10.9863C309.778 10.9921 309.95 11.0009 310.067 11.0126V13.1171C309.997 13.0996 309.836 13.0733 309.585 13.0382C309.34 12.9973 309.079 12.9768 308.805 12.9768C308.15 12.9768 307.565 13.1142 307.051 13.389C306.542 13.6579 306.139 14.032 305.841 14.5114C305.548 14.985 305.402 15.5257 305.402 16.1337V24.6572H303.333ZM318.005 24.9378C316.707 24.9378 315.587 24.6514 314.646 24.0785C313.711 23.4997 312.989 22.693 312.48 21.6582C311.978 20.6176 311.726 19.4075 311.726 18.0278C311.726 16.6481 311.978 15.4322 312.48 14.3799C312.989 13.3218 313.696 12.4975 314.602 11.907C315.514 11.3107 316.578 11.0126 317.794 11.0126C318.496 11.0126 319.189 11.1295 319.873 11.3633C320.557 11.5972 321.179 11.9772 321.74 12.5033C322.302 13.0236 322.749 13.7134 323.082 14.5728C323.415 15.4322 323.582 16.4903 323.582 17.7472V18.6241H313.199V16.8352H321.477C321.477 16.0752 321.325 15.3971 321.021 14.8008C320.723 14.2045 320.296 13.7339 319.741 13.389C319.192 13.0441 318.543 12.8716 317.794 12.8716C316.97 12.8716 316.257 13.0762 315.655 13.4854C315.058 13.8888 314.6 14.415 314.278 15.0639C313.956 15.7128 313.796 16.4085 313.796 17.1509V18.3435C313.796 19.3607 313.971 20.223 314.322 20.9304C314.678 21.6319 315.172 22.1668 315.804 22.5351C316.435 22.8976 317.169 23.0788 318.005 23.0788C318.549 23.0788 319.04 23.0028 319.478 22.8508C319.922 22.693 320.305 22.4591 320.627 22.1493C320.948 21.8336 321.197 21.4419 321.372 20.9742L323.371 21.5354C323.161 22.2136 322.807 22.8099 322.31 23.3243C321.814 23.8329 321.2 24.2305 320.469 24.5169C319.738 24.7975 318.917 24.9378 318.005 24.9378ZM332.449 24.9378C331.186 24.9378 330.099 24.6397 329.187 24.0434C328.275 23.4471 327.573 22.6257 327.082 21.5793C326.591 20.5328 326.346 19.3373 326.346 17.9927C326.346 16.6248 326.597 15.4176 327.1 14.3711C327.608 13.3188 328.316 12.4975 329.222 11.907C330.134 11.3107 331.198 11.0126 332.414 11.0126C333.361 11.0126 334.214 11.1879 334.974 11.5387C335.734 11.8895 336.357 12.3805 336.842 13.0119C337.327 13.6433 337.628 14.3799 337.745 15.2217H335.676C335.518 14.6079 335.167 14.0642 334.624 13.5907C334.086 13.1113 333.361 12.8716 332.449 12.8716C331.642 12.8716 330.935 13.0821 330.327 13.503C329.725 13.918 329.254 14.5056 328.915 15.2656C328.582 16.0197 328.415 16.9054 328.415 17.9226C328.415 18.9632 328.579 19.8693 328.906 20.641C329.239 21.4127 329.707 22.0119 330.309 22.4387C330.917 22.8654 331.63 23.0788 332.449 23.0788C332.987 23.0788 333.475 22.9853 333.913 22.7982C334.352 22.6111 334.723 22.3422 335.027 21.9914C335.331 21.6407 335.547 21.2198 335.676 20.7287H337.745C337.628 21.5237 337.339 22.2399 336.877 22.8771C336.421 23.5085 335.816 24.0112 335.062 24.3854C334.314 24.7537 333.443 24.9378 332.449 24.9378ZM346.875 11.1879V12.9418H339.895V11.1879H346.875ZM341.93 7.96093H343.999V20.7988C343.999 21.3834 344.084 21.8219 344.253 22.1142C344.429 22.4007 344.651 22.5936 344.92 22.693C345.195 22.7865 345.484 22.8333 345.788 22.8333C346.016 22.8333 346.203 22.8216 346.349 22.7982C346.495 22.769 346.612 22.7456 346.7 22.728L347.121 24.5871C346.981 24.6397 346.785 24.6923 346.533 24.7449C346.282 24.8034 345.963 24.8326 345.578 24.8326C344.993 24.8326 344.42 24.7069 343.859 24.4555C343.303 24.2042 342.842 23.8212 342.473 23.3068C342.111 22.7923 341.93 22.1434 341.93 21.3601V7.96093ZM355.563 24.9378C354.347 24.9378 353.28 24.6485 352.362 24.0697C351.45 23.4909 350.737 22.6813 350.222 21.6407C349.714 20.6001 349.459 19.3841 349.459 17.9927C349.459 16.5897 349.714 15.3649 350.222 14.3185C350.737 13.2721 351.45 12.4595 352.362 11.8807C353.28 11.3019 354.347 11.0126 355.563 11.0126C356.779 11.0126 357.843 11.3019 358.754 11.8807C359.672 12.4595 360.386 13.2721 360.894 14.3185C361.409 15.3649 361.666 16.5897 361.666 17.9927C361.666 19.3841 361.409 20.6001 360.894 21.6407C360.386 22.6813 359.672 23.4909 358.754 24.0697C357.843 24.6485 356.779 24.9378 355.563 24.9378ZM355.563 23.0788C356.486 23.0788 357.246 22.842 357.843 22.3685C358.439 21.895 358.88 21.2724 359.167 20.5007C359.453 19.729 359.596 18.893 359.596 17.9927C359.596 17.0924 359.453 16.2535 359.167 15.476C358.88 14.6985 358.439 14.07 357.843 13.5907C357.246 13.1113 356.486 12.8716 355.563 12.8716C354.639 12.8716 353.879 13.1113 353.283 13.5907C352.686 14.07 352.245 14.6985 351.958 15.476C351.672 16.2535 351.529 17.0924 351.529 17.9927C351.529 18.893 351.672 19.729 351.958 20.5007C352.245 21.2724 352.686 21.895 353.283 22.3685C353.879 22.842 354.639 23.0788 355.563 23.0788ZM365.072 24.6572V11.1879H367.071V13.2224H367.211C367.457 12.5559 367.901 12.0152 368.544 11.6001C369.187 11.185 369.912 10.9775 370.719 10.9775C370.871 10.9775 371.061 10.9804 371.289 10.9863C371.517 10.9921 371.69 11.0009 371.806 11.0126V13.1171C371.736 13.0996 371.576 13.0733 371.324 13.0382C371.079 12.9973 370.818 12.9768 370.544 12.9768C369.889 12.9768 369.304 13.1142 368.79 13.389C368.281 13.6579 367.878 14.032 367.58 14.5114C367.287 14.985 367.141 15.5257 367.141 16.1337V24.6572H365.072ZM376.249 29.7082C375.899 29.7082 375.586 29.679 375.311 29.6205C375.036 29.5679 374.846 29.5153 374.741 29.4627L375.267 27.6387C375.77 27.7673 376.214 27.8141 376.6 27.779C376.986 27.7439 377.328 27.5715 377.626 27.2616C377.93 26.9576 378.208 26.4637 378.459 25.7797L378.845 24.7274L373.864 11.1879H376.109L379.827 21.9213H379.967L383.686 11.1879H385.93L380.213 26.6215C379.956 27.3172 379.637 27.893 379.257 28.349C378.877 28.8108 378.436 29.1528 377.933 29.375C377.436 29.5971 376.875 29.7082 376.249 29.7082Z" fill="currentColor"/>
    <circle cx="15.4922" cy="15.6572" r="15" fill="currentColor"/>
</svg>
