<svg width="98" height="24" viewBox="0 0 98 24" fill="none" xmlns="http://www.w3.org/2000/svg">
    <circle cx="11.8174" cy="11.4256" r="10.8975" fill="currentColor"/>
    <path d="M48.8639 3.13589C50.0698 3.69865 51.0144 4.53275 51.6978 5.63818C52.4013 6.74361 52.753 7.96963 52.753 9.31624C52.753 10.8839 52.2706 12.2909 51.3059 13.537C50.3612 14.763 49.1453 15.577 47.658 15.979L52.9942 23.4255H51.6677L46.5123 16.19L45.5476 16.2201H37.9804V23.4255H36.865V2.44248H44.8542C45.7385 2.44248 46.4922 2.50278 47.1153 2.62337C47.7585 2.72386 48.3413 2.8947 48.8639 3.13589ZM45.8491 15.1047C46.8942 15.1047 47.8589 14.8434 48.7433 14.3208C49.6276 13.7983 50.3311 13.0948 50.8537 12.2105C51.3762 11.3261 51.6375 10.3614 51.6375 9.31624C51.6375 8.15052 51.326 7.09534 50.7029 6.1507C50.1 5.20606 49.2558 4.5026 48.1705 4.04033C47.3866 3.71875 46.2812 3.55796 44.8542 3.55796H37.9804V15.1047H45.8491ZM67.0804 13.3862C65.372 13.0446 63.9751 12.6727 62.8898 12.2708C61.8246 11.8487 60.9804 11.2859 60.3574 10.5825C59.7544 9.85891 59.4529 8.93437 59.4529 7.80884C59.4529 6.64311 59.7544 5.61808 60.3574 4.73374C60.9804 3.84939 61.8447 3.16604 62.9501 2.68367C64.0756 2.2013 65.372 1.96012 66.8392 1.96012C68.2461 1.96012 69.5324 2.2616 70.6981 2.86456C71.884 3.44742 72.8186 4.27147 73.5019 5.3367C74.1853 6.40193 74.5269 7.6179 74.5269 8.98461H73.4115C73.4115 7.79879 73.12 6.75366 72.5372 5.84922C71.9543 4.94477 71.1604 4.25137 70.1555 3.769C69.1505 3.26653 68.0351 3.0153 66.809 3.0153C65.7237 3.0153 64.7087 3.18614 63.7641 3.52781C62.8195 3.86949 62.0456 4.39206 61.4427 5.09551C60.8598 5.79897 60.5684 6.68331 60.5684 7.74854C60.5684 8.71328 60.8498 9.48708 61.4125 10.0699C61.9753 10.6327 62.7089 11.0648 63.6133 11.3663C64.5178 11.6678 65.784 11.9894 67.412 12.331C69.0601 12.6727 70.3364 13.0044 71.2408 13.3259C72.1653 13.6274 72.9392 14.1399 73.5622 14.8635C74.2054 15.587 74.5269 16.602 74.5269 17.9084C74.5269 19.2149 74.1752 20.3203 73.4718 21.2247C72.7884 22.1091 71.8739 22.7723 70.7283 23.2145C69.5827 23.6567 68.3365 23.8778 66.9899 23.8778C65.3217 23.8778 63.8545 23.5662 62.5883 22.9432C61.3221 22.3201 60.3473 21.4458 59.664 20.3203C59.0007 19.1747 58.6691 17.8682 58.6691 16.401H59.7845C59.7845 17.6874 60.0659 18.8129 60.6287 19.7776C61.2116 20.7424 62.0456 21.4961 63.131 22.0387C64.2163 22.5613 65.5026 22.8226 66.9899 22.8226C68.839 22.8226 70.3665 22.3804 71.5724 21.4961C72.7985 20.6117 73.4115 19.4058 73.4115 17.8783C73.4115 16.8332 73.1502 16.0292 72.6276 15.4664C72.1051 14.9037 71.4418 14.5017 70.6378 14.2605C69.854 13.9992 68.6682 13.7078 67.0804 13.3862ZM88.7338 2.44248C90.2613 2.44248 91.6682 2.82436 92.9545 3.58811C94.2609 4.35186 95.296 5.38695 96.0597 6.69336C96.8235 7.97968 97.2054 9.38659 97.2054 10.9141V14.9539C97.2054 16.4814 96.8235 17.8984 96.0597 19.2048C95.296 20.4911 94.2609 21.5162 92.9545 22.2799C91.6682 23.0437 90.2613 23.4255 88.7338 23.4255H80.9857V2.44248H88.7338ZM96.0899 10.9141C96.0899 9.58757 95.7583 8.36155 95.095 7.23603C94.4317 6.1105 93.5273 5.21611 92.3817 4.55285C91.2561 3.88959 90.0301 3.55796 88.7036 3.55796H82.1012V22.3101H88.7036C90.0301 22.3101 91.2561 21.9784 92.3817 21.3152C93.5273 20.6519 94.4317 19.7575 95.095 18.632C95.7583 17.5065 96.0899 16.2804 96.0899 14.9539V10.9141Z" fill="currentColor"/>
</svg>
