<?xml version="1.0" encoding="utf-8"?>
<!-- Generator: Adobe Illustrator 16.0.0, SVG Export Plug-In . SVG Version: 6.00 Build 0)  -->
<!DOCTYPE svg PUBLIC "-//W3C//DTD SVG 1.1//EN" "http://www.w3.org/Graphics/SVG/1.1/DTD/svg11.dtd">
<svg version="1.1" xmlns="http://www.w3.org/2000/svg" xmlns:xlink="http://www.w3.org/1999/xlink" x="0px" y="0px" width="842px"
	 height="595px" viewBox="0 0 842 595" enable-background="new 0 0 842 595" xml:space="preserve">
<g id="Layer_1">
	<path fill-rule="evenodd" clip-rule="evenodd" fill="#FF6633" d="M437.073,345.49l-55.863-72.074v105.138v26.001l49.781-26.001
		h338.966V211.121H451.981v134.37H437.073L437.073,345.49z M509.357,308.656c-1.688-4.389-2.533-9.044-2.533-13.965
		c0-4.921,0.845-9.576,2.533-13.966c1.688-4.391,4.029-8.202,7.02-11.434c2.99-3.233,6.585-5.79,10.781-7.672
		c4.197-1.881,8.806-2.823,13.822-2.823s9.648,0.966,13.895,2.896c4.243,1.93,7.887,4.535,10.926,7.814
		c3.039,3.28,5.403,7.117,7.093,11.506c1.688,4.39,2.532,9.046,2.532,13.965c0,4.921-0.845,9.576-2.532,13.967
		c-1.689,4.39-4.029,8.199-7.019,11.433c-2.992,3.232-6.587,5.789-10.783,7.671c-4.197,1.881-8.805,2.822-13.822,2.822
		c-5.017,0-9.648-0.966-13.894-2.896c-4.243-1.93-7.887-4.535-10.927-7.815C513.411,316.882,511.046,313.047,509.357,308.656
		L509.357,308.656z M492.063,315.243c-2.605-6.369-3.907-13.123-3.907-20.263c0-7.14,1.302-13.894,3.907-20.261
		c2.605-6.369,6.271-11.939,11-16.716c4.728-4.776,10.324-8.564,16.787-11.362c6.465-2.796,13.605-4.196,21.42-4.196
		c7.815,0,14.956,1.374,21.42,4.125c6.465,2.75,12.012,6.489,16.645,11.216c4.63,4.729,8.25,10.275,10.854,16.645
		c2.606,6.368,3.908,13.12,3.908,20.261c0,7.141-1.302,13.894-3.908,20.261c-2.604,6.37-6.271,11.94-10.999,16.716
		c-4.729,4.776-10.324,8.564-16.788,11.362s-13.604,4.196-21.42,4.196c-7.814,0-14.955-1.373-21.42-4.125
		c-6.464-2.75-12.011-6.489-16.645-11.216C498.286,327.159,494.668,321.61,492.063,315.243L492.063,315.243z M630.271,345.49
		v-101.31h16.498l54.272,70.048v-70.048h17.512v101.31h-14.907l-55.863-72.074v72.074H630.271z"/>
</g>
<g id="Layer_2">
	<path fill-rule="evenodd" clip-rule="evenodd" fill="#191919" d="M389.16,211.12H72.933v167.433h290.765V244.181h16.499
		l54.272,70.048V211.12v-21.95L389.16,211.12L389.16,211.12z M252.121,244.181h75.113V260.1h-57.312v26.342h50.799v15.919h-50.799
		v27.21h58.036v15.919h-75.837V244.181L252.121,244.181z M219.131,345.49h-20.986l-26.722-37.669
		c-9.081,12.413-17.875,25.06-26.683,37.669h-20.406l36.905-51.522l-35.459-49.787h20.986c8.635,12.457,16.953,23.846,25.29,35.31
		l25.22-35.31h20.406c-11.767,16.493-23.721,32.829-35.684,49.183C194.425,310.676,206.758,328.051,219.131,345.49z"/>
</g>
</svg>
