<?xml version="1.0" encoding="UTF-8" standalone="no"?>
<!-- Created with Inkscape (http://www.inkscape.org/) -->

<svg
   xmlns:dc="http://purl.org/dc/elements/1.1/"
   xmlns:cc="http://creativecommons.org/ns#"
   xmlns:rdf="http://www.w3.org/1999/02/22-rdf-syntax-ns#"
   xmlns:svg="http://www.w3.org/2000/svg"
   xmlns="http://www.w3.org/2000/svg"
   xmlns:sodipodi="http://sodipodi.sourceforge.net/DTD/sodipodi-0.dtd"
   xmlns:inkscape="http://www.inkscape.org/namespaces/inkscape"
   width="500"
   height="500"
   id="svg3122"
   version="1.1"
   inkscape:version="0.48.1 "
   sodipodi:docname="uva2.svg">
  <defs
     id="defs3124">
    <clipPath
       id="clipPath3020">
      <path
         inkscape:connector-curvature="0"
         d="m 0,0.06 257.646,0 0,28.203 L 0,28.263 0,0.06 z"
         id="path3022" />
    </clipPath>
    <clipPath
       id="clipPath3030">
      <path
         inkscape:connector-curvature="0"
         d="M 0,0 258,0 258,29 0,29 0,0 z"
         id="path3032" />
    </clipPath>
  </defs>
  <sodipodi:namedview
     id="base"
     pagecolor="#ffffff"
     bordercolor="#666666"
     borderopacity="1.0"
     inkscape:pageopacity="0.0"
     inkscape:pageshadow="2"
     inkscape:zoom="0.7"
     inkscape:cx="36.292958"
     inkscape:cy="403.64664"
     inkscape:document-units="px"
     inkscape:current-layer="layer1"
     showgrid="false"
     inkscape:window-width="1440"
     inkscape:window-height="850"
     inkscape:window-x="-8"
     inkscape:window-y="-8"
     inkscape:window-maximized="1"
     fit-margin-top="0"
     fit-margin-left="0"
     fit-margin-right="0"
     fit-margin-bottom="0" />
  <metadata
     id="metadata3127">
    <rdf:RDF>
      <cc:Work
         rdf:about="">
        <dc:format>image/svg+xml</dc:format>
        <dc:type
           rdf:resource="http://purl.org/dc/dcmitype/StillImage" />
        <dc:title></dc:title>
      </cc:Work>
    </rdf:RDF>
  </metadata>
  <g
     inkscape:label="Layer 1"
     inkscape:groupmode="layer"
     id="layer1"
     transform="translate(-141.19461,-175.92679)">
    <g
       transform="matrix(17.914084,0,0,-17.951388,141.19461,677.00388)"
       id="g3012">
      <g
         id="g3014" />
      <g
         id="g3016">
        <g
           clip-path="url(#clipPath3020)"
           id="g3018">
          <path
             inkscape:connector-curvature="0"
             d="m 0,0.06 27.911,0 0,27.853 L 0,27.913 0,0.06 z"
             id="path3024"
             style="fill:#231f20;fill-opacity:1;fill-rule:nonzero;stroke:none" />
        </g>
      </g>
      <g
         id="g3026">
        <g
           clip-path="url(#clipPath3030)"
           id="g3028">
          <path
             inkscape:connector-curvature="0"
             d="m 7.433,19.495 c 0,0 0.68,-0.028 1.144,-0.03 0.571,-0.004 1.063,0.125 1.075,0.05 0.024,-0.138 0.039,-6.246 0.039,-6.246 0,0 0.067,-1.304 0.387,-1.967 0.561,-1.166 3.064,-1.262 3.064,-1.262 0,0 0.388,-0.046 1.258,0.021 0.868,0.068 2.563,0.318 3.112,1.345 0,0 0.389,0.436 0.53,2.905 0.147,2.586 -0.199,5.148 -0.199,5.148 l 2.425,0.111 c 0,0 -0.164,-1.828 -0.168,-5.26 -0.003,-3.432 0.314,-5.446 0.314,-5.446 l -2.403,-0.706 0.003,2.54 -1.143,-1.074 c 0,0 -0.667,-0.685 -2.176,-1.073 C 13.186,8.164 12.041,8.234 11.356,8.373 10.669,8.511 10.052,8.694 9.663,8.878 9.274,9.061 8.588,9.404 7.972,10.367 c -0.365,0.569 -0.365,1.99 -0.365,1.99 l 0.028,2.654 -0.202,4.484"
             id="path3034"
             style="fill:#ffffff;fill-opacity:1;fill-rule:nonzero;stroke:none" />
          <path
             inkscape:connector-curvature="0"
             d="m 16.05,20.329 -5.363,5.374 1.166,1.163 5.363,-5.374 -1.166,-1.163"
             id="path3036"
             style="fill:#ffffff;fill-opacity:1;fill-rule:nonzero;stroke:none" />
          <path
             inkscape:connector-curvature="0"
             d="m 11.71,20.313 -1.163,1.166 5.375,5.364 1.163,-1.166 -5.375,-5.364"
             id="path3038"
             style="fill:#ffffff;fill-opacity:1;fill-rule:nonzero;stroke:none" />
          <path
             inkscape:connector-curvature="0"
             d="m 16.058,12.201 -5.364,5.375 1.166,1.163 5.364,-5.375 -1.166,-1.163"
             id="path3040"
             style="fill:#ffffff;fill-opacity:1;fill-rule:nonzero;stroke:none" />
          <path
             inkscape:connector-curvature="0"
             d="m 11.717,12.188 -1.163,1.166 5.375,5.362 1.163,-1.166 -5.375,-5.362"
             id="path3042"
             style="fill:#ffffff;fill-opacity:1;fill-rule:nonzero;stroke:none" />
          <path
             inkscape:connector-curvature="0"
             d="M 16.045,1.359 10.683,6.734 11.849,7.897 17.211,2.522 16.045,1.359"
             id="path3044"
             style="fill:#ffffff;fill-opacity:1;fill-rule:nonzero;stroke:none" />
          <path
             inkscape:connector-curvature="0"
             d="M 11.705,1.343 10.542,2.509 15.916,7.872 17.08,6.706 11.705,1.343"
             id="path3046"
             style="fill:#ffffff;fill-opacity:1;fill-rule:nonzero;stroke:none" />
        </g>
      </g>
    </g>
    <path
       style="fill:#ffffff;stroke:none"
       d=""
       id="path3219"
       inkscape:connector-curvature="0" />
    <path
       style="fill:#ffffff"
       d="m 194.50438,233.13724 c 2.1e-4,-2.91681 0.037,-4.07547 0.0817,-2.57479 0.0447,1.50068 0.0446,3.88717 -3.7e-4,5.3033 -0.0449,1.41614 -0.0815,0.18831 -0.0813,-2.72851 z"
       id="path3223"
       inkscape:connector-curvature="0" />
    <path
       style="fill:#ffffff"
       d=""
       id="path3227"
       inkscape:connector-curvature="0" />
    <path
       style="fill:#000000"
       d="m 141.77328,426.1373 0,-249.28572 249.28572,0 249.28571,0 0,249.28572 0,249.28571 -249.28571,0 -249.28572,0 0,-249.28571 z m 266.45867,207.6649 c 9.99865,10.32001 18.91973,18.76367 19.82466,18.76367 0.90493,0 6.28686,-4.67273 11.95986,-10.38383 L 450.331,631.7982 431.05215,612.55904 411.7733,593.31987 l 18.19821,-18.2387 18.1982,-18.23869 -11.0504,-11.0504 -11.05039,-11.05038 -17.86251,17.81963 -17.86253,17.81964 -18.22956,-18.1891 -18.22955,-18.1891 -11.05157,11.05158 -11.05159,11.05158 18.19024,18.23071 18.19025,18.2307 -19.6195,19.65713 -19.6195,19.65711 11.05295,11.05295 11.05295,11.05295 19.51181,-19.47448 19.51181,-19.47447 18.17933,18.76367 0,0 z m 77.82705,-108.87853 20.71428,-6.15039 -0.0824,-4.88943 c -0.0453,-2.68917 -0.95694,-14.53227 -2.02583,-26.31798 -2.20414,-24.30322 -2.8125,-108.43876 -1.02005,-141.07143 l 1.15741,-21.07143 -8.30027,0.007 c -4.56516,0.004 -14.64751,0.42768 -22.40527,0.94135 l -14.105,0.93394 0.87307,7.98724 c 5.61051,51.32792 3.1556,113.15773 -5.296,133.38526 -6.97369,16.69036 -32.81063,26.82794 -68.78184,26.98779 -20.60839,0.0916 -36.53766,-2.80258 -48.93529,-8.89092 -16.7276,-8.21474 -20.03981,-16.75966 -21.84338,-56.35204 -0.68006,-14.92857 -1.2683,-44.57303 -1.30723,-65.87659 l -0.0707,-38.73348 -20.35714,0.70087 c -11.19643,0.38547 -20.42284,0.77994 -20.50313,0.87658 -0.0803,0.0967 0.68604,17.53286 1.70296,38.74715 1.01692,21.21428 1.89623,53.67857 1.95402,72.14285 0.1449,46.29738 1.87825,52.35819 19.60847,68.5626 9.27205,8.47415 18.87601,13.15736 37.1992,18.1396 19.44624,5.28762 42.73382,5.29028 65.73258,0.007 21.98243,-5.0493 36.08603,-12.51603 51.44876,-27.23795 l 11.78571,-11.29411 0,22.33974 c 0,12.28686 0.48215,22.32552 1.07143,22.30813 0.58929,-0.0174 10.39286,-2.79928 21.78572,-6.18201 l 0,3.7e-4 z m -114.66202,-85.55224 18.94773,-18.90872 19.28989,19.25017 19.28988,19.25019 11.05157,-11.05157 11.05157,-11.05157 -19.24938,-19.2891 -19.24939,-19.28909 17.47936,-17.52141 c 9.61364,-9.63679 17.47936,-18.13888 17.47936,-18.89352 0,-1.84151 -18.82043,-20.72951 -20.65535,-20.72951 -0.79544,0 -9.33072,7.86554 -18.9673,17.47897 l -17.52104,17.47898 -18.22956,-18.1891 -18.22955,-18.1891 -11.05157,11.05159 -11.05159,11.05157 18.1899,18.23036 18.18989,18.23036 -18.90835,18.94732 c -10.39958,10.42105 -18.90834,19.56546 -18.90834,20.32092 0,1.84343 18.81999,20.73098 20.65681,20.73098 0.79626,0 9.97422,-8.50892 20.39546,-18.90872 l 0,0 z m 0,-145.71428 18.94773,-18.90873 19.28989,19.25018 19.28988,19.25018 11.05157,-11.05158 11.05157,-11.05157 -19.24938,-19.28908 -19.24939,-19.28909 17.47936,-17.52142 c 9.61364,-9.63679 17.47936,-18.13989 17.47936,-18.89578 0,-0.75589 -4.64819,-6.05376 -10.3293,-11.77305 l -10.3293,-10.3987 -18.24213,18.20164 -18.24213,18.20164 -18.57599,-18.53475 -18.57597,-18.53474 -11.05081,11.0508 -11.0508,11.05081 18.53548,18.57672 18.53548,18.57671 -19.61989,19.65752 -19.6199,19.65752 10.34174,10.34175 c 5.68796,5.68795 10.98152,10.34174 11.76347,10.34174 0.78196,0 9.94822,-8.50893 20.36946,-18.90872 l 0,0 z M 194.06495,231.5242 c -0.4747,-0.4747 -0.81235,0.36905 -0.75032,1.875 0.0686,1.66421 0.40706,2.00272 0.8631,0.8631 0.41267,-1.03125 0.36192,-2.2634 -0.11279,-2.7381 l 1e-5,0 z"
       id="path3382"
       inkscape:connector-curvature="0" />
  </g>
</svg>
