<?xml version="1.0" encoding="UTF-8"?>
<!-- Generator: Adobe Illustrator 22.0.1, SVG Export Plug-In . SVG Version: 6.00 Build 0)  -->
<svg version="1.1" id="Layer_1" xmlns="http://www.w3.org/2000/svg" xmlns:xlink="http://www.w3.org/1999/xlink" x="0px" y="0px" viewBox="0 0 448.5 202" style="enable-background:new 0 0 448.5 202;" xml:space="preserve">
<style type="text/css">
	.st0{fill:#E6223D;}
	.st1{fill:none;}
</style>
<g>
	<path class="st0" d="M386.3,89.6h-16.7v-7.2h16.7v-5.1c0-5.1,1.6-9.1,4.7-12.2c3.1-3,7.3-4.5,12.6-4.5c4.7,0,9,0.8,12.9,2.5V71   c-0.7-0.4-1.6-0.7-2.6-1s-2-0.7-3.1-1c-2.2-0.6-4.3-0.9-6.2-0.9c-1.6,0-2.9,0.2-4.2,0.7c-1.2,0.5-2.2,1.1-3.1,1.9   c-0.8,0.8-1.5,1.8-1.9,2.9s-0.6,2.4-0.6,3.7v5.1h22v7.2h-22V133h-8.6V89.6H386.3z"/>
	<polygon class="st0" points="40.3,133 31.5,133 31.5,62.1 42.7,62.1 70.9,119.4 70.9,62.1 79.5,62.1 79.5,133 68.6,133 40.3,76.1     "/>
	<path class="st0" d="M144.3,133H99v-7.3h18.3V89.6H101v-7.2h24.9v43.3h18.4V133z M127.2,74.2h-12.1v-12h12.1V74.2z"/>
	<polygon class="st0" points="168.3,133 159.8,133 159.8,62.1 168.3,62.1 168.3,107.9 192.5,82.5 203.8,82.5 184.5,102.5 204.5,133    194.5,133 178.6,108.6 168.3,119.3  "/>
	<path class="st0" d="M315.4,107.9c0-4,0.6-7.8,1.9-11.3s3.1-6.5,5.6-9c4.3-4.3,9.7-6.5,16.1-6.5c3.2,0,6.1,0.5,8.8,1.6   c2.7,1.1,5,2.6,6.8,4.5c2.3,2.4,4.1,5.4,5.4,8.9s1.9,7.3,1.9,11.3v3h-37.8c0,2.3,0.4,4.6,1.2,6.9c0.8,2.2,2.1,4.2,3.9,5.8   c2.6,2.5,5.9,3.8,9.7,3.8c1.1,0,2-0.1,2.9-0.2s1.7-0.3,2.4-0.5c0.7-0.2,1.4-0.6,2.1-0.9c0.6-0.4,1.3-0.8,1.9-1.3   c2.1-1.7,3.6-3.8,4.2-6.1h8.2c-1.2,5.2-3.7,9.2-7.7,12.2c-4,2.9-8.6,4.3-14,4.3c-6.2,0-11.5-2.2-16-6.6   C317.9,122.8,315.4,116.3,315.4,107.9 M324.4,103.5h28.5c-0.1-4.4-1.5-8-4.3-10.9c-2.6-2.7-5.9-4.1-9.7-4.1c-2.3,0-4.5,0.5-6.3,1.5   c-1.9,1-3.4,2.2-4.5,3.8c-1.1,1.6-2,3.2-2.6,4.8C324.8,100.2,324.5,101.9,324.4,103.5"/>
	<path class="st0" d="M265.2,133h-8.6V62.1h8.6v27c1.4-2.5,3.6-4.4,6.5-5.9c3-1.4,5.9-2.1,8.9-2.1c2.9,0,5.4,0.4,7.6,1.2   c2.2,0.8,4.1,2,5.6,3.6s2.7,3.5,3.5,5.9c0.8,2.3,1.2,4.9,1.2,7.9V133H290v-32c0-8.1-3.8-12.1-11.5-12.1c-1.2,0-2.3,0.2-3.4,0.6   s-2.2,0.9-3.1,1.6c-1,0.7-1.9,1.5-2.7,2.5c-0.8,1-1.5,2-2.1,3.2c-0.7,1.5-1.2,3.3-1.5,5.4s-0.5,4.7-0.5,7.6L265.2,133L265.2,133z"/>
	<polygon class="st0" points="229.6,56 295.3,32.1 293,25.5 226.1,49.8 159.2,25.5 156.8,32.1 222.6,56 222.6,146 156.8,169.9    159.2,176.5 226.1,152.2 293,176.5 295.3,169.9 229.6,146  "/>
</g>
<rect class="st1" width="448.5" height="202"/>
</svg>