<?xml version="1.0" encoding="utf-8"?>
<!-- Generator: Adobe Illustrator 15.0.2, SVG Export Plug-In . SVG Version: 6.00 Build 0)  -->
<!DOCTYPE svg PUBLIC "-//W3C//DTD SVG 1.1//EN" "http://www.w3.org/Graphics/SVG/1.1/DTD/svg11.dtd">
<svg version="1.1" id="Layer_1" xmlns="http://www.w3.org/2000/svg" xmlns:xlink="http://www.w3.org/1999/xlink" x="0px" y="0px"
	 width="946.453px" height="418.479px" viewBox="0 0 946.453 418.479" enable-background="new 0 0 946.453 418.479"
	 xml:space="preserve">
<g>
	<g>
		<path fill="#014189" stroke="#014189" stroke-width="0.0938" stroke-miterlimit="10.43" d="M181.805,18.206h4.552
			c25.672,0.45,51.12,7.777,73.185,20.88c26.122,15.33,47.52,38.04,62.768,64.095c38.1,65.19,38.295,150.683,0.562,216.068
			c-14.018,24.263-33.3,45.667-56.812,61.035c-23.535,15.547-51.435,24.45-79.673,24.922h-4.478
			c-19.583-0.397-39.075-4.635-56.985-12.57c-34.523-15.158-62.61-42.975-80.843-75.72c-17.295-30.742-26.085-65.925-26.85-101.107
			v-7.522c0.562-29.272,6.593-58.522,18.57-85.283c14.01-31.5,36.232-59.708,65.01-78.945
			C124.617,27.956,153.035,18.701,181.805,18.206z M166.16,21.821c-28.058,3.502-54.735,15.652-76.508,33.57
			c-23.85,19.462-42.067,45.367-53.812,73.732c-21.51,52.245-21.502,112.965,0.015,165.203c10.545,25.44,26.25,48.885,46.627,67.492
			c24.375,22.523,55.987,37.59,89.212,40.343c32.573,3,65.85-5.925,93.045-23.962c22.267-14.558,40.71-34.628,54.352-57.398
			c19.005-31.635,28.86-68.475,29.415-105.3c0.863-44.917-12.15-90.413-38.655-126.893c-16.95-23.362-39.525-42.945-65.925-54.87
			C219.777,22.661,192.522,18.468,166.16,21.821z"/>
	</g>
	<path fill="#014189" stroke="#014189" stroke-width="0.0938" stroke-miterlimit="10.43" d="M180.68,27.88
		c3.99-3.188,9.488-2.812,14.153-1.643c0.135,1.853,0.255,3.705,0.24,5.565c-1.59-1.275-2.04-3.69-4.043-4.455
		c-2.722-1.237-6.367-0.353-7.785,2.4c-1.545,3.007-1.5,6.855,0.12,9.825c1.297,2.363,4.612,3.983,7.117,2.618
		c0.6-1.695,0.292-3.517,0.248-5.272c-1.058-0.195-2.115-0.397-3.172-0.585l0.007-1.057c3.277,0.18,6.652-0.293,9.833,0.682
		c-0.562,0.3-1.688,0.9-2.25,1.2c-0.105,2.002-0.097,4.012-0.022,6.015c-4.77,1.155-10.373,1.65-14.498-1.553
		C176.262,38.403,176.412,31.105,180.68,27.88z"/>
	<path fill="#014189" stroke="#014189" stroke-width="0.0938" stroke-miterlimit="10.43" d="M164.165,27.835
		c2.505-1.62,5.693-1.372,8.535-1.853c-0.788,0.938-2.032,1.553-2.52,2.7c-0.3,4.65,2.445,9.675-0.165,14.002
		c-2.685,3.292-8.288,4.312-11.805,1.822c-3.502-3.72-2.1-9.442-4.208-13.77c-0.99-0.27-1.988-0.517-2.985-0.735
		c3.202-1.642,6.938-1.627,10.44-2.115c-0.855,0.795-1.853,1.44-2.618,2.34c0.052,2.925,0.667,5.82,1.312,8.67
		c0.442,1.868,1.373,3.968,3.36,4.605c2.527,0.855,5.498-0.93,5.745-3.637c0.308-3.495-0.427-7.027-1.432-10.365
		C167.555,27.791,165.26,28.473,164.165,27.835z"/>
	<g>
		<path fill="#014189" stroke="#014189" stroke-width="0.0938" stroke-miterlimit="10.43" d="M203.952,26.92
			c5.212,1.125,10.867,1.47,15.488,4.35c4.927,3.217,3.63,11.22-1.185,13.883c-3.465,2.002-7.65,1.334-11.355,0.487
			c-2.317-0.607-4.845-0.758-6.923-2.055c1.208-0.54,3.367,0.067,3.66-1.665c1.05-3.622,1.755-7.35,2.512-11.04
			C206.9,29.073,204.83,28.151,203.952,26.92z M210.785,29.898c-0.975,4.35-2.227,8.663-2.827,13.088
			c-0.165,2.152,2.835,2.069,4.32,1.972c4.703-0.757,6.345-6.6,5.483-10.672C216.988,31.188,213.567,30.19,210.785,29.898z"/>
	</g>
	<path fill="#014189" stroke="#014189" stroke-width="0.0938" stroke-miterlimit="10.43" d="M132.005,36.018
		c3.36-1.155,6.69-3.172,10.312-3.127c-0.84,0.81-1.875,1.44-2.535,2.422c0.968,3.99,2.408,7.875,3.878,11.708
		c0.518,2.062,2.91,1.23,4.282,0.63c2.618-0.727,1.935-3.893,3.113-5.797c0.562,1.913,0.878,3.885,1.125,5.865
		c-4.958,1.567-9.773,3.585-14.82,4.83c0.78-0.96,1.725-1.77,2.453-2.775c-0.885-3.968-2.423-7.763-3.773-11.595
		C135.657,36.243,133.438,36.558,132.005,36.018z"/>
	<path fill="#014189" stroke="#014189" stroke-width="0.0938" stroke-miterlimit="10.43" d="M229.198,33.078
		c3.307,1.237,6.682,2.438,9.705,4.305c-1.102,0.112-2.205,0.262-3.3,0.442c-1.365,1.822-2.055,4.035-2.955,6.104
		c-0.803,2.213-1.92,4.755-0.758,7.043c1.365,2.542,5.325,3.03,7.147,0.697c2.1-2.632,3.285-5.88,4.32-9.045
		c0.81-1.785-1.312-2.888-2.085-4.237c2.85,0.825,5.715,1.853,8.13,3.615c-1.08,0.098-2.152,0.218-3.217,0.375
		c-3.12,3.713-3.24,9.87-8.093,12.045c-4.125,1.207-9.742-1.005-10.912-5.385c-0.353-4.672,3.015-8.505,4.012-12.908
		C230.6,35.065,229.835,34.113,229.198,33.078z"/>
	<path fill="#014189" stroke="#014189" stroke-width="0.0938" stroke-miterlimit="10.43" d="M121.685,44.733
		c3.105-1.567,6.96,1.62,6.127,4.958c-0.45,3.225-4.883,4.598-7.133,2.288C118.385,50.058,118.955,45.948,121.685,44.733z"/>
	<path fill="#014189" stroke="#014189" stroke-width="0.0938" stroke-miterlimit="10.43" d="M253.107,44.058
		c2.212,0.78,4.117,2.183,6.03,3.51c0.795,5.288,1.59,10.568,2.43,15.84c1.785-2.73,3.93-5.302,5.07-8.385
		c-0.525-1.155-1.185-2.228-1.74-3.36c2.677,1.365,5.13,3.112,7.515,4.935c-1.237,0.038-2.475-0.075-3.698,0.03
		c-3.465,3.983-6.075,8.618-9.083,12.945c-0.405-0.285-1.207-0.848-1.612-1.133c-0.78-5.85-1.598-11.7-2.407-17.55
		c-1.943,3.09-4.283,5.97-5.73,9.337c0.435,1.2,1.312,2.167,1.958,3.263c-2.88-0.99-5.31-2.903-7.665-4.763
		c1.117-0.038,2.235,0.067,3.36,0.053c1.552-0.968,2.385-2.73,3.465-4.155c1.545-2.445,3.57-4.71,4.17-7.62
		C254.442,46.053,253.745,45.078,253.107,44.058z"/>
	<g>
		<path fill="#014189" stroke="#014189" stroke-width="0.0938" stroke-miterlimit="10.43" d="M102.425,52.63
			c0.142-0.442,0.42-1.32,0.562-1.755c4.635,2.857,9.12,5.955,13.755,8.812c1.5,1.058,3.36,0.345,5.055,0.48
			c-2.565,2.16-5.347,4.05-8.22,5.782c0.308-0.922,0.63-1.838,0.983-2.738c-1.133-0.788-2.265-1.567-3.413-2.333
			c-1.5,1.065-3.015,2.115-4.522,3.165c0.412,1.26,0.765,2.542,1.305,3.765c0.57-0.09,1.725-0.277,2.302-0.368l0.42,0.705
			c-2.115,1.5-4.215,3.045-6.517,4.252c0.48-1.544,1.673-2.992,1.282-4.702C104.607,62.643,103.227,57.686,102.425,52.63z
			 M104.615,56.471c0.495,2.002,0.99,3.998,1.485,5.992c1.208-0.825,2.415-1.658,3.63-2.482
			C108.042,58.781,106.333,57.625,104.615,56.471z"/>
	</g>
	<g>
		<path fill="#014189" stroke="#014189" stroke-width="0.0938" stroke-miterlimit="10.43" d="M134.037,64.488
			c12.24-9.225,27.9-12.188,42.885-13.05c16.68-0.78,34.275,0.862,48.968,9.442c13.448,7.74,22.568,22.688,22.673,38.273
			c0,20.16-0.008,40.32,0.007,60.472c-1.365,0.45-3.105,0.645-3.757,2.138c-1.095,1.604-0.09,3.405,0.48,4.995
			c0.472-1.462,0.555-3.217,1.77-4.312c1.095-1.162,2.797-1.132,4.26-1.417c0.24,1.35,0.938,2.782,0.36,4.14
			c-0.525,0.997-1.463,1.688-2.213,2.497c1.868,4.095,6.915,6.428,11.145,4.583c2.752-1.17,5.422-4.575,3.787-7.568
			c-1.215,1.133-2.265,2.963-4.177,2.843c-2.347,0.105-4.35-2.272-3.802-4.567c0.367-2.257,3.03-3.698,5.13-2.79
			c1.59,0.555,2.107,2.31,2.94,3.6c0.465-0.712,0.922-1.425,1.387-2.145c-1.665-1.013-3.772-2.378-3.255-4.672
			c0.285-3.54,5.655-4.47,7.14-1.253c1.387,2.445-0.57,4.98-2.858,5.843c0.473,0.757,0.96,1.507,1.455,2.25
			c0.81-1.38,1.365-3.315,3.142-3.72c2.325-0.817,5.025,1.178,4.92,3.645c0.045,2.183-2.018,4.042-4.177,3.803
			c-1.808-0.112-2.76-1.837-3.938-2.948c-1.538,3.188,1.185,6.683,4.132,7.785c4.147,1.62,9.053-0.637,10.815-4.658
			c-1.665-1.26-1.252-3.54-0.015-4.92c1.08-1.342,2.948-1.425,4.455-1.98c-1.283-0.428-2.573-0.825-3.863-1.192
			c0.067-18.473,0.03-36.953,0.022-55.425c15.765,21.255,26.288,46.245,31.08,72.247c6.352,34.118,3.33,69.998-9.06,102.442
			c-4.77-0.015-9.54,0.053-14.31-0.022c1.32,1.657,2.97,3.757,2.025,6.007c-0.817,1.815-3.202,1.5-4.837,1.672
			c-15.015,0.053-30.022,0.045-45.038,0.008c-1.815-0.105-4.522,0.067-5.212-2.093c-0.742-2.205,0.893-4.095,2.16-5.685
			c-8.948,0.127-17.895,0-26.842,0.068c4.11-6.3,5.812-13.732,7.215-21.015c3.105-16.688,2.663-33.735,2.955-50.633
			c0.09-4.709-0.203-9.412-0.285-14.122c1.44-2.1,1.087-4.815-0.353-6.825c-2.535-3.308-5.647-6.765-5.663-11.183
			c-0.322-5.82-2.01-11.452-3.863-16.935c1.298-0.36,3.495,0.105,3.923-1.62c0.488-2.01-0.915-3.795-1.95-5.37
			c-2.542-3.36-4.508-7.238-5.295-11.4c-0.915-9.233,2.018-19.268-2.67-27.833c-2.22-4.32-7.268-5.28-11.032-7.71
			c-1.478,4.11-6.157,5.475-10.103,5.67c-3.69,0.105-7.83-0.397-10.627-3.038c-1.155-0.967-1.087-2.565-1.305-3.915
			c-2.423,0.405-4.875,0.728-7.268,1.29c-2.512,0.578-4.448,2.625-5.348,4.98c-1.702,4.245-3.412,8.498-4.86,12.84
			c-3.337-3.742-6.938-7.268-10.748-10.515c-1.605-0.195-3.18,0.45-4.74,0.712c6.188,5.317,12.188,11.04,16.732,17.865
			c-7.087-3.127-14.948-3.765-22.59-3.21c-0.93,1.29-1.853,2.58-2.782,3.87c6.81-0.51,13.815-0.915,20.468,0.908
			c2.19,0.502,3.9,1.995,5.587,3.375c1.215,1.125,3.63,0.48,3.69-1.32c1.05-4.267,3.938-7.777,7.02-10.777
			c4.642-4.402,10.192-7.763,16.087-10.192c2.19,6.757,4.335,13.53,6.54,20.28c1.567,0.255,3.142,0.525,4.702,0.84
			c-1.05-1.5-2.002-3.068-2.73-4.748c2.363-0.39,5.333-0.293,6.66-2.7c1.875-3.255-0.045-6.953-1.185-10.103
			c0.285-0.067,0.863-0.203,1.147-0.27c1.148,3.24,2.91,6.66,1.958,10.178c-0.623,2.19-2.835,3.322-3.893,5.25
			c-0.547,1.71,0.72,3.143,1.943,4.147c0.038,1.417,0.052,2.834,0.075,4.26c-5.423-1.673-11.13-1.995-16.763-2.325
			c0.532-0.473,1.598-1.418,2.13-1.89c-1.492,0.052-2.978,0.143-4.47,0.225c2.19-1.53,4.432-3.061,5.962-5.311
			c-0.54-0.72-1.08-1.432-1.605-2.145c-2.317,0.922-4.597,1.965-7.042,2.498c1.395-2.302,3.277-4.297,4.282-6.833
			c-4.193,1.005-6.443,5.438-10.59,6.757c0-2.025,0.278-4.26-1.515-5.677c-0.923,3.263-2.363,6.337-3.292,9.592
			c-3.165,2.603-7.478,3.877-11.542,3.172c-2.475-1.485-5.378-3.532-8.378-2.13c-3.008,1.853-4.282,5.49-4.89,8.797
			c-0.637,4.087-0.518,8.325,0.45,12.353c0.66,2.22,2.018,4.815,4.545,5.22c1.965,0.165,3.63-1.163,4.86-2.543
			c3.188-3.449,5.212-7.777,6.623-12.209c6.42-1.627,10.83-7.897,17.805-7.785c-2.94,2.888-7.05,4.493-9.593,7.785
			c-2.265,5.565-5.925,10.545-7.44,16.402c-1.02,2.483,2.34,4.163,1.38,6.608c-2.182,9.682-3.547,19.515-4.762,29.354
			c-0.082,1.373-0.217,3.218,1.125,4.065c4.808,2.018,10.253,0.285,15.075,2.273c-0.322,2.452-0.165,5.167-1.725,7.26
			c-0.465-1.635-0.788-3.308-1.028-4.988c-3.39-0.615-6.877-0.66-10.305-0.667c-0.218,0.225-0.645,0.682-0.863,0.907
			c-0.765,3.345-0.42,6.833-0.87,10.223c-0.953,6.825-0.63,13.732-1.035,20.603c-0.577,10.312-1.012,20.64-1.402,30.96
			c-5.948,0-12.008,0.06-17.79-1.53c-1.508-0.51-3.712-1.155-3.675-3.127c1.83-3.442,5.498-5.22,8.752-7.035
			c3.99-3.863,5.828-9.338,7.298-14.558c0.87-3.72,2.34-7.373,2.182-11.25c-1.747,0.652-2.962,2.078-3.735,3.728
			c-1.905,3.615-3.608,8.002-7.657,9.69c-2.288,0.825-3.848-1.875-3.848-3.825c-0.135-3.817,1.995-8.355,6-9.285
			c0.78,0.727,1.575,1.447,2.37,2.167c5.483-8.122,9.255-17.55,9.735-27.405c-0.045-2.438,0.12-5.678-2.377-7.035
			c-1.74,0.607-2.138,2.752-3.593,3.773c-0.922-0.96-1.095-2.288-0.787-3.541c1.155-6.712,3.45-13.155,5.685-19.567
			c1.162-3.48,2.91-6.788,3.652-10.395c-0.623-1.012-1.688-1.762-2.025-2.925c1.282-7.252,5.58-13.447,7.958-20.302
			c-2.61,1.59-3.585,4.657-5.077,7.155c-7.433,14.67-11.768,30.712-14.812,46.815c-0.555,3.57-1.703,7.68,0.45,10.942
			c1.193,1.53,3.008,0.135,4.425-0.232c-2.28,7.98-8.82,13.658-11.828,21.292c-2.175,5.362-4.26,11.948-1.058,17.325
			c0.96,1.83,2.235,3.922,1.373,6.045c-1.8,4.56-7.462,6.097-9.157,10.732c-0.93,2.093,0.165,4.425,1.762,5.843
			c2.265,2.025,5.01,3.397,7.538,5.047c-4.058,0.007-8.108,0.045-12.165-0.03c1.335,1.68,2.955,3.788,2.04,6.075
			c-0.848,1.875-3.33,1.507-5.01,1.688c-15,0.007-30.008-0.015-45.008-0.045c-1.695-0.105-4.013,0.127-4.943-1.65
			c-1.02-2.25,0.638-4.365,1.95-6.03c-4.252,0.083-8.513,0.038-12.773,0.06c-10.59-27.75-14.347-58.02-11.22-87.54
			c3.262-31.492,14.595-62.317,33.69-87.683c0.022,18.78-0.045,37.561,0.03,56.34c-1.672-0.158-3.307,0.143-4.867,0.72
			c1.778,0.622,4.035,0.899,4.98,2.79c1.125,1.59-0.097,3.405-0.037,5.115c2.265,4.117,8.302,5.52,12.045,2.602
			c1.95-1.485,3.637-4.334,2.205-6.712c-1.125,1.065-2.025,2.76-3.765,2.873c-2.198,0.308-4.357-1.612-4.267-3.833
			c-0.06-2.459,2.632-4.433,4.95-3.592c1.77,0.42,2.317,2.355,3.12,3.735c0.488-0.757,0.968-1.515,1.44-2.28
			c-1.193-0.817-2.835-1.462-3.15-3.061c-0.743-2.37,1.365-4.979,3.832-4.8c2.318,0.03,4.177,2.445,3.555,4.695
			c-0.285,1.65-1.987,2.34-3.18,3.248c0.443,0.727,0.885,1.462,1.343,2.19c0.847-1.305,1.373-3.12,3.008-3.66
			c2.347-0.982,5.235,0.975,5.16,3.525c0.113,2.355-2.31,4.297-4.583,3.78c-1.552-0.285-2.385-1.815-3.488-2.76
			c-1.62,3.068,1.125,6.502,3.952,7.635c4.208,1.732,9.165-0.6,11.003-4.65c-2.265-1.477-3.03-4.125-1.875-6.584
			c1.432,0.337,3.127,0.337,4.2,1.515c1.14,1.117,1.245,2.835,1.845,4.245c0.435-1.605,1.403-3.435,0.338-5.003
			c-0.758-1.657-2.708-1.792-4.245-2.145c0-20.925,0.06-41.85-0.037-62.775C117.8,84.4,123.972,71.951,134.037,64.488z
			 M174.087,58.63c0.495,0.998,3.06,3.045,0.757,3.383c-2.662-1.47-5.092-3.63-8.242-3.953c-2.962-0.413-6.63,0.66-7.912,3.6
			c-0.69,1.635,0.982,2.752,1.823,3.893c-1.012,1.785-2.198,3.742-1.74,5.887c0.705,4.223,6.998,6.353,9.78,2.843
			c2.062-2.408,0.9-5.828,1.837-8.588c0.818-1.8,5.07-1.897,4.943,0.345c-1.388,1.845-3.308,3.292-4.26,5.452
			c-1.253,2.513-1.17,5.385-1.815,8.062c-0.96,2.791-4.387,3.601-5.632,6.195c-1.028,2.617,1.777,4.455,2.573,6.69
			c-0.863,2.558-3.308,4.095-4.95,6.12c5.025,0.795,10.14,0.135,15.15-0.495c-0.368-0.345-1.087-1.042-1.448-1.387
			c-3.157,0.127-6.308,0.314-9.465,0.262c2.318-1.965,4.598-4.98,3.27-8.167c-0.39-1.552-2.272-3.645-0.39-4.905
			c3.188-1.74,7.042-1.26,10.357-0.135c-2.137,0.263-4.455,0.008-6.397,1.095c-0.022,0.442-0.068,1.335-0.09,1.785
			c2.16-0.472,4.335-0.922,6.555-1.012c-0.682,0.397-1.365,0.788-2.047,1.178c-0.135,0.472-0.398,1.417-0.525,1.89
			c-0.915-0.181-1.582-0.735-1.995-1.658c-0.352,0.083-1.073,0.24-1.433,0.322c1.208,3.66,1.733,7.883,4.725,10.627
			c1.74,1.613,4.275,1.021,6.427,1.275c-1.41,0.982-3.052,1.462-4.74,1.665c0.083,0.292,0.24,0.878,0.315,1.17
			c-1.012,0.18-2.017,0.375-3.022,0.57c0.742,5.062,6.652,6.63,11.01,6.112c3.248-0.323,7.485-2.07,7.65-5.865
			c-1.08-2.453-2.67-4.718-3.052-7.44c4.815-0.503,9.795-0.533,14.363-2.303c-2.482-1.74-6.083-1.68-7.95-4.275
			c-1.095-2.355,0.068-5.235-1.222-7.56c-0.922-1.792-2.955-2.43-4.613-3.315c0.113-3.87-2.198-6.945-4.492-9.788
			c4.012,0.217,4.68,5.408,8.46,6.03c2.677,0.556,5.94,0.773,8.055-1.305c2.407-2.175,2.663-5.745,1.883-8.7
			c-1.11-3.547-6.21-4.163-8.91-2.175c-0.855,1.815-0.84,4.447-2.992,5.317c-2.318,1.125-4.568-0.667-6.45-1.837
			c2.047-1.44,4.853-3.135,4.365-6.083c-0.015-3.09-3.847-4.927-6.458-3.607c-1.89,0.667-2.198,2.888-3.097,4.417
			c-2.663-0.967-1.02-5.04-3.795-5.775C176.66,53.261,172.775,55.608,174.087,58.63z M59.683,160.863
			c1.282,0.48,2.707,0.705,3.855,1.493c1.417,1.087,1.598,3.007,2.228,4.552c0.6-1.845,1.448-4.163-0.225-5.723
			C63.995,159.393,61.573,160.143,59.683,160.863z M136.07,160.938c1.29,0.51,2.738,0.75,3.87,1.605
			c1.312,1.035,1.425,2.842,1.965,4.305c0.803-1.703,1.56-3.923,0.008-5.46C140.45,159.498,137.938,160.128,136.07,160.938z
			 M225.8,160.818c-1.98,1.448-1.328,4.05-0.645,6c0.728-1.62,0.968-3.75,2.64-4.763c1.103-0.562,2.34-0.81,3.518-1.199
			C229.558,160.233,227.397,159.341,225.8,160.818z M301.857,161.096c-1.695,1.567-0.893,3.915-0.27,5.767
			c0.495-1.252,0.713-2.64,1.463-3.78c1.064-1.507,3.052-1.643,4.649-2.235C305.825,160.158,303.417,159.318,301.857,161.096z
			 M68.127,163.833c1.65,0.683,3.863,0.862,4.815,2.618c0.532,1.103,0.788,2.317,1.163,3.487c0.75-1.883,1.56-4.312-0.255-5.873
			C72.29,162.393,69.965,163.203,68.127,163.833z M127.662,163.9c1.478,0.592,3.285,0.758,4.403,2.025
			c0.982,1.095,1.05,2.663,1.485,4.005c0.802-1.702,1.62-3.915,0.112-5.505C132.185,162.4,129.597,163.195,127.662,163.9z
			 M233.787,164.246c-1.672,1.583-0.885,3.893,0.023,5.632c0.397-1.38,0.472-2.97,1.515-4.058c1.103-1.214,2.85-1.365,4.305-1.935
			C237.755,163.166,235.295,162.416,233.787,164.246z M293.217,164.351c-1.492,1.612-0.562,3.75,0.105,5.498
			c0.525-1.598,0.66-3.57,2.16-4.62c1.14-0.742,2.513-0.953,3.772-1.433C297.305,163.008,294.68,162.326,293.217,164.351z
			 M118.677,168.603c0.69,2.062,1.47,4.425,3.6,5.422c2.19,1.17,4.703,0.458,6.96-0.09c-2.108-0.098-4.463,0.345-6.323-0.907
			c-1.867-1.208-2.46-3.465-3.232-5.408C119.427,167.868,118.925,168.356,118.677,168.603z M247.558,167.613
			c-0.675,1.875-1.238,3.998-2.963,5.205c-1.852,1.395-4.305,0.93-6.457,1.073c2.235,0.54,4.725,1.215,6.892,0.067
			c2.16-0.99,2.948-3.382,3.6-5.475C248.36,168.266,247.827,167.831,247.558,167.613z M133.438,181.525
			c-21.75-0.015-43.493,0-65.235-0.007c-0.008,14.317,0.008,28.627-0.008,42.945c0,3.54,0.15,7.11,1.035,10.56
			c2.55,10.545,10.688,19.5,20.91,23.123c7.252,2.722,15.248,2.34,22.59,0.188c-8.64,4.403-19.058,5.1-28.117,1.53
			c0.008,5.46,0,10.913,0.008,16.373c11.197,0,22.395,0.007,33.592,0c0.015-6.908-0.03-13.808,0.022-20.715
			c7.305-4.373,12.907-11.55,15.12-19.792c1.53-5.377,1.2-11.018,1.23-16.545c-0.022-13.725,0.052-27.45-0.053-41.175
			c-0.195-3.172,0.66-6.24,1.845-9.15C133.152,172.263,133.31,177.161,133.438,181.525z M231.845,168.783
			c0.908,2.453,1.868,4.958,1.8,7.62c0.052,14.565,0,29.137,0.022,43.703c5.362,0,10.732,0,16.095,0c0-2.978,0-5.963,0.008-8.94
			c-1.673,0.36-3.337,0.705-4.995,1.087c0.015,0.653,0.045,1.95,0.06,2.603c-0.525-0.69-1.05-1.388-1.575-2.07
			c-0.158,0.585-0.473,1.748-0.63,2.325c-0.12-0.585-0.367-1.77-0.495-2.363c-0.413,0.255-1.238,0.765-1.65,1.02
			c0.248-1.23,0.48-2.46,0.69-3.69c0.84,0.352,1.688,0.712,2.527,1.08c1.185-0.713,2.377-1.417,3.577-2.108
			c-0.6-0.405-1.207-0.78-1.8-1.177c1.777-0.87,2.985-2.438,4.26-3.885c0.03-0.584,0.083-1.762,0.112-2.347
			c-0.84-0.398-1.688-0.795-2.527-1.178c-1.853,2.025-4.462,3.39-5.723,5.917c-0.495-0.21-0.99-0.42-1.485-0.623
			c-0.502,0.533-1.005,1.065-1.508,1.598c0.068-0.593,0.195-1.778,0.255-2.37c-0.458,0.27-1.373,0.817-1.83,1.095
			c0.292-1.095,0.383-2.228,0.39-3.353c1.087,0.248,2.16,0.592,3.188,1.042c1.335-1.47,2.7-2.91,4.11-4.312
			c-0.922-0.165-1.845-0.337-2.76-0.51c1.103-0.405,2.205-0.818,3.315-1.238c-2.977-2.1-5.212-5.317-8.835-6.367
			c0.555-0.12,1.673-0.36,2.235-0.48c-0.488-0.42-1.463-1.26-1.943-1.68l1.943,0.33c-0.24-0.383-0.728-1.133-0.975-1.515
			c0.863,0.158,1.725,0.15,2.587,0c0.203,0.9,0.398,1.807,0.593,2.723c2.76,1.448,5.513,5.662,8.895,3.862
			c2.19-1.035-0.217-2.76-1.507-3.083c1.005-0.27,2.017-0.532,3.03-0.78c-1.11-0.698-2.205-1.417-3.278-2.167
			c1.02-0.615,2.055-1.208,3.083-1.815c1.718,0.3,3.472,0.436,5.205,0.143c-0.638,2.333-1.418,4.83-0.09,7.103
			c-0.675-0.03-2.032-0.083-2.707-0.112c1.163,1.5,2.887,2.25,4.635,2.85c-1.583,0.42-3.21,0.645-4.83,0.855
			c2.678,1.762,5.483,3.6,8.873,2.978c-0.225-4.05-4.515-6.436-4.62-10.462c0.532-2.573,3.705-2.115,5.67-2.498
			c3.022,1.575,0.825,5.31,1.14,7.905c-2.325-1.462-3.863-3.795-3.562-6.645c-0.93,0.368-2.28,0.488-2.167,1.822
			c0.877,3.593,4.567,5.918,4.62,9.833c1.095,0,2.205,0,3.315,0.008c0-6.353,0-12.698,0-19.042
			c-10.575-0.007-21.143,0.008-31.71-0.007C234.958,177.093,235.198,172.128,231.845,168.783z M67.49,170.358
			c1.252,1.695,2.677,3.488,4.823,4.042c1.995,0.675,4.08,0.045,6.037-0.465c-2.505-0.06-5.468,0.33-7.387-1.665
			C69.875,171.468,69.102,169.766,67.49,170.358z M298.61,169.945c-1.192,1.312-2.333,2.835-4.058,3.48
			c-1.755,0.63-3.667,0.383-5.497,0.51c1.972,0.473,4.058,1.05,6.068,0.405c1.957-0.525,3.285-2.146,4.575-3.6
			C299.427,170.538,298.88,170.141,298.61,169.945z M267.867,181.466c0.06,6.337,0.015,12.675,0.03,19.012
			c3.188,0,6.382,0.008,9.577-0.022c-0.532-0.412-1.597-1.23-2.13-1.643c1.073-0.3,2.145-0.607,3.218-0.93
			c-2.685-2.167-4.845-5.31-8.325-6.225c0.345-0.21,1.02-0.645,1.357-0.863c-0.21-0.36-0.622-1.08-0.825-1.447
			c0.915-0.548,1.845-1.073,2.775-1.605c0.39,1.343,0.278,3.09,1.718,3.848c1.897,1.305,4.02,3.802,6.48,2.25
			c-0.758-0.541-1.515-1.065-2.28-1.583c1.815-0.584,2.333-2.317,2.588-4.02c1.8,0.338,3.6,0.698,5.392,1.08
			c-0.165,1.74-0.33,3.495,0.03,5.228c-0.518,0-1.537-0.007-2.047-0.015c0.255,3.623,4.162,4.537,6.592,6.427
			c1.02,0.945,3.51,0.36,3.233-1.275c-0.42-3.428-4.02-5.542-4.403-9.015c-0.232-1.426,1.103-2.565,2.438-2.61
			c1.597-0.285,3.953-1.087,4.657,1.02c0.495,2.078-0.382,4.283-0.21,6.427c-2.43-1.395-3.998-3.817-3.623-6.697
			c-1.17,0.3-2.835,1.11-2.002,2.603c1.042,3.18,4.62,5.393,4.2,9.03c-0.331,1.643-2.257,1.763-3.503,2.302
			c0.39,0.75,0.78,1.508,1.177,2.265c-0.263,0.42-0.802,1.253-1.065,1.672c0.795,0.983,1.912,1.47,3.157,1.703
			c-0.42,3.465-3.292,5.565-6.022,7.26c0.248,0.338,0.742,1.02,0.99,1.357c-0.21,0.397-0.427,0.78-0.66,1.163
			c-0.292-0.405-0.87-1.223-1.155-1.627l-1.012,1.252c-0.12-0.368-0.367-1.095-0.488-1.455c-0.337,0.435-1.012,1.305-1.35,1.74
			c0.127-0.548,0.383-1.643,0.51-2.198c-0.57,0.285-1.71,0.855-2.272,1.14c0.787-2.52,3.487-2.347,5.52-3.158
			c1.057-0.862,0.742-2.415,1.02-3.607c-1.005,0.435-2.01,0.855-3.007,1.298c0.817-2.431,0.502-4.988,0.458-7.5
			c-1.185,1.68-2.61,3.165-4.185,4.485c0.413,0.195,1.222,0.592,1.627,0.795c-0.585,0.495-1.17,0.998-1.755,1.5
			c0,3.127-0.03,6.255,0,9.382c5.295,0,10.598,0,15.9,0c0-12.922,0-25.845,0-38.775
			C289.415,181.451,278.645,181.406,267.867,181.466z M250.542,187.766 M285.567,191.291c0.218-0.255,0.645-0.765,0.855-1.02
			c-1.387,0.21-2.685-0.263-3.953-0.757C283.31,190.406,284.45,190.848,285.567,191.291z M282.102,193.023
			c1.095,0.135,2.198,0.285,3.293,0.443c-0.593-0.473-1.193-0.938-1.793-1.403C283.1,192.386,282.597,192.701,282.102,193.023z
			 M257.135,201.798c2.19,2.67,4.312,5.392,6.502,8.062c0.623,1.058,1.89,1.095,2.955,1.372c0.045-3.15,0.023-6.292,0.023-9.435
			C263.458,201.791,260.292,201.791,257.135,201.798z M267.89,201.791c-0.03,0.863-0.09,2.595-0.12,3.465
			c2.985,0.982,6.195,0.323,9.277,0.45c-1.035,0.555-2.122,0.998-3.083,1.657c-0.225,1.2-0.24,2.431-0.315,3.645
			c0.458,0.008,1.373,0.023,1.83,0.03c-0.015,1.373-0.022,2.737-0.015,4.11c1.268-0.15,2.798,0.188,3.765-0.877
			c1.215-1.62,0.698-3.795,1.005-5.663c1.575,1.095,0.705,3.218,0.45,4.763c-0.593,2.28-3.3,2.497-5.213,2.835
			c-0.008,1.328-0.008,2.662,0,3.998c2.52-0.008,5.048-0.008,7.575-0.008c0-6.135,0-12.27,0-18.397
			C277.992,201.791,272.938,201.798,267.89,201.791z M284.33,202.121c-0.375,1.223,0.052,1.62,1.275,1.192
			C285.972,202.091,285.545,201.693,284.33,202.121z M267.748,205.9c0.067,1.703,0.105,3.42,0.135,5.123c1.29,0,2.587,0,3.878-0.007
			c-0.068-1.283-0.09-2.573-0.278-3.84C270.297,206.576,268.985,206.32,267.748,205.9z M251.12,207.701c-0.008,4.17,0,8.34,0,12.51
			c2.52,0,5.04,0,7.567,0c-0.008-1.057-0.008-2.115,0-3.165C256.16,213.933,253.647,210.805,251.12,207.701z M259.917,212.238
			c0,1.515-0.008,3.038-0.008,4.561c1.523,0,3.045,0,4.567,0c0.12,1.725-0.345,3.592,0.42,5.205c1.395,0.166,2.85-0.172,4.208,0.308
			c1.177,2.018,0.3,4.56,0.607,6.78c2.685-1.455,4.365-4.065,4.725-7.08c-1.433-0.038-2.873,0.165-4.298,0
			c-0.892-1.575-0.36-3.495-0.517-5.22c-1.71,0.008-3.42,0.015-5.123,0.022c-0.008-1.53-0.008-3.052-0.008-4.582
			C262.97,212.231,261.44,212.231,259.917,212.238z M269.667,212.238c0,1.515-0.008,3.038,0,4.561c1.515,0,3.037,0,4.56,0
			c-0.008-1.523-0.008-3.045-0.008-4.567C272.698,212.231,271.183,212.231,269.667,212.238z M233.772,221.471
			c-0.045,3.728-0.008,7.47,0.458,11.175c5.985,0.038,11.978-0.015,17.97,0.038c-1.875-3.442-2.505-7.335-2.392-11.22
			C244.46,221.471,239.12,221.463,233.772,221.471z M251,221.411c0.015,3.652,0.337,7.478,2.377,10.627
			c2.708,4.672,7.875,7.462,13.185,7.845c-0.038-3.022,0.188-6.052-0.098-9.067c-0.33-0.172-0.99-0.517-1.32-0.69
			c-0.54,1.328-0.488,3.195-1.897,3.998c-2.078,1.275-5.175,1.283-6.975-0.48c-1.23-2.257-0.375-4.98-0.907-7.41
			c-0.93-0.585-1.943-0.967-2.91-1.462c2.168-0.052,4.335-0.067,6.51-0.067c-0.127-1.095-0.24-2.198-0.345-3.292
			C256.077,221.411,253.535,221.411,251,221.411z M275.502,221.463c-0.09,0.923-0.173,1.853-0.255,2.783
			c1.972,2.423,3.907,4.86,5.887,7.275c1.613-3.097,2.017-6.6,1.95-10.042C280.558,221.463,278.03,221.471,275.502,221.463z
			 M284.42,221.516c-0.045,2.362-0.24,4.732-0.593,7.072c2.677-0.18,5.363-0.18,8.04-0.083c2.01,0.083,3.96-1.125,4.56-3.09
			c-2.647,0.375-5.212,1.163-7.882,1.38c0.097-0.952,0.24-1.897,0.435-2.827c0.645-0.12,1.935-0.36,2.58-0.473
			c-0.923,0.96-1.875,1.89-2.828,2.82c2.895,0.188,5.903-2.573,8.557-0.555c-1.08,1.643-2.669,2.775-4.462,3.518
			c0.712,1.26,1.462,2.647,3.15,2.632c-0.27,1.155-0.705,2.258-0.997,3.413c-0.615-0.075-1.215-0.135-1.83-0.188
			c0.675-0.578,1.305-1.215,1.875-1.898c-1.448-0.517-2.812-1.215-4.02-2.16c-1.567,1.792-3.225,3.653-5.572,4.388
			c1.522-1.763,3.262-3.345,4.545-5.31c-2.625,0.675-5.137,1.77-7.823,2.22c-3.037,5.033-8.415,8.4-14.295,8.805
			c0.038,6.338-0.008,12.668,0.022,19.005c12.083-0.42,23.715-7.703,28.897-18.698c3.15-6.142,3.6-13.185,3.442-19.957
			C294.958,221.516,289.692,221.545,284.42,221.516z M259.752,221.928c0.277,3.045,1.98,5.692,4.688,7.125
			c-0.188-2.212,0.735-4.815-0.577-6.758C262.535,221.868,261.117,222.011,259.752,221.928z M257.967,232.653
			c1.62,3.127,6.653,1.17,6.068-2.258c-2.047-1.433-3.855-3.143-5.302-5.175C257.007,227.291,257.472,230.223,257.967,232.653z
			 M268.017,230.103c-0.225,3.285-0.157,6.585-0.113,9.878c2.58-0.375,5.07-1.14,7.41-2.273
			C272.907,235.18,271.422,231.416,268.017,230.103z M239.915,246.281c2.4,3.195,5.28,6,8.558,8.295
			c0,7.229-0.022,14.453-0.03,21.682c11.79,0.008,23.58,0,35.37,0.008c0.007-5.482,0-10.958,0.03-16.433
			c-9.105,3.66-19.597,2.91-28.297-1.5c3.638,0.893,7.305,1.717,11.062,1.853c0.015-4.642,0.008-9.285,0.008-13.92
			C257.712,246.273,248.81,246.243,239.915,246.281z M73.647,284.103c17.88,0.188,35.775,0.143,53.655,0.022
			c-0.765-3.998-4.898-6.78-8.843-6.607c-12.008,0.022-24.008,0.022-36.015,0C78.545,277.436,74.39,280.098,73.647,284.103z
			 M239.727,284.201c17.88,0.007,35.775,0.15,53.655-0.075c-0.892-4.095-5.137-6.87-9.202-6.623
			c-12.255,0.052-24.502-0.022-36.758,0.03C243.912,277.916,240.14,280.436,239.727,284.201z"/>
	</g>
	<path fill="#014189" stroke="#014189" stroke-width="0.0938" stroke-miterlimit="10.43" d="M83.367,68.523
		c2.025-2.962,4.83-5.595,8.07-7.17c-0.51,0.96-1.042,1.905-1.583,2.842c1.883,2.768,4.29,5.108,6.495,7.62
		c1.013,1.05,1.935,2.288,3.307,2.895c0.562-0.218,1.68-0.652,2.243-0.877c0.143,0.165,0.427,0.495,0.57,0.66
		c-2.7,2.056-4.732,5.198-8.047,6.308c0.51-0.915,1.042-1.822,1.59-2.722c-2.587-3.57-5.64-6.803-8.738-9.922
		C86.172,66.828,84.642,68.373,83.367,68.523z"/>
	<g>
		<path fill="#014189" stroke="#014189" stroke-width="0.0938" stroke-miterlimit="10.43" d="M274.805,63.618
			c6.113-1.537,12.683,3.87,12.623,10.095c-0.06,4.268-3.54,8.01-7.627,8.865c-6.3,1.268-12.795-4.785-12.052-11.145
			C268.123,67.668,271.22,64.541,274.805,63.618z M278.352,66.243c-3.787,1.351-6.84,4.973-7.402,8.97
			c-0.525,3.173,2.962,6.053,5.955,4.695c3.66-1.598,6.638-5.22,7.133-9.233C284.488,67.646,281.217,65.043,278.352,66.243z"/>
	</g>
	<path fill="#014189" stroke="#014189" stroke-width="0.0938" stroke-miterlimit="10.43" d="M73.775,77.71
		c1.838-1.837,3.007-4.583,5.558-5.55c-0.428,1.042-0.907,2.07-1.38,3.105c3.142,2.888,6.548,5.482,9.938,8.062
		c1.448,1.5,3.083-0.368,4.575-0.773c-1.95,3.166-4.425,6.008-7.117,8.558c0.262-1.17,0.615-2.317,0.997-3.45
		c-3.067-3.06-6.615-5.58-9.952-8.317c2.25,5.032,4.897,9.885,7.05,14.97c-5.167-0.705-10.035-2.715-15.075-3.967
		c2.94,2.527,5.565,5.482,8.865,7.552c1.215-0.3,2.385-0.772,3.578-1.132c-1.673,2.31-3.375,4.665-5.618,6.473
		c-0.022-1.343,1.058-3.008-0.195-4.058c-2.948-3.06-5.858-6.255-9.3-8.753c-1.155,0.345-2.168,1.021-3.255,1.515
		c1.073-2.197,2.768-3.99,4.335-5.834c4.208,1.08,8.408,2.175,12.615,3.255C77.525,85.481,75.62,81.603,73.775,77.71z"/>
	<path fill="#014189" stroke="#014189" stroke-width="0.0938" stroke-miterlimit="10.43" d="M178.708,83.388
		c3.097-3.413,7.905-5.535,12.502-4.357c1.92,0.472,2.228,2.58,2.37,4.23c-1.38-1.035-2.617-2.678-4.515-2.595
		C185.39,80.425,181.977,81.94,178.708,83.388z"/>
	<path fill="#014189" stroke="#014189" stroke-width="0.0938" stroke-miterlimit="10.43" d="M180.357,85.713
		c1.89-1.335,4.305-1.965,6.585-1.44c-0.69,0.203-2.07,0.593-2.76,0.795c-0.263,0.743-0.533,1.485-0.81,2.228
		C182.367,86.763,181.363,86.238,180.357,85.713z"/>
	<path fill="#014189" stroke="#014189" stroke-width="0.0938" stroke-miterlimit="10.43" d="M290.623,83.928
		c2.482-1.35,5.985,0.382,6.24,3.24c0.57,3.367-3.465,6.24-6.443,4.507C287.292,90.236,287.517,85.263,290.623,83.928z"/>
	<path fill="#014189" stroke="#014189" stroke-width="0.0938" stroke-miterlimit="10.43" d="M177.71,92.32
		c1.2-0.57,2.482-0.945,3.75-1.342c0.15,0.24,0.458,0.728,0.607,0.975C180.62,92.141,179.165,92.313,177.71,92.32z"/>
	<g>
		<path fill="#014189" stroke="#014189" stroke-width="0.0938" stroke-miterlimit="10.43" d="M304.708,90.476
			c2.482,2.693,4.252,5.948,6.27,8.993c1.178,1.875,2.25,4.763,0.226,6.472c-1.673,1.748-4.192,0.63-5.835-0.517
			c0.277,1.395,0.893,2.842,0.472,4.282c-0.667,2.31-3.517,3.698-5.745,2.745c-2.16-0.863-3.578-2.82-4.89-4.643
			c-1.725-2.587-3.54-5.123-5.01-7.875c1.05,0.45,2.04,1.012,3.105,1.433c1.417-0.27,2.542-1.29,3.758-2.018
			c2.587-1.853,5.453-3.337,7.837-5.482C304.865,92.733,304.805,91.601,304.708,90.476z M302.48,100.623
			c1.208,1.515,2.962,3.825,5.152,2.535c2.663-1.163,1.628-4.343,0.113-6.008C305.967,98.283,304.22,99.445,302.48,100.623z
			 M296.232,105.221c-0.6,1.185,0.413,2.445,1.305,3.15c2.01,1.492,5.138-0.045,5.625-2.385c0.18-1.763-0.885-3.285-1.598-4.8
			C299.743,102.453,297.65,103.466,296.232,105.221z"/>
	</g>
	<path fill="#014189" stroke="#014189" stroke-width="0.0938" stroke-miterlimit="10.43" d="M178.085,94.886
		c1.77-0.428,3.562-0.743,5.377-0.915C182.195,95.741,179.75,96.88,178.085,94.886z"/>
	<path fill="#014189" stroke="#014189" stroke-width="0.0938" stroke-miterlimit="10.43" d="M57.867,98.433
		c1.537,0.78,3.068,1.583,4.53,2.505c-1.298,0.248-2.61,0.225-3.907,0.367c-1.627,0.968-2.34,2.865-3.315,4.403
		c1.77,1.133,3.577,2.22,5.385,3.308c0.72-1.252,1.477-2.482,2.047-3.803c-0.397-0.975-0.833-1.935-1.297-2.872
		c2.197,0.847,4.597,1.785,5.932,3.87c-0.705-0.083-2.122-0.248-2.828-0.322c-0.87,1.275-1.717,2.572-2.55,3.885
		c1.98,1.005,3.825,2.85,6.135,2.857c1.312-1.192,2.242-2.774,2.775-4.455c0.052-1.694-1.245-3.112-1.357-4.814
		c1.455,1.095,2.775,2.34,4.095,3.584c-2.13,3.541-4.298,7.065-6.397,10.628c-0.63,1.087-1.38,2.122-2.377,2.91
		c0.135-1.103,0.345-2.189,0.45-3.3c-1.26-1.522-3.135-2.325-4.762-3.375c-2.37-1.335-4.568-3.038-7.17-3.885
		c-1.05,0.435-2.017,1.05-3.045,1.537C52.482,106.96,55.333,102.783,57.867,98.433z"/>
	<g>
		<path fill="#014189" stroke="#014189" stroke-width="0.0938" stroke-miterlimit="10.43" d="M301.25,116.831
			c1.515,0.652,2.895,1.927,4.65,1.792c5.272-0.157,10.53-0.592,15.795-0.818c0.21,0.308,0.623,0.916,0.833,1.223
			c-3.562,4.08-7.245,8.047-10.703,12.217c-1.2,1.192-0.667,2.992-0.81,4.485c-2.311-2.536-3.473-5.888-4.65-9.053
			c0.772,0.555,1.538,1.117,2.303,1.688c1.005-0.99,1.995-1.988,2.978-2.993c-0.817-1.665-1.635-3.323-2.453-4.973
			c-1.357,0.203-2.708,0.405-4.05,0.63c0.015,1.042,0.03,2.085,0.038,3.127C303.417,121.991,302.3,119.396,301.25,116.831z
			 M310.797,120.063c0.66,1.335,1.32,2.663,1.98,3.998c1.403-1.522,2.805-3.053,4.2-4.59
			C314.915,119.666,312.86,119.861,310.797,120.063z"/>
	</g>
	<g>
		<path fill="#014189" stroke="#014189" stroke-width="0.0938" stroke-miterlimit="10.43" d="M44.052,123.858
			c1.56-3.105,4.657-5.962,8.377-5.482c5.198,0.435,9.157,5.76,7.935,10.882c-1.05,4.485-2.97,8.85-5.483,12.713
			c-0.022-0.78-0.082-2.34-0.105-3.12c-0.998-1.35-2.805-1.74-4.23-2.498c-2.835-1.125-5.482-2.82-8.49-3.45
			c-0.968,0.555-1.838,1.245-2.76,1.852C40.565,130.998,42.282,127.406,44.052,123.858z M43.498,128.478
			c3.967,1.905,7.942,3.84,12.052,5.408c1.935,0.9,2.752-1.703,3-3.105c0.825-4.98-4.785-8.153-9.098-8.175
			C46.183,122.606,44.458,125.8,43.498,128.478z"/>
	</g>
	<path fill="#014189" stroke="#014189" stroke-width="0.0938" stroke-miterlimit="10.43" d="M90.41,121.511
		c2.182-0.9,4.515-1.312,6.825-1.763c0.105,4.853-0.203,9.72,0.135,14.565c0.75,0.607,1.53,1.185,2.325,1.732
		c-3.067,0.105-6.15,0.135-9.218-0.045c0.87-0.525,1.755-1.027,2.648-1.53c-0.105-4.035,0.382-8.13-0.248-12.127
		C92.262,122.141,91.025,121.721,90.41,121.511z"/>
	<path fill="#014189" stroke="#014189" stroke-width="0.0938" stroke-miterlimit="10.43" d="M103.7,120.011
		c2.722-0.008,5.445-0.008,8.167,0c-0.165,0.99-0.338,1.987-0.502,2.985c-2.198,0-4.388,0-6.578,0c-0.18,1.08-0.36,2.16-0.54,3.247
		c2.498-0.63,5.79-0.922,7.44,1.508c1.905,2.49,0.292,6.03-2.25,7.343c-2.408,1.763-5.445,1.335-7.995,0.18
		c0.458-0.907,0.953-1.807,1.485-2.67c1.387,0.825,2.655,2.018,4.32,2.243c2.317-1.425,1.807-5.708-0.758-6.608
		c-1.268-0.292-2.557-0.03-3.833,0.023C103.025,125.516,103.363,122.763,103.7,120.011z"/>
	<path fill="#014189" stroke="#014189" stroke-width="0.0938" stroke-miterlimit="10.43" d="M254.113,125.043
		c0.195-1.666,0.405-3.338,0.622-5.003c3.825,0.008,7.643-0.03,11.468,0.045c-2.483,5.325-4.897,10.695-7.215,16.103
		c-1.335,0.053-2.663,0.112-3.99,0.158c2.745-4.343,5.475-8.685,7.942-13.192C259.887,123.19,256.392,122.478,254.113,125.043z"/>
	<path fill="#014189" stroke="#014189" stroke-width="0.0938" stroke-miterlimit="10.43" d="M268.865,120.011
		c2.715-0.008,5.43-0.008,8.145,0c-0.165,0.99-0.338,1.987-0.503,2.985c-2.19,0-4.38,0-6.57,0c-0.18,1.08-0.36,2.152-0.54,3.232
		c1.867-0.315,3.892-0.855,5.692,0.067c2.34,0.983,3.315,4.103,2.018,6.278c-1.935,3.36-6.922,5.055-10.185,2.565
		c-0.232-1.013,0.742-1.71,1.147-2.535c1.56,0.697,3.623,3.315,5.265,1.478c0.952-1.823,0.66-4.478-1.17-5.647
		c-1.387-0.6-2.932-0.217-4.38-0.18C268.205,125.516,268.52,122.755,268.865,120.011z"/>
	<path fill="#014189" stroke="#014189" stroke-width="0.0938" stroke-miterlimit="10.43" d="M322.07,131.38
		c1.837-0.757,3.758-1.312,5.67-1.875c0.143,2.752,1.343,5.258,2.272,7.8c1.065,2.768,1.808,5.723,3.645,8.123
		c-1.837,0.788-3.667,1.59-5.572,2.189c0.712-1.612,3.022-2.797,2.333-4.785c-0.203-0.945-0.495-1.867-0.758-2.797
		c-4.5,1.83-9.285,3.06-13.59,5.317c-0.157,1.208-0.255,2.43-0.3,3.66c-2.003-3.218-3-6.922-4.155-10.485
		c1.305,0.697,2.333,2.842,4.073,2.084c4.208-1.35,8.288-3.052,12.45-4.537c-0.675-1.215-1.08-2.647-2.092-3.623
		C324.71,132.085,323.345,131.906,322.07,131.38z"/>
	<path fill="#014189" stroke="#014189" stroke-width="0.0938" stroke-miterlimit="10.43" d="M145.73,144.866
		c0.435-3.015,1.268-6.758,4.552-7.837c-0.682,3.104-2.467,6.592-0.472,9.584c1.68,2.565,5.152,1.718,7.695,1.583
		c-1.38,3.435-3.038,7.155-6.285,9.218c-1.665,1.155-3.952,0.165-4.612-1.65C145.107,152.358,145.363,148.473,145.73,144.866z"/>
	<g>
		<path fill="#014189" stroke="#014189" stroke-width="0.0938" stroke-miterlimit="10.43" d="M50.135,146.763
			c1.905,0,2.902-1.792,4.177-2.896c-0.713,3.331-1.238,6.916-3.255,9.743c-0.09-0.675-0.255-2.018-0.338-2.692
			c-1.417,0.052-2.835,0.12-4.252,0.194c-0.532,1.77-1.072,3.541-1.605,5.317c1.14,0.75,2.28,1.5,3.442,2.228
			c0.727-0.735,1.47-1.448,2.235-2.153c-0.51,2.715-1.327,5.362-2.355,7.92c-0.638-1.597-0.803-3.525-2.28-4.642
			c-3.892-3.383-7.89-6.645-11.827-9.975c0.015-0.383,0.038-1.147,0.052-1.538C39.462,147.723,44.81,147.348,50.135,146.763z
			 M38.585,151.758c1.635,1.283,3.278,2.55,4.92,3.825c0.428-1.433,0.863-2.85,1.29-4.275
			C42.725,151.451,40.655,151.601,38.585,151.758z"/>
	</g>
	<path fill="#014189" stroke="#014189" stroke-width="0.0938" stroke-miterlimit="10.43" d="M204.717,153.378
		c3.638-3.435,11.198-3.367,12.683,2.153c0.12,2.175-2.002,1.748-3.488,1.567c-0.645-1.38-0.87-3.308-2.512-3.885
		C209.232,152.328,206.938,153.198,204.717,153.378z"/>
	<g>
		<path fill="#014189" stroke="#014189" stroke-width="0.0938" stroke-miterlimit="10.43" d="M318.762,160
			c-0.885-2.618-1.942-5.302-1.86-8.107c1.065,0.938,1.8,2.49,3.337,2.737c5.19,1.125,10.53,1.448,15.72,2.573
			c0.337,0.27,1.012,0.817,1.35,1.095c-4.245,3.285-8.625,6.39-12.877,9.66c-1.56,1.05-1.792,3.023-2.498,4.62
			c-0.93-3.172-2.04-6.345-2.265-9.667c0.51,0.45,1.53,1.342,2.04,1.785c1.177-0.63,2.265-1.425,3.368-2.182
			c-0.473-1.792-0.93-3.585-1.402-5.385c-1.335-0.052-2.67-0.105-4.005-0.135C319.392,157.998,319.085,159.003,318.762,160z
			 M325.317,157.143c0.368,1.44,0.743,2.888,1.11,4.335c1.695-1.208,3.39-2.423,5.078-3.637
			C329.442,157.601,327.38,157.368,325.317,157.143z"/>
	</g>
	<path fill="#014189" stroke="#014189" stroke-width="0.0938" stroke-miterlimit="10.43" d="M205.505,157.976
		c1.042,2.46,1.433,5.152,2.61,7.568c0.99,2.272,2.737,4.117,3.72,6.397c0.72,2.828-2.73,3.728-3.683,5.963
		c-1.17,0.584-2.347,1.162-3.45,1.86c-2.677,0.353-5.355,0.682-8.002,1.185c0.435-1.163,0.667-2.43,1.312-3.503
		c1.155-0.697,2.468-1.125,3.577-1.905c1.538-1.17,1.688-3.225,2.205-4.935C207.425,167.373,205.4,162.146,205.505,157.976z"/>
	<path fill="#014189" stroke="#014189" stroke-width="0.0938" stroke-miterlimit="10.43" d="M30.102,178.548
		c-2.7-4.358-1.522-9.811,0.413-14.22c1.74,0.143,3.488,0.27,5.228,0.45c-0.135,0.255-0.39,0.757-0.525,1.012
		c-1.597,0.488-3.525,0.878-4.373,2.513c-1.8,2.902-0.682,7.103,2.468,8.55c4.058,2.265,11.055,1.785,12.345-3.518
		c1.05-3.382-2.407-5.295-3.69-7.912c1.913,0.607,3.713,1.5,5.46,2.49c-0.06,4.357-0.255,9.337-3.623,12.562
		C39.972,184.346,32.787,183.198,30.102,178.548z"/>
	<path fill="#014189" stroke="#014189" stroke-width="0.0938" stroke-miterlimit="10.43" d="M163.625,165.573
		c4.05-1.155,8.52-0.548,11.97,1.905c0.113,1.905-0.18,4.013,1.013,5.655c1.417,2.46,4.29,3.286,6.87,3.893
		c0.525,2.61,1.883,4.92,4.08,6.465c-1.493,0.21-3.068,0.833-4.538,0.157c-2.01-0.63-3.105-2.828-5.228-3.188
		c-1.515-0.405-3.083-0.938-4.103-2.205c-2.415-2.662-2.355-6.495-2.37-9.87c-2.19-1.2-4.605-1.808-7.08-1.973
		C164.083,166.203,163.782,165.783,163.625,165.573z"/>
	<path fill="#014189" stroke="#014189" stroke-width="0.0938" stroke-miterlimit="10.43" d="M335.802,170.988
		c1.59-0.877,1.958-2.782,2.828-4.237c0.705,3.367,1.41,6.765,1.417,10.223c-0.645-0.817-1.26-1.65-1.86-2.49
		c-3.405,1.995-6.705,4.155-10.05,6.24c3.78,0.743,7.53,1.665,11.355,2.175c0.39-0.96,0.705-1.95,1.147-2.887
		c0.765,2.708,1.155,5.497,1.425,8.294c-1.328-1.14-2.37-2.752-4.117-3.277c-4.988-1.71-10.223-2.573-15.24-4.185
		c-0.067-0.315-0.195-0.953-0.263-1.268C326.735,176.478,331.407,173.943,335.802,170.988z"/>
	<path fill="#014189" stroke="#014189" stroke-width="0.0938" stroke-miterlimit="10.43" d="M242.12,186.416
		c-2.175-0.292-1.958-3.533-0.143-4.2C242.097,183.611,242.142,185.013,242.12,186.416z"/>
	<path fill="#014189" stroke="#014189" stroke-width="0.0938" stroke-miterlimit="10.43" d="M258.815,183.101
		c0.375,0,1.133,0,1.508,0c0,1.073,0,2.145,0,3.225c-0.375,0-1.133,0-1.508,0C258.808,185.246,258.808,184.173,258.815,183.101z"/>
	<g>
		<path fill="#014189" stroke="#014189" stroke-width="0.0938" stroke-miterlimit="10.43" d="M185.022,187.69
			c7.778-2.137,15.697-4.492,23.857-3.93c0.728,0.922,1.485,1.815,2.258,2.708c-0.998,0.832-1.973,1.695-2.918,2.58
			c-1.237-1.65-2.782-3.413-5.025-3.413c-2.692-0.48-4.507,1.852-5.805,3.833c-1.935-0.263-4.02-0.803-5.873,0.127
			c-2.407,1.103-3.405,3.907-3.548,6.39c-0.292,4.447,1.463,8.67,3.398,12.569c-1.755,5.123-3.083,10.598-2.107,16.021
			c0.847,5.67,4.087,10.507,6.577,15.54c3.315,7.38,5.175,15.292,7.808,22.913c-0.173-8.018-1.365-16.095-4.028-23.678
			c-2.468-5.843-6.075-11.445-6.353-17.97c-0.532-7.155,3.938-13.297,5.002-20.182c0-1.71-1.53-2.715-2.677-3.698
			c-1.492,1.605-1.882,3.803-2.498,5.828c-0.795-2.775-2.085-5.655-1.485-8.603c0.458-2.302,3.458-2.175,5.055-1.192
			c2.423,1.597,3.69,4.41,4.627,7.058c0.99,3.307-1.252,6.397-1.32,9.63c0.78,1.792,2.775,2.512,4.298,3.547
			c-1.275,3.412-2.527,7.118-1.68,10.785c0.848,3.735,6.188,5.438,9.015,2.857c0.218-1.62,0.083-3.27,0.375-4.875
			c0.645-2.73,2.318-5.1,2.828-7.867c0.008-1.831-0.57-3.593-0.825-5.393c-0.427-0.135-1.275-0.405-1.703-0.54
			c-0.292,0.99-0.72,1.935-1.5,2.647c-0.113-1.027-0.195-2.055-0.24-3.083c-0.345-0.42-1.042-1.267-1.387-1.688
			c1.8,0.533,3.593,1.11,5.393,1.658c0.502-2.302-0.435-4.388-1.522-6.337c-0.345-3.75,2.782-6.975,6.172-8.13
			c1.583,1.935,1.688,4.439,1.41,6.81c-0.817-1.23-1.207-3.66-3.157-3.397c-1.507-0.023-2.468,1.792-1.792,3.083
			c1.853,5.385,3.728,10.777,5.115,16.305c1.298,6.78-1.965,13.163-3.705,19.53c-2.228,8.483-4.192,17.303-3.233,26.115
			c1.778-11.28,4.425-22.455,8.805-33.03c-0.397,13.013-1.943,26.047-5.16,38.67c-1.402,5.565-4.485,10.567-8.468,14.647
			c-11.61-7.17-19.92-19.192-22.815-32.498c-1.68-7.89-1.973-15.998-2.197-24.038C183.762,213.236,183.23,200.38,185.022,187.69z
			 M196.797,211.728c-1.065,1.522-1.635,3.353-1.395,5.22c0.338,4.23-0.465,8.887,1.92,12.675c2.002,3.263,5.76,4.68,9.075,6.218
			c-0.968,2.092-2.085,4.245-2.025,6.615c0.15,2.723,1.365,5.213,2.422,7.68c-0.112-3.285-0.72-6.698,0.383-9.885
			c1.672-3.78,5.025-6.375,7.837-9.263c2.205-2.152,2.64-5.31,3.42-8.137c0.615-2.618,1.665-5.393,0.652-8.047
			c-0.323-0.833-1.058-2.647-2.092-1.373c-1.733,4.312-1.11,9.233-3.075,13.478c-1.163,2.58-3.495,4.312-5.415,6.292
			c-2.94-1.538-6.63-2.521-8.317-5.647c-2.137-4.32-0.698-9.322-2.018-13.822C197.833,213.003,197.825,211.788,196.797,211.728z
			 M209.892,237.843c2.348,3.667,1.665,8.13,1.177,12.21c2.16-4.373,3.585-9.811,0.698-14.22
			C211.137,236.5,210.507,237.168,209.892,237.843z"/>
	</g>
	<path fill="#014189" stroke="#014189" stroke-width="0.0938" stroke-miterlimit="10.43" d="M282.177,185.036
		c0.69,0.728,1.38,1.462,2.077,2.197l0.983-1.762l1.192,1.709c-1.305,0.623-2.76,0.623-4.17,0.548
		C282.238,187.053,282.192,185.71,282.177,185.036z"/>
	<g>
		<path fill="#014189" stroke="#014189" stroke-width="0.0938" stroke-miterlimit="10.43" d="M40.61,189.281
			c1.778-0.487,2.498-2.34,3.66-3.585c-0.39,3.292,0.33,6.975-1.32,9.968c-0.21-0.623-0.623-1.875-0.825-2.498
			c-1.38,0.36-2.752,0.743-4.125,1.125c-0.143,1.845-0.278,3.69-0.42,5.542c1.29,0.487,2.565,1.058,3.915,1.35
			c0.352-0.623,1.057-1.86,1.41-2.482c0.593,2.55,0.008,5.167-0.127,7.732h-0.84c-0.458-1.388-1.005-2.888-2.483-3.488
			c-4.027-2.242-8.19-4.229-12.255-6.39c-1.012-0.412-1.68-1.26-2.175-2.189C30.185,192.573,35.442,191.065,40.61,189.281z
			 M30.545,196.623c1.83,0.922,3.69,1.792,5.542,2.67c0.113-1.493,0.218-2.978,0.33-4.463
			C34.452,195.423,32.495,196.008,30.545,196.623z"/>
	</g>
	<path fill="#014189" stroke="#014189" stroke-width="0.0938" stroke-miterlimit="10.43" d="M287.495,188.568
		c-1.853,0.068-0.12-2.76,1.012-1.972C288.71,187.488,288.373,188.148,287.495,188.568z"/>
	<path fill="#014189" stroke="#014189" stroke-width="0.0938" stroke-miterlimit="10.43" d="M215.99,187.555
		c1.087-0.27,2.175-0.547,3.255-0.839c1.695,1.432,2.947,3.277,3.69,5.362c-1.8-0.667-3.675-1.133-5.61-1.042
		C216.89,189.866,216.448,188.703,215.99,187.555z"/>
	<path fill="#014189" stroke="#014189" stroke-width="0.0938" stroke-miterlimit="10.43" d="M243.605,187.255
		c0.458-0.075,1.38-0.217,1.837-0.285c-0.022,0.517-0.067,1.552-0.083,2.078c0.615,0.255,1.845,0.765,2.46,1.02
		C245.952,189.88,243.725,189.573,243.605,187.255z"/>
	<g>
		<path fill="#014189" stroke="#014189" stroke-width="0.0938" stroke-miterlimit="10.43" d="M89.105,187.788
			c1.83-0.263,3.578,0.285,5.34,0.637c2.01-0.314,3.96-1.11,6.022-1.035c1.703,0.915,3.285,2.04,5.01,2.925
			c-0.037,0.728-0.082,1.455-0.127,2.19c-1.312,0.263-2.64,0.435-3.922,0.84c-0.998,0.967-1.215,2.453-1.792,3.675
			c1.823-0.352,3.645-0.735,5.475-1.042c0.008,0.833,0.015,1.665,0.015,2.498c-1.403,0.292-3.87,0-4.005,1.98
			c0.592,2.16,3.337,3.172,5.332,2.377c2.265-0.802,3.473-3.03,4.905-4.792c0.3,1.613,0.555,3.232,0.742,4.868
			c2.798-2.633,6.127-4.71,8.7-7.545c0.157-2.595,0.78-5.205,2.857-6.944c-0.15,0.824-0.45,2.467-0.6,3.292
			c1.402-0.69,2.812-1.365,4.252-1.979c-0.84,1.169-1.695,2.332-2.558,3.502c1.462-0.135,2.933-0.247,4.395-0.314
			c-1.343,0.877-2.685,1.762-3.968,2.729c1.373,0.585,2.843,0.825,4.297,1.073c-1.372,1.275-3.135,1.8-4.972,1.882
			c-2.873,3.623-6.278,6.735-9.96,9.503c1.042,3.367,5.22,0.938,7.103-0.473c-0.157,1.388,0.188,3.023-0.788,4.185
			c-1.583,1.943-4.312,1.98-6.57,2.4c2.61,2.55,5.033,5.272,7.433,8.01c1.605-3.038,5.453-2.775,7.5-0.36
			c-1.29,0.128-2.587,0.24-3.878,0.338c1.478,0.968,2.888,2.13,3.24,3.968c-1.05-0.608-2.085-1.238-3.12-1.868
			c-0.217,1.628-0.488,3.263-0.945,4.845c-0.998-1.32-1.628-3.877-3.78-3.188c-0.645,0.698-1.2,1.478-1.65,2.325
			c-0.45-1.485-0.712-3.038-1.32-4.462c-4.478-1.508-8.595-3.953-11.85-7.41c-2.88,1.68-6.525,1.447-9.225,3.383
			c2.79,0.652,5.835,0.712,8.333,2.28c1.898,1.08,3.18,2.888,4.65,4.455c1.14,1.357,3.112,1.192,4.672,1.635
			c-1.155,2.399-3.66,3.232-6.142,3.449c2.265,1.65,4.417,3.45,6.622,5.183c1.665-0.87,3.285-1.987,5.19-2.25
			c1.44-0.067,2.22,1.291,3.142,2.153c-1.2,0.038-2.392,0.075-3.585,0.12c0.9,1.612,1.657,3.315,2.205,5.085
			c-1.132-0.562-2.227-1.208-3.367-1.748c-0.127,1.373-0.315,2.76-0.75,4.08c-0.675-1.29-1.335-2.67-2.715-3.33
			c-0.705,0.982-1.44,1.942-2.25,2.857c-0.233-1.62,0.667-4.583-1.702-4.912c-5.002-1.208-10.853-1.838-14.1-6.368
			c1.132-0.48,2.25-1.005,3.397-1.455c-3.337-2.46-6.225-5.468-8.498-8.94c1.155,3.18,1.35,6.532,1.08,9.885
			c-0.3,1.965,1.147,3.405,2.407,4.665c-3,0.323-5.76-0.915-7.83-3.045c0.488,2.737,0.51,5.88,2.512,8.055
			c1.868,2.055,5.115,0.907,7.215,2.527c1.29,0.983,1.455,2.723,1.965,4.155c-1.238-0.802-2.483-1.598-3.735-2.37
			c0.225,0.938,0.667,2.82,0.885,3.757c-1.027-0.78-2.062-1.56-3.097-2.325c0.045,0.803,0.135,2.407,0.18,3.21
			c-0.915-1.439-1.822-2.887-2.805-4.275c-1.103,1.118-1.657,2.58-2.093,4.073c-2.25-1.395-0.998-3.765,0.465-5.213
			c-5.745-3.255-12.435-8.032-11.82-15.51c1.417,0.255,3.225,1.335,4.327-0.143c1.253-2.527-0.93-4.95-2.385-6.825
			c1.29-0.458,2.573-0.953,3.855-1.433c0.09-0.533,0.262-1.59,0.352-2.115c-2.415-0.301-5.377-0.765-6.525-3.248
			c-1.567-3.607,0.592-7.387,2.655-10.297c2.235-3.487,5.745-6.698,5.693-11.137c-0.165-2.048-2.445-2.213-3.998-2.445
			c-0.022,2.07-0.33,4.305-2.062,5.678c-2.092,1.717-4.41,3.375-5.19,6.12c-0.405-4.59-1.59-10.14,2.032-13.8
			c1.193-1.373,2.993-0.63,4.373-0.052c2.13,0.165,4.703,0.12,6.075,2.084c1.927,2.768,0.465,6.308-1.065,8.911
			c-2.31,4.05-6.307,7.395-6.945,12.225c-0.472,2.4,2.153,3.555,4.103,3.713c2.272,0.412,3.653-1.86,5.4-2.88
			c2.37-2.07,5.715-2.73,7.807-5.138c-3.188-0.06-6.735,0.398-9.262-1.995c2.43-1.133,4.927-2.333,6.54-4.583
			c-1.912,0.315-3.847,0.562-5.79,0.405c1.32-1.725,3.18-3.15,3.847-5.295c-0.022-2.228-0.802-4.417-0.435-6.66
			C91.062,189.453,89.757,188.695,89.105,187.788z M97.542,189.295c0.945,0.758,1.83,1.598,2.708,2.43
			c0.577-0.87,1.162-1.725,1.77-2.572C100.527,189.228,99.035,189.295,97.542,189.295z"/>
	</g>
	<path fill="#014189" stroke="#014189" stroke-width="0.0938" stroke-miterlimit="10.43" d="M111.335,188.748
		c2.355-0.72,3.157,2.603,1.778,4.005c-1.898,2.108-5.033,1.598-7.56,1.733c1.89-0.51,3.818-0.983,5.55-1.928
		C111.005,191.328,109.482,189.281,111.335,188.748z"/>
	<g>
		<path fill="#014189" stroke="#014189" stroke-width="0.0938" stroke-miterlimit="10.43" d="M324.38,187.503
			c1.087,1.252,1.86,3.008,3.585,3.525c3.36,1.312,6.81,2.392,10.215,3.6c1.89,0.713,4.132,1.05,5.362,2.858
			c-4.958,2.625-10.11,4.867-15.053,7.507c-1.53,0.668-1.672,2.505-2.325,3.833c-1.229-3.143-0.84-6.623-1.095-9.922
			c0.495,0.495,1.478,1.5,1.965,1.995c1.253-0.39,2.445-0.945,3.66-1.47c-0.105-1.86-0.218-3.712-0.337-5.565
			c-1.32-0.308-2.64-0.6-3.967-0.862c-0.428,0.93-0.825,1.897-1.455,2.723C324.47,193.008,324.335,190.248,324.38,187.503z
			 M332.21,198.663c1.853-0.863,3.697-1.725,5.528-2.618c-1.928-0.66-3.878-1.252-5.82-1.845
			C332.007,195.686,332.113,197.17,332.21,198.663z"/>
	</g>
	<path fill="#014189" stroke="#014189" stroke-width="0.0938" stroke-miterlimit="10.43" d="M200.48,191.471
		c1.133-0.758,2.302-1.463,3.495-2.123c2.273,2.857,3.263,7.163,1.657,10.522C204.17,196.916,202.595,194.013,200.48,191.471z"/>
	<path fill="#014189" stroke="#014189" stroke-width="0.0938" stroke-miterlimit="10.43" d="M210.26,192.258
		c0.307-1.38,1.717-2.729,3.195-2.092c0.6,1.425,0.473,3.03-0.592,4.192c-1.358,1.598-1.635,4.087-3.615,5.085
		C209.42,197.028,209.652,194.606,210.26,192.258z"/>
	<path fill="#014189" stroke="#014189" stroke-width="0.0938" stroke-miterlimit="10.43" d="M236.652,195.423
		c0.383-0.008,1.148-0.015,1.538-0.015c-0.007,1.08-0.007,2.16-0.007,3.24c-0.383,0-1.148-0.007-1.53-0.015
		C236.652,197.561,236.645,196.488,236.652,195.423z"/>
	<path fill="#014189" stroke="#014189" stroke-width="0.0938" stroke-miterlimit="10.43" d="M223.415,204.116
		c0.113,2.415,0.135,4.837,0.068,7.26C222.387,209.013,221.967,206.456,223.415,204.116z"/>
	<path fill="#014189" stroke="#014189" stroke-width="0.0938" stroke-miterlimit="10.43" d="M201.59,209.291
		c2.25-0.975,4.552-1.8,6.833-2.708c-0.465,0.638-0.938,1.268-1.41,1.898c-0.225,1.087-0.473,2.167-0.75,3.24
		c-0.495-0.788-0.983-1.583-1.455-2.385C203.735,209.478,202.632,209.666,201.59,209.291z"/>
	<path fill="#014189" stroke="#014189" stroke-width="0.0938" stroke-miterlimit="10.43" d="M176.06,206.636
		c1.53,0.143,3.06,0.292,4.597,0.442c-0.007,12.255-0.225,24.57,1.328,36.75c1.312,10.792,5.482,21.427,12.75,29.61
		c2.213,2.603,5.01,4.575,7.478,6.908c0.397,0.998-0.833,1.17-1.455,1.545c-4.17,1.658-8.707,1.882-13.11,2.467
		c-3.18,2.865-7.073,4.808-11.062,6.285c-2.475,0.915-5.167,0.442-7.613-0.323c3.518-0.18,9.105-0.682,9.615-5.084
		c-1.635-1.575-4.042-1.238-6.105-1.478c-2.722-0.075-5.055-1.665-7.5-2.655c-20.385,5.422-40.785,10.77-61.155,16.245
		c-0.465,1.357-0.945,2.707-1.417,4.072c-9.045,0.833-18.075,1.83-27.128,2.528c8.138-3.398,16.275-6.788,24.413-10.185
		c1.223,0.72,2.445,1.44,3.66,2.167c20.01-5.137,39.968-10.417,60-15.449c-1.29-0.706-2.573-1.418-3.818-2.183
		c2.917-0.585,5.715,0.375,8.348,1.53c3.435,0.3,6.885,0.555,10.335,0.825c1.56-14.67,0.953-29.475,0.668-44.198
		c-0.367-4.14,0.127-8.498-1.32-12.458c-1.028,7.38,0.292,14.865-0.615,22.252c-0.135,1.155-0.577,2.25-1.042,3.315
		c-0.72-2.55-0.907-5.212-0.81-7.845C175.43,230.021,175.738,218.328,176.06,206.636z"/>
	<path fill="#014189" stroke="#014189" stroke-width="0.0938" stroke-miterlimit="10.43" d="M235.317,211.563
		c0.368-0.038,1.087-0.127,1.448-0.172c-0.008,1.132,0.098,2.257,0.09,3.397c-0.397-0.038-1.208-0.12-1.613-0.165
		C235.265,213.603,235.295,212.583,235.317,211.563z"/>
	<path fill="#014189" stroke="#014189" stroke-width="0.0938" stroke-miterlimit="10.43" d="M31.047,212.231
		c2.79-1.748,6.9,0.6,6.607,3.93c-0.037,3.405-4.5,5.4-7.102,3.225C28.07,217.69,28.392,213.581,31.047,212.231z"/>
	<path fill="#014189" stroke="#014189" stroke-width="0.0938" stroke-miterlimit="10.43" d="M333.32,212.238
		c2.97-1.492,6.84,1.343,6.165,4.635c-0.435,3.322-5.018,4.807-7.357,2.46C329.795,217.428,330.545,213.318,333.32,212.238z"/>
	<path fill="#014189" stroke="#014189" stroke-width="0.0938" stroke-miterlimit="10.43" d="M206.817,213.438
		c1.2-0.172,2.4-0.315,3.615-0.435c0.247,0.225,0.742,0.683,0.99,0.916C209.855,214.203,208.265,214.158,206.817,213.438z"/>
	<path fill="#014189" stroke="#014189" stroke-width="0.0938" stroke-miterlimit="10.43" d="M246.507,215.628
		c0.375-0.037,1.133-0.097,1.508-0.135c0.008,1.118,0.015,2.228,0.022,3.353c-0.383-0.022-1.133-0.06-1.515-0.083
		C246.515,217.713,246.515,216.67,246.507,215.628z"/>
	<path fill="#014189" stroke="#014189" stroke-width="0.0938" stroke-miterlimit="10.43" d="M206.217,223.016
		c0.533-2.333-0.21-5.835,2.363-7.095c3.525,0.285,1.44,4.725,1.522,6.975C208.805,222.925,207.515,222.963,206.217,223.016z"/>
	<path fill="#014189" stroke="#014189" stroke-width="0.0938" stroke-miterlimit="10.43" d="M42.395,225.371
		c1.522,3.353,1.372,7.192,1.77,10.792c-0.772-0.968-1.425-2.033-2.205-2.985c-4.147,0.188-8.265,0.967-12.337,1.755
		c5.1,1.92,10.582,2.775,15.525,5.115c-4.282,2.887-8.782,5.415-13.147,8.167c3.93-0.547,8.055-0.271,11.827-1.598
		c0.337-1.035,0.645-2.084,0.915-3.142c1.477,2.498,1.125,5.58,1.522,8.348c-1.14-0.84-1.8-2.753-3.472-2.528
		c-4.215,0.12-8.513,0.03-12.645,0.938c-0.292,0.878-0.502,1.785-0.615,2.715c-0.217,0.038-0.652,0.105-0.87,0.143
		c-0.3-2.213-0.593-4.425-0.877-6.63c3.585-2.377,7.275-4.612,10.77-7.125c-4.057-1.275-8.145-2.438-12.218-3.667
		c-0.353-2.603-0.795-5.206-0.78-7.845c0.765,1.005,1.425,2.077,2.205,3.067c4.282-0.337,8.542-1.133,12.758-1.935
		C42.327,228.866,41.742,226.496,42.395,225.371z"/>
	<path fill="#014189" stroke="#014189" stroke-width="0.0938" stroke-miterlimit="10.43" d="M324.755,228.213
		c0.015-1.012,0.345-1.927,0.975-2.708c0.255,1.043,0.547,2.085,0.87,3.12c4.268,1.103,8.752,1.29,13.14,1.62
		c1.402,0.247,1.478-1.688,2.138-2.513c0.202,0.098,0.607,0.292,0.81,0.397c-0.562,3.36-0.27,6.93-1.545,10.14
		c-0.682-1.222-0.345-3.547-2.197-3.66c-4.192-0.518-8.422-1.275-12.652-1.073c-1.155,1.41-1.08,3.413-0.87,5.13
		c0.833,1.56,2.963,2.017,3.48,3.832c-1.868-0.457-3.698-1.058-5.512-1.688C323.915,236.621,324.305,232.413,324.755,228.213z"/>
	<path fill="#014189" stroke="#014189" stroke-width="0.0938" stroke-miterlimit="10.43" d="M284.863,237.813
		c0.915-0.09,1.823,0.03,2.737,0.105c-0.915,1.267-2.468,1.582-3.84,2.1c2.917,2.393,7.702-1.583,9.81,2.295
		c-1.718,1.703-4.005,2.423-6.367,2.617c0.473,1.013,1.02,2.033,1.913,2.76c-1.725,1.433-2.978,3.562-5.258,4.2
		c0.922-1.065,1.89-2.092,2.775-3.188c-0.817-0.825-1.635-1.65-2.438-2.482c-2.407,2.137-2.452,6.862-6.367,6.998
		c1.89-1.643,3.345-3.675,4.387-5.948c-2.542,0.81-5.467,1.11-7.425,3.12c-1.537,1.433-3.18,3.638-5.527,2.475
		c2.595-0.878,4.68-2.723,5.76-5.25c-1.522-1.86-3.667-3.203-4.71-5.438c1.672,1.222,3.315,3.36,5.67,2.558
		c1.86-0.345,1.26-2.88,1.748-4.2c0.345,0.413,1.027,1.252,1.372,1.672c0.578-0.06,1.74-0.172,2.318-0.225
		c-0.825,1.298-1.643,2.61-2.288,4.02c1.763-0.517,3.36-1.478,5.13-1.958c2.677-0.39,5.917,0.63,8.025-1.597l-0.18-1.065
		c-3.015-0.667-6.427,1.223-9-1.132C283.662,239.418,284.157,238.533,284.863,237.813z"/>
	<path fill="#014189" stroke="#014189" stroke-width="0.0938" stroke-miterlimit="10.43" d="M320.15,258.536
		c0.57-3.533,0.952-7.185,2.438-10.478c0.638,1.237,0.188,3.555,2.062,3.705c4.005,0.968,8.04,1.935,12.127,2.475
		c0.922-0.742,1.703-1.635,2.603-2.4c-0.562,3.42-0.817,7.065-2.512,10.163c-0.473-1.17-0.023-3.292-1.74-3.54
		c-3.667-0.998-7.41-1.732-11.152-2.4C322.1,255.408,321.342,257.583,320.15,258.536z"/>
	<path fill="#014189" stroke="#014189" stroke-width="0.0938" stroke-miterlimit="10.43" d="M33.073,262.593
		c4.342,0.09,8.355-2.76,12.75-1.935c3.397,0.66,5.152,4.23,5.565,7.373c0.39,2.28-0.27,4.935-2.377,6.165
		c-3.427,2.07-7.605,2.25-11.19,3.945c-0.81,0.953-0.735,2.385-1.185,3.54c-1.283-3.337-2.265-6.802-2.948-10.312
		c1.185,0.788,1.995,2.812,3.683,2.235c3.502-0.9,7.282-1.567,10.245-3.75c2.88-2.288,1.027-7.553-2.655-7.553
		c-3.795,0.075-7.583,1.253-10.972,2.903c-0.443,1.215-0.668,2.498-1.043,3.735c-1.065-2.737-1.867-5.565-2.438-8.445
		C31.37,261.183,32.172,261.956,33.073,262.593z"/>
	<g>
		<path fill="#014189" stroke="#014189" stroke-width="0.0938" stroke-miterlimit="10.43" d="M315.748,273.213
			c0.877-2.445,1.417-5.077,2.925-7.237c0.465,1.163-0.39,3.232,1.133,3.765c3.6,1.515,7.357,2.663,11.085,3.825
			c1.695,0.848,2.692-1.192,3.922-1.935c-0.893,3.735-2.167,7.365-3.54,10.95c-0.757,2.055-2.64,4.335-5.1,3.562
			c-2.175-0.42-2.595-2.843-2.88-4.665c-0.938,1.02-1.748,2.28-3.067,2.827c-2.25,0.878-5.07-0.577-5.655-2.917
			C313.857,278.621,314.93,275.838,315.748,273.213z M318.792,280.008c2.992,1.2,4.68-2.04,5.595-4.29
			c-2.1-0.72-4.177-1.635-6.412-1.815C315.163,274.938,315.972,279.498,318.792,280.008z M325.422,276.041
			c-0.225,1.035-0.473,2.062-0.57,3.12c-0.097,2.183,2.783,3.623,4.545,2.438c1.14-0.78,1.417-2.257,2.04-3.405
			C329.465,277.391,327.44,276.708,325.422,276.041z"/>
	</g>
	<g>
		<g>
			<path fill="#014189" stroke="#014189" stroke-width="0.0938" stroke-miterlimit="10.43" d="M563.405,198.849
				c6.868-1.16,13.725-2.509,20.549-4.003c0.112,24.519-0.211,49.059,0.156,73.578c-0.613,4.951,5.163,3.813,8.296,4.025
				c-0.022,0.802-0.056,2.408-0.079,3.21c-6.924,1.149-13.814,2.565-20.515,4.661c-0.011-2.263-0.022-4.538-0.011-6.79
				c-5.331,2.542-10.391,7.57-16.736,6.277c-8.106-1.227-15.42-6.857-18.542-14.44c-3.902-9.455-2.141-21.017,4.684-28.699
				c7.392-8.652,19.567-11.985,30.583-10.146c-0.2-7.281,0.435-14.595-0.368-21.832c-1.081-3.223-5.43-2.208-8.039-2.876
				C563.372,200.822,563.382,199.83,563.405,198.849z M554.886,233.558c-5.753,4.895-6.589,13.146-6.322,20.226
				c0.258,7.192,3.669,15.22,10.86,17.884c4.204,1.651,8.664-0.067,12.399-2.073c-0.145-10.961,0.201-21.932-0.145-32.88
				C569.136,230.458,559.759,229.343,554.886,233.558z"/>
		</g>
		<path fill="#014189" stroke="#014189" stroke-width="0.0938" stroke-miterlimit="10.43" d="M513.153,198.682
			c4.739-2.074,10.537,1.951,10.38,7.08c0.369,6.02-7.782,10.001-12.264,5.909C506.563,208.516,507.934,200.521,513.153,198.682z"/>
		<path fill="#014189" stroke="#014189" stroke-width="0.0938" stroke-miterlimit="10.43" d="M391.453,207.991
			c11.584-0.034,23.169-0.055,34.754,0.012c0,0.78-0.011,2.341-0.011,3.121c-3.312,0.635-7.593,0.346-9.7,3.501
			c-1.818,3.423-1.561,7.459-1.684,11.217c0.045,12.676-0.123,25.354,0.088,38.031c0.056,2.978,0.503,7.181,4.137,7.805
			c4.772,0.803,10.068,1.07,14.506-1.193c5.318-3.266,8.374-8.93,12.008-13.802c0.903,0.234,2.732,0.701,3.646,0.937
			c-2.341,6.99-4.683,13.97-6.779,21.039c-17.148,0-34.285,0.011-51.434,0c0.011-0.792,0.011-2.386,0.011-3.189
			c3.189-0.635,7.415-0.189,9.445-3.29c1.572-3.277,1.17-7.057,1.382-10.592c0-13.157,0.112-26.324-0.067-39.481
			c-0.245-2.854,0.056-6.122-1.851-8.474c-2.241-2.163-5.631-1.951-8.463-2.52C391.442,210.333,391.453,208.772,391.453,207.991z"/>
		<g>
			<path fill="#014189" stroke="#014189" stroke-width="0.0938" stroke-miterlimit="10.43" d="M462.042,232.142
				c5.486-4.895,13.425-7.259,20.627-5.353c7.382,1.974,13.135,9.166,12.923,16.903c-0.079,1.46,0.122,4.015-1.929,4.159
				c-10.09,1.326-20.292,1.394-30.427,2.129c0.1,7.292,2.687,15.442,9.655,18.91c6.734,3.791,15.063,1.863,20.828-2.832
				c0.424,0.502,1.282,1.506,1.717,2.007c-4.338,5.664-10.191,10.86-17.505,11.896c-8.842,0.848-18.264-3.377-22.679-11.25
				C448.506,256.95,451.829,240.85,462.042,232.142z M470.684,231.998c-4.404,2.865-5.92,8.228-6.879,13.078
				c6.534-0.134,13.101,0.145,19.623-0.524c0.592-4.181-0.368-8.741-3.59-11.674C477.474,230.425,473.449,230.046,470.684,231.998z"
				/>
		</g>
		<path fill="#014189" stroke="#014189" stroke-width="0.0938" stroke-miterlimit="10.43" d="M502.571,230.357
			c6.668-1.159,13.269-2.675,19.802-4.481c0.023,14.104-0.056,28.208,0.023,42.313c0.2,2.029-0.167,4.906,2.073,5.987
			c1.874,0.78,3.947,0.903,5.955,1.283c0.033,0.803,0.11,2.419,0.144,3.222c-9.566-0.022-19.144,0.045-28.699-0.033
			c-0.736-4.783,4.783-2.944,7.214-5.096c1.26-1.873,0.914-4.281,1.093-6.411c-0.011-8.919,0.022-17.851-0.022-26.77
			c-0.223-2.029,0.245-4.527-1.394-6.066c-1.918-0.858-4.048-0.936-6.055-1.282C502.672,232.354,502.605,231.027,502.571,230.357z"
			/>
		<g>
			<path fill="#014189" stroke="#014189" stroke-width="0.0938" stroke-miterlimit="10.43" d="M606.488,232.833
				c6.244-6.077,16.312-8.787,24.396-4.907c7.002,3.312,11.797,11.942,9.21,19.513c-10.347,2.073-21.095,1.616-31.609,2.52
				c0.29,4.638,0.825,9.533,3.579,13.458c3.892,6.054,11.93,8.853,18.81,6.89c3.065-0.825,5.563-2.888,8.44-4.158
				c0.279,0.468,0.858,1.394,1.148,1.862c-3.813,5.72-9.667,10.414-16.479,11.818c-8.864,1.249-18.52-2.788-23.169-10.581
				C593.799,257.787,596.698,241.797,606.488,232.833z M615.776,232.086c-4.326,2.866-5.821,8.184-6.746,12.99
				c6.545-0.111,13.112,0.101,19.646-0.491c0.524-4.225-0.401-8.853-3.702-11.774C622.577,230.369,618.507,230.068,615.776,232.086z
				"/>
		</g>
		<path fill="#014189" stroke="#014189" stroke-width="0.0938" stroke-miterlimit="10.43" d="M647.831,230.38
			c6.656-1.205,13.257-2.698,19.78-4.504c-0.011,2.765-0.011,5.53,0.011,8.295c3.523-2.219,6.924-4.672,10.67-6.512
			c6.221-3.133,14.796-1.55,18.888,4.292c2.274,3.055,2.832,6.958,2.888,10.67c0.078,8.184-0.056,16.368-0.011,24.563
			c0.055,2.196,0,4.526,0.959,6.578c2.062,1.126,4.437,1.383,6.7,1.952v2.965c-9.22-0.056-18.452,0.123-27.663-0.111
			c0.38-3.858,4.549-3.423,7.069-5.073c1.628-7.549,0.401-15.376,0.814-23.047c-0.111-5.14,0.747-11.863-4.248-15.097
			c-5.341-3.245-11.462-0.022-16,3.066c-0.157,9.21-0.034,18.409-0.101,27.618c0.101,2.531-0.167,5.241,0.969,7.593
			c1.651,1.17,3.747,1.416,5.665,2.051c-0.011,0.748-0.022,2.242-0.022,2.988c-9.065,0.011-18.118,0.011-27.161,0.011
			c-0.034-1.036-0.056-2.074-0.044-3.099c3.156-0.703,8.507-0.513,8.228-5.085c0.29-11.162,0.402-22.377-0.066-33.539
			c0.033-3.835-4.705-3.245-7.292-4.125C647.854,232.22,647.842,230.993,647.831,230.38z"/>
	</g>
	<g>
		<path fill="#014189" stroke="#014189" stroke-width="0.0938" stroke-miterlimit="10.43" d="M538.233,85.364
			c4.556-1.643,9.817,2.25,9.666,7.078c0.327,5.664-7.176,9.589-11.602,5.991C531.165,95.442,532.644,86.885,538.233,85.364z"/>
		<path fill="#014189" stroke="#014189" stroke-width="0.0938" stroke-miterlimit="10.43" d="M755.748,85.439
			c4.6-1.838,10.058,2.099,9.895,7.023c0.294,5.806-7.48,9.656-11.873,5.795C748.985,95.181,750.442,87.092,755.748,85.439z"/>
		<path fill="#014189" stroke="#014189" stroke-width="0.0938" stroke-miterlimit="10.43" d="M874.438,85.635
			c4.653-2.284,10.568,1.673,10.416,6.795c0.316,5.655-7.154,9.601-11.6,6.024C868.392,95.616,869.371,87.679,874.438,85.635z"/>
		<path fill="#014189" stroke="#014189" stroke-width="0.0938" stroke-miterlimit="10.43" d="M384.565,94.627
			c10.807-0.011,21.615-0.011,32.423,0c0,0.761,0.011,2.294,0.011,3.055c-2.109,0.37-4.295,0.5-6.295,1.294
			c-2.044,0.891-2.609,3.316-2.815,5.316c-0.555,6.926-0.262,13.896-0.337,20.833c0.042,7.503-0.131,15.245,2.5,22.387
			c1.708,4.655,5.458,8.818,10.482,9.797c6.208,1.229,13.613,0.685,18.19-4.197c4.534-4.991,5.752-11.993,6.349-18.484
			c0.512-9.002,0.285-18.038-0.238-27.03c-0.414-2.588-0.249-5.784-2.523-7.535c-2.707-1.773-6.078-1.849-9.166-2.36
			c0.011-0.773,0.011-2.327,0.011-3.099c10.025,0,20.049,0,30.074,0c0,0.75,0.011,2.272,0.011,3.022
			c-3.219,0.642-7.862,0.87-8.926,4.708c-3.251,14.951,1.087,30.934-4.403,45.504c-3.328,9.188-12.048,15.832-21.681,17.071
			c-8.448,0.999-17.755-0.186-24.648-5.546c-6.101-4.784-8.068-12.852-8.602-20.223c-0.695-11.189,0.131-22.411-0.521-33.598
			c-0.185-2.24-0.435-4.969-2.588-6.241c-2.261-1.109-4.871-1.109-7.296-1.533C384.575,96.987,384.575,95.41,384.565,94.627z"/>
		<path fill="#014189" stroke="#014189" stroke-width="0.0938" stroke-miterlimit="10.43" d="M783.833,106.554
			c3.349-2.881,6.427-6.1,9.993-8.742c0.326,0.12,0.979,0.358,1.306,0.467c0.576,5.285,0.109,10.624,0.249,15.94
			c4.665,0.151,9.394-0.458,14.016,0.37c0.369,1.631-0.153,3.261-0.533,4.849c-4.491,0.055-8.991,0.033-13.472,0.044
			c0.011,9.09-0.032,18.18,0,27.269c0.088,3.501,0.327,7.698,3.404,9.993c3.164,2.076,7.023,0.174,10.231-0.827
			c0.316,0.706,0.936,2.099,1.25,2.794c-6.088,2.436-12.015,7.959-18.984,5.448c-5.262-1.229-7.513-6.958-7.437-11.863
			c-0.174-10.959-0.011-21.93-0.065-32.89c-2.849-0.315-6.198,0.815-8.655-0.914c1.099-1.641,2.479-3.066,3.871-4.458
			c1.598,0.034,3.197,0.066,4.816,0.109C783.822,111.61,783.822,109.077,783.833,106.554z"/>
		<path fill="#014189" stroke="#014189" stroke-width="0.0938" stroke-miterlimit="10.43" d="M903.001,106.566
			c3.741-3.079,6.872-7.014,11.308-9.134c0.445,5.578,0.196,11.178,0.25,16.777c4.665,0,9.33,0,14.005-0.011
			c-0.011,1.674,0.424,3.512-0.642,4.979c-4.403,0.664-8.883,0.185-13.309,0.261c-0.087,9.145-0.054,18.289-0.043,27.443
			c0.076,3.556,0.423,7.829,3.642,10.036c3.187,1.772,6.829,0.011,9.971-1.022c0.413,0.925,0.859,1.838,1.305,2.773
			c-6.013,2.445-11.862,7.883-18.766,5.556c-4.97-1.022-7.579-6.187-7.601-10.895c-0.315-11.297-0.043-22.615-0.12-33.923
			c-2.674-0.022-5.349,0.12-7.991-0.186c-1.175-2.196,2.055-3.479,3.065-5.121c1.631,0,3.273,0,4.936,0.01
			C903.001,111.588,902.99,109.077,903.001,106.566z"/>
		<path fill="#014189" stroke="#014189" stroke-width="0.0938" stroke-miterlimit="10.43" d="M463.47,116.503
			c6.579-1.229,13.135-2.652,19.583-4.468c0,2.696,0,5.392,0.01,8.101c4.023-2.436,7.786-5.393,12.2-7.112
			c6.187-2.131,14.037,0.066,17.331,5.98c2.816,4.763,2.044,10.514,2.153,15.81c0.131,7.285-0.326,14.603,0.262,21.875
			c0.108,3.404,4.25,3.078,6.61,3.774c0.01,0.762,0.021,2.294,0.021,3.065c-8.589,0-17.179-0.01-25.78,0
			c-0.01-1.022-0.032-2.044-0.043-3.055c2.033-0.576,4.458-0.435,6.122-1.892c1.088-1.893,0.794-4.175,0.946-6.264
			c-0.033-7.273,0.055-14.558-0.033-21.832c-0.043-3.306-0.891-7.024-3.783-8.993c-3.872-2.62-9.037-1.533-12.766,0.816
			c-1.337,0.989-3.588,1.696-3.186,3.794c0.044,10.188-0.37,20.409,0.239,30.585c0.012,4.47,7.536,1.74,6.449,6.795
			c-8.938,0.088-17.876,0.023-26.803,0.044c0-0.782,0-2.337,0-3.109c2.393-0.554,5.219-0.293,7.188-1.979
			c1.435-2.893,0.848-6.296,1.021-9.416c-0.206-8.905,0.359-17.853-0.315-26.737C470.483,117.95,463.252,121.201,463.47,116.503z"/>
		<path fill="#014189" stroke="#014189" stroke-width="0.0938" stroke-miterlimit="10.43" d="M527.403,116.503
			c6.492-1.294,12.96-2.663,19.322-4.468c0.033,13.406-0.034,26.812,0.022,40.219c0.206,2.087-0.176,4.524,1.217,6.295
			c1.902,1.479,4.501,1.349,6.774,1.893c-0.022,1.021-0.034,2.055-0.034,3.087c-9.22,0-18.44,0.011-27.66,0
			c0-0.782,0-2.326,0.011-3.109c2.315-0.576,5.164-0.326,6.98-2.153c1.185-2.914,0.708-6.187,0.848-9.264
			c-0.174-8.73,0.283-17.494-0.239-26.214c-0.054-3.696-4.544-3.197-7.078-3.849C527.534,118.33,527.447,117.112,527.403,116.503z"
			/>
		<g>
			<path fill="#014189" stroke="#014189" stroke-width="0.0938" stroke-miterlimit="10.43" d="M621.771,116.536
				c5.274-3.707,12.21-5.328,18.484-3.512c7.046,2.066,12.45,8.993,12.254,16.418c-0.142,1.37,0.195,3.751-1.708,3.98
				c-9.873,1.349-19.866,1.413-29.792,2.098c0,7.23,2.665,15.319,9.656,18.615c6.566,3.555,14.505,1.511,20.082-2.937
				c0.392,0.512,1.153,1.545,1.534,2.055c-4.154,5.382-9.656,10.34-16.604,11.46c-8.97,1.087-18.614-3.371-22.854-11.503
				C606.201,141.001,610.506,124.463,621.771,116.536z M630.002,117.146c-5.545,2.076-7.514,8.328-8.514,13.613
				c6.165-0.196,12.373,0.228,18.527-0.447C642.995,124.496,636.982,114.862,630.002,117.146z"/>
		</g>
		<path fill="#014189" stroke="#014189" stroke-width="0.0938" stroke-miterlimit="10.43" d="M659.435,116.361
			c6.295-1.108,12.503-2.599,18.658-4.348c-0.142,4.272-0.283,8.535-0.402,12.808c3.772-4.925,7.589-11.981,14.635-12.112
			c5.947-0.119,7.851,8.209,3.447,11.537c-3.719,3.479-7.122-3.219-11.178-1.555c-3.882,1.544-7.046,5.643-6.524,9.97
			c0.25,7.623-0.457,15.299,0.413,22.876c1.077,4.415,6.48,4.166,10.025,4.829c-0.022,1.044-0.032,2.098-0.032,3.154
			c-9.797-0.022-19.594,0.032-29.38-0.044c-0.739-4.546,4.437-2.946,6.709-5.024c1.164-1.837,0.892-4.142,1.044-6.197
			c0.011-8.709,0.022-17.407,0-26.106c-0.184-1.957,0.174-4.284-1.283-5.838c-1.849-0.924-3.968-0.967-5.948-1.359
			C659.576,118.297,659.478,117.003,659.435,116.361z"/>
		<path fill="#014189" stroke="#014189" stroke-width="0.0938" stroke-miterlimit="10.43" d="M713.909,113.774
			c6.002-2.349,12.721-1.696,18.702,0.413c1.163,3.958,2.011,7.992,2.718,12.069c-0.771,0.065-2.316,0.196-3.099,0.272
			c-2.75-4.274-5.817-9.798-11.623-9.884c-5.057-0.608-9.102,5.969-5.893,10.069c4.468,5.926,12.959,6.055,18.08,11.242
			c6.579,5.404,6.177,16.548-0.282,21.876c-8.057,6.807-20.452,6.545-29.053,0.848c-1.055-4.534-1.608-9.155-1.729-13.808
			c0.75,0,2.24,0,2.979,0c2.044,5.926,6.078,12.124,12.602,13.537c4.795,1.108,10.221-2.926,9.274-8.079
			c-0.696-5.677-6.633-7.949-11.134-10.048c-5.426-2.326-11.08-6.523-11.688-12.852
			C702.927,122.625,707.559,116.003,713.909,113.774z"/>
		<path fill="#014189" stroke="#014189" stroke-width="0.0938" stroke-miterlimit="10.43" d="M749.779,115.503
			c4.969-0.837,9.84-2.185,14.711-3.479c0.022,13.427-0.011,26.856,0.011,40.272c0.142,2.044-0.142,4.361,1.087,6.154
			c1.881,1.599,4.566,1.415,6.872,1.979c0,0.772,0,2.316,0,3.088c-9.21,0.032-18.409-0.022-27.607,0.032
			c-0.054-1.045-0.098-2.077-0.108-3.109c2.403-0.718,5.958-0.175,7.285-2.773c0.946-3.904,0.467-7.97,0.575-11.939
			c-0.141-7.622,0.272-15.254-0.228-22.866c-0.043-3.925-4.946-3.25-7.545-4.044C744.723,115.883,747.691,115.971,749.779,115.503z"
			/>
		<g>
			<path fill="#014189" stroke="#014189" stroke-width="0.0938" stroke-miterlimit="10.43" d="M824.726,118.287
				c6.438-5.882,16.81-8.188,24.552-3.534c6.067,3.577,10.058,11.514,7.611,18.365c-10.111,1.902-20.539,1.565-30.792,2.403
				c0.25,4.502,0.816,9.231,3.436,13.047c3.774,5.948,11.624,8.699,18.343,6.807c3.023-0.794,5.469-2.892,8.351-4.034
				c0.261,0.446,0.761,1.348,1.022,1.794c-3.718,5.567-9.417,10.144-16.059,11.503c-8.676,1.239-18.104-2.74-22.648-10.373
				C811.625,142.849,814.755,126.919,824.726,118.287z M833.186,118.102c-4.219,2.794-5.665,7.97-6.579,12.657
				c6.382-0.11,12.776,0.076,19.148-0.458c0.543-4.153-0.392-8.708-3.654-11.558C839.753,116.406,835.828,116.144,833.186,118.102z"
				/>
		</g>
		<path fill="#014189" stroke="#014189" stroke-width="0.0938" stroke-miterlimit="10.43" d="M864.402,116.438
			c6.48-1.196,12.917-2.62,19.268-4.403c0,12.677,0.011,25.355-0.011,38.044c0.054,2.403-0.033,4.86,0.543,7.22
			c1.24,4.044,8.601,0.826,7.742,6.197c-9.319,0.076-18.647,0.011-27.966,0.032c0-0.771,0.011-2.326,0.022-3.098
			c2.522-0.707,6.882-0.186,7.48-3.599c0.664-6.22,0.164-12.493,0.315-18.723c-0.152-5.448,0.392-10.939-0.403-16.332
			c-0.923-2.805-4.653-2.142-6.926-2.85C864.446,118.309,864.413,117.058,864.402,116.438z"/>
		<path fill="#014189" stroke="#014189" stroke-width="0.0938" stroke-miterlimit="10.43" d="M555.434,114.286
			c8.145-0.022,16.277-0.011,24.421-0.011c0,0.782,0.011,2.337,0.011,3.109c-2.066,0.337-4.099,0.685-6.133,1.077
			c2.925,12.776,6.786,25.312,10.08,38.001c3.371-11.057,6.72-22.105,10.101-33.152c0.294-1.489,1.066-3.087,0.435-4.577
			c-2.022-0.74-4.187-0.969-6.273-1.359c0-0.772,0-2.317,0-3.088c6.904-0.022,13.819-0.011,20.746-0.011
			c-0.011,0.75-0.011,2.239-0.022,2.99c-2.664,0.675-6.079,1.109-7.035,4.186c-5.535,13.744-9.438,28.085-14.092,42.144
			c-4.207,0-8.415,0.011-12.623,0c-4.208-13.08-8.448-26.149-12.646-39.229c-0.63-1.849-1.196-3.729-2.142-5.438
			c-1.359-1.097-3.24-1.108-4.828-1.641C555.434,116.536,555.434,115.036,555.434,114.286z"/>
	</g>
	<path fill="#014189" stroke="#014189" stroke-width="0.0938" stroke-miterlimit="10.43" d="M54.83,280.758
		c1.883,3.09,3.3,6.503,4.088,10.036c-0.863-0.758-1.688-1.561-2.588-2.273c-4.545,1.335-8.97,3.225-13.177,5.415
		c0.09,0.757,0.262,2.265,0.353,3.022c-2.708-2.408-3.202-6.435-4.567-9.675c1.005,0.69,1.935,1.492,2.992,2.107
		c4.26-1.448,8.535-3.06,12.51-5.183C54.62,283.061,54.748,281.913,54.83,280.758z"/>
	<path fill="#014189" stroke="#014189" stroke-width="0.0938" stroke-miterlimit="10.43" d="M309.493,290.388
		c0.375,1.598-0.278,3.893,1.68,4.552c3.652,1.875,7.268,3.87,11.1,5.355c0.877-0.72,1.778-1.41,2.745-1.995
		c-1.8,4.71-4.447,9.045-6.517,13.643c-1.672-0.6-3.353-1.252-4.74-2.385c1.545-0.435,3.862,0.405,4.785-1.32
		c0.81-1.155,1.403-2.444,2.047-3.697c-1.853-1.042-3.765-1.995-5.662-2.94c-0.601,1.26-1.26,2.498-1.665,3.84
		c0.314,1.042,0.765,2.041,1.14,3.075c-2.092-0.938-4.17-1.913-6.104-3.143c1.02-0.225,2.047-0.39,3.082-0.502
		c0.765-1.297,1.478-2.625,2.183-3.96c-2.01-1.02-4.058-1.973-6.195-2.708c-1.058,1.552-2.175,3.15-2.558,5.033
		c0.135,1.672,1.417,2.985,1.972,4.545c-1.695-0.773-3.143-1.958-4.567-3.12C304.67,299.913,306.868,295.038,309.493,290.388z"/>
	<g>
		<path fill="#014189" stroke="#014189" stroke-width="0.0938" stroke-miterlimit="10.43" d="M150.23,297.356
			c22.552,0,45.105,0,67.665,0c0,3.547,0,7.095,0,10.642c24.585,0,49.177-0.007,73.762,0c-14.115,22.515-33.967,41.835-58.117,53.28
			c-8.887,4.245-18.315,7.372-27.99,9.232c-1.988,0.285-3.562,1.597-5.28,2.535c-9.84,5.572-22.56,5.558-32.415,0.015
			c-1.763-0.975-3.39-2.318-5.43-2.632c-20.505-3.93-39.653-13.763-55.515-27.24c-11.887-10.013-21.96-22.065-30.255-35.19
			c24.525-0.007,49.05,0,73.568,0C150.222,304.451,150.222,300.903,150.23,297.356z M151.46,298.601
			c0.015,15.053-0.03,30.112,0.022,45.165c0.022,10.388,5.438,20.528,13.987,26.4c8.385,5.917,19.643,7.447,29.303,3.998
			c10.462-3.562,18.712-12.84,21.045-23.647c0.93-3.945,0.795-8.018,0.803-12.038c-0.008-13.29,0-26.58-0.008-39.877
			C194.9,298.601,173.18,298.601,151.46,298.601z"/>
	</g>
	<g>
		<path fill="#014189" stroke="#014189" stroke-width="0.0938" stroke-miterlimit="10.43" d="M49.212,305.058
			c1.65-5.43,9.27-7.598,13.613-3.982c4.155,3.322,6.113,8.505,8.61,13.042c-1.5-0.555-3.015-2.392-4.643-1.087
			c-3.638,2.01-7.455,3.787-10.755,6.337c0.098,0.788,0.292,2.355,0.398,3.135c-2.153-1.987-3.188-4.792-4.665-7.252
			C50.052,312.183,48.297,308.666,49.212,305.058z M52.55,307.023c-2.003,2.588-0.473,5.85,0.967,8.28
			c3.968-1.83,7.785-3.998,11.512-6.263c2.168-1.11,0.33-3.555-0.862-4.665C60.583,301.226,55.1,303.723,52.55,307.023z"/>
	</g>
	<g>
		<path fill="#014189" stroke="#014189" stroke-width="0.0938" stroke-miterlimit="10.43" d="M166.775,307.128
			c0.817-0.607,1.635-1.208,2.452-1.808c4.83,6.21,9.653,12.413,14.483,18.615c4.837-6.217,9.667-12.428,14.505-18.645
			c0.84,0.592,1.56,1.335,2.408,1.942c-1.44,1.792-2.858,3.608-4.26,5.43c0.915,0.712,1.83,1.417,2.737,2.13
			c1.417-1.831,2.843-3.661,4.268-5.483c0.907,0.705,1.808,1.41,2.722,2.123c-0.712,0.915-1.425,1.837-2.13,2.752
			c0.915,0.712,1.83,1.417,2.745,2.13c0.698-0.907,1.387-1.823,2.093-2.73c0.922,0.675,1.845,1.343,2.775,2.025
			c-1.38,1.882-2.812,3.735-4.26,5.572c-1.823-1.425-3.645-2.85-5.475-4.268c-0.712,0.908-1.425,1.822-2.13,2.745
			c1.822,1.417,3.652,2.835,5.482,4.26c-0.713,0.908-1.425,1.822-2.137,2.745c-3.667-2.842-7.32-5.692-10.988-8.527
			c-2.137,2.752-4.268,5.505-6.397,8.257c3.645,4.717,7.335,9.39,10.95,14.13c1.275-1.417,2.528-3.067,4.448-3.615
			c2.962-0.968,6.637,0.457,7.808,3.442c1.425,3.57,0.06,7.5-1.905,10.583c0.99,0.473,3.068,0.608,2.745,2.19
			c-0.472,2.062-3.18,0.9-4.688,1.147c-0.472,1.388,0.045,3.547-1.657,4.17c-2.122,0.226-1.59-2.182-1.77-3.51
			c-3.397,1.035-7.387,1.462-10.485-0.623c-2.798-1.792-3.42-5.902-1.605-8.595c1.02-1.688,2.88-2.536,4.553-3.413
			c-3.525-4.47-6.99-8.985-10.493-13.462c-3.48,4.492-6.998,8.962-10.447,13.485c1.59,0.848,3.345,1.643,4.387,3.195
			c1.897,2.603,1.433,6.69-1.23,8.61c-3.127,2.295-7.282,1.86-10.792,0.818c-0.203,1.177,0.51,3.135-1.177,3.442
			c-2.213,0.248-1.74-2.783-2.273-4.148c-1.238,0.023-2.49,0.166-3.72,0.03c-1.073-0.315-1.327-1.927-0.345-2.542
			c0.81-0.293,1.635-0.525,2.475-0.72c-1.882-3-3.292-6.712-2.1-10.238c0.99-3.27,4.943-4.935,8.07-3.825
			c1.867,0.57,3.105,2.175,4.35,3.577c3.615-4.74,7.305-9.413,10.95-14.13c-2.137-2.752-4.275-5.505-6.412-8.257
			c-3.66,2.835-7.32,5.685-10.988,8.527c-0.713-0.923-1.425-1.837-2.13-2.745c1.822-1.425,3.652-2.842,5.482-4.26
			c-0.713-0.915-1.417-1.837-2.123-2.745c-1.83,1.417-3.66,2.842-5.49,4.268c-1.417-1.837-2.843-3.675-4.26-5.513
			c0.922-0.697,1.845-1.402,2.775-2.092c0.705,0.915,1.41,1.837,2.123,2.76c0.915-0.75,1.845-1.485,2.76-2.235
			c-0.728-0.885-1.448-1.77-2.167-2.655c0.915-0.72,1.838-1.425,2.76-2.138c1.417,1.83,2.835,3.652,4.252,5.483
			c0.915-0.713,1.838-1.426,2.753-2.13C169.617,310.826,168.185,308.981,166.775,307.128z M161.217,342.228
			c-0.75,3.45,1.635,6.383,2.88,9.39c3.48,0.518,7.673,2.34,10.778-0.194c2.19-2.416-0.188-5.91-2.955-6.413
			c-3.045-0.458-3.502-4.23-6.27-5.107C163.865,339.236,161.48,340.203,161.217,342.228z M197.57,344.05
			c-1.725,0.99-4.027,1.23-5.182,3.015c-1.117,1.59-0.802,4.238,1.17,4.995c3.15,1.515,6.622,0.007,9.825-0.51
			c1.23-3.007,3.593-5.917,2.888-9.36c-0.248-2.055-2.678-3.03-4.47-2.355C199.76,340.473,198.958,342.633,197.57,344.05z"/>
	</g>
	<g>
		<path fill="#014189" stroke="#014189" stroke-width="0.0938" stroke-miterlimit="10.43" d="M292.415,320.621
			c1.403-3.337,3.637-6.315,6.143-8.91c-0.09,1.485-1.26,3.495,0.54,4.44c3.383,2.498,6.773,5.025,10.463,7.065
			c0.975-0.555,1.972-1.08,2.992-1.575c-2.145,3.772-4.643,7.388-7.447,10.703c-1.508,1.875-4.5,2.205-6.27,0.524
			c-1.755-1.297-1.47-3.637-1.395-5.542c-3.735-0.225-7.463-0.015-11.093,0.893c1.065-1.515,2.07-3.18,3.653-4.23
			c3.202-2.062,7.657,1.095,10.433-1.882c-1.666-1.245-3.39-2.416-5.288-3.278C294.245,319.443,293.345,320.058,292.415,320.621z
			 M299.547,326.493c0.128,2.085,2.213,3.623,4.208,3.615c1.785-0.075,2.678-1.8,3.683-3c-2.04-1.56-4.14-3.015-6.262-4.447
			C300.575,323.898,299.652,325.068,299.547,326.493z"/>
	</g>
	<path fill="#014189" stroke="#014189" stroke-width="0.0938" stroke-miterlimit="10.43" d="M74.345,318.476
		c2.633,2.205,4.223,5.333,6.36,7.973l-0.637,0.533c-0.547-0.331-1.65-1.005-2.205-1.343c-3.818,1.95-7.125,4.83-10.53,7.417
		c-1.508,0.743-0.48,2.19-0.21,3.368c-0.188,0.142-0.562,0.435-0.758,0.577c-1.943-2.797-4.177-5.4-5.835-8.385
		c1.485,0.39,3.038,2.189,4.463,0.75c3.367-2.415,6.938-4.658,9.893-7.575C74.772,320.673,74.517,319.578,74.345,318.476z"/>
	<path fill="#014189" stroke="#014189" stroke-width="0.0938" stroke-miterlimit="10.43" d="M78.605,336.94
		c0.435-2.752,3.458-4.688,6.143-3.982c3.652,0.847,6.097,4.17,7.147,7.597c-1.118,1.515-2.265,3.023-3.623,4.343
		c0.127-2.85,1.958-6.442-0.578-8.729c-1.53-1.59-4.312-0.646-4.68,1.485c-0.337,2.887,1.86,5.453,1.538,8.37
		c-0.18,3.008-3.84,4.755-6.488,3.728c-2.917-0.907-4.575-3.638-6.03-6.112c1.125-1.297,2.093-2.91,3.825-3.473
		c-0.405,2.077-1.807,4.59-0.083,6.442c1.283,1.845,4.575,0.915,4.613-1.365C80.113,342.408,78.185,339.858,78.605,336.94z"/>
	<path fill="#014189" stroke="#014189" stroke-width="0.0938" stroke-miterlimit="10.43" d="M273.552,342.491
		c2.407-2.895,5.01-5.64,7.845-8.123c-0.173,1.523-1.68,3.473-0.075,4.71c3.037,3.127,6.292,6.038,9.427,9.06
		c0.75-0.982,1.59-1.913,2.19-2.993c0.27-1.53-0.495-3.052-0.615-4.567c1.47,1.373,2.85,2.85,4.192,4.357
		c-2.399,1.177-4.042,3.33-5.865,5.205c-2.062,2.242-4.492,4.23-5.88,7.005c-1.515-1.26-3.022-2.52-4.425-3.9
		c1.335-0.188,2.58,0.36,3.87,0.578c1.5-0.315,2.445-1.725,3.608-2.618c-3.218-3-6.278-6.157-9.57-9.067
		C276.86,340.63,275.172,342.483,273.552,342.491z"/>
	<path fill="#014189" stroke="#014189" stroke-width="0.0938" stroke-miterlimit="10.43" d="M93.965,349.068
		c0.75-1.755,2.438-2.745,3.863-3.885c3.998,3.622,8.64,6.57,12.21,10.635c-1.41-0.03-3.255-1.643-4.343-0.157
		c-2.887,3.248-5.797,6.518-8.175,10.17c0.517,0.953,0.922,1.95,1.222,3c-4.133-2.88-7.807-6.345-11.745-9.473
		c1.035-1.425,1.95-3.03,3.54-3.907c-0.188,1.32-0.63,2.61-0.615,3.96c1.035,1.47,2.498,2.542,3.863,3.683
		c1.425-1.575,2.79-3.203,4.125-4.845c-1.268-0.998-2.558-1.98-3.907-2.865c-0.562,0.345-1.695,1.036-2.265,1.38
		c0.202-2.468,2.482-3.945,3.862-5.76c0.075,1.073-0.015,2.175,0.195,3.248c0.915,1.058,2.032,1.913,3.097,2.82
		c1.433-1.695,2.805-3.45,4.058-5.287c-1.312-1.56-2.738-3.158-4.695-3.885C96.762,348.011,95.397,348.701,93.965,349.068z"/>
	<g>
		<path fill="#014189" stroke="#014189" stroke-width="0.0938" stroke-miterlimit="10.43" d="M263.442,352.008
			c1.178-2.557,3.915-4.042,6.337-5.242c-2.317,3.21-0.405,6.9,0.36,10.283c0.795,3.292,1.875,6.517,2.445,9.862
			c-0.24,0.202-0.728,0.607-0.968,0.81c-4.935-2.513-9.532-5.663-14.49-8.145c-1.335-0.728-2.768,0.15-4.117,0.337
			c1.635-2.7,4.657-4.057,6.93-6.135c0.255,0.12,0.765,0.352,1.02,0.464c-0.337,0.436-1.012,1.298-1.35,1.733
			c1.193,0.855,2.422,1.665,3.667,2.467c1.455-1.132,2.917-2.265,4.38-3.397c-0.487-1.32-0.982-2.632-1.492-3.93
			C265.257,351.416,264.35,351.716,263.442,352.008z M264.748,359.253c1.77,1.065,3.54,2.13,5.317,3.195
			c-0.585-1.98-1.185-3.953-1.778-5.917C267.102,357.43,265.925,358.338,264.748,359.253z"/>
	</g>
	<g>
		<path fill="#014189" stroke="#014189" stroke-width="0.0938" stroke-miterlimit="10.43" d="M112.123,357.536
			c3.232,1.185,6.15,3.082,8.932,5.077c-0.682,0.053-2.048,0.15-2.73,0.203c-0.517,1.268-0.637,2.647-0.907,3.99
			c1.612,0.938,3.21,1.875,4.815,2.828c1.013-0.959,2.025-1.92,3.015-2.902c-0.63-0.795-1.238-1.598-1.838-2.408
			c2.798,0.712,5.22,2.362,7.448,4.14c-1.62,0.158-3.472-0.345-4.867,0.735c-3.84,2.64-7.485,5.55-11.273,8.265
			c-0.832,0.698-1.912,0.878-2.955,1.02c0.645-6.075,1.995-12.06,2.317-18.165C113.397,359.411,112.745,358.481,112.123,357.536z
			 M117.155,368.486c-0.33,2.04-0.66,4.08-0.982,6.127c1.613-1.29,3.225-2.572,4.823-3.885
			C119.712,369.971,118.43,369.228,117.155,368.486z"/>
	</g>
	<path fill="#014189" stroke="#014189" stroke-width="0.0938" stroke-miterlimit="10.43" d="M237.2,368.516
		c2.79-2.58,6.45-3.953,9.817-5.603c-0.645,1.087-1.41,2.107-1.972,3.248c1.792,4.462,4.41,8.542,6.615,12.802
		c1.095-0.794,2.273-1.5,3.247-2.452c0.27-1.357,0.188-2.76,0.315-4.125c1.29,1.56,2.085,3.45,2.895,5.294
		c-3.008,0.51-5.528,2.273-8.182,3.638c-2.377,1.283-4.95,2.355-6.825,4.38c-1.065-1.748-2.167-3.495-2.775-5.467
		c1.14,0.705,2.212,1.537,3.405,2.167c1.508,0.022,2.797-0.938,4.147-1.5c-2.505-4.162-4.252-8.805-7.17-12.705
		C239.54,368.268,238.37,368.373,237.2,368.516z"/>
	<g>
		<path fill="#014189" stroke="#014189" stroke-width="0.0938" stroke-miterlimit="10.43" d="M132.395,368.831
			c2.587,0.698,5.805,1.732,6.517,4.695c0.915,2.453,0.3,5.91,3.098,7.215c0.667-1.83,1.432-3.645,1.74-5.572
			c-0.743-0.916-1.583-1.726-2.355-2.595c3.487,0.742,6.832,2.055,10.072,3.51c-1.08,0.36-2.19,0.525-3.33,0.502
			c-1.92,3.728-3.15,7.771-4.552,11.715c-0.938,1.695,1.072,2.843,1.77,4.155c-4.17-1.38-8.445-2.655-12.345-4.71
			c-2.25-1.118-3.022-4.238-1.522-6.263c0.96-1.672,3.015-1.814,4.695-2.228C135.462,375.596,134.45,371.981,132.395,368.831z
			 M136.145,387.46c0.892,0.562,1.897,0.9,2.88,1.305c0.93-2.377,1.8-4.77,2.64-7.178c-1.448-0.247-2.94-0.915-4.402-0.472
			C134.96,382.128,134.075,385.788,136.145,387.46z"/>
	</g>
	<path fill="#014189" stroke="#014189" stroke-width="0.0938" stroke-miterlimit="10.43" d="M226.625,372.543
		c0.352,0.044,1.058,0.127,1.41,0.172c-0.84,0.6-1.68,1.192-2.535,1.777c1.155,4.65,2.467,9.39,4.665,13.65
		c0.608,0.022,1.823,0.06,2.438,0.083c0.098,0.195,0.3,0.592,0.398,0.788c-3.27,1.095-6.488,2.385-9.885,3.067
		c0.735-1.215,2.925-2.085,2.19-3.772c-1.14-3.78-2.333-7.567-3.817-11.228c-0.503-1.552-2.58-0.72-3.75-1.185
		C220.43,374.186,223.587,373.368,226.625,372.543z"/>
	<g>
		<path fill="#014189" stroke="#014189" stroke-width="0.0938" stroke-miterlimit="10.43" d="M162.245,378.243
			c3.465,0.301,6.862,1.036,10.29,1.583c-0.015,0.218-0.045,0.637-0.068,0.848c-0.952,0.352-2.715-0.038-2.887,1.365
			c-0.967,4.185-1.695,8.453-2.107,12.728c0.728,0.915,1.613,1.68,2.415,2.542c-4.373-0.712-8.903-0.998-13.08-2.542
			c-3.248-1.2-3.855-5.835-1.395-8.092c2.542-2.16,6.292-2.025,9.21-0.728c0.135-1.792,0.855-3.652,0.397-5.407
			C164.127,379.728,163.13,379.045,162.245,378.243z M160.37,387.063c-1.838,0.938-2.423,3.375-1.913,5.25
			c0.63,1.77,2.64,2.295,4.32,2.438c0.968-2.422,1.058-5.077,1.53-7.62C163.017,386.981,161.615,386.425,160.37,387.063z"/>
	</g>
	<path fill="#014189" stroke="#014189" stroke-width="0.0938" stroke-miterlimit="10.43" d="M198.71,380.433
		c2.647-2.745,6.877-2.97,10.365-2.003c0.682,1.748,1.335,3.51,1.762,5.348c-2.363-1.343-3.795-4.493-6.87-4.35
		c-2.077-0.022-3.772,2.288-2.587,4.163c1.815,2.79,5.887,1.86,8.28,3.915c2.423,1.748,1.965,5.693-0.255,7.418
		c-2.347,2.047-5.632,1.897-8.542,1.837c-0.533-1.695-1.005-3.428-1.125-5.206c1.74,1.328,3.067,4.036,5.633,3.653
		c2.265-0.083,3.277-3.375,1.335-4.612c-2.438-1.305-5.52-1.042-7.71-2.858C196.842,385.968,196.76,382.383,198.71,380.433z"/>
	<path fill="#014189" stroke="#014189" stroke-width="0.0938" stroke-miterlimit="10.43" d="M182.39,385.766
		c3.15-1.62,6.99,1.83,5.895,5.145c-0.593,2.94-4.583,4.388-6.84,2.332C178.955,391.346,179.472,386.966,182.39,385.766z"/>
</g>
<g>
	<path fill="#1B2A98" stroke="#1B2A98" stroke-width="0.0938" stroke-miterlimit="10.43" d="M250.542,187.766"/>
	<path fill="#1B2A98" stroke="#1B2A98" stroke-width="0.0938" stroke-miterlimit="10.43" d="M284.33,202.121
		c1.215-0.428,1.643-0.03,1.275,1.192C284.382,203.741,283.955,203.343,284.33,202.121z"/>
</g>
</svg>
