<svg viewBox="0 0 386 65" fill="none" xmlns="http://www.w3.org/2000/svg">
    <path fill-rule="evenodd" clip-rule="evenodd" d="M32.1819 19.3015L28.8565 0.347691C29.0618 0.326506 29.2673 0.307289 29.4728 0.290039C23.5906 0.782347 18.1644 2.8642 13.6245 6.10542L23.7441 22.5628L8.61181 10.5457C9.77429 9.27566 11.0366 8.10194 12.3862 7.03557C4.98013 12.8837 0.231567 21.9442 0.231567 32.1262C0.231567 49.7878 14.519 64.0752 32.1806 64.0752C49.8421 64.0752 64.1283 49.7878 64.1283 32.1262C64.1283 26.5866 62.7229 21.3791 60.2488 16.8403L42.7555 24.8126L56.4507 11.3379C57.5532 12.623 58.5512 13.993 59.4356 15.4348C58.3762 13.7068 57.1569 12.0876 55.7984 10.5978L40.7313 22.5628L50.8149 6.16187C48.4523 4.46422 45.8479 3.08133 43.0627 2.07426L35.2189 19.7502L36.5483 0.473332C38.213 0.700287 39.8564 1.05825 41.4631 1.54348C39.5476 0.96392 37.5557 0.559175 35.506 0.347747L32.1819 19.3015ZM38.1443 20.7642L44.0285 2.44242C46.0962 3.2667 48.0714 4.3061 49.9217 5.54347L38.1443 20.7642ZM44.217 27.6252L60.7299 17.7618C61.7269 19.7415 62.5136 21.8202 63.0771 23.964L44.217 27.6252ZM44.8926 30.5507L63.3387 25.028C63.8297 27.2039 64.0922 29.4252 64.1219 31.6557L44.8926 30.5507ZM44.8938 33.7004L64.1232 32.5941C64.0899 34.8709 63.8207 37.0861 63.3387 39.2218L44.8938 33.7004ZM44.2182 36.6259L63.0771 40.2859C62.5133 42.4295 61.7265 44.5082 60.7299 46.488L44.2182 36.6259ZM42.7555 39.4372L60.2491 47.4097C59.1779 49.3714 57.9049 51.2159 56.4507 52.9132L42.7555 39.4372ZM40.73 41.6883L55.7969 53.6516C54.2951 55.2998 52.6245 56.7861 50.8126 58.0859L40.73 41.6883ZM38.143 43.4882L49.9191 58.7063C48.0697 59.944 46.0948 60.9831 44.0272 61.8061L38.143 43.4882ZM35.2189 44.5009L43.1042 62.1599C40.9823 62.9291 38.7846 63.4705 36.5483 63.7752L35.2189 44.5009ZM32.1819 44.9509L35.506 63.9021C34.4125 64.0149 33.3049 64.0752 32.1819 64.0752C31.0589 64.0752 29.95 64.0149 28.8565 63.9021L32.1819 44.9509ZM29.1437 44.4997L27.8143 63.7739C25.5773 63.4714 23.4159 62.9355 21.3532 62.1946L29.1437 44.4997ZM26.2182 43.4882L20.3341 61.8061C18.2666 60.9828 16.2917 59.9438 14.4422 58.7063L26.2182 43.4882ZM23.7441 41.6883L13.6256 58.1436C11.8045 56.8421 10.1242 55.3542 8.61181 53.7041L23.7441 41.6883ZM21.7186 39.4372L7.96186 52.9734C6.49648 51.2711 5.21389 49.4196 4.13521 47.4495L21.7186 39.4372ZM20.2571 36.6259L3.63268 46.488C2.63547 44.5084 1.84873 42.4297 1.28541 40.2859L20.2571 36.6259ZM19.4687 33.7004L1.0303 39.2539C0.541877 37.1066 0.271384 34.8773 0.238053 32.589L19.4687 33.7004ZM19.4687 30.5507L0.238053 31.6634C0.268747 29.4194 0.534278 27.1847 1.0303 24.9959L19.4687 30.5507ZM20.2571 27.6252L1.28413 23.964C1.84824 21.82 2.63494 19.7409 3.6314 17.7605L20.2571 27.6252ZM21.7186 24.8126L4.13521 16.8004C5.21315 14.8304 6.49533 12.9793 7.96058 11.2777L21.7186 24.8126ZM26.2182 20.7629L14.4409 5.54219C16.292 4.30628 18.2671 3.26696 20.3341 2.44113L26.2182 20.7629ZM29.1437 19.7514L21.3955 2.04117C23.4454 1.3066 25.5926 0.777156 27.8143 0.473332L29.1437 19.7514ZM37.3559 34.9934C37.3559 36.4561 36.2316 37.5804 34.8804 37.5804H33.6433C33.3544 37.5804 33.072 37.666 32.8317 37.8264C32.5915 37.9868 32.4041 38.2148 32.2934 38.4816H31.3935C31.1691 37.9188 30.7192 37.5804 30.0436 37.5804H28.9193C27.5694 37.5804 26.4438 36.4561 26.4438 34.9934V26.5555H37.3559V34.9934ZM27.4553 27.5683V34.9934C27.4553 35.892 28.1309 36.4561 28.918 36.4561H30.0423C30.7179 36.4561 31.3922 36.7945 31.8422 37.2419C32.2921 36.7933 32.9664 36.4561 33.642 36.4561H34.8791C35.6662 36.4561 36.3418 35.8933 36.3418 34.9934L27.4553 27.5683Z" fill="currentColor"/>
    <path d="M100.576 23.8194V22.0814H91.4481V23.8194H91.8814C94.4909 23.8194 94.7062 24.4706 94.7062 27.9465V32.2915C94.7062 35.5496 94.7062 37.0698 94.0551 38.1566C93.404 39.8946 91.2303 40.9815 88.6233 40.9815C86.6674 40.9815 85.3652 40.5482 84.2783 39.6767C82.9761 38.5948 82.7582 37.7234 82.7582 34.0295V27.9465C82.7582 24.4706 83.1939 23.8194 85.583 23.8194H85.8009V22.0814H74.0682V23.8194H74.2861C76.6777 23.8194 77.111 24.4706 77.111 27.9465V32.7272C77.111 37.5055 77.111 38.1591 77.98 39.8946C79.2847 42.2887 82.9785 43.8063 87.1056 43.8063C89.7126 43.8063 91.6685 43.3731 93.4065 42.2887C94.2755 41.8529 95.142 40.9839 95.7956 40.1125C96.88 38.5924 97.0979 36.634 97.0979 33.3759V27.9465C97.0979 24.4706 97.5336 23.8194 100.141 23.8194H100.576Z" fill="currentColor"/>
    <path d="M110.133 30.3332C109.264 30.7689 108.831 30.9868 107.962 31.6379H107.959V28.5952H106.657L100.574 30.3332V31.42L101.443 31.8558C102.53 32.0737 102.963 32.5094 102.963 33.8092V39.0256C102.963 41.1969 102.312 41.8505 100.792 41.8505H100.576V43.3681H110.135V41.8505C108.397 41.8505 107.964 41.1969 107.964 39.0256V33.3734L108.179 33.158C109.482 32.2915 110.351 31.8558 111.438 31.8558C112.742 31.8558 113.393 32.9402 113.393 35.3318V39.0256C113.393 40.979 112.958 41.8505 111.655 41.8505H111.438V43.3681H120.345V41.8505H120.127C118.823 41.8505 118.389 40.979 118.389 39.0256V35.3318C118.389 33.158 118.172 32.5069 117.954 31.42C117.52 30.1178 116.216 29.0309 114.696 29.0309C113.391 29.0309 112.089 29.4642 110.133 30.3332Z" fill="currentColor"/>
    <path d="M131.209 41.8529C129.471 41.8529 129.035 41.1993 129.035 39.0281H129.033V28.5952H127.731L121.648 30.5511V31.6404L122.517 31.8583C123.819 32.2915 123.819 32.2915 124.037 33.3759V39.0281C124.037 41.1993 123.386 41.8529 121.865 41.8529H121.648V43.3706H131.424V41.8529H131.209Z" fill="currentColor"/>
    <path d="M123.17 23.5991C123.17 25.555 124.472 26.6418 126.428 26.6418C128.166 26.6418 129.471 25.5549 129.686 24.0348V23.817C129.686 22.079 128.384 20.9921 126.428 20.9921C124.69 20.9921 123.17 22.079 123.17 23.5991Z" fill="currentColor"/>
    <path d="M145.982 33.8092C147.066 31.4201 147.502 30.9868 149.24 30.9868V29.4667H141.855V30.9868H142.07C143.372 30.9868 144.241 31.4201 144.241 32.2915C144.241 32.7273 144.024 33.3759 143.59 34.4628L141.634 38.5924L139.461 33.8092L139.027 32.7248C138.812 32.289 138.812 32.0712 138.812 31.8533C138.812 31.2022 139.463 30.9843 140.768 30.9843V29.4642H130.991V30.9843C132.729 30.9843 132.947 31.2022 134.467 34.4603L138.594 43.586H141.419L145.982 33.8092Z" fill="currentColor"/>
    <path d="M173.354 32.2915H173.139V28.5952H172.054L166.189 30.5511V31.8558H166.62C167.925 32.2915 168.143 32.7272 168.143 34.8985V39.0281C168.143 41.1993 167.707 41.8529 165.971 41.8529H165.753V43.3706H176.397V41.8529H175.748C173.79 41.8529 173.136 41.4172 173.136 39.0281V34.6806L173.79 34.027C174.441 33.5913 174.659 33.3734 174.877 33.3734C175.094 33.3734 175.53 33.3734 175.748 33.5913L176.615 34.027L177.919 34.6806C178.353 34.027 178.353 33.8116 179.006 32.7272C179.437 31.6379 179.655 30.7689 179.873 30.1178L178.137 29.4667C177.05 29.2488 176.832 29.0309 176.397 29.0309C175.748 29.0309 175.312 29.4667 174.225 30.9868L173.354 32.2915Z" fill="currentColor"/>
    <path d="M190.954 34.027H192.254L192.034 29.9024C190.516 29.2513 188.991 29.0334 187.473 29.0334C183.562 29.0334 181.172 30.7714 181.172 33.1605C181.172 35.1164 182.041 36.4186 184.866 38.1591C187.255 39.6792 187.691 40.1149 187.691 40.7661C187.691 41.4172 187.038 42.0708 185.951 42.0708C184.651 42.0708 183.346 40.7636 182.693 39.246H181.393L181.611 43.5885H182.695C182.913 43.3706 183.133 43.1527 183.349 43.1527C183.564 43.1527 184 43.1527 184.436 43.3706C185.089 43.3706 185.52 43.5885 185.52 43.5885H187.043C190.519 43.5885 192.69 41.8529 192.69 39.246C192.69 38.5924 192.69 37.9412 192.254 37.2876C191.821 36.2032 190.954 35.5496 188.996 34.4628C185.956 32.7273 185.738 32.5094 185.738 31.8558C185.738 31.2047 186.389 30.5511 187.26 30.5511C188.778 30.5511 190.083 31.6379 190.954 34.027Z" fill="currentColor"/>
    <path d="M204.42 41.8529C202.684 41.8529 202.249 41.1993 202.249 39.0281V28.5952H200.944L195.079 30.5511V31.6404L195.732 31.8583C197.037 32.2915 197.255 32.2915 197.255 33.3759V39.0281C197.255 41.1993 196.819 41.8529 195.079 41.8529V43.3706H204.638V41.8529H204.42Z" fill="currentColor"/>
    <path d="M196.386 23.5991C196.386 25.555 197.686 26.6418 199.644 26.6418C201.38 26.6418 202.684 25.5549 202.905 24.0348V23.817C202.905 22.079 201.598 20.9921 199.862 20.9921C197.904 20.9921 196.386 22.079 196.386 23.5991Z" fill="currentColor"/>
    <path d="M212.459 37.2876V31.4225H216.591L217.027 29.4667H212.461V25.3395H211.162C210.29 27.0775 209.419 27.949 208.119 29.0334C207.247 29.6845 206.814 29.9024 205.73 30.3357V31.4225H207.465V35.5521C207.465 37.7233 207.465 39.0281 207.683 39.8946C207.901 42.2887 209.419 43.5885 211.595 43.5885C213.984 43.5885 216.155 42.4991 217.242 40.7636L216.588 39.6767C215.499 40.7636 214.853 41.1993 214.199 41.1993C212.895 41.1993 212.459 40.3303 212.459 37.2876Z" fill="currentColor"/>
    <path d="M245.483 41.8529C243.743 41.8529 243.307 41.1993 243.307 39.0281V28.5952H242.007L235.924 30.5511V31.6404L236.796 31.8583C238.095 32.2915 238.095 32.2915 238.095 33.3759V39.0281C238.095 41.1993 237.66 41.8529 236.142 41.8529H235.924V43.3706H245.483V41.8529Z" fill="currentColor"/>
    <path d="M237.442 23.5991C237.442 25.555 238.749 26.6418 240.485 26.6418C242.443 26.6418 243.743 25.5549 243.743 24.0348V23.817C243.743 22.079 242.44 20.9921 240.7 20.9921C238.747 20.9921 237.442 22.079 237.442 23.5991Z" fill="currentColor"/>
    <path d="M253.519 37.2876V31.4225H257.434L258.087 29.4667H253.522V25.3395H252.004C251.133 27.0775 250.479 27.949 248.962 29.0334C248.09 29.6845 247.654 29.9024 246.567 30.3357V31.4225H248.308V35.5521C248.308 37.7233 248.308 39.0281 248.526 39.8946C248.744 42.2887 250.261 43.5885 252.433 43.5885C254.827 43.5885 256.998 42.4991 258.298 40.7636L257.649 39.6767C256.56 40.7636 255.909 41.1993 255.042 41.1993C253.737 41.1993 253.519 40.3303 253.519 37.2876Z" fill="currentColor"/>
    <path d="M292.191 23.8194V22.0814H282.847V23.8194H283.496C285.89 23.8194 286.321 24.4706 286.321 27.9465V32.2915C286.321 35.5496 286.103 37.0698 285.672 38.1566C284.803 39.8946 282.85 40.9815 280.238 40.9815C278.285 40.9815 276.764 40.5482 275.678 39.6767C274.373 38.5948 274.155 37.7234 274.155 34.0295V27.9465C274.155 24.4706 274.591 23.8194 276.98 23.8194H277.198V22.0814H265.685V23.8194H265.903C268.074 23.8194 268.51 24.4706 268.51 27.9465V32.7272C268.51 37.5055 268.726 38.1591 269.597 39.8946C270.899 42.2887 274.375 43.8063 278.723 43.8063C281.112 43.8063 283.283 43.3731 284.806 42.2887C285.834 41.8684 286.681 41.0974 287.195 40.1125C288.282 38.5924 288.717 36.634 288.717 33.3759V27.9465C288.717 24.4706 289.148 23.8194 291.542 23.8194H292.191Z" fill="currentColor"/>
    <path d="M299.143 37.2876V31.4225H303.057L303.493 29.4667H299.145V25.3395H297.628C296.756 27.0775 296.103 27.949 294.585 29.0334C293.714 29.6845 293.278 29.9024 292.191 30.3357V31.4225H293.931V35.5521C293.931 37.7233 293.931 39.0281 294.149 39.8946C294.367 42.2887 295.885 43.5885 298.056 43.5885C300.45 43.5885 302.621 42.4991 303.926 40.7636L303.055 39.6767C302.183 40.7636 301.314 41.1993 300.665 41.1993C299.361 41.1993 299.143 40.3303 299.143 37.2876Z" fill="currentColor"/>
    <path d="M312.616 32.2915H312.398H312.396V28.5952H311.309L305.444 30.5511V31.8558H305.879C307.179 32.2915 307.397 32.7272 307.397 34.8985V39.0281C307.397 41.1993 306.966 41.8529 305.226 41.8529H305.008V43.3706H315.438V41.8529H315.003C312.831 41.8529 312.396 41.4172 312.396 39.0281V34.6806L313.049 34.027C313.48 33.5913 313.916 33.3734 314.134 33.3734C314.352 33.3734 314.787 33.3734 315.005 33.5913L315.877 34.027L317.176 34.6806C317.612 34.027 317.612 33.8116 318.048 32.7272C318.699 31.6379 318.917 30.7689 319.135 30.1178L317.394 29.4667C316.312 29.2488 315.877 29.0309 315.659 29.0309C315.005 29.0309 314.352 29.4667 313.265 30.9868L312.616 32.2915Z" fill="currentColor"/>
    <path d="M350.414 41.8505C351.283 41.1969 351.5 40.9815 352.154 40.11L351.067 39.241C349.332 40.9765 348.242 41.6301 346.507 41.6301C344.113 41.6301 342.595 39.241 342.595 35.765C342.595 32.7248 343.467 30.7664 344.984 30.7664C345.638 30.7664 345.856 31.2022 347.155 32.7248C348.245 33.8067 349.114 34.4603 349.98 34.4603C351.285 34.4603 352.157 33.5888 352.157 32.2891C352.157 30.3307 349.767 29.0285 346.509 29.0285C344.769 29.0285 343.249 29.2463 341.944 29.8974C339.119 30.9843 336.948 33.8067 336.948 36.6315C336.948 40.979 339.988 43.586 344.331 43.586C346.938 43.586 348.678 43.1503 350.414 41.8505Z" fill="currentColor"/>
    <path d="M367.145 29.0309C365.407 29.0309 362.58 30.1178 360.19 31.6379V20.5588H359.104L353.021 22.2968V23.3837C354.979 24.0348 355.197 24.2527 355.197 25.7728V39.0231C355.197 41.1944 354.761 41.848 353.238 41.848H353.021V43.3656H362.58V41.848H362.367C360.626 41.848 360.19 41.1944 360.19 39.0231V33.1556L360.255 33.1235C361.538 32.4855 362.809 31.8533 363.666 31.8533C365.189 31.8533 365.62 32.9402 365.62 36.2008V39.0256C365.62 41.1969 365.407 41.8505 364.102 41.8505H363.666V43.3681H372.792V41.8505H372.574C371.274 41.8505 370.839 40.979 370.839 39.0256V35.3318C370.839 33.3734 370.839 32.5094 370.621 31.6379C370.188 30.1178 368.883 29.0309 367.145 29.0309Z" fill="currentColor"/>
    <path d="M381.046 37.2876V31.4225H385.178L385.614 29.4667H381.049V25.3395H379.749C378.878 27.0775 378.006 27.949 376.706 29.0334C375.835 29.6845 375.402 29.9024 374.317 30.3357V31.4225H376.053V35.5521C376.053 37.7233 376.053 39.0281 376.271 39.8946C376.488 42.2887 378.006 43.5885 380.182 43.5885C382.571 43.5885 384.743 42.4991 385.829 40.7636L385.176 39.6767C384.304 40.7636 383.44 41.1993 382.787 41.1993C381.482 41.1993 381.046 40.3303 381.046 37.2876Z" fill="currentColor"/>
    <path fill-rule="evenodd" clip-rule="evenodd" d="M164.01 39.4589C161.839 42.2887 159.232 43.5885 155.541 43.5885C151.629 43.5885 149.022 40.9815 149.022 36.8519C149.022 32.0736 152.28 29.0309 157.279 29.0309C160.322 29.0309 162.49 30.5511 163.144 33.158L163.362 34.027C163.362 34.6806 163.793 35.1139 164.228 35.3318V36.2032H154.454C154.669 39.0281 156.628 41.1993 158.799 41.1993C160.104 41.1993 161.624 40.3279 162.929 38.5924L164.01 39.4589ZM158.581 34.6806V34.8985H154.454C154.454 32.2915 155.105 30.9868 156.41 30.9868C157.71 30.9868 158.581 32.2915 158.581 34.6806Z" fill="currentColor"/>
    <path fill-rule="evenodd" clip-rule="evenodd" d="M233.971 39.4589C231.795 42.2887 228.97 43.5885 225.494 43.5885C221.582 43.5885 218.757 40.9815 218.757 36.8519C218.757 32.0736 222.015 29.0309 227.234 29.0309C230.277 29.0309 232.23 30.5511 232.881 33.158L233.099 34.027C233.317 34.6806 233.535 35.1139 234.184 35.3318V36.2032H224.412C224.63 39.0281 226.365 41.1993 228.536 41.1993C229.841 41.1993 231.361 40.3279 232.884 38.5924L233.971 39.4589ZM228.319 34.6806V34.8985H224.194C224.194 32.2915 224.848 30.9868 226.147 30.9868C227.67 30.9868 228.319 32.2915 228.319 34.6806Z" fill="currentColor"/>
    <path fill-rule="evenodd" clip-rule="evenodd" d="M334.99 39.4589C332.818 42.2887 329.993 43.5885 326.517 43.5885C322.611 43.5885 319.781 40.9815 319.781 36.8519C319.781 32.0736 323.039 29.0309 328.258 29.0309C331.301 29.0309 333.254 30.5511 333.905 33.158L334.123 34.027C334.341 34.6806 334.559 35.1139 335.207 35.3318V36.2032H325.436C325.653 39.0281 327.389 41.1993 329.56 41.1993C331.083 41.1993 332.385 40.3279 333.908 38.5924L334.99 39.4589ZM329.34 34.6806V34.8985H325.215C325.215 32.2915 325.864 30.9868 327.386 30.9868C328.691 30.9868 329.34 32.2915 329.34 34.6806Z" fill="currentColor"/>
</svg>
