<svg viewBox="0 0 77 39" fill="none" xmlns="http://www.w3.org/2000/svg">
    <path fill-rule="evenodd" clip-rule="evenodd"
          d="M7.23005 0.380615C3.47675 0.380615 0.434082 3.42326 0.434082 7.17658V16.7492C0.434082 20.5025 3.47673 23.5451 7.23005 23.5451H49.2681C49.4399 23.5451 49.6103 23.5388 49.7789 23.5262C53.6606 24.9895 55.0472 26.3777 56.1243 29.8715C56.0846 30.1686 56.0641 30.4718 56.0641 30.7798V32.1922C56.0641 35.9455 59.1067 38.9882 62.8601 38.9882H69.8003C73.5536 38.9882 76.5963 35.9455 76.5963 32.1922V30.7798C76.5963 27.0265 73.5536 23.9838 69.8003 23.9838H62.8601C62.4992 23.9838 62.1449 24.0119 61.7992 24.0661C59.1332 23.0708 57.8136 21.825 55.9132 18.1801C56.0146 10.7821 56.0479 9.96086 56.0588 9.13933C56.0641 8.73894 56.0641 8.33848 56.0641 7.17658C56.0641 3.42326 53.0214 0.380615 49.2681 0.380615H7.23005ZM10.4755 11.8689C11.0543 12.4799 11.9869 12.9997 13.2731 13.4285C13.8841 13.6429 14.3183 13.8894 14.5755 14.1681C14.8328 14.4361 14.9614 14.7791 14.9614 15.1971C14.9614 16.2262 14.2807 16.7407 12.9194 16.7407C12.1369 16.7407 11.392 16.5638 10.6845 16.2101C10.5023 16.1243 10.3254 16.1297 10.1539 16.2262C9.9824 16.3119 9.89664 16.4566 9.89664 16.6603V16.8532C9.89664 17.1427 9.96632 17.4053 10.1057 17.6411C10.2557 17.8769 10.4594 18.0431 10.7167 18.1395C11.4241 18.4075 12.212 18.5415 13.0802 18.5415C15.8564 18.5415 17.2446 17.416 17.2446 15.165C17.2446 14.2324 16.9605 13.4714 16.3924 12.8818C15.835 12.2923 14.8328 11.767 13.3857 11.3061C12.3781 10.9738 11.8743 10.4218 11.8743 9.65003C11.8743 9.21055 12.0137 8.86754 12.2924 8.621C12.571 8.37446 12.9784 8.2512 13.5143 8.2512C14.3504 8.2512 15.1704 8.40662 15.9743 8.71747C16.1673 8.79251 16.3549 8.77643 16.5371 8.66924C16.7193 8.55133 16.8104 8.39054 16.8104 8.18688V8.04217C16.8104 7.76348 16.73 7.51158 16.5693 7.28648C16.4192 7.05066 16.2155 6.89524 15.9583 6.8202C15.2187 6.5951 14.3504 6.48255 13.3535 6.48255C12.1744 6.48255 11.258 6.76661 10.6041 7.33472C9.95024 7.90283 9.62331 8.6746 9.62331 9.65003C9.62331 10.5183 9.90736 11.2579 10.4755 11.8689ZM23.5677 18.5415C26.4619 18.5415 27.9089 17.0944 27.9089 14.2003V7.55982C27.9089 7.31328 27.8178 7.0989 27.6356 6.91667C27.4534 6.73445 27.239 6.64334 26.9924 6.64334H26.6066C26.36 6.64334 26.1456 6.73445 25.9634 6.91667C25.7812 7.0989 25.6901 7.31328 25.6901 7.55982V14.3289C25.6901 15.165 25.5186 15.7706 25.1756 16.1458C24.8433 16.5102 24.318 16.6925 23.5999 16.6925C22.8817 16.6925 22.3511 16.5102 22.0081 16.1458C21.6758 15.7706 21.5096 15.165 21.5096 14.3289V7.55982C21.5096 7.31328 21.4185 7.0989 21.2363 6.91667C21.0541 6.73445 20.8397 6.64334 20.5932 6.64334H20.143C19.8964 6.64334 19.6821 6.73445 19.4998 6.91667C19.3176 7.0989 19.2265 7.31328 19.2265 7.55982V14.2003C19.2265 17.0944 20.6736 18.5415 23.5677 18.5415ZM32.6639 11.9653V8.4763C32.6639 8.39054 32.7122 8.33695 32.8086 8.31551C33.1623 8.26191 33.5 8.23512 33.8216 8.23512C35.5902 8.23512 36.4745 8.84074 36.4745 10.052C36.4745 11.4133 35.5205 12.094 33.6125 12.094H32.8086C32.7122 12.094 32.6639 12.0511 32.6639 11.9653ZM30.7184 18.1074C30.9006 18.2896 31.115 18.3807 31.3615 18.3807H31.7635C32.0101 18.3807 32.2191 18.2896 32.3906 18.1074C32.5728 17.9251 32.6639 17.7108 32.6639 17.4642V13.943C32.6639 13.8465 32.7122 13.7983 32.8086 13.7983H33.5482C34.1485 13.7983 34.5719 13.8787 34.8184 14.0395C35.065 14.2003 35.2847 14.5379 35.4777 15.0524L36.3781 17.5285C36.4745 17.7858 36.6353 17.9948 36.8604 18.1556C37.0855 18.3057 37.3374 18.3807 37.6161 18.3807H38.1146C38.3289 18.3807 38.4951 18.2896 38.613 18.1074C38.7416 17.9251 38.7684 17.7322 38.6934 17.5285L37.7287 15.0042C37.3642 14.0609 36.9247 13.4285 36.4102 13.1069C36.3995 13.1069 36.3941 13.0962 36.3941 13.0748C36.3941 13.0641 36.3995 13.0587 36.4102 13.0587C37.107 12.8229 37.659 12.4155 38.0663 11.8367C38.4844 11.2579 38.6934 10.5879 38.6934 9.8269C38.6934 8.76571 38.3021 7.9457 37.5196 7.36687C36.7372 6.77733 35.5581 6.48255 33.9824 6.48255C33.1356 6.48255 32.2566 6.52543 31.3455 6.61118C31.0882 6.63262 30.8738 6.74517 30.7023 6.94883C30.5308 7.15249 30.4451 7.38295 30.4451 7.64021V17.4642C30.4451 17.7108 30.5362 17.9251 30.7184 18.1074ZM41.0535 18.1074C41.2358 18.2896 41.4501 18.3807 41.6967 18.3807H42.1308C42.3773 18.3807 42.5917 18.2896 42.774 18.1074C42.9562 17.9251 43.0473 17.7108 43.0473 17.4642V13.4124C43.0473 13.3267 43.0902 13.2838 43.1759 13.2838H46.7293C46.9651 13.2838 47.1688 13.2034 47.3403 13.0426C47.5118 12.8711 47.5975 12.6621 47.5975 12.4155C47.5975 12.169 47.5118 11.9653 47.3403 11.8046C47.1688 11.6331 46.9651 11.5473 46.7293 11.5473H43.1759C43.0902 11.5473 43.0473 11.5044 43.0473 11.4187V8.60492C43.0473 8.50845 43.0902 8.46022 43.1759 8.46022H47.0026C47.2492 8.46022 47.4635 8.37446 47.6458 8.20296C47.828 8.02074 47.9191 7.80635 47.9191 7.55982C47.9191 7.31328 47.828 7.0989 47.6458 6.91667C47.4635 6.73445 47.2492 6.64334 47.0026 6.64334H41.6967C41.4501 6.64334 41.2358 6.73445 41.0535 6.91667C40.882 7.0989 40.7963 7.31328 40.7963 7.55982V17.4642C40.7963 17.7108 40.882 17.9251 41.0535 18.1074Z"
          fill="currentColor"/>
</svg>
