<svg width="482" height="45" viewBox="0 0 482 45" fill="none" xmlns="http://www.w3.org/2000/svg">
<circle cx="22.8121" cy="22.5582" r="22.262" fill="currentColor"/>
<path d="M68.7033 33.5581V11.9668H76.3995C78.0722 11.9668 79.4603 12.255 80.5638 12.8313C81.6743 13.4076 82.5036 14.2054 83.0519 15.2245C83.6001 16.2366 83.8742 17.4068 83.8742 18.7352C83.8742 20.0565 83.5966 21.2197 83.0413 22.2248C82.4931 23.2228 81.6637 23.9995 80.5533 24.5547C79.4498 25.11 78.0617 25.3876 76.3889 25.3876H70.5588V22.5832H76.0937C77.148 22.5832 78.0055 22.4321 78.6661 22.1299C79.3338 21.8277 79.8223 21.3884 80.1315 20.8121C80.4408 20.2357 80.5954 19.5434 80.5954 18.7352C80.5954 17.9199 80.4373 17.2135 80.121 16.6161C79.8118 16.0187 79.3233 15.5618 78.6556 15.2456C77.9949 14.9223 77.1269 14.7606 76.0516 14.7606H71.961V33.5581H68.7033ZM79.3619 23.8167L84.6965 33.5581H80.9855L75.7564 23.8167H79.3619ZM94.6583 33.8849C93.0629 33.8849 91.6888 33.544 90.5362 32.8623C89.3905 32.1735 88.505 31.2071 87.8794 29.9631C87.2609 28.712 86.9517 27.2466 86.9517 25.5668C86.9517 23.9081 87.2609 22.4462 87.8794 21.1811C88.505 19.916 89.3765 18.9285 90.494 18.2186C91.6185 17.5087 92.9329 17.1538 94.4369 17.1538C95.3506 17.1538 96.2362 17.3049 97.0937 17.6071C97.9511 17.9093 98.7208 18.3838 99.4025 19.0304C100.084 19.677 100.622 20.5169 101.016 21.5501C101.409 22.5762 101.606 23.8238 101.606 25.2927V26.4102H88.7334V24.0487H98.5169C98.5169 23.2193 98.3483 22.4848 98.0109 21.8453C97.6735 21.1986 97.1991 20.6891 96.5876 20.3166C95.9832 19.9441 95.2733 19.7578 94.458 19.7578C93.5724 19.7578 92.7993 19.9757 92.1386 20.4115C91.485 20.8402 90.979 21.4025 90.6205 22.0983C90.2691 22.7871 90.0934 23.5356 90.0934 24.3439V26.1888C90.0934 27.2712 90.2831 28.1919 90.6627 28.951C91.0492 29.71 91.5869 30.2899 92.2757 30.6905C92.9645 31.0841 93.7692 31.2809 94.69 31.2809C95.2874 31.2809 95.8321 31.1966 96.3241 31.0279C96.8161 30.8522 97.2413 30.5921 97.5997 30.2477C97.9582 29.9033 98.2323 29.4781 98.422 28.9721L101.406 29.5097C101.167 30.3883 100.738 31.1579 100.119 31.8186C99.5079 32.4722 98.7383 32.9818 97.8106 33.3473C96.8899 33.7057 95.8391 33.8849 94.6583 33.8849ZM117.535 21.3181L114.678 21.8242C114.558 21.4587 114.369 21.1108 114.109 20.7804C113.856 20.4501 113.511 20.1795 113.075 19.9687C112.64 19.7578 112.095 19.6524 111.441 19.6524C110.549 19.6524 109.804 19.8527 109.206 20.2533C108.609 20.6469 108.31 21.1565 108.31 21.782C108.31 22.3232 108.51 22.7589 108.911 23.0893C109.312 23.4196 109.958 23.6902 110.851 23.9011L113.423 24.4914C114.913 24.8358 116.024 25.3665 116.755 26.0834C117.486 26.8003 117.851 27.7315 117.851 28.8772C117.851 29.8471 117.57 30.7116 117.008 31.4707C116.453 32.2227 115.676 32.8131 114.678 33.2418C113.687 33.6706 112.538 33.8849 111.23 33.8849C109.417 33.8849 107.938 33.4984 106.792 32.7252C105.646 31.9451 104.943 30.8381 104.683 29.4043L107.73 28.9404C107.92 29.7346 108.31 30.3356 108.9 30.7432C109.491 31.1438 110.26 31.3442 111.209 31.3442C112.242 31.3442 113.068 31.1298 113.687 30.7011C114.305 30.2653 114.615 29.7346 114.615 29.1091C114.615 28.6031 114.425 28.1779 114.045 27.8335C113.673 27.4891 113.1 27.229 112.327 27.0533L109.586 26.4524C108.075 26.108 106.957 25.5598 106.233 24.8077C105.516 24.0557 105.158 23.1033 105.158 21.9507C105.158 20.9948 105.425 20.1584 105.959 19.4415C106.493 18.7246 107.231 18.1659 108.173 17.7653C109.115 17.3576 110.194 17.1538 111.41 17.1538C113.16 17.1538 114.537 17.5333 115.542 18.2924C116.547 19.0444 117.212 20.053 117.535 21.3181ZM128.593 33.8849C126.998 33.8849 125.624 33.544 124.471 32.8623C123.325 32.1735 122.44 31.2071 121.814 29.9631C121.196 28.712 120.886 27.2466 120.886 25.5668C120.886 23.9081 121.196 22.4462 121.814 21.1811C122.44 19.916 123.311 18.9285 124.429 18.2186C125.553 17.5087 126.868 17.1538 128.372 17.1538C129.285 17.1538 130.171 17.3049 131.028 17.6071C131.886 17.9093 132.656 18.3838 133.337 19.0304C134.019 19.677 134.557 20.5169 134.95 21.5501C135.344 22.5762 135.541 23.8238 135.541 25.2927V26.4102H122.668V24.0487H132.452C132.452 23.2193 132.283 22.4848 131.946 21.8453C131.608 21.1986 131.134 20.6891 130.522 20.3166C129.918 19.9441 129.208 19.7578 128.393 19.7578C127.507 19.7578 126.734 19.9757 126.073 20.4115C125.42 20.8402 124.914 21.4025 124.555 22.0983C124.204 22.7871 124.028 23.5356 124.028 24.3439V26.1888C124.028 27.2712 124.218 28.1919 124.597 28.951C124.984 29.71 125.522 30.2899 126.211 30.6905C126.899 31.0841 127.704 31.2809 128.625 31.2809C129.222 31.2809 129.767 31.1966 130.259 31.0279C130.751 30.8522 131.176 30.5921 131.535 30.2477C131.893 29.9033 132.167 29.4781 132.357 28.9721L135.34 29.5097C135.101 30.3883 134.673 31.1579 134.054 31.8186C133.443 32.4722 132.673 32.9818 131.745 33.3473C130.825 33.7057 129.774 33.8849 128.593 33.8849ZM144.048 33.9166C143.022 33.9166 142.094 33.7268 141.264 33.3473C140.435 32.9607 139.778 32.4019 139.293 31.671C138.815 30.94 138.576 30.0439 138.576 28.9826C138.576 28.0689 138.752 27.3169 139.103 26.7265C139.455 26.1361 139.929 25.6687 140.526 25.3243C141.124 24.9799 141.792 24.7199 142.53 24.5442C143.268 24.3685 144.02 24.2349 144.786 24.1435C145.756 24.0311 146.543 23.9397 147.147 23.8694C147.752 23.7921 148.191 23.6691 148.465 23.5004C148.739 23.3318 148.876 23.0577 148.876 22.6781V22.6043C148.876 21.6836 148.616 20.9702 148.096 20.4642C147.583 19.9581 146.817 19.7051 145.798 19.7051C144.736 19.7051 143.9 19.9406 143.289 20.4115C142.684 20.8753 142.266 21.3919 142.034 21.9612L139.072 21.2865C139.423 20.3025 139.936 19.5083 140.611 18.9039C141.293 18.2924 142.076 17.8496 142.962 17.5755C143.847 17.2944 144.779 17.1538 145.756 17.1538C146.402 17.1538 147.087 17.2311 147.811 17.3857C148.542 17.5333 149.224 17.8074 149.857 18.208C150.496 18.6087 151.02 19.1815 151.428 19.9265C151.835 20.6645 152.039 21.6239 152.039 22.8046V33.5581H148.961V31.3442H148.834C148.63 31.7518 148.324 32.1524 147.917 32.546C147.509 32.9396 146.986 33.2664 146.346 33.5265C145.706 33.7865 144.94 33.9166 144.048 33.9166ZM144.733 31.3863C145.604 31.3863 146.349 31.2141 146.968 30.8697C147.594 30.5253 148.068 30.0755 148.391 29.5203C148.722 28.958 148.887 28.3571 148.887 27.7175V25.6301C148.774 25.7425 148.556 25.8479 148.233 25.9463C147.917 26.0377 147.555 26.1185 147.147 26.1888C146.74 26.2521 146.342 26.3118 145.956 26.368C145.569 26.4172 145.246 26.4594 144.986 26.4945C144.374 26.5719 143.816 26.7019 143.31 26.8846C142.811 27.0674 142.41 27.3309 142.108 27.6753C141.813 28.0127 141.665 28.4625 141.665 29.0248C141.665 29.8049 141.953 30.3953 142.53 30.7959C143.106 31.1895 143.84 31.3863 144.733 31.3863ZM156.534 33.5581V17.3646H159.581V19.937H159.75C160.045 19.0655 160.565 18.3802 161.31 17.8812C162.062 17.3752 162.913 17.1222 163.862 17.1222C164.058 17.1222 164.29 17.1292 164.557 17.1432C164.832 17.1573 165.046 17.1749 165.201 17.196V20.2111C165.074 20.176 164.849 20.1373 164.526 20.0952C164.202 20.046 163.879 20.0214 163.556 20.0214C162.811 20.0214 162.147 20.1795 161.563 20.4958C160.987 20.805 160.53 21.2373 160.193 21.7925C159.855 22.3408 159.687 22.9663 159.687 23.6691V33.5581H156.534ZM174.467 33.8849C172.899 33.8849 171.55 33.53 170.418 32.8201C169.294 32.1032 168.429 31.1157 167.825 29.8576C167.22 28.5996 166.918 27.1587 166.918 25.5352C166.918 23.8905 167.227 22.4392 167.846 21.1811C168.464 19.916 169.336 18.9285 170.46 18.2186C171.585 17.5087 172.91 17.1538 174.435 17.1538C175.665 17.1538 176.761 17.3822 177.724 17.8391C178.687 18.2889 179.464 18.9214 180.054 19.7367C180.652 20.552 181.006 21.5044 181.119 22.5938H178.051C177.882 21.8347 177.496 21.1811 176.891 20.6328C176.294 20.0846 175.493 19.8105 174.488 19.8105C173.609 19.8105 172.839 20.0425 172.179 20.5063C171.525 20.9632 171.016 21.6168 170.65 22.4673C170.285 23.3107 170.102 24.3087 170.102 25.4614C170.102 26.6421 170.281 27.6613 170.64 28.5187C170.998 29.3762 171.504 30.0404 172.158 30.5113C172.818 30.9822 173.595 31.2176 174.488 31.2176C175.085 31.2176 175.626 31.1087 176.111 30.8908C176.603 30.6659 177.014 30.3461 177.345 29.9314C177.682 29.5168 177.917 29.0177 178.051 28.4344H181.119C181.006 29.4816 180.666 30.4164 180.096 31.2387C179.527 32.0611 178.764 32.7077 177.809 33.1786C176.86 33.6495 175.746 33.8849 174.467 33.8849ZM187.939 23.9432V33.5581H184.787V11.9668H187.897V20.0003H188.097C188.477 19.1288 189.057 18.4365 189.837 17.9234C190.617 17.4103 191.636 17.1538 192.894 17.1538C194.005 17.1538 194.974 17.3822 195.804 17.8391C196.64 18.2959 197.287 18.9777 197.744 19.8843C198.208 20.784 198.439 21.9085 198.439 23.258V33.5581H195.287V23.6375C195.287 22.4497 194.982 21.529 194.37 20.8753C193.759 20.2147 192.908 19.8843 191.819 19.8843C191.074 19.8843 190.406 20.0425 189.816 20.3587C189.232 20.675 188.772 21.1389 188.435 21.7504C188.104 22.3548 187.939 23.0858 187.939 23.9432ZM223.126 17.6387C223.013 16.6407 222.549 15.8676 221.734 15.3194C220.919 14.7641 219.893 14.4865 218.656 14.4865C217.77 14.4865 217.004 14.6271 216.357 14.9082C215.711 15.1823 215.208 15.5618 214.85 16.0468C214.498 16.5247 214.323 17.0694 214.323 17.6809C214.323 18.194 214.442 18.6368 214.681 19.0093C214.927 19.3818 215.247 19.6946 215.641 19.9476C216.041 20.1936 216.47 20.4009 216.927 20.5696C217.384 20.7312 217.823 20.8648 218.245 20.9702L220.353 21.5184C221.042 21.6871 221.748 21.9155 222.472 22.2037C223.196 22.4919 223.867 22.8714 224.486 23.3423C225.104 23.8132 225.603 24.3966 225.983 25.0924C226.369 25.7882 226.563 26.6211 226.563 27.591C226.563 28.8139 226.246 29.8998 225.614 30.8487C224.988 31.7975 224.078 32.546 222.883 33.0942C221.696 33.6424 220.258 33.9166 218.571 33.9166C216.955 33.9166 215.556 33.66 214.375 33.1469C213.195 32.6339 212.27 31.9064 211.603 30.9646C210.935 30.0158 210.566 28.8912 210.496 27.591H213.764C213.827 28.3711 214.08 29.0213 214.523 29.5414C214.973 30.0544 215.546 30.4375 216.241 30.6905C216.944 30.9365 217.714 31.0595 218.55 31.0595C219.471 31.0595 220.29 30.9154 221.007 30.6273C221.731 30.3321 222.3 29.9244 222.715 29.4043C223.129 28.8772 223.337 28.2622 223.337 27.5594C223.337 26.9198 223.154 26.3962 222.788 25.9885C222.43 25.5809 221.941 25.2435 221.323 24.9764C220.712 24.7093 220.019 24.4739 219.246 24.2701L216.695 23.5742C214.966 23.1033 213.595 22.411 212.583 21.4973C211.578 20.5837 211.076 19.3748 211.076 17.8707C211.076 16.6267 211.413 15.5408 212.088 14.613C212.762 13.6853 213.676 12.9648 214.829 12.4518C215.981 11.9317 217.282 11.6716 218.73 11.6716C220.191 11.6716 221.481 11.9282 222.599 12.4412C223.723 12.9543 224.609 13.6607 225.255 14.5603C225.902 15.4529 226.239 16.4791 226.267 17.6387H223.126ZM237.32 33.8849C235.802 33.8849 234.477 33.537 233.346 32.8412C232.214 32.1454 231.336 31.172 230.71 29.9209C230.085 28.6698 229.772 27.2079 229.772 25.5352C229.772 23.8554 230.085 22.3864 230.71 21.1284C231.336 19.8703 232.214 18.8933 233.346 18.1975C234.477 17.5017 235.802 17.1538 237.32 17.1538C238.839 17.1538 240.163 17.5017 241.295 18.1975C242.427 18.8933 243.305 19.8703 243.931 21.1284C244.556 22.3864 244.869 23.8554 244.869 25.5352C244.869 27.2079 244.556 28.6698 243.931 29.9209C243.305 31.172 242.427 32.1454 241.295 32.8412C240.163 33.537 238.839 33.8849 237.32 33.8849ZM237.331 31.2387C238.315 31.2387 239.13 30.9787 239.777 30.4586C240.424 29.9385 240.901 29.2462 241.211 28.3817C241.527 27.5172 241.685 26.5648 241.685 25.5246C241.685 24.4914 241.527 23.5426 241.211 22.6781C240.901 21.8066 240.424 21.1073 239.777 20.5801C239.13 20.053 238.315 19.7894 237.331 19.7894C236.34 19.7894 235.518 20.053 234.864 20.5801C234.217 21.1073 233.736 21.8066 233.42 22.6781C233.11 23.5426 232.956 24.4914 232.956 25.5246C232.956 26.5648 233.11 27.5172 233.42 28.3817C233.736 29.2462 234.217 29.9385 234.864 30.4586C235.518 30.9787 236.34 31.2387 237.331 31.2387ZM256.391 17.3646V19.8949H247.24V17.3646H256.391ZM249.749 33.5581V15.488C249.749 14.476 249.971 13.6361 250.413 12.9684C250.856 12.2936 251.443 11.7911 252.174 11.4608C252.905 11.1234 253.699 10.9547 254.557 10.9547C255.189 10.9547 255.73 11.0074 256.18 11.1129C256.63 11.2113 256.964 11.3026 257.182 11.387L256.444 13.9383C256.296 13.8961 256.106 13.8469 255.875 13.7907C255.643 13.7274 255.361 13.6958 255.031 13.6958C254.265 13.6958 253.717 13.8856 253.386 14.2651C253.063 14.6446 252.902 15.1929 252.902 15.9098V33.5581H249.749ZM267.499 17.3646V19.8949H258.654V17.3646H267.499ZM261.026 13.485H264.179V28.8034C264.179 29.4149 264.27 29.8752 264.453 30.1845C264.635 30.4867 264.871 30.694 265.159 30.8065C265.454 30.9119 265.774 30.9646 266.118 30.9646C266.371 30.9646 266.593 30.947 266.783 30.9119C266.972 30.8768 267.12 30.8487 267.225 30.8276L267.795 33.4316C267.612 33.5019 267.352 33.5722 267.015 33.6424C266.677 33.7198 266.255 33.7619 265.749 33.769C264.92 33.783 264.147 33.6354 263.43 33.3262C262.713 33.0169 262.133 32.539 261.69 31.8924C261.248 31.2458 261.026 30.434 261.026 29.457V13.485ZM274.794 33.5581L270.029 17.3646H273.286L276.46 29.2567H276.618L279.802 17.3646H283.059L286.222 29.204H286.38L289.533 17.3646H292.79L288.036 33.5581H284.82L281.531 21.8663H281.288L277.999 33.5581H274.794ZM300.791 33.9166C299.765 33.9166 298.837 33.7268 298.008 33.3473C297.179 32.9607 296.521 32.4019 296.036 31.671C295.559 30.94 295.32 30.0439 295.32 28.9826C295.32 28.0689 295.495 27.3169 295.847 26.7265C296.198 26.1361 296.673 25.6687 297.27 25.3243C297.867 24.9799 298.535 24.7199 299.273 24.5442C300.011 24.3685 300.763 24.2349 301.529 24.1435C302.499 24.0311 303.286 23.9397 303.891 23.8694C304.495 23.7921 304.934 23.6691 305.209 23.5004C305.483 23.3318 305.62 23.0577 305.62 22.6781V22.6043C305.62 21.6836 305.36 20.9702 304.84 20.4642C304.326 19.9581 303.56 19.7051 302.541 19.7051C301.48 19.7051 300.644 19.9406 300.032 20.4115C299.428 20.8753 299.009 21.3919 298.778 21.9612L295.815 21.2865C296.166 20.3025 296.68 19.5083 297.354 18.9039C298.036 18.2924 298.82 17.8496 299.705 17.5755C300.591 17.2944 301.522 17.1538 302.499 17.1538C303.146 17.1538 303.831 17.2311 304.555 17.3857C305.286 17.5333 305.968 17.8074 306.6 18.208C307.24 18.6087 307.763 19.1815 308.171 19.9265C308.579 20.6645 308.782 21.6239 308.782 22.8046V33.5581H305.704V31.3442H305.578C305.374 31.7518 305.068 32.1524 304.66 32.546C304.253 32.9396 303.729 33.2664 303.089 33.5265C302.45 33.7865 301.684 33.9166 300.791 33.9166ZM301.476 31.3863C302.348 31.3863 303.093 31.2141 303.711 30.8697C304.337 30.5253 304.811 30.0755 305.135 29.5203C305.465 28.958 305.63 28.3571 305.63 27.7175V25.6301C305.518 25.7425 305.3 25.8479 304.977 25.9463C304.66 26.0377 304.298 26.1185 303.891 26.1888C303.483 26.2521 303.086 26.3118 302.699 26.368C302.313 26.4172 301.99 26.4594 301.729 26.4945C301.118 26.5719 300.559 26.7019 300.053 26.8846C299.554 27.0674 299.154 27.3309 298.851 27.6753C298.556 28.0127 298.409 28.4625 298.409 29.0248C298.409 29.8049 298.697 30.3953 299.273 30.7959C299.849 31.1895 300.584 31.3863 301.476 31.3863ZM313.278 33.5581V17.3646H316.325V19.937H316.493C316.789 19.0655 317.309 18.3802 318.054 17.8812C318.806 17.3752 319.656 17.1222 320.605 17.1222C320.802 17.1222 321.034 17.1292 321.301 17.1432C321.575 17.1573 321.789 17.1749 321.944 17.196V20.2111C321.817 20.176 321.593 20.1373 321.269 20.0952C320.946 20.046 320.623 20.0214 320.299 20.0214C319.554 20.0214 318.89 20.1795 318.307 20.4958C317.73 20.805 317.274 21.2373 316.936 21.7925C316.599 22.3408 316.43 22.9663 316.43 23.6691V33.5581H313.278ZM331.368 33.8849C329.773 33.8849 328.399 33.544 327.246 32.8623C326.1 32.1735 325.215 31.2071 324.589 29.9631C323.971 28.712 323.661 27.2466 323.661 25.5668C323.661 23.9081 323.971 22.4462 324.589 21.1811C325.215 19.916 326.086 18.9285 327.204 18.2186C328.328 17.5087 329.643 17.1538 331.147 17.1538C332.06 17.1538 332.946 17.3049 333.803 17.6071C334.661 17.9093 335.431 18.3838 336.112 19.0304C336.794 19.677 337.332 20.5169 337.725 21.5501C338.119 22.5762 338.316 23.8238 338.316 25.2927V26.4102H325.443V24.0487H335.227C335.227 23.2193 335.058 22.4848 334.721 21.8453C334.383 21.1986 333.909 20.6891 333.297 20.3166C332.693 19.9441 331.983 19.7578 331.168 19.7578C330.282 19.7578 329.509 19.9757 328.848 20.4115C328.195 20.8402 327.689 21.4025 327.33 22.0983C326.979 22.7871 326.803 23.5356 326.803 24.3439V26.1888C326.803 27.2712 326.993 28.1919 327.372 28.951C327.759 29.71 328.297 30.2899 328.986 30.6905C329.674 31.0841 330.479 31.2809 331.4 31.2809C331.997 31.2809 332.542 31.1966 333.034 31.0279C333.526 30.8522 333.951 30.5921 334.31 30.2477C334.668 29.9033 334.942 29.4781 335.132 28.9721L338.115 29.5097C337.876 30.3883 337.448 31.1579 336.829 31.8186C336.218 32.4722 335.448 32.9818 334.52 33.3473C333.6 33.7057 332.549 33.8849 331.368 33.8849ZM357.507 33.5581H350.517V11.9668H357.728C359.844 11.9668 361.66 12.3991 363.179 13.2636C364.697 14.121 365.86 15.3545 366.668 16.964C367.484 18.5665 367.891 20.4888 367.891 22.7308C367.891 24.9799 367.48 26.9127 366.658 28.5293C365.842 30.1458 364.662 31.3898 363.115 32.2614C361.569 33.1259 359.7 33.5581 357.507 33.5581ZM353.775 30.7116H357.327C358.972 30.7116 360.339 30.4023 361.429 29.7838C362.518 29.1583 363.333 28.2552 363.874 27.0744C364.416 25.8866 364.686 24.4387 364.686 22.7308C364.686 21.037 364.416 19.5997 363.874 18.4189C363.34 17.2381 362.543 16.342 361.481 15.7305C360.42 15.1191 359.102 14.8133 357.528 14.8133H353.775V30.7116ZM371.986 33.5581V17.3646H375.138V33.5581H371.986ZM373.578 14.866C373.03 14.866 372.559 14.6833 372.165 14.3178C371.779 13.9453 371.585 13.5025 371.585 12.9894C371.585 12.4693 371.779 12.0266 372.165 11.6611C372.559 11.2886 373.03 11.1023 373.578 11.1023C374.126 11.1023 374.594 11.2886 374.98 11.6611C375.374 12.0266 375.571 12.4693 375.571 12.9894C375.571 13.5025 375.374 13.9453 374.98 14.3178C374.594 14.6833 374.126 14.866 373.578 14.866ZM379.676 33.5581V17.3646H382.723V19.937H382.891C383.187 19.0655 383.707 18.3802 384.452 17.8812C385.204 17.3752 386.054 17.1222 387.003 17.1222C387.2 17.1222 387.432 17.1292 387.699 17.1432C387.973 17.1573 388.187 17.1749 388.342 17.196V20.2111C388.215 20.176 387.991 20.1373 387.667 20.0952C387.344 20.046 387.021 20.0214 386.697 20.0214C385.952 20.0214 385.288 20.1795 384.705 20.4958C384.128 20.805 383.672 21.2373 383.334 21.7925C382.997 22.3408 382.828 22.9663 382.828 23.6691V33.5581H379.676ZM397.766 33.8849C396.171 33.8849 394.797 33.544 393.644 32.8623C392.498 32.1735 391.613 31.2071 390.987 29.9631C390.369 28.712 390.059 27.2466 390.059 25.5668C390.059 23.9081 390.369 22.4462 390.987 21.1811C391.613 19.916 392.484 18.9285 393.602 18.2186C394.726 17.5087 396.041 17.1538 397.545 17.1538C398.458 17.1538 399.344 17.3049 400.201 17.6071C401.059 17.9093 401.829 18.3838 402.51 19.0304C403.192 19.677 403.73 20.5169 404.123 21.5501C404.517 22.5762 404.714 23.8238 404.714 25.2927V26.4102H391.841V24.0487H401.625C401.625 23.2193 401.456 22.4848 401.119 21.8453C400.781 21.1986 400.307 20.6891 399.695 20.3166C399.091 19.9441 398.381 19.7578 397.566 19.7578C396.68 19.7578 395.907 19.9757 395.246 20.4115C394.593 20.8402 394.087 21.4025 393.728 22.0983C393.377 22.7871 393.201 23.5356 393.201 24.3439V26.1888C393.201 27.2712 393.391 28.1919 393.77 28.951C394.157 29.71 394.695 30.2899 395.383 30.6905C396.072 31.0841 396.877 31.2809 397.798 31.2809C398.395 31.2809 398.94 31.1966 399.432 31.0279C399.924 30.8522 400.349 30.5921 400.708 30.2477C401.066 29.9033 401.34 29.4781 401.53 28.9721L404.513 29.5097C404.274 30.3883 403.846 31.1579 403.227 31.8186C402.616 32.4722 401.846 32.9818 400.918 33.3473C399.998 33.7057 398.947 33.8849 397.766 33.8849ZM415.329 33.8849C413.762 33.8849 412.412 33.53 411.281 32.8201C410.156 32.1032 409.292 31.1157 408.687 29.8576C408.083 28.5996 407.781 27.1587 407.781 25.5352C407.781 23.8905 408.09 22.4392 408.708 21.1811C409.327 19.916 410.198 18.9285 411.323 18.2186C412.448 17.5087 413.772 17.1538 415.298 17.1538C416.528 17.1538 417.624 17.3822 418.587 17.8391C419.55 18.2889 420.326 18.9214 420.917 19.7367C421.514 20.552 421.869 21.5044 421.982 22.5938H418.914C418.745 21.8347 418.358 21.1811 417.754 20.6328C417.157 20.0846 416.355 19.8105 415.35 19.8105C414.472 19.8105 413.702 20.0425 413.041 20.5063C412.388 20.9632 411.878 21.6168 411.513 22.4673C411.147 23.3107 410.965 24.3087 410.965 25.4614C410.965 26.6421 411.144 27.6613 411.502 28.5187C411.861 29.3762 412.367 30.0404 413.02 30.5113C413.681 30.9822 414.458 31.2176 415.35 31.2176C415.948 31.2176 416.489 31.1087 416.974 30.8908C417.466 30.6659 417.877 30.3461 418.207 29.9314C418.545 29.5168 418.78 29.0177 418.914 28.4344H421.982C421.869 29.4816 421.528 30.4164 420.959 31.2387C420.39 32.0611 419.627 32.7077 418.671 33.1786C417.722 33.6495 416.608 33.8849 415.329 33.8849ZM433.209 17.3646V19.8949H424.363V17.3646H433.209ZM426.735 13.485H429.888V28.8034C429.888 29.4149 429.979 29.8752 430.162 30.1845C430.344 30.4867 430.58 30.694 430.868 30.8065C431.163 30.9119 431.483 30.9646 431.827 30.9646C432.08 30.9646 432.302 30.947 432.492 30.9119C432.681 30.8768 432.829 30.8487 432.934 30.8276L433.504 33.4316C433.321 33.5019 433.061 33.5722 432.724 33.6424C432.386 33.7198 431.964 33.7619 431.458 33.769C430.629 33.783 429.856 33.6354 429.139 33.3262C428.422 33.0169 427.842 32.539 427.4 31.8924C426.957 31.2458 426.735 30.434 426.735 29.457V13.485ZM443.639 33.8849C442.121 33.8849 440.796 33.537 439.665 32.8412C438.533 32.1454 437.655 31.172 437.029 29.9209C436.404 28.6698 436.091 27.2079 436.091 25.5352C436.091 23.8554 436.404 22.3864 437.029 21.1284C437.655 19.8703 438.533 18.8933 439.665 18.1975C440.796 17.5017 442.121 17.1538 443.639 17.1538C445.158 17.1538 446.482 17.5017 447.614 18.1975C448.746 18.8933 449.624 19.8703 450.25 21.1284C450.875 22.3864 451.188 23.8554 451.188 25.5352C451.188 27.2079 450.875 28.6698 450.25 29.9209C449.624 31.172 448.746 32.1454 447.614 32.8412C446.482 33.537 445.158 33.8849 443.639 33.8849ZM443.65 31.2387C444.634 31.2387 445.449 30.9787 446.096 30.4586C446.743 29.9385 447.22 29.2462 447.53 28.3817C447.846 27.5172 448.004 26.5648 448.004 25.5246C448.004 24.4914 447.846 23.5426 447.53 22.6781C447.22 21.8066 446.743 21.1073 446.096 20.5801C445.449 20.053 444.634 19.7894 443.65 19.7894C442.659 19.7894 441.837 20.053 441.183 20.5801C440.536 21.1073 440.055 21.8066 439.739 22.6781C439.429 23.5426 439.275 24.4914 439.275 25.5246C439.275 26.5648 439.429 27.5172 439.739 28.3817C440.055 29.2462 440.536 29.9385 441.183 30.4586C441.837 30.9787 442.659 31.2387 443.65 31.2387ZM455.004 33.5581V17.3646H458.05V19.937H458.219C458.514 19.0655 459.034 18.3802 459.779 17.8812C460.531 17.3752 461.382 17.1222 462.331 17.1222C462.527 17.1222 462.759 17.1292 463.026 17.1432C463.301 17.1573 463.515 17.1749 463.67 17.196V20.2111C463.543 20.176 463.318 20.1373 462.995 20.0952C462.672 20.046 462.348 20.0214 462.025 20.0214C461.28 20.0214 460.616 20.1795 460.032 20.4958C459.456 20.805 458.999 21.2373 458.662 21.7925C458.324 22.3408 458.156 22.9663 458.156 23.6691V33.5581H455.004ZM469.18 39.6307C468.709 39.6307 468.28 39.592 467.894 39.5147C467.507 39.4444 467.219 39.3671 467.029 39.2827L467.788 36.6998C468.364 36.8544 468.878 36.9212 469.327 36.9001C469.777 36.879 470.174 36.7103 470.519 36.3941C470.87 36.0778 471.179 35.5612 471.446 34.8443L471.836 33.769L465.912 17.3646H469.285L473.386 29.9314H473.555L477.656 17.3646H481.04L474.367 35.7193C474.057 36.5628 473.664 37.2761 473.186 37.8595C472.708 38.4499 472.139 38.8927 471.478 39.1879C470.817 39.4831 470.051 39.6307 469.18 39.6307Z" fill="currentColor"/>
</svg>
