<?xml version="1.0" encoding="UTF-8" standalone="no"?>
<!-- Created with Inkscape (http://www.inkscape.org/) -->

<svg
   width="11.493147mm"
   height="11.209467mm"
   viewBox="0 0 11.493147 11.209467"
   version="1.1"
   id="svg441"
   inkscape:version="1.1.1 (3bf5ae0d25, 2021-09-20)"
   sodipodi:docname="github.svg"
   xmlns:inkscape="http://www.inkscape.org/namespaces/inkscape"
   xmlns:sodipodi="http://sodipodi.sourceforge.net/DTD/sodipodi-0.dtd"
   xmlns:xlink="http://www.w3.org/1999/xlink"
   xmlns="http://www.w3.org/2000/svg"
   xmlns:svg="http://www.w3.org/2000/svg">
  <sodipodi:namedview
     id="namedview443"
     pagecolor="#ffffff"
     bordercolor="#666666"
     borderopacity="1.0"
     inkscape:pageshadow="2"
     inkscape:pageopacity="0.0"
     inkscape:pagecheckerboard="true"
     inkscape:document-units="mm"
     showgrid="false"
     inkscape:zoom="0.64052329"
     inkscape:cx="81.964233"
     inkscape:cy="287.26512"
     inkscape:window-width="1920"
     inkscape:window-height="1011"
     inkscape:window-x="0"
     inkscape:window-y="32"
     inkscape:window-maximized="1"
     inkscape:current-layer="layer1" />
  <defs
     id="defs438">
    <clipPath
       clipPathUnits="userSpaceOnUse"
       id="clipPath290">
      <use
         x="0"
         y="0"
         xlink:href="#g286"
         id="use292"
         width="100%"
         height="100%" />
    </clipPath>
  </defs>
  <g
     inkscape:label="Ebene 1"
     inkscape:groupmode="layer"
     id="layer1"
     transform="translate(-28.125471,-72.466201)">
    <g
       id="g288"
       clip-path="url(#clipPath290)"
       transform="matrix(0.35277777,0,0,-0.35277777,-19.965195,131.92513)">
      <g
         inkscape:label="Clip"
         id="g286">
        <path
           d="m 152.608,168.545 c -8.994,0 -16.288,-7.293 -16.288,-16.29 0,-7.197 4.667,-13.302 11.14,-15.456 0.815,-0.15 1.112,0.353 1.112,0.785 0,0.387 -0.014,1.411 -0.022,2.77 -4.531,-0.984 -5.487,2.184 -5.487,2.184 -0.741,1.882 -1.809,2.383 -1.809,2.383 -1.479,1.01 0.112,0.99 0.112,0.99 1.635,-0.115 2.495,-1.679 2.495,-1.679 1.453,-2.489 3.813,-1.77 4.741,-1.353 0.148,1.052 0.569,1.77 1.034,2.177 -3.617,0.411 -7.42,1.809 -7.42,8.051 0,1.778 0.635,3.233 1.677,4.371 -0.168,0.412 -0.727,2.069 0.16,4.311 0,0 1.367,0.438 4.479,-1.67 1.299,0.362 2.693,0.542 4.078,0.549 1.384,-0.007 2.777,-0.187 4.078,-0.549 3.11,2.108 4.475,1.67 4.475,1.67 0.889,-2.242 0.33,-3.899 0.163,-4.311 1.044,-1.138 1.674,-2.593 1.674,-4.371 0,-6.258 -3.809,-7.635 -7.437,-8.038 0.584,-0.503 1.105,-1.497 1.105,-3.016 0,-2.178 -0.02,-3.935 -0.02,-4.469 0,-0.436 0.294,-0.943 1.12,-0.784 6.468,2.159 11.131,8.26 11.131,15.455 0,8.997 -7.294,16.29 -16.291,16.29"
           style="fill:#ffffff;fill-opacity:1;fill-rule:evenodd;stroke:none;stroke-width:0.1"
           id="path104" />
      </g>
    </g>
  </g>
</svg>
