<?xml version="1.0" encoding="UTF-8" standalone="no"?>

<svg
  xmlns="http://www.w3.org/2000/svg"
  id="svg2"
  version="1.1"
  width="78.270248"
  height="77.394997"
  viewBox="0 0 78.27025 77.394997"
>
  <g
    id="g10"
    transform="matrix(1.25,0,0,-1.25,-15.706625,134.2425)"
  >
    <path
      d="m 30.5745,68.987 1.337,-1.343 4.826,1.607 -1.61,-4.823 1.34,-1.34 2.95,8.844 z"
      id="path941"
        />
    <path
      d="m 27.1875,67.914 5.746,-10.675 1.252,1.252 -5.747,10.674 z"
      id="path939"
    />
    <path
      d="m 24.6355,57.152 1.608,4.823 -1.34,1.34 -2.949,-8.846 8.842,2.949 -1.338,1.343 z"
      id="path937"
    />
    <path
      d="m 44.0115,65.874 2.274,-5.144 h 1.894 l -4.167,8.935 -4.17,-8.038 1.895,-0.154 z"
      id="path935"
    />
    <path
      d="m 38.2145,58.771 12,-3.485 v 1.77 l -12,3.484 z"
      id="path933"
    />
    <path
      d="m 44.0115,49.269 -2.273,4.461 h -1.895 l 4.169,-8.252 4.167,8.379 -1.896,-0.018 z"
      id="path931"
    />
    <path
      d="m 57.2875,69.377 -8.843,2.95 2.945,-8.844 1.342,1.338 -1.607,4.825 4.823,-1.609 z"
      id="path929"
    />
    <path
      d="m 61.8845,67.095 -10.674,-5.748 1.251,-1.25 10.675,5.746 z"
      id="path927"
    />
    <path
      d="m 61.6155,62.367 1.609,-4.822 -4.822,1.607 -1.34,-1.34 8.843,-2.948 -2.948,8.842 z"
      id="path925"
    />
    <path
      d="m 58.2145,81.089 -8.219,-4.168 8.396,-4.17 0.033,1.896 -4.653,2.274 4.443,2.273 z"
      id="path923"
    />
    <path
      d="m 61.6055,70.73 3.486,12 h -1.771 l -3.484,-12 z"
      id="path921"
    />
    <path
      d="m 67.2145,72.752 7.967,4.169 -8.522,4.168 -0.095,-1.896 4.873,-2.272 -4.223,-2.274 z"
      id="path919"
    />
    <path
      d="m 56.8935,84.299 -1.339,1.342 -4.824,-1.608 1.608,4.823 -1.34,1.341 -2.948,-8.844 z"
      id="path917"
    />
    <path
      d="m 60.2805,85.371 -5.746,10.675 -1.253,-1.253 5.748,-10.673 z"
      id="path915"
    />
    <path
      d="m 62.8315,96.134 -1.608,-4.823 1.341,-1.339 2.947,8.843 -8.842,-2.949 1.339,-1.341 z"
      id="path913"
    />
    <path
      d="m 45.7295,91.364 -2.274,-4.365 -2.274,4.731 h -1.894 l 4.168,-8.521 4.17,8.245 z"
      id="path911"
    />
    <path
      d="m 50.2145,94.515 -12,3.485 v -1.77 l 12,-3.485 z"
      id="path909"
    />
    <path
      d="m 43.4555,103.603 2.274,-4.873 h 1.895 l -4.169,8.664 -4.169,-8.175 1.896,-0.083 z"
      id="path907"
    />
    <path
      d="m 36.0765,89.803 -1.341,-1.34 1.608,-4.823 -4.823,1.608 -1.34,-1.34 8.844,-2.949 z"
      id="path905"
    />
    <path
      d="m 25.5825,86.192 10.674,5.746 -1.251,1.251 -10.675,-5.746 z"
      id="path903"
    />
    <path
      d="m 25.8505,90.918 -1.608,4.823 4.824,-1.608 1.339,1.341 -8.844,2.948 2.949,-8.844 z"
      id="path901"
    />
    <path
      d="m 29.2145,72.196 8.338,4.169 -8.338,4.169 v -1.896 l 4.547,-2.273 -4.547,-2.274 z"
      id="path899"
    />
    <path
      d="m 24.1455,70.73 3.485,11 h -1.769 l -3.485,-11 z"
      id="path897"
    />
    <path
      d="m 12.5653,76.365 8.3384,4.169 V 78.638 L 16.356482,76.365 20.9037,74.091 v -1.895 z"
      id="path32"
    />
  </g>
</svg>