<svg xmlns="http://www.w3.org/2000/svg" viewBox="0 0 300 78.917" fill="none"><path d="M10.639 64.41c0 2.321-1.354 3.869-3.869 4.062l3.675 5.996v.387H8.318l-3.869-6.19H2.13v6.19H0V59.96h5.997c2.9 0 4.642 1.548 4.642 4.256zm-2.128-.387c0-1.354-.967-2.32-2.514-2.32H2.128v4.835h3.675c1.741 0 2.515-.774 2.515-2.321v-.194zm13.539 5.803H14.7v.58c0 1.741.968 2.708 2.709 2.708 1.547 0 2.514-.774 2.514-1.934h2.128c-.194 2.321-1.934 3.868-4.642 3.868-2.902 0-4.836-1.74-4.836-4.448v-2.902c0-2.708 1.934-4.449 4.836-4.449s4.642 1.741 4.642 4.45zm-7.543-1.934v.387h5.416v-.387c0-1.741-.967-2.708-2.708-2.708-1.547 0-2.708.967-2.708 2.708zm9.671 3.481v-.193h2.128v.193c0 1.16.967 1.741 2.708 1.741 1.547 0 2.515-.58 2.515-1.354v-.193c0-.774-.58-1.16-1.741-1.548l-1.935-.387c-2.127-.386-3.481-1.547-3.481-3.094v-.194c0-1.934 1.74-3.288 4.449-3.288s4.448 1.354 4.448 3.482v.193h-1.934v-.193c0-1.16-.774-1.741-2.514-1.741-1.548 0-2.321.58-2.321 1.354v.193c0 .774.58 1.16 1.74 1.354l1.741.387c2.321.387 3.482 1.547 3.482 3.095v.387c0 1.934-1.741 3.288-4.642 3.288s-4.643-1.354-4.643-3.482zm20.89-1.547h-7.35v.58c0 1.741.967 2.708 2.708 2.708 1.547 0 2.515-.774 2.515-1.934h2.127c-.193 2.321-1.934 3.868-4.642 3.868-2.901 0-4.836-1.74-4.836-4.448v-2.902c0-2.708 1.935-4.449 4.836-4.449s4.642 1.741 4.642 4.45zm-7.35-1.934v.387h5.416v-.387c0-1.741-.967-2.708-2.708-2.708-1.74 0-2.708.967-2.708 2.708zm18.569-.581v7.35h-1.741v-.967c-.774.774-1.934 1.16-3.288 1.16-2.515 0-3.869-1.16-3.869-3.287 0-1.741 1.16-2.902 3.675-3.288l3.482-.387v-.774c0-1.354-.774-2.321-2.515-2.321-1.547 0-2.514.774-2.514 2.128v.193h-2.128v-.193c0-2.515 1.741-4.062 4.642-4.062 2.708.386 4.256 1.934 4.256 4.448zm-1.934 4.256v-1.935l-3.095.387c-1.354.194-1.934.774-1.934 1.548 0 .967.773 1.547 2.127 1.547 1.16 0 2.321-.58 2.902-1.547zm11.218-8.124v1.934h-1.547c-1.16 0-1.934.58-2.515 1.354v7.93h-2.127V63.444h1.74v.967c.774-.58 1.741-.967 2.708-.967zm.967 6.963v-2.708c0-2.708 1.935-4.449 4.836-4.449 2.708 0 4.642 1.741 4.642 4.256v.193h-2.128v-.193c0-1.354-.967-2.321-2.514-2.321-1.74 0-2.708.967-2.708 2.708v2.514c0 1.741.967 2.708 2.708 2.708 1.547 0 2.514-.967 2.514-2.321V70.6h2.128v.193c0 2.515-1.74 4.255-4.642 4.255-2.901-.193-4.836-1.934-4.836-4.642zm21.083-2.901v7.157h-2.127v-6.964c0-1.547-.967-2.514-2.515-2.514-1.16 0-2.127.58-2.708 1.354v8.124h-2.127V58.994h2.127v5.416c.774-.774 1.741-1.16 3.095-1.16 2.708 0 4.255 1.547 4.255 4.255zm12.766-4.062h3.676v1.934h-3.676v9.285H98.26v-9.285h-2.902v-1.934h2.902v-1.354c0-2.128 1.16-3.095 3.288-3.095h1.74v1.934h-1.547c-.773 0-1.354.387-1.354 1.354zm4.836 6.963v-2.708c0-2.708 1.934-4.642 4.642-4.642 2.902 0 4.836 1.74 4.836 4.642v2.708c0 2.708-1.934 4.449-4.836 4.449-2.708 0-4.642-1.74-4.642-4.449zm7.35 0v-2.514c0-1.741-.967-2.708-2.708-2.708-1.74 0-2.708.967-2.708 2.708v2.514c0 1.741.967 2.708 2.708 2.708s2.708-1.16 2.708-2.708zm11.025-6.963v1.934h-1.547c-1.16 0-1.934.58-2.515 1.354v7.93h-2.127V63.444h1.74v.967c.774-.58 1.741-.967 2.709-.967zm14.507 0h1.741v11.219c0 2.707-1.74 4.255-4.836 4.255-2.901 0-4.642-1.548-4.642-3.869v-.193h2.128v.193c0 1.16.967 2.128 2.708 2.128 1.547 0 2.708-.774 2.708-2.321v-1.74c-.774.773-1.741 1.16-3.095 1.16-2.708 0-4.255-1.741-4.255-4.45v-2.127c0-2.708 1.74-4.449 4.255-4.449 1.354 0 2.514.387 3.095 1.161zm-.387 7.35v-4.255c-.58-.967-1.547-1.354-2.708-1.354-1.74 0-2.708.967-2.708 2.514v1.934c0 1.548.968 2.515 2.708 2.515 1.354 0 2.321-.387 2.708-1.354zm11.412-7.35v1.934h-1.547c-1.16 0-1.934.58-2.515 1.354v7.93h-2.127V63.444h1.74v.967c.774-.58 1.741-.967 2.709-.967zm10.058 3.868v7.35h-1.74v-.967c-.774.774-1.935 1.16-3.289 1.16-2.514 0-3.868-1.16-3.868-3.287 0-1.741 1.16-2.902 3.675-3.288l3.482-.387v-.774c0-1.354-.774-2.321-2.515-2.321-1.547 0-2.514.774-2.514 2.128v.193h-2.128v-.193c0-2.515 1.74-4.062 4.642-4.062 2.708.386 4.255 1.934 4.255 4.448zm-1.934 4.256v-1.935l-3.095.387c-1.354.194-1.934.774-1.934 1.548 0 .967.774 1.547 2.128 1.547 1.16 0 2.32-.58 2.901-1.547zm14.12-4.062v7.157h-2.128v-6.964c0-1.547-.967-2.514-2.514-2.514-1.16 0-2.128.58-2.708 1.354v8.124h-2.128v-11.22h1.741v.968c.774-.774 1.934-1.354 3.095-1.354 3.095.193 4.642 1.74 4.642 4.449zm9.865-8.511h2.127v15.668h-1.74v-.968c-.774.774-1.935 1.16-3.095 1.16-2.708 0-4.256-1.74-4.256-4.448v-2.708c0-2.708 1.741-4.449 4.256-4.449 1.16 0 2.32.387 3.095 1.161v-5.416zm0 12.573v-5.03c-.58-.966-1.548-1.353-2.708-1.353-1.548 0-2.708.967-2.708 2.514v2.708c0 1.548.967 2.515 2.708 2.515 1.16.193 2.127-.387 2.708-1.354zm11.025-1.161v-2.708c0-2.708 1.934-4.449 4.835-4.449 2.708 0 4.643 1.741 4.643 4.256v.193h-2.128v-.193c0-1.354-.967-2.321-2.515-2.321-1.74 0-2.707.967-2.707 2.708v2.514c0 1.741.967 2.708 2.707 2.708 1.548 0 2.515-.967 2.515-2.321V70.6h2.128v.193c0 2.515-1.741 4.255-4.643 4.255-2.9-.193-4.835-1.934-4.835-4.642zm21.083-2.901v7.157h-2.128v-6.964c0-1.547-.967-2.514-2.514-2.514-1.16 0-2.128.58-2.708 1.354v8.124h-2.128V58.994h2.128v5.416c.774-.774 1.74-1.16 3.095-1.16 2.708 0 4.255 1.547 4.255 4.255zm11.606-.194v7.35h-1.741v-.967c-.774.774-1.935 1.16-3.288 1.16-2.515 0-3.869-1.16-3.869-3.287 0-1.741 1.16-2.902 3.675-3.288l3.482-.387v-.774c0-1.354-.774-2.321-2.515-2.321-1.547 0-2.514.774-2.514 2.128v.193h-2.128v-.193c0-2.515 1.74-4.062 4.642-4.062 2.708.386 4.256 1.934 4.256 4.448zm-2.128 4.256v-1.935l-3.095.387c-1.354.194-1.934.774-1.934 1.548 0 .967.774 1.547 2.128 1.547 1.353 0 2.514-.58 2.9-1.547zm5.222 3.095V58.994h2.128v15.668zm5.223 0V58.994h2.127v15.668zm14.12-4.836h-7.35v.58c0 1.741.967 2.708 2.708 2.708 1.547 0 2.514-.774 2.514-1.934h2.128c-.194 2.321-1.935 3.868-4.642 3.868-2.902 0-4.836-1.74-4.836-4.448v-2.902c0-2.708 1.934-4.449 4.836-4.449s4.642 1.741 4.642 4.45zm-7.35-1.934v.387h5.415v-.387c0-1.741-.967-2.708-2.707-2.708-1.548 0-2.708.967-2.708 2.708zm19.149-.387v7.157h-2.128v-6.964c0-1.547-.967-2.514-2.515-2.514-1.16 0-2.127.58-2.708 1.354v8.124h-2.127v-11.22h1.74v.968c.774-.774 1.935-1.354 3.095-1.354 3.095.193 4.643 1.74 4.643 4.449zm10.058-4.062h1.74v11.219c0 2.707-1.74 4.255-4.835 4.255-2.902 0-4.642-1.548-4.642-3.869v-.193h2.127v.193c0 1.16.967 2.128 2.708 2.128 1.548 0 2.708-.774 2.708-2.321v-1.74c-.773.773-1.74 1.16-3.095 1.16-2.708 0-4.255-1.741-4.255-4.45v-2.127c0-2.708 1.74-4.449 4.255-4.449 1.354 0 2.515.387 3.095 1.161zm-.194 7.35v-4.255c-.58-.967-1.547-1.354-2.708-1.354-1.74 0-2.708.967-2.708 2.514v1.934c0 1.548.967 2.515 2.708 2.515 1.354 0 2.321-.387 2.708-1.354zm14.12-.967h-7.35v.58c0 1.741.967 2.708 2.708 2.708 1.547 0 2.514-.774 2.514-1.934h2.128c-.193 2.321-1.934 3.868-4.642 3.868-2.901 0-4.836-1.74-4.836-4.448v-2.902c0-2.708 1.935-4.449 4.836-4.449s4.642 1.741 4.642 4.45zm-7.35-1.934v.387h5.416v-.387c0-1.741-.967-2.708-2.708-2.708-1.74 0-2.708.967-2.708 2.708zm9.671 3.481v-.193h2.128v.193c0 1.16.967 1.741 2.708 1.741 1.547 0 2.514-.58 2.514-1.354v-.193c0-.774-.58-1.16-1.74-1.548l-1.741-.387c-2.128-.386-3.482-1.547-3.482-3.094v-.194c0-1.934 1.74-3.288 4.449-3.288s4.449 1.354 4.449 3.482v.193h-1.935v-.193c0-1.16-.773-1.741-2.514-1.741-1.548 0-2.321.58-2.321 1.354v.193c0 .774.58 1.16 1.74 1.354l1.741.387c2.321.387 3.482 1.547 3.482 3.095v.387c0 1.934-1.74 3.288-4.642 3.288-3.095 0-4.836-1.354-4.836-3.482zm11.799 2.321c0-.773.58-1.354 1.354-1.354.774 0 1.354.58 1.354 1.354 0 .774-.58 1.354-1.354 1.354-.967-.193-1.354-.58-1.354-1.354zM22.05 0h7.738v40.619H22.05V24.178H8.124v16.44H.387V0h7.737v16.44h13.927zm20.504 0c-.387 0-.774.193-.967.387L39.072 2.9a1.48 1.48 0 00-.387.967V36.75c0 .387.194.774.387.968l2.515 2.514c.193.193.58.387.967.387H64.41v-7.737H46.616v-8.51H62.09v-7.738H46.616V7.737H64.41V0zm33.462 40.619h18.182v-7.737h-14.12V0h-7.737v36.75c0 .387.193.774.387.968l2.514 2.514c0 .193.387.387.774.387zm76.403-24.178V0h-7.737v40.619h7.737V24.178h13.926v16.44h7.737V0h-7.737v16.44zm51.837 12.572c0 .387-.193.58-.387.968l-2.514 2.514a1.48 1.48 0 01-.967.387h-6.964c-.386 0-.773-.194-.967-.387l-2.514-2.514a1.477 1.477 0 01-.387-.968V11.605c0-.387.193-.773.387-.967l2.514-2.514c.194-.194.58-.387.967-.387h6.964c.387 0 .773.193.967.387l2.514 2.514c.194.194.387.58.387.967zm1.741-27.079C204.837.774 203.096 0 201.355 0h-9.091c-1.74 0-3.482.774-4.642 1.934l-4.062 4.062c-1.16 1.16-1.934 2.901-1.934 4.642v19.536c0 1.74.773 3.288 1.934 4.642l4.062 4.062c1.16 1.16 2.901 1.934 4.642 1.934h9.09c1.742 0 3.289-.773 4.643-1.934l4.062-4.062c1.16-1.16 1.934-2.901 1.934-4.642V10.638c0-1.74-.774-3.288-1.934-4.642zm17.408 38.685h18.375v-7.737h-14.506V0h-7.737v36.75c0 .387.193.774.387.968l2.514 2.514c.193.193.58.387.967.387zm27.273-32.882v32.882h7.737V7.737h10.832V0h-29.4v7.737zM297.1.387a1.477 1.477 0 00-.967-.387h-22.824v7.737h16.054l-16.828 26.692v2.321c0 .387.193.58.387.968l2.514 2.514c.194.193.58.387.967.387h23.211v-7.737h-16.828l17.022-27.08V3.869c0-.387-.194-.58-.387-.967zM128.047 0l-10.832 18.762L106.384 0H98.84v40.619h7.737V15.474l6.963 12.185c.194.387.58.58 1.16.58h4.836c.387 0 .968-.193 1.161-.58l6.963-11.992V40.62h7.737V-.001z" fill="currentColor"/></svg>