<svg viewBox="0 0 160 27" fill="none" xmlns="http://www.w3.org/2000/svg">
    <path fill-rule="evenodd" clip-rule="evenodd"
          d="M114.91 14.939C114.895 15.0523 114.886 15.1573 114.886 15.2539V15.787H106.451C106.451 16.2718 106.528 16.7332 106.682 17.1689C106.834 17.6053 107.066 17.9685 107.372 18.26C107.598 18.4699 107.861 18.6519 108.16 18.8052C108.459 18.9585 108.818 19.0355 109.239 19.0355C109.675 19.0355 110.035 18.9909 110.317 18.9026C110.599 18.8135 110.854 18.6557 111.08 18.4291C111.372 18.1384 111.573 17.7835 111.687 17.3629H114.595C114.562 17.7352 114.438 18.1429 114.22 18.587C114.002 19.0317 113.771 19.3994 113.529 19.6894C112.995 20.3199 112.357 20.773 111.614 21.0471C110.871 21.322 110.094 21.4594 109.287 21.4594C108.415 21.4594 107.659 21.3174 107.021 21.035C106.382 20.7526 105.813 20.3766 105.312 19.9084C104.682 19.2945 104.201 18.559 103.869 17.7027C103.538 16.8464 103.372 15.9003 103.372 14.8658C103.372 13.8479 103.522 12.907 103.822 12.0424C104.12 11.1778 104.577 10.4386 105.191 9.82468C105.659 9.3399 106.229 8.95178 106.9 8.66106C107.57 8.37035 108.342 8.22461 109.215 8.22461C110.152 8.22461 111.025 8.4149 111.833 8.79396C112.64 9.17454 113.302 9.75974 113.82 10.5519C114.288 11.2466 114.587 11.9541 114.717 12.6729C114.846 13.3918 114.91 14.1469 114.91 14.939ZM111.881 13.5813C111.865 12.6609 111.606 11.9254 111.105 11.3757C110.895 11.1499 110.633 10.9717 110.317 10.8426C110.002 10.7142 109.627 10.6485 109.19 10.6485C108.721 10.6485 108.309 10.7376 107.954 10.9158C107.598 11.0933 107.308 11.3273 107.081 11.6181C106.855 11.8929 106.693 12.1844 106.597 12.491C106.5 12.7975 106.443 13.1615 106.427 13.5813H111.881Z"
          fill="currentColor"/>
    <path fill-rule="evenodd" clip-rule="evenodd"
          d="M124.728 21.1445V13.4114C124.728 12.6684 124.582 12.087 124.292 11.6664C124.001 11.2466 123.451 11.0366 122.644 11.0366C122.11 11.0366 121.665 11.1861 121.311 11.4852C120.955 11.7842 120.672 12.1678 120.462 12.6359C120.252 13.1049 120.13 13.6501 120.098 14.2723C120.066 14.8945 120.05 15.4714 120.05 16.0052V21.1445H117.02V8.54024H119.565L119.783 10.163C120.154 9.50074 120.684 9.01294 121.371 8.69806C122.058 8.38243 122.765 8.22461 123.492 8.22461C124.17 8.22461 124.773 8.33788 125.298 8.56441C125.822 8.79019 126.267 9.10129 126.631 9.49697C126.995 9.8934 127.273 10.3699 127.467 10.9271C127.661 11.4852 127.758 12.087 127.758 12.7334V21.1445H124.728Z"
          fill="currentColor"/>
    <path fill-rule="evenodd" clip-rule="evenodd"
          d="M137.745 20.9742C136.872 21.2 136.007 21.3132 135.151 21.3132C133.875 21.3132 132.92 20.9704 132.29 20.2833C131.661 19.5969 131.346 18.647 131.346 17.4358V11.0362H129.043V8.53983H131.346V5.33969L134.375 4.58911V8.53983H137.551V11.0362H134.375V17.1685C134.375 17.6532 134.489 18.0051 134.715 18.2233C134.941 18.4416 135.297 18.5503 135.781 18.5503C136.104 18.5503 136.407 18.5427 136.69 18.5254C136.973 18.5103 137.325 18.4778 137.745 18.4287V20.9742Z"
          fill="currentColor"/>
    <path fill-rule="evenodd" clip-rule="evenodd"
          d="M150.008 14.939C149.992 15.0523 149.984 15.1573 149.984 15.2539V15.787H141.549C141.549 16.2718 141.625 16.7332 141.779 17.1689C141.932 17.6053 142.162 17.9685 142.469 18.26C142.696 18.4699 142.958 18.6519 143.257 18.8052C143.556 18.9585 143.917 19.0355 144.336 19.0355C144.773 19.0355 145.132 18.9909 145.415 18.9026C145.697 18.8135 145.952 18.6557 146.178 18.4291C146.469 18.1384 146.671 17.7835 146.784 17.3629H149.692C149.661 17.7352 149.535 18.1429 149.317 18.587C149.1 19.0317 148.869 19.3994 148.627 19.6894C148.094 20.3199 147.455 20.773 146.711 21.0471C145.967 21.322 145.193 21.4594 144.385 21.4594C143.513 21.4594 142.756 21.3174 142.118 21.035C141.479 20.7526 140.91 20.3766 140.409 19.9084C139.779 19.2945 139.298 18.559 138.967 17.7027C138.635 16.8464 138.47 15.9003 138.47 14.8658C138.47 13.8479 138.619 12.907 138.919 12.0424C139.218 11.1778 139.674 10.4386 140.288 9.82468C140.756 9.3399 141.327 8.95178 141.997 8.66106C142.667 8.37035 143.439 8.22461 144.312 8.22461C145.249 8.22461 146.121 8.4149 146.929 8.79396C147.737 9.17454 148.4 9.75974 148.917 10.5519C149.387 11.2466 149.684 11.9541 149.813 12.6729C149.943 13.3918 150.008 14.1469 150.008 14.939ZM146.979 13.5813C146.962 12.6609 146.703 11.9254 146.202 11.3757C145.992 11.1499 145.73 10.9717 145.415 10.8426C145.1 10.7142 144.724 10.6485 144.288 10.6485C143.819 10.6485 143.406 10.7376 143.051 10.9158C142.696 11.0933 142.404 11.3273 142.179 11.6181C141.953 11.8929 141.791 12.1844 141.694 12.491C141.597 12.7975 141.539 13.1615 141.524 13.5813H146.979Z"
          fill="currentColor"/>
    <path fill-rule="evenodd" clip-rule="evenodd"
          d="M159.462 11.3518C159.091 11.271 158.742 11.231 158.42 11.231C157.353 11.231 156.544 11.57 155.995 12.2488C155.447 12.9269 155.172 13.7757 155.172 14.7936V21.1448H152.118V8.53975H154.688L154.954 10.4305C155.245 9.70337 155.725 9.17857 156.396 8.85463C157.067 8.5322 157.773 8.37061 158.517 8.37061C158.824 8.37061 159.138 8.39401 159.462 8.4431V11.3518Z"
          fill="currentColor"/>
    <path fill-rule="evenodd" clip-rule="evenodd"
          d="M102.282 16.6848C102.248 17.1855 102.152 17.674 101.99 18.1505C101.829 18.6277 101.603 19.0521 101.312 19.4236C100.876 19.9733 100.29 20.4415 99.5548 20.8296C98.8186 21.217 97.9669 21.4111 96.9973 21.4111C96.027 21.4111 95.1631 21.2132 94.4035 20.8168C93.6439 20.4211 93.0466 19.9567 92.6094 19.4236C92.1412 18.8256 91.7938 18.1384 91.5681 17.3637C91.3415 16.5874 91.2283 15.7387 91.2283 14.8182C91.2283 13.897 91.3415 13.0482 91.5681 12.2735C91.7938 11.4972 92.1412 10.8109 92.6094 10.2128C93.0466 9.6797 93.6439 9.21531 94.4035 8.81888C95.1631 8.4232 96.027 8.22461 96.9973 8.22461C97.9669 8.22461 98.8186 8.41867 99.5548 8.8068C100.29 9.19492 100.876 9.66309 101.312 10.2128C101.603 10.5843 101.829 11.0087 101.99 11.4852C102.152 11.9624 102.248 12.4509 102.282 12.9516H99.2996C99.283 12.7251 99.243 12.5151 99.1796 12.3211C99.1139 12.1278 99.0331 11.9503 98.9364 11.788C98.7582 11.5131 98.5075 11.2873 98.1851 11.1099C97.8619 10.9317 97.4662 10.8426 96.9973 10.8426C96.5767 10.8426 96.2173 10.9158 95.919 11.0608C95.6192 11.2065 95.3647 11.3923 95.1548 11.6188C94.7826 12.022 94.5492 12.5076 94.4526 13.0724C94.3544 13.6387 94.3068 14.2202 94.3068 14.8182C94.3068 15.4163 94.3544 15.9939 94.4526 16.5512C94.5492 17.1084 94.7826 17.5895 95.1548 17.9934C95.3647 18.22 95.6192 18.4095 95.919 18.5628C96.2173 18.7168 96.5767 18.7931 96.9973 18.7931C97.4662 18.7931 97.8619 18.7047 98.1851 18.5258C98.5075 18.3491 98.7582 18.1226 98.9364 17.8477C99.0331 17.6861 99.1139 17.5079 99.1796 17.3146C99.243 17.1205 99.283 16.9106 99.2996 16.6848H102.282Z"
          fill="currentColor"/>
    <path fill-rule="evenodd" clip-rule="evenodd"
          d="M48.2143 10.8427C47.9002 10.7144 47.5241 10.6487 47.0869 10.6487C46.618 10.6487 46.2057 10.7378 45.8501 10.916C45.4944 11.0934 45.2037 11.3275 44.9772 11.619C44.7506 11.8946 44.589 12.1853 44.4924 12.4919C44.3965 12.7992 44.3391 13.1632 44.3232 13.583H49.7796C49.763 12.6618 49.504 11.9263 49.0034 11.3774C48.7927 11.1508 48.5307 10.9726 48.2143 10.8427Z"
          fill="currentColor"/>
    <path fill-rule="evenodd" clip-rule="evenodd"
          d="M83.4498 21.0775C82.811 20.7951 82.2416 20.4191 81.7402 19.9502C81.1097 19.3363 80.6287 18.6015 80.2972 17.7437C79.9665 16.8875 79.7996 15.9413 79.7996 14.9061C79.7996 13.8874 79.9491 12.9465 80.2489 12.0812C80.5472 11.2166 81.0048 10.4766 81.6187 9.86193C82.0876 9.37791 82.657 8.98903 83.329 8.69831C83.9837 8.41363 84.7358 8.26941 85.5838 8.26337V5.46871C85.5838 2.59704 83.2565 0.269798 80.3848 0.269798L0.500488 0.269043V14.3737V13.6209H3.22869C3.21208 12.6996 2.95308 11.9642 2.45244 11.4144C2.24252 11.1879 1.97974 11.0105 1.66335 10.8806C1.34923 10.7522 0.973941 10.6865 0.536733 10.6865L0.500488 10.6873V8.26337L0.560142 8.26186C1.49799 8.26186 2.37165 8.45214 3.18037 8.83121C3.98833 9.21178 4.65056 9.79775 5.16856 10.5899C5.63673 11.2853 5.93651 11.9928 6.06563 12.7117C6.18569 13.3822 6.24837 14.0852 6.25667 14.8185L6.25969 14.9755V15.8265H6.23478V15.8273H0.500488V19.0727L0.585815 19.0765C1.02227 19.0765 1.38094 19.0327 1.66335 18.9436C1.94652 18.8553 2.20099 18.6974 2.42903 18.4709C2.71899 18.1794 2.92061 17.8245 3.03387 17.4047H5.94406C5.91159 17.7762 5.787 18.1832 5.56877 18.6287C5.35054 19.0735 5.11948 19.4412 4.87709 19.7319C4.34399 20.3625 3.70592 20.8155 2.96138 21.0896C2.21836 21.3645 1.44135 21.5027 0.633387 21.5027L0.502754 21.5004C0.542019 24.3373 2.8534 26.6246 5.6994 26.6246H85.5838V21.4997C84.7675 21.4861 84.0554 21.3456 83.4498 21.0775ZM20.9964 18.156C20.7291 18.7375 20.3862 19.2389 19.9649 19.6595C19.3034 20.3217 18.4985 20.7951 17.5531 21.0775C16.6069 21.36 15.6004 21.5027 14.5334 21.5027C13.6122 21.5027 12.7038 21.369 11.8052 21.1017C10.9081 20.8359 10.1039 20.3791 9.39264 19.7319C8.87539 19.2638 8.44649 18.6854 8.10744 17.9975C7.78199 17.3383 7.61285 16.6141 7.60001 15.8273H10.8039C10.816 16.2116 10.8968 16.5718 11.0539 16.9071C11.2238 17.271 11.4367 17.5822 11.6972 17.8396C12.068 18.2119 12.5165 18.4588 13.0421 18.5804C13.5669 18.7012 14.0811 18.7624 14.5825 18.7624C15.1798 18.7624 15.7454 18.6929 16.2807 18.5555C16.8131 18.4188 17.2412 18.1794 17.5652 17.8396C17.7585 17.6305 17.9208 17.4085 18.0507 17.1736C18.1798 16.9388 18.2433 16.6118 18.2433 16.192C18.2433 15.5607 18.0379 15.088 17.6248 14.7724C17.2133 14.4575 16.7398 14.2514 16.2075 14.1547C15.6245 14.0415 14.9865 13.9599 14.2903 13.9116C13.5956 13.8632 12.9658 13.79 12.3995 13.6941C11.8014 13.5967 11.2396 13.4268 10.7148 13.1844C10.1885 12.9428 9.72866 12.6234 9.33147 12.2269C8.9358 11.8313 8.62016 11.3533 8.38608 10.796C8.15199 10.238 8.03495 9.60368 8.03495 8.89237C8.03495 8.21278 8.17163 7.59132 8.44649 7.02499C8.72134 6.45866 9.08455 5.94972 9.53837 5.49816C10.1039 4.93108 10.8311 4.48783 11.7214 4.16313C12.6094 3.83995 13.5639 3.67835 14.5825 3.67835C15.5037 3.67835 16.388 3.82031 17.2374 4.10272C18.0869 4.38589 18.8013 4.80195 19.3842 5.35243C19.9007 5.83721 20.3175 6.38617 20.6332 7.00158C20.9473 7.61549 21.1127 8.28602 21.13 9.01319H17.9284C17.9125 8.70737 17.8355 8.40306 17.6981 8.1048C17.5614 7.80577 17.387 7.54224 17.177 7.31571C16.9014 7.02499 16.5133 6.79846 16.0127 6.63762C15.5113 6.47603 15.0265 6.39448 14.5583 6.39448C14.0728 6.39448 13.5759 6.45866 13.067 6.58854C12.5573 6.71842 12.1246 6.96911 11.769 7.34063C11.59 7.53393 11.4495 7.74461 11.3453 7.97039C11.2396 8.19767 11.1868 8.47178 11.1868 8.79496C11.1868 9.36129 11.3491 9.79397 11.6723 10.093C11.9955 10.392 12.4153 10.5815 12.9333 10.6623C13.4831 10.7431 14.1015 10.8156 14.7886 10.8806C15.475 10.9463 16.1018 11.018 16.6681 11.0996C17.3145 11.1962 17.9246 11.3699 18.4985 11.6198C19.0724 11.8713 19.5738 12.2028 20.0027 12.6143C20.4308 13.0266 20.7698 13.5242 21.0205 14.1056C21.2712 14.6878 21.3966 15.3425 21.3966 16.0704C21.3966 16.8791 21.2637 17.5738 20.9964 18.156ZM26.1281 16.6224C26.224 17.1819 26.4603 17.6652 26.8326 18.0707C27.044 18.298 27.2993 18.4883 27.5998 18.6431C27.9003 18.7971 28.2613 18.8734 28.6834 18.8734C29.1538 18.8734 29.551 18.785 29.8764 18.6061C30.1996 18.4286 30.4511 18.1998 30.6308 17.925C30.7282 17.7626 30.8082 17.5844 30.8739 17.3888C30.9381 17.1948 30.9789 16.9834 30.9955 16.7561H33.9895C33.9563 17.2597 33.8596 17.7505 33.6965 18.2285C33.5349 18.7073 33.3076 19.1331 33.0154 19.5069C32.5767 20.0589 31.99 20.5293 31.2507 20.9182C30.5122 21.3079 29.6567 21.5027 28.6834 21.5027C27.7093 21.5027 26.8409 21.3033 26.0782 20.9061C25.3163 20.5089 24.7153 20.0423 24.2781 19.5069C23.8069 18.9066 23.458 18.2164 23.2307 17.4387C23.0027 16.6587 22.8902 15.8069 22.8902 14.8819C22.8902 13.9576 23.0027 13.1051 23.2307 12.3266C23.458 11.5481 23.8069 10.8587 24.2781 10.2576C24.7153 9.72224 25.3163 9.25558 26.0782 8.85839C26.8409 8.46045 27.7093 8.26186 28.6834 8.26186C29.6567 8.26186 30.5122 8.45592 31.2507 8.84631C31.99 9.23519 32.5767 9.70713 33.0154 10.2576C33.3076 10.6306 33.5349 11.0573 33.6965 11.5345C33.8596 12.014 33.9563 12.5048 33.9895 13.0085H30.9955C30.9789 12.7804 30.9381 12.5697 30.8739 12.3749C30.8082 12.1809 30.7282 12.0027 30.6308 11.8403C30.4511 11.5639 30.1996 11.3374 29.8764 11.1577C29.551 10.9795 29.1538 10.8904 28.6834 10.8904C28.2613 10.8904 27.9003 10.9636 27.5998 11.1101C27.2993 11.2559 27.044 11.4424 26.8326 11.6689C26.4603 12.0752 26.224 12.5622 26.1281 13.1293C26.0307 13.6979 25.9808 14.2816 25.9808 14.8819C25.9808 15.4822 26.0307 16.0629 26.1281 16.6224ZM35.9815 21.1863H39.0616V8.57674H35.9815V21.1863ZM35.9815 6.80677H39.0616V3.72668H35.9815V6.80677ZM52.8106 15.8265H52.7864H52.7856V15.8273H44.3473C44.3473 16.3128 44.4243 16.7742 44.5776 17.2099C44.7309 17.6471 44.962 18.0103 45.2693 18.301C45.4951 18.5117 45.7571 18.6929 46.0569 18.8462C46.3559 19.001 46.7153 19.0765 47.1367 19.0765C47.5731 19.0765 47.9326 19.0327 48.2142 18.9436C48.4974 18.8553 48.7519 18.6974 48.9799 18.4709C49.2699 18.1794 49.4715 17.8245 49.5847 17.4047H52.4957C52.4625 17.7762 52.3379 18.1832 52.1196 18.6287C51.9014 19.0735 51.6704 19.4412 51.428 19.7319C50.8949 20.3625 50.2568 20.8155 49.5123 21.0896C48.7692 21.3645 47.9922 21.5027 47.1843 21.5027C46.3114 21.5027 45.5563 21.36 44.9174 21.0775C44.2786 20.7951 43.7085 20.4191 43.2079 19.9502C42.5774 19.3363 42.0963 18.6015 41.7641 17.7437C41.4341 16.8875 41.2672 15.9413 41.2672 14.9061C41.2672 13.8874 41.4168 12.9465 41.7165 12.0812C42.0148 11.2166 42.4724 10.4766 43.0863 9.86193C43.5552 9.37791 44.1246 8.98903 44.7966 8.69831C45.4671 8.40684 46.2381 8.26186 47.111 8.26186C48.0496 8.26186 48.9225 8.45214 49.7312 8.83121C50.5392 9.21178 51.2014 9.79775 51.7194 10.5899C52.1876 11.2853 52.4874 11.9928 52.6165 12.7117C52.7366 13.3822 52.7992 14.0852 52.8075 14.8185L52.8106 14.9755V15.8265ZM65.6633 21.1863H62.6315V13.4517C62.6315 12.7072 62.4858 12.1265 62.195 11.7051C61.9036 11.2853 61.3539 11.0754 60.5466 11.0754C60.012 11.0754 59.5673 11.2241 59.2116 11.5224C58.8567 11.8222 58.5728 12.2065 58.3636 12.6747C58.1537 13.1444 58.0321 13.6896 57.9997 14.3125C57.9672 14.9347 57.9513 15.5124 57.9513 16.0463V21.1863H54.9196V8.57674H57.4666L57.684 10.2017C58.0555 9.53874 58.5849 9.04944 59.2728 8.73456C59.9599 8.41892 60.6675 8.26186 61.3946 8.26186C62.0742 8.26186 62.6768 8.37512 63.2016 8.60166C63.7272 8.82819 64.1719 9.13854 64.5351 9.53421C64.8998 9.93216 65.1777 10.4079 65.371 10.9659C65.5658 11.5224 65.6633 12.1265 65.6633 12.7714V21.1863ZM70.8682 16.6224C70.9641 17.1819 71.2005 17.6652 71.5735 18.0707C71.7849 18.298 72.0401 18.4883 72.3399 18.6431C72.6404 18.7971 73.0014 18.8734 73.4235 18.8734C73.8939 18.8734 74.2919 18.785 74.6166 18.6061C74.9398 18.4286 75.1912 18.1998 75.3717 17.925C75.4683 17.7626 75.5491 17.5844 75.6148 17.3888C75.679 17.1948 75.719 16.9834 75.7356 16.7561H78.7296C78.6964 17.2597 78.6005 17.7505 78.4367 18.2285C78.2751 18.7073 78.0478 19.1331 77.7563 19.5069C77.3168 20.0589 76.7301 20.5293 75.9916 20.9182C75.2524 21.3079 74.3968 21.5027 73.4235 21.5027C72.4494 21.5027 71.581 21.3033 70.8184 20.9061C70.0565 20.5089 69.4554 20.0423 69.0182 19.5069C68.547 18.9066 68.1982 18.2164 67.9709 17.4387C67.7436 16.6587 67.6303 15.8069 67.6303 14.8819C67.6303 13.9576 67.7436 13.1051 67.9709 12.3266C68.1982 11.5481 68.547 10.8587 69.0182 10.2576C69.4554 9.72224 70.0565 9.25558 70.8184 8.85839C71.581 8.46045 72.4494 8.26186 73.4235 8.26186C74.3968 8.26186 75.2524 8.45592 75.9916 8.84631C76.7301 9.23519 77.3168 9.70713 77.7563 10.2576C78.0478 10.6306 78.2751 11.0573 78.4367 11.5345C78.6005 12.014 78.6964 12.5048 78.7296 13.0085H75.7356C75.719 12.7804 75.679 12.5697 75.6148 12.3749C75.5491 12.1809 75.4683 12.0027 75.3717 11.8403C75.1912 11.5639 74.9398 11.3374 74.6166 11.1577C74.2919 10.9795 73.8939 10.8904 73.4235 10.8904C73.0014 10.8904 72.6404 10.9636 72.3399 11.1101C72.0401 11.2559 71.7849 11.4424 71.5735 11.6689C71.2005 12.0752 70.9641 12.5622 70.8682 13.1293C70.7708 13.6979 70.7217 14.2816 70.7217 14.8819C70.7217 15.4822 70.7708 16.0629 70.8682 16.6224Z"
          fill="currentColor"/>
    <path fill-rule="evenodd" clip-rule="evenodd"
          d="M83.8016 18.2635C84.0274 18.4742 84.2902 18.6554 84.5892 18.8087C84.8671 18.9522 85.2001 19.0254 85.5837 19.0352V15.7898H82.8796C82.8796 16.2753 82.9574 16.7359 83.1099 17.1724C83.2632 17.6096 83.4943 17.9728 83.8016 18.2635Z"
          fill="currentColor"/>
    <path fill-rule="evenodd" clip-rule="evenodd"
          d="M84.383 10.9167C84.0274 11.0941 83.7367 11.3282 83.5101 11.6189C83.2836 11.8946 83.122 12.1853 83.0253 12.4919C82.9287 12.7992 82.8721 13.1639 82.8562 13.583H85.5836V10.6501C85.1298 10.6547 84.7296 10.743 84.383 10.9167Z"
          fill="currentColor"/>
</svg>
