<?xml version="1.0" encoding="UTF-8" standalone="no"?>
<svg
   xmlns:dc="http://purl.org/dc/elements/1.1/"
   xmlns:cc="http://creativecommons.org/ns#"
   xmlns:rdf="http://www.w3.org/1999/02/22-rdf-syntax-ns#"
   xmlns:svg="http://www.w3.org/2000/svg"
   xmlns="http://www.w3.org/2000/svg"
   xml:space="preserve"
   enable-background="new 0 0 1258.081 302.875"
   viewBox="0 0 1056.1689 102.79797"
   height="38.94"
   width="400"
   y="0px"
   x="0px"
   id="Ebene_1"
   version="1.1"><metadata
   id="metadata119"><rdf:RDF><cc:Work
       rdf:about=""><dc:format>image/svg+xml</dc:format><dc:type
         rdf:resource="http://purl.org/dc/dcmitype/StillImage" /><dc:title></dc:title></cc:Work></rdf:RDF></metadata><defs
   id="defs117" />
<line
   style="fill:none;stroke:#ffffff;stroke-width:2.40170002;stroke-miterlimit:10"
   id="line2"
   y2="76.597969"
   x2="67.449997"
   y1="61.58297"
   x1="35.043991"
   stroke-miterlimit="10" />
<line
   style="fill:none;stroke:#ffffff;stroke-width:2.40170002;stroke-miterlimit:10"
   id="line4"
   y2="76.597969"
   x2="67.449997"
   y1="71.882973"
   x1="7.7839985"
   stroke-miterlimit="10" />
<g
   transform="translate(-100.983,-99.673027)"
   id="g16">
	<path
   style="fill:#ffffff"
   id="path6"
   d="m 299.465,141.625 v -40.854 h 19.359 V 201.7 H 299.465 V 160.987 H 264.871 V 201.7 H 245.512 V 100.77 h 19.359 v 40.854 h 34.594 z" />
	<path
   style="fill:#ffffff"
   id="path8"
   d="M 355.735,201.7 H 336.374 V 100.77 h 19.361 z" />
	<path
   style="fill:#ffffff"
   id="path10"
   d="m 438.625,100.771 v 19.359 h -45.979 v 21.495 h 40.144 v 19.362 H 392.646 V 201.7 h -19.362 v -91.393 c 0,-0.854 0.285,-1.708 0.998,-2.277 l 6.264,-6.263 c 0.569,-0.57 1.424,-0.997 2.277,-0.997 h 55.802 z" />
	<path
   style="fill:#ffffff"
   id="path12"
   d="M 475.536,201.7 H 456.175 V 100.77 h 19.361 z" />
	<path
   style="fill:#ffffff"
   id="path14"
   d="m 547.094,201.712 h -28.416 c -4.311,0 -8.363,-1.678 -11.412,-4.727 l -11.346,-11.347 13.691,-13.689 9.457,9.456 c 0.604,0.604 1.426,0.945 2.283,0.945 h 23.07 c 0.855,0 1.676,-0.341 2.283,-0.945 l 6.227,-6.226 c 0.604,-0.607 0.945,-1.428 0.945,-2.285 v -3.351 c 0,-1.446 -0.974,-2.728 -2.366,-3.114 l -41.894,-11.666 c -4.725,-1.314 -8.963,-4.191 -11.93,-8.099 -2.969,-3.906 -4.604,-8.761 -4.604,-13.666 v -6.024 c 0,-4.279 1.701,-8.386 4.727,-11.412 l 10.007,-10.007 c 3.048,-3.047 7.101,-4.725 11.411,-4.725 h 28.416 c 4.311,0 8.365,1.678 11.412,4.725 l 11.346,11.349 -13.689,13.689 -9.457,-9.456 c -0.606,-0.604 -1.428,-0.945 -2.284,-0.945 h -23.069 c -0.857,0 -1.68,0.341 -2.284,0.945 l -6.226,6.227 c -0.606,0.604 -0.945,1.427 -0.945,2.282 v 3.353 c 0,1.443 0.972,2.725 2.365,3.114 l 41.891,11.664 c 4.727,1.316 8.965,4.191 11.934,8.098 2.967,3.909 4.602,8.762 4.602,13.669 v 6.024 c 0,4.31 -1.678,8.362 -4.728,11.412 l -10.005,10.005 c -3.048,3.049 -7.1,4.727 -11.412,4.727 z" />
</g>
<g
   transform="translate(-100.983,-99.673027)"
   id="g76">
	<g
   id="g74">
		<path
   style="fill:#ffffff"
   id="path18"
   d="M 641.339,115.824 V 100.79 h 7.124 v 37.138 h -7.124 V 122.947 H 628.61 v 14.981 h -7.124 V 100.79 h 7.124 v 15.034 z" />
		<path
   style="fill:#ffffff"
   id="path20"
   d="m 662.038,107.935 v 7.87 h 13.603 v 7.126 h -13.603 v 7.87 h 16.273 v 7.127 h -19.91 c -0.315,0 -0.617,-0.125 -0.84,-0.349 l -2.304,-2.302 c -0.222,-0.224 -0.348,-0.525 -0.348,-0.841 v -30.138 c 0,-0.313 0.125,-0.616 0.348,-0.839 l 2.304,-2.304 c 0.223,-0.223 0.524,-0.349 0.84,-0.349 h 19.91 v 7.127 h -16.273 z" />
		<path
   style="fill:#ffffff"
   id="path22"
   d="m 706.08,130.801 v 7.127 h -17.975 c -0.315,0 -0.617,-0.125 -0.84,-0.349 l -2.304,-2.302 c -0.223,-0.224 -0.348,-0.525 -0.348,-0.841 v -33.629 h 7.127 V 130.8 h 14.34 z" />
		<path
   style="fill:#ffffff"
   id="path24"
   d="m 742.608,100.808 v 37.12 h -7.127 V 117.38 l -5.009,10.515 c -0.151,0.318 -0.472,0.521 -0.823,0.521 h -5.618 c -0.352,0 -0.673,-0.202 -0.823,-0.521 l -5.01,-10.515 v 20.548 h -7.127 v -37.12 h 7.127 l 8.642,18.142 8.641,-18.142 z" />
		<path
   style="fill:#ffffff"
   id="path26"
   d="M 770.058,115.824 V 100.79 h 7.124 v 37.138 h -7.124 v -14.981 h -12.729 v 14.981 h -7.124 V 100.79 h 7.124 v 15.034 z" />
		<path
   style="fill:#ffffff"
   id="path28"
   d="m 806.309,102.519 3.72,3.666 c 1.106,1.093 1.728,2.619 1.728,4.191 v 17.914 c 0,1.571 -0.629,3.091 -1.728,4.189 l -3.72,3.72 c -1.1,1.1 -2.619,1.729 -4.19,1.729 h -8.329 c -1.571,0 -3.124,-0.595 -4.243,-1.729 l -3.667,-3.72 c -1.092,-1.106 -1.728,-2.618 -1.728,-4.189 v -17.914 c 0,-1.572 0.628,-3.091 1.728,-4.191 l 3.667,-3.666 c 1.152,-1.152 2.672,-1.78 4.243,-1.78 h 8.329 c 1.571,-0.001 3.056,0.661 4.19,1.78 z m -1.677,24.829 v -15.977 c 0,-0.314 -0.159,-0.626 -0.365,-0.838 l -2.253,-2.305 c -0.262,-0.21 -0.576,-0.367 -0.89,-0.367 h -6.391 c -0.314,0 -0.576,0.157 -0.839,0.367 l -2.252,2.305 c -0.262,0.209 -0.366,0.523 -0.366,0.838 v 15.977 c 0,0.313 0.104,0.575 0.366,0.837 l 2.252,2.253 c 0.263,0.262 0.525,0.366 0.839,0.366 h 6.391 c 0.314,0 0.627,-0.104 0.89,-0.366 l 2.253,-2.253 c 0.21,-0.262 0.365,-0.524 0.365,-0.837 z" />
		<path
   style="fill:#ffffff"
   id="path30"
   d="m 840.039,130.801 v 7.127 h -17.976 c -0.315,0 -0.617,-0.125 -0.841,-0.349 l -2.302,-2.302 c -0.223,-0.224 -0.349,-0.525 -0.349,-0.841 v -33.629 h 7.127 V 130.8 h 14.341 z" />
		<path
   style="fill:#ffffff"
   id="path32"
   d="m 838.219,107.914 v -7.124 h 25.77 v 7.124 h -9.324 v 30.014 h -7.123 v -30.014 z" />
		<path
   style="fill:#ffffff"
   id="path34"
   d="m 890.639,100.808 c 0.314,0 0.617,0.126 0.839,0.349 l 2.304,2.304 c 0.223,0.223 0.349,0.525 0.349,0.839 v 1.818 l -15.617,24.684 h 15.617 v 7.127 h -21.475 c -0.314,0 -0.617,-0.125 -0.839,-0.349 l -2.304,-2.302 c -0.223,-0.224 -0.349,-0.525 -0.349,-0.841 v -2.191 l 15.382,-24.311 h -15.228 v -7.127 z" />
		<path
   style="fill:#ffffff"
   id="path36"
   d="m 641.074,181.414 v 4.66 h -14.039 v 15.768 h -5.395 v -34.938 h 20.69 v 4.663 h -15.295 v 9.848 h 14.039 z" />
		<path
   style="fill:#ffffff"
   id="path38"
   d="m 667.478,181.414 v 4.66 h -14.039 v 11.106 h 15.715 v 4.661 h -21.11 v -34.938 h 20.69 v 4.663 h -15.295 v 9.848 z" />
		<path
   style="fill:#ffffff"
   id="path40"
   d="m 682.357,166.903 c 5.919,0 8.905,0.472 11.576,1.886 4.977,2.672 8.119,8.643 8.119,15.558 0,6.914 -2.934,12.78 -7.804,15.451 -2.934,1.676 -5.343,2.044 -12.624,2.044 h -6.338 v -34.938 h 7.071 z m 1.153,30.278 c 4.557,0 6.338,-0.368 8.329,-1.677 2.933,-1.939 4.609,-6.025 4.609,-11.157 0,-5.238 -1.781,-9.272 -4.976,-11.21 -2.096,-1.309 -3.562,-1.57 -9.271,-1.57 h -1.52 v 25.614 z" />
		<path
   style="fill:#ffffff"
   id="path42"
   d="m 728.091,181.414 v 4.66 h -14.039 v 11.106 h 15.715 v 4.661 h -21.11 v -34.938 h 20.69 v 4.663 h -15.295 v 9.848 z" />
		<path
   style="fill:#ffffff"
   id="path44"
   d="m 743.39,166.903 c 5.814,0 8.015,0.313 10.372,1.415 3.3,1.571 5.291,4.924 5.291,8.956 0,4.557 -2.252,7.857 -6.653,9.64 l 8.591,14.928 H 754.6 l -7.909,-14.039 h -5.396 v 14.039 H 735.9 v -34.938 h 7.49 z m 0.314,16.239 c 3.771,0 4.924,-0.105 6.337,-0.629 2.148,-0.785 3.405,-2.724 3.405,-5.29 0,-2.2 -0.995,-3.928 -2.724,-4.768 -1.466,-0.732 -2.619,-0.889 -7.281,-0.889 h -2.148 v 11.575 h 2.411 z" />
		<path
   style="fill:#ffffff"
   id="path46"
   d="m 779.695,166.8 11.942,35.042 h -5.604 l -2.567,-8.172 h -12.729 l -2.619,8.172 h -5.552 l 11.89,-35.042 z m -2.619,6.495 -4.924,15.713 h 9.899 z" />
		<path
   style="fill:#ffffff"
   id="path48"
   d="m 813.851,166.903 v 4.663 h -9.22 v 30.275 h -5.394 v -30.275 h -9.116 v -4.663 z" />
		<path
   style="fill:#ffffff"
   id="path50"
   d="m 838.42,181.414 v 4.66 h -14.037 v 11.106 h 15.713 v 4.661 h -21.109 v -34.938 h 20.691 v 4.663 h -15.295 v 9.848 z" />
		<path
   style="fill:#ffffff"
   id="path52"
   d="m 853.3,166.903 c 5.918,0 8.904,0.472 11.576,1.886 4.977,2.672 8.119,8.643 8.119,15.558 0,6.914 -2.933,12.78 -7.806,15.451 -2.933,1.676 -5.342,2.044 -12.622,2.044 h -6.339 v -34.938 h 7.072 z m 1.153,30.278 c 4.557,0 6.337,-0.368 8.327,-1.677 2.935,-1.939 4.611,-6.025 4.611,-11.157 0,-5.238 -1.782,-9.272 -4.977,-11.21 -2.096,-1.309 -3.562,-1.57 -9.272,-1.57 h -1.519 v 25.614 z" />
		<path
   style="fill:#ffffff"
   id="path54"
   d="m 892.646,201.842 v -34.938 h 5.448 v 34.938 z" />
		<path
   style="fill:#ffffff"
   id="path56"
   d="m 927.009,166.903 v 4.663 h -9.22 v 30.275 h -5.394 v -30.275 h -9.114 v -4.663 z" />
		<path
   style="fill:#ffffff"
   id="path58"
   d="m 961.534,176.595 c -0.314,-3.562 -2.619,-5.605 -6.233,-5.605 -3.247,0 -5.709,1.938 -5.709,4.505 0,1.257 0.681,2.357 1.938,3.091 1.048,0.681 1.676,0.942 5.971,2.775 5.029,2.095 6.653,2.986 7.963,4.452 1.466,1.625 2.252,3.772 2.252,6.285 0,6.287 -4.715,10.373 -11.995,10.373 -7.909,0 -12.309,-4.14 -12.676,-11.943 h 5.238 c 0.419,4.768 2.985,7.229 7.542,7.229 3.72,0 6.339,-1.99 6.339,-4.767 0,-1.572 -0.733,-2.777 -2.253,-3.824 -1.099,-0.733 -1.729,-1.047 -5.762,-2.776 -3.667,-1.57 -5.866,-2.775 -7.176,-3.98 -1.833,-1.676 -2.775,-3.875 -2.775,-6.442 0,-5.658 4.661,-9.691 11.262,-9.691 4.034,0 7.49,1.572 9.428,4.295 1.204,1.677 1.676,3.301 1.833,6.025 h -5.187 z" />
		<path
   style="fill:#ffffff"
   id="path60"
   d="m 993.856,181.414 v 4.66 h -14.037 v 11.106 h 15.713 v 4.661 h -21.109 v -34.938 h 20.691 v 4.663 h -15.295 v 9.848 z" />
		<path
   style="fill:#ffffff"
   id="path62"
   d="m 1009.154,166.903 c 5.815,0 8.015,0.313 10.373,1.415 3.3,1.571 5.29,4.924 5.29,8.956 0,4.557 -2.253,7.857 -6.652,9.64 l 8.59,14.928 h -6.391 l -7.91,-14.039 h -5.394 v 14.039 h -5.396 v -34.938 h 7.49 z m 0.316,16.239 c 3.771,0 4.923,-0.105 6.337,-0.629 2.147,-0.785 3.404,-2.724 3.404,-5.29 0,-2.2 -0.995,-3.928 -2.723,-4.768 -1.467,-0.732 -2.619,-0.889 -7.28,-0.889 h -2.147 v 11.575 h 2.409 z" />
		<path
   style="fill:#ffffff"
   id="path64"
   d="m 1033.099,166.903 9.114,28.757 9.062,-28.757 h 5.658 l -12.049,35.042 h -5.604 l -11.943,-35.042 z" />
		<path
   style="fill:#ffffff"
   id="path66"
   d="m 1061.86,201.842 v -34.938 h 5.448 v 34.938 z" />
		<path
   style="fill:#ffffff"
   id="path68"
   d="m 1096.014,177.484 c -0.839,-4.296 -3.3,-6.495 -7.228,-6.495 -5.658,0 -9.22,5.187 -9.22,13.409 0,8.225 3.562,13.357 9.324,13.357 4.399,0 6.966,-2.829 7.49,-8.381 h 4.924 c -0.523,8.484 -4.819,13.096 -12.256,13.096 -9.22,0 -15.14,-7.072 -15.14,-18.021 0,-6.285 1.834,-11.313 5.344,-14.561 2.565,-2.305 5.971,-3.615 9.585,-3.615 6.966,0 11.314,4.033 11.943,11.21 h -4.766 z" />
		<path
   style="fill:#ffffff"
   id="path70"
   d="m 1126.871,181.414 v 4.66 h -14.037 v 11.106 h 15.713 v 4.661 h -21.109 v -34.938 h 20.691 v 4.663 h -15.295 v 9.848 z" />
		<path
   style="fill:#ffffff"
   id="path72"
   d="m 1150.97,176.595 c -0.313,-3.562 -2.619,-5.605 -6.233,-5.605 -3.247,0 -5.709,1.938 -5.709,4.505 0,1.257 0.681,2.357 1.938,3.091 1.049,0.681 1.676,0.942 5.972,2.775 5.028,2.095 6.652,2.986 7.963,4.452 1.466,1.625 2.251,3.772 2.251,6.285 0,6.287 -4.714,10.373 -11.995,10.373 -7.91,0 -12.311,-4.14 -12.676,-11.943 h 5.238 c 0.419,4.768 2.985,7.229 7.542,7.229 3.72,0 6.339,-1.99 6.339,-4.767 0,-1.572 -0.733,-2.777 -2.253,-3.824 -1.099,-0.733 -1.729,-1.047 -5.762,-2.776 -3.666,-1.57 -5.866,-2.775 -7.176,-3.98 -1.833,-1.676 -2.775,-3.875 -2.775,-6.442 0,-5.658 4.661,-9.691 11.262,-9.691 4.033,0 7.49,1.572 9.428,4.295 1.205,1.677 1.676,3.301 1.834,6.025 h -5.188 z" />
	</g>
</g>
<rect
   style="fill:#ffffff"
   id="rect78"
   height="100.918"
   width="3.448"
   y="1.250977"
   x="494.73203" />
<line
   style="fill:none;stroke:#ffffff;stroke-width:2.40170002;stroke-miterlimit:10"
   id="line80"
   y2="97.572975"
   x2="71.617004"
   y1="31.107979"
   x1="58.434006"
   stroke-miterlimit="10" />
<line
   style="fill:none;stroke:#ffffff;stroke-width:2.40170002;stroke-miterlimit:10"
   id="line82"
   y2="94.029976"
   x2="28.283998"
   y1="31.107979"
   x1="58.434006"
   stroke-miterlimit="10" />
<line
   style="fill:none;stroke:#ffffff;stroke-width:2.40170002;stroke-miterlimit:10"
   id="line84"
   y2="50.07798"
   x2="127.23799"
   y1="94.029976"
   x1="28.283998"
   stroke-miterlimit="10" />
<line
   style="fill:none;stroke:#ffffff;stroke-width:2.40170002;stroke-miterlimit:10"
   id="line86"
   y2="50.07798"
   x2="127.23799"
   y1="31.107979"
   x1="58.434006"
   stroke-miterlimit="10" />
<g
   transform="translate(-100.983,-99.673027)"
   id="g90"
   style="stroke:none;fill:#ffffff">
	<path
   style="fill:#ffffff;stroke:none"
   id="path88"
   d="m 214.644,201.706 h -88.769 c -13.725,0 -24.892,-11.166 -24.892,-24.891 0,-13.726 11.167,-24.892 24.892,-24.892 1.977,0 3.922,0.233 5.821,0.695 3.414,-17.172 18.611,-29.995 36.577,-29.995 3.412,0 6.772,0.461 10.03,1.372 6.854,-13.72 20.711,-22.652 36.236,-23.066 l 0.207,7.727 c -13.656,0.363 -25.726,8.815 -30.751,21.532 l -1.413,3.577 -3.584,-1.397 c -3.431,-1.337 -7.039,-2.015 -10.726,-2.015 -15.593,0 -28.555,12.182 -29.508,27.732 l -0.351,5.719 -5.171,-2.467 c -2.343,-1.117 -4.822,-1.685 -7.369,-1.685 -9.463,0 -17.161,7.698 -17.161,17.162 0,9.463 7.698,17.161 17.161,17.161 h 88.769 v 7.731 z" />
</g>
<path
   style="fill:#ffffff;stroke:#ffffff;stroke-width:2.51480007;stroke-miterlimit:10"
   id="path92"
   d="m 31.824,94.136973 c -0.076,1.957 -1.722,3.494 -3.678,3.435 -1.954,-0.06 -3.479,-1.692 -3.403,-3.651 0.077,-1.956 1.723,-3.49 3.678,-3.432 1.956,0.06 3.479,1.692 3.403,3.648 z"
   stroke-miterlimit="10" />
<line
   style="fill:none;stroke:#ffffff;stroke-width:2.40170002;stroke-miterlimit:10"
   id="line94"
   y2="50.07798"
   x2="127.23799"
   y1="4.8009725"
   x1="113.765"
   stroke-miterlimit="10" />
<line
   style="fill:none;stroke:#ffffff;stroke-width:2.40170002;stroke-miterlimit:10"
   id="line96"
   y2="76.597969"
   x2="67.449997"
   y1="4.8009725"
   x1="113.765"
   stroke-miterlimit="10" />
<path
   style="fill:#ffffff;stroke:#ffffff;stroke-width:2.51480007;stroke-miterlimit:10"
   id="path98"
   d="m 117.305,4.9069734 c -0.076,1.957 -1.722,3.494 -3.678,3.435 -1.954,-0.06 -3.479,-1.692 -3.403,-3.651 0.077,-1.956 1.723,-3.49 3.678,-3.432 1.956,0.06 3.479,1.693 3.403,3.648 z"
   stroke-miterlimit="10" />
<line
   style="fill:none;stroke:#ffffff;stroke-width:2.40170002;stroke-miterlimit:10"
   id="line100"
   y2="97.572975"
   x2="112.616"
   y1="31.107979"
   x1="58.434006"
   stroke-miterlimit="10" />
<line
   style="fill:none;stroke:#ffffff;stroke-width:2.40170002;stroke-miterlimit:10"
   id="line102"
   y2="97.572975"
   x2="112.616"
   y1="50.07798"
   x1="127.23799"
   stroke-miterlimit="10" />
<path
   style="fill:#ffffff;stroke:#ffffff;stroke-width:2.51480007;stroke-miterlimit:10"
   id="path104"
   d="m 61.975,31.214973 c -0.076,1.957 -1.722,3.494 -3.678,3.435 -1.954,-0.06 -3.479,-1.692 -3.403,-3.651 0.077,-1.956 1.723,-3.49 3.678,-3.432 1.955,0.06 3.478,1.693 3.403,3.648 z"
   stroke-miterlimit="10" />
<path
   style="fill:#ffffff;stroke:#ffffff;stroke-width:2.51480007;stroke-miterlimit:10"
   id="path106"
   d="m 130.779,50.183973 c -0.076,1.957 -1.722,3.494 -3.678,3.435 -1.954,-0.06 -3.479,-1.692 -3.403,-3.651 0.077,-1.956 1.723,-3.49 3.678,-3.432 1.955,0.061 3.478,1.693 3.403,3.648 z"
   stroke-miterlimit="10" />
<line
   style="fill:none;stroke:#ffffff;stroke-width:2.40170002;stroke-miterlimit:10"
   id="line108"
   y2="97.572975"
   x2="112.616"
   y1="76.597969"
   x1="67.449997"
   stroke-miterlimit="10" />
<path
   style="fill:#ffffff;stroke:#ffffff;stroke-width:2.51480007;stroke-miterlimit:10"
   id="path110"
   d="m 70.991,76.704973 c -0.076,1.957 -1.722,3.494 -3.678,3.435 -1.954,-0.06 -3.479,-1.692 -3.403,-3.651 0.077,-1.956 1.723,-3.49 3.678,-3.432 1.955,0.06 3.478,1.693 3.403,3.648 z"
   stroke-miterlimit="10" />
<path
   style="fill:#ffffff;stroke:#ffffff;stroke-width:2.51480007;stroke-miterlimit:10"
   id="path112"
   d="m 116.157,97.679973 c -0.076,1.957 -1.722,3.493997 -3.678,3.434997 -1.954,-0.06 -3.479,-1.691997 -3.403,-3.650997 0.077,-1.956 1.723,-3.49 3.678,-3.432 1.955,0.06 3.478,1.692 3.403,3.648 z"
   stroke-miterlimit="10" />
</svg>
