<svg enable-background="new 0 0 1258.081 302.875" version="1.1" viewBox="0 0 1056.2 102.8" xmlns="http://www.w3.org/2000/svg">
 <line x1="35.044" x2="67.45" y1="61.583" y2="76.598" stroke-miterlimit="10" style="fill:none;stroke-miterlimit:10;stroke-width:2.4017;stroke:#8cb423"/>
 <line x1="7.784" x2="67.45" y1="71.883" y2="76.598" stroke-miterlimit="10" style="fill:none;stroke-miterlimit:10;stroke-width:2.4017;stroke:#8cb423"/>
 <g transform="translate(-100.98 -99.673)">
  <path d="m299.46 141.62v-40.854h19.359v100.93h-19.359v-40.713h-34.594v40.713h-19.359v-100.93h19.359v40.854h34.594z" style="fill:#005aa0"/>
  <path d="m355.74 201.7h-19.361v-100.93h19.361z" style="fill:#005aa0"/>
  <path d="m438.62 100.77v19.359h-45.979v21.495h40.144v19.362h-40.144v40.713h-19.362v-91.393c0-0.854 0.285-1.708 0.998-2.277l6.264-6.263c0.569-0.57 1.424-0.997 2.277-0.997h55.802z" style="fill:#005aa0"/>
  <path d="m475.54 201.7h-19.361v-100.93h19.361z" style="fill:#005aa0"/>
  <path d="m547.09 201.71h-28.416c-4.311 0-8.363-1.678-11.412-4.727l-11.346-11.347 13.691-13.689 9.457 9.456c0.604 0.604 1.426 0.945 2.283 0.945h23.07c0.855 0 1.676-0.341 2.283-0.945l6.227-6.226c0.604-0.607 0.945-1.428 0.945-2.285v-3.351c0-1.446-0.974-2.728-2.366-3.114l-41.894-11.666c-4.725-1.314-8.963-4.191-11.93-8.099-2.969-3.906-4.604-8.761-4.604-13.666v-6.024c0-4.279 1.701-8.386 4.727-11.412l10.007-10.007c3.048-3.047 7.101-4.725 11.411-4.725h28.416c4.311 0 8.365 1.678 11.412 4.725l11.346 11.349-13.689 13.689-9.457-9.456c-0.606-0.604-1.428-0.945-2.284-0.945h-23.069c-0.857 0-1.68 0.341-2.284 0.945l-6.226 6.227c-0.606 0.604-0.945 1.427-0.945 2.282v3.353c0 1.443 0.972 2.725 2.365 3.114l41.891 11.664c4.727 1.316 8.965 4.191 11.934 8.098 2.967 3.909 4.602 8.762 4.602 13.669v6.024c0 4.31-1.678 8.362-4.728 11.412l-10.005 10.005c-3.048 3.049-7.1 4.727-11.412 4.727z" style="fill:#005aa0"/>
  <path d="m641.34 115.82v-15.034h7.124v37.138h-7.124v-14.981h-12.729v14.981h-7.124v-37.138h7.124v15.034z" style="fill:#005aa0"/>
  <path d="m662.04 107.94v7.87h13.603v7.126h-13.603v7.87h16.273v7.127h-19.91c-0.315 0-0.617-0.125-0.84-0.349l-2.304-2.302c-0.222-0.224-0.348-0.525-0.348-0.841v-30.138c0-0.313 0.125-0.616 0.348-0.839l2.304-2.304c0.223-0.223 0.524-0.349 0.84-0.349h19.91v7.127h-16.273z" style="fill:#005aa0"/>
  <path d="m706.08 130.8v7.127h-17.975c-0.315 0-0.617-0.125-0.84-0.349l-2.304-2.302c-0.223-0.224-0.348-0.525-0.348-0.841v-33.629h7.127v29.993h14.34z" style="fill:#005aa0"/>
  <path d="m742.61 100.81v37.12h-7.127v-20.548l-5.009 10.515c-0.151 0.318-0.472 0.521-0.823 0.521h-5.618c-0.352 0-0.673-0.202-0.823-0.521l-5.01-10.515v20.548h-7.127v-37.12h7.127l8.642 18.142 8.641-18.142z" style="fill:#005aa0"/>
  <path d="m770.06 115.82v-15.034h7.124v37.138h-7.124v-14.981h-12.729v14.981h-7.124v-37.138h7.124v15.034z" style="fill:#005aa0"/>
  <path d="m806.31 102.52 3.72 3.666c1.106 1.093 1.728 2.619 1.728 4.191v17.914c0 1.571-0.629 3.091-1.728 4.189l-3.72 3.72c-1.1 1.1-2.619 1.729-4.19 1.729h-8.329c-1.571 0-3.124-0.595-4.243-1.729l-3.667-3.72c-1.092-1.106-1.728-2.618-1.728-4.189v-17.914c0-1.572 0.628-3.091 1.728-4.191l3.667-3.666c1.152-1.152 2.672-1.78 4.243-1.78h8.329c1.571-1e-3 3.056 0.661 4.19 1.78zm-1.677 24.829v-15.977c0-0.314-0.159-0.626-0.365-0.838l-2.253-2.305c-0.262-0.21-0.576-0.367-0.89-0.367h-6.391c-0.314 0-0.576 0.157-0.839 0.367l-2.252 2.305c-0.262 0.209-0.366 0.523-0.366 0.838v15.977c0 0.313 0.104 0.575 0.366 0.837l2.252 2.253c0.263 0.262 0.525 0.366 0.839 0.366h6.391c0.314 0 0.627-0.104 0.89-0.366l2.253-2.253c0.21-0.262 0.365-0.524 0.365-0.837z" style="fill:#005aa0"/>
  <path d="m840.04 130.8v7.127h-17.976c-0.315 0-0.617-0.125-0.841-0.349l-2.302-2.302c-0.223-0.224-0.349-0.525-0.349-0.841v-33.629h7.127v29.993h14.341z" style="fill:#005aa0"/>
  <path d="m838.22 107.91v-7.124h25.77v7.124h-9.324v30.014h-7.123v-30.014z" style="fill:#005aa0"/>
  <path d="m890.64 100.81c0.314 0 0.617 0.126 0.839 0.349l2.304 2.304c0.223 0.223 0.349 0.525 0.349 0.839v1.818l-15.617 24.684h15.617v7.127h-21.475c-0.314 0-0.617-0.125-0.839-0.349l-2.304-2.302c-0.223-0.224-0.349-0.525-0.349-0.841v-2.191l15.382-24.311h-15.228v-7.127z" style="fill:#005aa0"/>
  <path d="m641.07 181.41v4.66h-14.039v15.768h-5.395v-34.938h20.69v4.663h-15.295v9.848h14.039z" style="fill:#005aa0"/>
  <path d="m667.48 181.41v4.66h-14.039v11.106h15.715v4.661h-21.11v-34.938h20.69v4.663h-15.295v9.848z" style="fill:#005aa0"/>
  <path d="m682.36 166.9c5.919 0 8.905 0.472 11.576 1.886 4.977 2.672 8.119 8.643 8.119 15.558 0 6.914-2.934 12.78-7.804 15.451-2.934 1.676-5.343 2.044-12.624 2.044h-6.338v-34.938h7.071zm1.153 30.278c4.557 0 6.338-0.368 8.329-1.677 2.933-1.939 4.609-6.025 4.609-11.157 0-5.238-1.781-9.272-4.976-11.21-2.096-1.309-3.562-1.57-9.271-1.57h-1.52v25.614z" style="fill:#005aa0"/>
  <path d="m728.09 181.41v4.66h-14.039v11.106h15.715v4.661h-21.11v-34.938h20.69v4.663h-15.295v9.848z" style="fill:#005aa0"/>
  <path d="m743.39 166.9c5.814 0 8.015 0.313 10.372 1.415 3.3 1.571 5.291 4.924 5.291 8.956 0 4.557-2.252 7.857-6.653 9.64l8.591 14.928h-6.391l-7.909-14.039h-5.396v14.039h-5.395v-34.938h7.49zm0.314 16.239c3.771 0 4.924-0.105 6.337-0.629 2.148-0.785 3.405-2.724 3.405-5.29 0-2.2-0.995-3.928-2.724-4.768-1.466-0.732-2.619-0.889-7.281-0.889h-2.148v11.575h2.411z" style="fill:#005aa0"/>
  <path d="m779.7 166.8 11.942 35.042h-5.604l-2.567-8.172h-12.729l-2.619 8.172h-5.552l11.89-35.042zm-2.619 6.495-4.924 15.713h9.899z" style="fill:#005aa0"/>
  <path d="m813.85 166.9v4.663h-9.22v30.275h-5.394v-30.275h-9.116v-4.663z" style="fill:#005aa0"/>
  <path d="m838.42 181.41v4.66h-14.037v11.106h15.713v4.661h-21.109v-34.938h20.691v4.663h-15.295v9.848z" style="fill:#005aa0"/>
  <path d="m853.3 166.9c5.918 0 8.904 0.472 11.576 1.886 4.977 2.672 8.119 8.643 8.119 15.558 0 6.914-2.933 12.78-7.806 15.451-2.933 1.676-5.342 2.044-12.622 2.044h-6.339v-34.938h7.072zm1.153 30.278c4.557 0 6.337-0.368 8.327-1.677 2.935-1.939 4.611-6.025 4.611-11.157 0-5.238-1.782-9.272-4.977-11.21-2.096-1.309-3.562-1.57-9.272-1.57h-1.519v25.614z" style="fill:#005aa0"/>
  <path d="m892.65 201.84v-34.938h5.448v34.938z" style="fill:#005aa0"/>
  <path d="m927.01 166.9v4.663h-9.22v30.275h-5.394v-30.275h-9.114v-4.663z" style="fill:#005aa0"/>
  <path d="m961.53 176.6c-0.314-3.562-2.619-5.605-6.233-5.605-3.247 0-5.709 1.938-5.709 4.505 0 1.257 0.681 2.357 1.938 3.091 1.048 0.681 1.676 0.942 5.971 2.775 5.029 2.095 6.653 2.986 7.963 4.452 1.466 1.625 2.252 3.772 2.252 6.285 0 6.287-4.715 10.373-11.995 10.373-7.909 0-12.309-4.14-12.676-11.943h5.238c0.419 4.768 2.985 7.229 7.542 7.229 3.72 0 6.339-1.99 6.339-4.767 0-1.572-0.733-2.777-2.253-3.824-1.099-0.733-1.729-1.047-5.762-2.776-3.667-1.57-5.866-2.775-7.176-3.98-1.833-1.676-2.775-3.875-2.775-6.442 0-5.658 4.661-9.691 11.262-9.691 4.034 0 7.49 1.572 9.428 4.295 1.204 1.677 1.676 3.301 1.833 6.025h-5.187z" style="fill:#005aa0"/>
  <path d="m993.86 181.41v4.66h-14.037v11.106h15.713v4.661h-21.109v-34.938h20.691v4.663h-15.295v9.848z" style="fill:#005aa0"/>
  <path d="m1009.2 166.9c5.815 0 8.015 0.313 10.373 1.415 3.3 1.571 5.29 4.924 5.29 8.956 0 4.557-2.253 7.857-6.652 9.64l8.59 14.928h-6.391l-7.91-14.039h-5.394v14.039h-5.396v-34.938h7.49zm0.316 16.239c3.771 0 4.923-0.105 6.337-0.629 2.147-0.785 3.404-2.724 3.404-5.29 0-2.2-0.995-3.928-2.723-4.768-1.467-0.732-2.619-0.889-7.28-0.889h-2.147v11.575h2.409z" style="fill:#005aa0"/>
  <path d="m1033.1 166.9 9.114 28.757 9.062-28.757h5.658l-12.049 35.042h-5.604l-11.943-35.042z" style="fill:#005aa0"/>
  <path d="m1061.9 201.84v-34.938h5.448v34.938z" style="fill:#005aa0"/>
  <path d="m1096 177.48c-0.839-4.296-3.3-6.495-7.228-6.495-5.658 0-9.22 5.187-9.22 13.409 0 8.225 3.562 13.357 9.324 13.357 4.399 0 6.966-2.829 7.49-8.381h4.924c-0.523 8.484-4.819 13.096-12.256 13.096-9.22 0-15.14-7.072-15.14-18.021 0-6.285 1.834-11.313 5.344-14.561 2.565-2.305 5.971-3.615 9.585-3.615 6.966 0 11.314 4.033 11.943 11.21h-4.766z" style="fill:#005aa0"/>
  <path d="m1126.9 181.41v4.66h-14.037v11.106h15.713v4.661h-21.109v-34.938h20.691v4.663h-15.295v9.848z" style="fill:#005aa0"/>
  <path d="m1151 176.6c-0.313-3.562-2.619-5.605-6.233-5.605-3.247 0-5.709 1.938-5.709 4.505 0 1.257 0.681 2.357 1.938 3.091 1.049 0.681 1.676 0.942 5.972 2.775 5.028 2.095 6.652 2.986 7.963 4.452 1.466 1.625 2.251 3.772 2.251 6.285 0 6.287-4.714 10.373-11.995 10.373-7.91 0-12.311-4.14-12.676-11.943h5.238c0.419 4.768 2.985 7.229 7.542 7.229 3.72 0 6.339-1.99 6.339-4.767 0-1.572-0.733-2.777-2.253-3.824-1.099-0.733-1.729-1.047-5.762-2.776-3.666-1.57-5.866-2.775-7.176-3.98-1.833-1.676-2.775-3.875-2.775-6.442 0-5.658 4.661-9.691 11.262-9.691 4.033 0 7.49 1.572 9.428 4.295 1.205 1.677 1.676 3.301 1.834 6.025h-5.188z" style="fill:#005aa0"/>
 </g>
 <rect x="494.73" y="1.251" width="3.448" height="100.92" style="fill:#005aa0"/>
 <g stroke-miterlimit="10">
  <line x1="58.434" x2="71.617" y1="31.108" y2="97.573" style="fill:none;stroke-miterlimit:10;stroke-width:2.4017;stroke:#8cb423"/>
  <line x1="58.434" x2="28.284" y1="31.108" y2="94.03" style="fill:none;stroke-miterlimit:10;stroke-width:2.4017;stroke:#8cb423"/>
  <line x1="28.284" x2="127.24" y1="94.03" y2="50.078" style="fill:none;stroke-miterlimit:10;stroke-width:2.4017;stroke:#8cb423"/>
  <line x1="58.434" x2="127.24" y1="31.108" y2="50.078" style="fill:none;stroke-miterlimit:10;stroke-width:2.4017;stroke:#8cb423"/>
 </g>
 <g transform="translate(-100.98 -99.673)">
  <path d="m214.64 201.71h-88.769c-13.725 0-24.892-11.166-24.892-24.891 0-13.726 11.167-24.892 24.892-24.892 1.977 0 3.922 0.233 5.821 0.695 3.414-17.172 18.611-29.995 36.577-29.995 3.412 0 6.772 0.461 10.03 1.372 6.854-13.72 20.711-22.652 36.236-23.066l0.207 7.727c-13.656 0.363-25.726 8.815-30.751 21.532l-1.413 3.577-3.584-1.397c-3.431-1.337-7.039-2.015-10.726-2.015-15.593 0-28.555 12.182-29.508 27.732l-0.351 5.719-5.171-2.467c-2.343-1.117-4.822-1.685-7.369-1.685-9.463 0-17.161 7.698-17.161 17.162 0 9.463 7.698 17.161 17.161 17.161h88.769v7.731z" style="fill:#005aa0"/>
 </g>
 <g stroke-miterlimit="10">
  <path d="m31.824 94.137c-0.076 1.957-1.722 3.494-3.678 3.435-1.954-0.06-3.479-1.692-3.403-3.651 0.077-1.956 1.723-3.49 3.678-3.432 1.956 0.06 3.479 1.692 3.403 3.648z" style="fill:#ffffff;stroke-miterlimit:10;stroke-width:2.5148;stroke:#005aa0"/>
  <line x1="113.76" x2="127.24" y1="4.801" y2="50.078" style="fill:none;stroke-miterlimit:10;stroke-width:2.4017;stroke:#8cb423"/>
  <line x1="113.76" x2="67.45" y1="4.801" y2="76.598" style="fill:none;stroke-miterlimit:10;stroke-width:2.4017;stroke:#8cb423"/>
  <path d="m117.3 4.907c-0.076 1.957-1.722 3.494-3.678 3.435-1.954-0.06-3.479-1.692-3.403-3.651 0.077-1.956 1.723-3.49 3.678-3.432 1.956 0.06 3.479 1.693 3.403 3.648z" style="fill:#ffffff;stroke-miterlimit:10;stroke-width:2.5148;stroke:#005aa0"/>
  <line x1="58.434" x2="112.62" y1="31.108" y2="97.573" style="fill:none;stroke-miterlimit:10;stroke-width:2.4017;stroke:#8cb423"/>
  <line x1="127.24" x2="112.62" y1="50.078" y2="97.573" style="fill:none;stroke-miterlimit:10;stroke-width:2.4017;stroke:#8cb423"/>
  <path d="m61.975 31.215c-0.076 1.957-1.722 3.494-3.678 3.435-1.954-0.06-3.479-1.692-3.403-3.651 0.077-1.956 1.723-3.49 3.678-3.432 1.955 0.06 3.478 1.693 3.403 3.648z" style="fill:#ffffff;stroke-miterlimit:10;stroke-width:2.5148;stroke:#005aa0"/>
  <path d="m130.78 50.184c-0.076 1.957-1.722 3.494-3.678 3.435-1.954-0.06-3.479-1.692-3.403-3.651 0.077-1.956 1.723-3.49 3.678-3.432 1.955 0.061 3.478 1.693 3.403 3.648z" style="fill:#ffffff;stroke-miterlimit:10;stroke-width:2.5148;stroke:#005aa0"/>
  <line x1="67.45" x2="112.62" y1="76.598" y2="97.573" style="fill:none;stroke-miterlimit:10;stroke-width:2.4017;stroke:#8cb423"/>
  <path d="m70.991 76.705c-0.076 1.957-1.722 3.494-3.678 3.435-1.954-0.06-3.479-1.692-3.403-3.651 0.077-1.956 1.723-3.49 3.678-3.432 1.955 0.06 3.478 1.693 3.403 3.648z" style="fill:#ffffff;stroke-miterlimit:10;stroke-width:2.5148;stroke:#005aa0"/>
  <path d="m116.16 97.68c-0.076 1.957-1.722 3.494-3.678 3.435-1.954-0.06-3.479-1.692-3.403-3.651 0.077-1.956 1.723-3.49 3.678-3.432 1.955 0.06 3.478 1.692 3.403 3.648z" style="fill:#ffffff;stroke-miterlimit:10;stroke-width:2.5148;stroke:#005aa0"/>
 </g>
</svg>
