<svg viewBox="0 0 173 173" fill="none" xmlns="http://www.w3.org/2000/svg">
    <path d="M149.134 85.4513C149.134 120.06 121.078 148.117 86.4686 148.117C51.8595 148.117 23.8032 120.06 23.8032 85.4513C23.8032 50.8421 51.8595 22.7859 86.4686 22.7859C121.078 22.7859 149.134 50.8421 149.134 85.4513Z" fill="currentColor"/>
    <path d="M78.1551 13.6107C78.1551 9.19242 81.7368 5.61069 86.1551 5.61069H86.7823C91.2005 5.61069 94.7823 9.19241 94.7823 13.6107V41.303C94.7823 45.7213 91.2005 49.303 86.7823 49.303H86.1551C81.7368 49.303 78.1551 45.7213 78.1551 41.303V13.6107Z" fill="currentColor"/>
    <path d="M78.1551 8.61069C78.1551 4.19242 81.7368 0.610687 86.1551 0.610687H86.7823C91.2006 0.610687 94.7823 4.19241 94.7823 8.61069V36.303C94.7823 40.7213 91.2006 44.303 86.7823 44.303H86.1551C81.7368 44.303 78.1551 40.7213 78.1551 36.303V8.61069Z" fill="currentColor"/>
    <path d="M164.821 83.6492C169.239 83.6492 172.821 87.2309 172.821 91.6492V92.2764C172.821 96.6946 169.239 100.276 164.821 100.276H137.128C132.71 100.276 129.128 96.6946 129.128 92.2764L129.128 91.6492C129.128 87.2309 132.71 83.6492 137.128 83.6492H164.821Z" fill="currentColor"/>
    <path d="M78.155 136.622C78.155 132.204 81.7368 128.622 86.155 128.622H86.7822C91.2005 128.622 94.7822 132.204 94.7822 136.622V164.315C94.7822 168.733 91.2005 172.315 86.7822 172.315H86.155C81.7367 172.315 78.155 168.733 78.155 164.315V136.622Z" fill="currentColor"/>
    <path d="M35.809 83.6491C40.2273 83.6491 43.809 87.2308 43.809 91.6491V92.2763C43.809 96.6946 40.2273 100.276 35.809 100.276H8.11671C3.69843 100.276 0.116699 96.6946 0.116699 92.2763L0.116699 91.6491C0.116699 87.2308 3.69842 83.6491 8.1167 83.6491H35.809Z" fill="currentColor"/>
</svg>
