<svg width="39" height="39" viewBox="0 0 39 39" fill="none" xmlns="http://www.w3.org/2000/svg">
<mask id="path-1-inside-1_2977_1460" fill="white">
<path fill-rule="evenodd" clip-rule="evenodd" d="M17.9349 7.3213C17.9176 7.25043 17.9007 7.17802 17.8842 7.10408C12.0891 7.85198 7.53783 12.5685 7.04435 18.4396C7.13906 18.4603 7.23132 18.4816 7.3211 18.5034L7.38858 18.5201C10.5699 19.3152 10.5699 20.8237 7.38858 21.6189L7.3211 21.6355C7.27701 21.6462 7.23233 21.6568 7.18705 21.6673C8.11918 27.0012 12.4327 31.1726 17.8371 31.891C17.8683 31.7394 17.9009 31.5938 17.9349 31.4541L17.9515 31.3866C18.7467 28.2053 20.2552 28.2053 21.0503 31.3866L21.0669 31.4541C21.1009 31.5937 21.1335 31.7392 21.1647 31.8907C26.552 31.1738 30.8549 27.0256 31.8044 21.7153C31.6835 21.6896 31.5665 21.663 31.4534 21.6355L31.3859 21.6189C28.2046 20.8237 28.2046 19.3152 31.3859 18.5201L31.4534 18.5034C31.6118 18.4649 31.7778 18.4281 31.9516 18.3932C31.4381 12.5443 26.8965 7.85102 21.1176 7.10432C21.101 7.17818 21.0842 7.25051 21.0669 7.3213L21.0503 7.38878C20.2552 10.5701 18.7467 10.5701 17.9515 7.38878L17.9349 7.3213ZM4.21237 22.0726C5.32837 28.7551 10.7198 33.99 17.4792 34.8701C17.4478 35.4404 17.4311 36.0522 17.4311 36.7056C17.4311 37.8487 18.3578 38.7754 19.5009 38.7754C20.644 38.7754 21.5707 37.8487 21.5707 36.7056C21.5707 36.0521 21.554 35.4402 21.5226 34.8698C28.2765 33.9896 33.6642 28.7617 34.7852 22.0864C35.3794 22.1209 36.0193 22.1393 36.7049 22.1393C37.8481 22.1393 38.7747 21.2126 38.7747 20.0695C38.7747 18.9263 37.8481 17.9996 36.7049 17.9996C36.0755 17.9996 35.4847 18.0152 34.9324 18.0443C34.2603 10.8316 28.6462 5.05353 21.5094 4.12967C21.5493 3.49634 21.5707 2.80971 21.5707 2.06979C21.5707 0.926652 20.644 -4.3869e-05 19.5009 -4.3869e-05C18.3578 -4.3869e-05 17.4311 0.926652 17.4311 2.06979C17.4311 2.80961 17.4525 3.49616 17.4924 4.12943C10.3506 5.05305 4.73302 10.8378 4.06629 18.0571C3.45054 18.0197 2.78497 17.9996 2.06959 17.9996C0.926454 17.9996 -0.000242193 18.9263 -0.000242143 20.0695C-0.000242093 21.2126 0.926454 22.1393 2.06959 22.1393C2.84191 22.1393 3.55617 22.1159 4.21237 22.0726Z"/>
</mask>
<path d="M17.8842 7.10408L20.8119 6.44947L20.2147 3.77843L17.5002 4.12875L17.8842 7.10408ZM17.9349 7.3213L15.0199 8.03064L15.0222 8.03965L17.9349 7.3213ZM7.04435 18.4396L4.05489 18.1883L3.83462 20.809L6.40386 21.3704L7.04435 18.4396ZM7.3211 18.5034L8.03946 15.5907L8.03043 15.5885L7.3211 18.5034ZM7.38858 18.5201L8.11602 15.6096L8.10693 15.6074L7.38858 18.5201ZM7.38858 21.6189L8.10693 24.5316L8.11602 24.5293L7.38858 21.6189ZM7.3211 21.6355L8.03046 24.5504L8.03945 24.5482L7.3211 21.6355ZM7.18705 21.6673L6.51211 18.7442L3.74253 19.3837L4.23184 22.1837L7.18705 21.6673ZM17.8371 31.891L17.4418 34.8648L20.2128 35.2332L20.7757 32.495L17.8371 31.891ZM17.9349 31.4541L15.0221 30.7357L15.0199 30.7447L17.9349 31.4541ZM17.9515 31.3866L15.041 30.6592L15.0388 30.6683L17.9515 31.3866ZM21.0503 31.3866L23.963 30.6683L23.9608 30.6592L21.0503 31.3866ZM21.0669 31.4541L23.9819 30.7447L23.9797 30.7357L21.0669 31.4541ZM21.1647 31.8907L18.2261 32.4948L18.7891 35.2333L21.5604 34.8645L21.1647 31.8907ZM31.8044 21.7153L34.7575 22.2433L35.2687 19.3842L32.4277 18.7808L31.8044 21.7153ZM31.4534 21.6355L30.7351 24.5482L30.7441 24.5504L31.4534 21.6355ZM31.3859 21.6189L30.6585 24.5293L30.6676 24.5316L31.3859 21.6189ZM31.3859 18.5201L30.6676 15.6073L30.6585 15.6096L31.3859 18.5201ZM31.4534 18.5034L30.744 15.5885L30.7351 15.5907L31.4534 18.5034ZM31.9516 18.3932L32.5422 21.3345L35.1749 20.8058L34.9401 18.1309L31.9516 18.3932ZM21.1176 7.10432L21.502 4.12905L18.7872 3.77827L18.1899 6.44965L21.1176 7.10432ZM21.0669 7.3213L23.9797 8.03966L23.9819 8.03062L21.0669 7.3213ZM21.0503 7.38878L23.9608 8.11622L23.963 8.10713L21.0503 7.38878ZM17.9515 7.38878L15.0388 8.10713L15.0411 8.11621L17.9515 7.38878ZM17.4792 34.8701L20.4747 35.0348L20.6275 32.2547L17.8665 31.8952L17.4792 34.8701ZM4.21237 22.0726L7.17139 21.5785L6.72415 18.9005L4.01496 19.0791L4.21237 22.0726ZM21.5226 34.8698L21.1349 31.895L18.3743 32.2548L18.5271 35.0346L21.5226 34.8698ZM34.7852 22.0864L34.9587 19.0915L32.2723 18.9358L31.8267 21.5896L34.7852 22.0864ZM34.9324 18.0443L31.9454 18.3227L32.2128 21.1922L35.0907 21.0402L34.9324 18.0443ZM21.5094 4.12967L18.5153 3.94126L18.3389 6.74429L21.1243 7.10485L21.5094 4.12967ZM17.4924 4.12943L17.8772 7.10465L20.6629 6.74439L20.4865 3.94105L17.4924 4.12943ZM4.06629 18.0571L3.88464 21.0516L6.78624 21.2276L7.05357 18.3329L4.06629 18.0571ZM-0.000242143 20.0695L2.99976 20.0695L-0.000242143 20.0695ZM14.9565 7.75869C14.977 7.85045 14.9982 7.94111 15.0199 8.03063L20.8498 6.61197C20.8371 6.55975 20.8245 6.50559 20.8119 6.44947L14.9565 7.75869ZM10.0338 18.6909C10.4084 14.2345 13.8686 10.6472 18.2682 10.0794L17.5002 4.12875C10.3097 5.05675 4.66728 10.9025 4.05489 18.1883L10.0338 18.6909ZM8.03043 15.5885C7.91695 15.5609 7.80173 15.5343 7.68484 15.5088L6.40386 21.3704C6.4764 21.3863 6.54569 21.4023 6.61177 21.4184L8.03043 15.5885ZM8.10693 15.6074L8.03946 15.5907L6.60275 21.4162L6.67023 21.4328L8.10693 15.6074ZM8.11602 24.5293C9.08188 24.2879 10.047 23.9384 10.8446 23.4056C11.5614 22.9267 12.7746 21.8504 12.7746 20.0695C12.7746 18.2886 11.5614 17.2122 10.8446 16.7333C10.047 16.2005 9.08188 15.851 8.11602 15.6096L6.66114 21.4305C7.28595 21.5867 7.51387 21.724 7.51159 21.7224C7.50324 21.7169 7.34547 21.6131 7.17253 21.3675C6.98444 21.1004 6.77458 20.653 6.77458 20.0695C6.77458 19.4859 6.98444 19.0386 7.17253 18.7714C7.34547 18.5258 7.50324 18.4221 7.51159 18.4165C7.51387 18.415 7.28595 18.5522 6.66114 18.7084L8.11602 24.5293ZM8.03945 24.5482L8.10693 24.5316L6.67023 18.7061L6.60275 18.7228L8.03945 24.5482ZM7.862 24.5904C7.91854 24.5773 7.9747 24.564 8.03046 24.5504L6.61174 18.7206C6.57933 18.7285 6.54612 18.7363 6.51211 18.7442L7.862 24.5904ZM18.2324 28.9171C14.1315 28.372 10.8499 25.1999 10.1423 21.1508L4.23184 22.1837C5.3885 28.8025 10.7339 33.9732 17.4418 34.8648L18.2324 28.9171ZM15.0199 30.7447C14.977 30.9212 14.9366 31.102 14.8985 31.2869L20.7757 32.495C20.8 32.3768 20.8248 32.2663 20.8498 32.1634L15.0199 30.7447ZM15.0388 30.6683L15.0222 30.7357L20.8476 32.1724L20.8642 32.105L15.0388 30.6683ZM23.9608 30.6592C23.7194 29.6933 23.3699 28.7282 22.837 27.9306C22.3582 27.2138 21.2818 26.0006 19.5009 26.0006C17.72 26.0006 16.6437 27.2138 16.1648 27.9306C15.6319 28.7282 15.2825 29.6933 15.0411 30.6592L20.862 32.114C21.0182 31.4892 21.1554 31.2613 21.1539 31.2636C21.1483 31.272 21.0446 31.4297 20.7989 31.6027C20.5318 31.7908 20.0845 32.0006 19.5009 32.0006C18.9174 32.0006 18.47 31.7908 18.2029 31.6027C17.9573 31.4297 17.8535 31.272 17.8479 31.2636C17.8464 31.2613 17.9837 31.4892 18.1398 32.114L23.9608 30.6592ZM23.9797 30.7357L23.963 30.6683L18.1376 32.105L18.1542 32.1724L23.9797 30.7357ZM24.1032 31.2866C24.0652 31.1018 24.0248 30.9211 23.9819 30.7447L18.152 32.1635C18.177 32.2662 18.2018 32.3766 18.2261 32.4948L24.1032 31.2866ZM28.8512 21.1873C28.1304 25.2185 24.8568 28.3729 20.7689 28.9169L21.5604 34.8645C28.2472 33.9747 33.5794 28.8327 34.7575 22.2433L28.8512 21.1873ZM30.7441 24.5504C30.887 24.5852 31.0327 24.6183 31.181 24.6498L32.4277 18.7808C32.3343 18.7609 32.246 18.7408 32.1628 18.7206L30.7441 24.5504ZM30.6676 24.5316L30.7351 24.5482L32.1717 18.7228L32.1043 18.7061L30.6676 24.5316ZM30.6585 15.6096C29.6926 15.851 28.7275 16.2005 27.9299 16.7333C27.2131 17.2122 25.9999 18.2886 25.9999 20.0695C25.9999 21.8504 27.2131 22.9267 27.9299 23.4056C28.7275 23.9384 29.6926 24.2879 30.6585 24.5293L32.1134 18.7084C31.4886 18.5522 31.2606 18.415 31.2629 18.4165C31.2713 18.4221 31.429 18.5258 31.602 18.7714C31.7901 19.0386 31.9999 19.4859 31.9999 20.0695C31.9999 20.653 31.7901 21.1004 31.602 21.3675C31.429 21.6131 31.2713 21.7169 31.2629 21.7224C31.2606 21.724 31.4886 21.5867 32.1134 21.4305L30.6585 15.6096ZM30.7351 15.5907L30.6676 15.6074L32.1043 21.4328L32.1717 21.4162L30.7351 15.5907ZM31.3609 15.4519C31.1499 15.4943 30.9441 15.5398 30.744 15.5885L32.1628 21.4184C32.2794 21.39 32.4058 21.3619 32.5422 21.3345L31.3609 15.4519ZM20.7331 10.0796C25.1204 10.6465 28.5734 14.2161 28.9631 18.6555L34.9401 18.1309C34.3029 10.8725 28.6726 5.05556 21.502 4.12905L20.7331 10.0796ZM23.9819 8.03062C24.0036 7.94122 24.0248 7.85067 24.0453 7.75898L18.1899 6.44965C18.1773 6.50569 18.1647 6.55979 18.152 6.61198L23.9819 8.03062ZM23.963 8.10713L23.9797 8.03965L18.1542 6.60295L18.1376 6.67042L23.963 8.10713ZM15.0411 8.11621C15.2825 9.08208 15.6319 10.0472 16.1648 10.8448C16.6437 11.5616 17.72 12.7748 19.5009 12.7748C21.2818 12.7748 22.3582 11.5616 22.837 10.8448C23.3699 10.0472 23.7194 9.08208 23.9608 8.11621L18.1398 6.66134C17.9837 7.28615 17.8464 7.51407 17.8479 7.51179C17.8535 7.50344 17.9573 7.34567 18.2029 7.17273C18.47 6.98464 18.9174 6.77478 19.5009 6.77478C20.0845 6.77478 20.5318 6.98464 20.7989 7.17273C21.0446 7.34567 21.1483 7.50344 21.1539 7.51179C21.1554 7.51407 21.0182 7.28615 20.862 6.66134L15.0411 8.11621ZM15.0222 8.03965L15.0388 8.10713L20.8642 6.67042L20.8476 6.60295L15.0222 8.03965ZM17.8665 31.8952C12.4217 31.1863 8.07058 26.9627 7.17139 21.5785L1.25335 22.5668C2.58617 30.5475 9.01785 36.7937 17.0919 37.845L17.8665 31.8952ZM20.4311 36.7056C20.4311 36.1032 20.4465 35.5464 20.4747 35.0348L14.4837 34.7054C14.4491 35.3343 14.4311 36.0012 14.4311 36.7056H20.4311ZM19.5009 35.7754C20.0146 35.7754 20.4311 36.1919 20.4311 36.7056H14.4311C14.4311 39.5056 16.7009 41.7754 19.5009 41.7754V35.7754ZM18.5707 36.7056C18.5707 36.1919 18.9872 35.7754 19.5009 35.7754V41.7754C22.3009 41.7754 24.5707 39.5056 24.5707 36.7056H18.5707ZM18.5271 35.0346C18.5553 35.5462 18.5707 36.1031 18.5707 36.7056H24.5707C24.5707 36.0011 24.5527 35.3341 24.5181 34.7051L18.5271 35.0346ZM31.8267 21.5896C30.9234 26.968 26.5753 31.186 21.1349 31.895L21.9103 37.8447C29.9777 36.7933 36.405 30.5554 37.7438 22.5833L31.8267 21.5896ZM36.7049 19.1393C36.0727 19.1393 35.4908 19.1223 34.9587 19.0915L34.6117 25.0814C35.2679 25.1194 35.9658 25.1393 36.7049 25.1393V19.1393ZM35.7747 20.0695C35.7747 19.5558 36.1912 19.1393 36.7049 19.1393V25.1393C39.5049 25.1393 41.7747 22.8695 41.7747 20.0695H35.7747ZM36.7049 20.9996C36.1912 20.9996 35.7747 20.5832 35.7747 20.0695H41.7747C41.7747 17.2695 39.5049 14.9996 36.7049 14.9996V20.9996ZM35.0907 21.0402C35.5867 21.014 36.1246 20.9996 36.7049 20.9996V14.9996C36.0264 14.9996 35.3827 15.0164 34.7742 15.0485L35.0907 21.0402ZM21.1243 7.10485C26.8749 7.84927 31.4039 12.5117 31.9454 18.3227L37.9195 17.766C37.1168 9.15153 30.4174 2.25779 21.8945 1.1545L21.1243 7.10485ZM18.5707 2.06979C18.5707 2.7521 18.5509 3.37567 18.5153 3.94126L24.5035 4.31808C24.5476 3.617 24.5707 2.86732 24.5707 2.06979H18.5707ZM19.5009 2.99996C18.9872 2.99996 18.5707 2.58351 18.5707 2.06979H24.5707C24.5707 -0.730201 22.3009 -3.00004 19.5009 -3.00004V2.99996ZM20.4311 2.06979C20.4311 2.58351 20.0146 2.99996 19.5009 2.99996V-3.00004C16.7009 -3.00004 14.4311 -0.730201 14.4311 2.06979H20.4311ZM20.4865 3.94105C20.4509 3.37551 20.4311 2.75201 20.4311 2.06979H14.4311C14.4311 2.86722 14.4542 3.61681 14.4983 4.31781L20.4865 3.94105ZM7.05357 18.3329C7.59074 12.5166 12.1224 7.84888 17.8772 7.10465L17.1076 1.15421C8.57868 2.25721 1.87531 9.15887 1.079 17.7812L7.05357 18.3329ZM4.24793 15.0626C3.56704 15.0213 2.8407 14.9996 2.06959 14.9996V20.9996C2.72924 20.9996 3.33403 21.0182 3.88464 21.0516L4.24793 15.0626ZM2.06959 14.9996C-0.730402 14.9996 -3.00024 17.2695 -3.00024 20.0695L2.99976 20.0695C2.99976 20.5832 2.58331 20.9996 2.06959 20.9996V14.9996ZM-3.00024 20.0695C-3.00024 22.8695 -0.730399 25.1393 2.06959 25.1393V19.1393C2.58331 19.1393 2.99976 19.5557 2.99976 20.0695L-3.00024 20.0695ZM2.06959 25.1393C2.902 25.1393 3.68235 25.1141 4.40978 25.0661L4.01496 19.0791C3.42999 19.1177 2.78183 19.1393 2.06959 19.1393V25.1393Z" fill="url(#paint0_linear_2977_1460)" mask="url(#path-1-inside-1_2977_1460)"/>
<defs>
<linearGradient id="paint0_linear_2977_1460" x1="-0.000245471" y1="0.00011154" x2="36.3212" y2="43.7828" gradientUnits="userSpaceOnUse">
<stop stop-color="white"/>
<stop offset="0.585289" stop-color="white" stop-opacity="0.414711"/>
<stop offset="1" stop-color="white" stop-opacity="0"/>
</linearGradient>
</defs>
</svg>
