<svg width="3024" height="832" viewBox="0 0 3024 832" fill="none" xmlns="http://www.w3.org/2000/svg">
<g clip-path="url(#clip0)">
<path d="M2952.92 711.678L2952.93 711.679C2968.78 717.075 2988.58 720.011 3012.3 720.5L3012.31 720L3012.8 720.075L3023.99 646.793L3024.06 646.292L3023.56 646.222C3013.06 644.761 3004.33 642.815 2997.36 640.39C2990.85 637.488 2985.66 633.631 2981.78 628.824C2977.88 623.516 2975.06 617.236 2973.32 609.974C2972.01 602.687 2971.35 593.685 2971.35 582.962V144V143.4L2970.76 143.508L2891.15 158.165L2890.74 158.24V158.656V599.817C2890.74 618.9 2892.5 636.038 2896.02 651.227L2896.02 651.236L2896.02 651.245C2899.99 665.969 2906.6 678.499 2915.87 688.823L2915.88 688.832C2925.16 698.672 2937.51 706.283 2952.92 711.678Z" fill="#F9A54B" stroke="white"/>
<path d="M2783.68 711.678L2783.69 711.679C2799.54 717.075 2819.34 720.011 2843.06 720.5L2843.07 720L2843.56 720.075L2854.75 646.793L2854.82 646.292L2854.32 646.222C2843.82 644.761 2835.09 642.815 2828.12 640.39C2821.61 637.488 2816.43 633.631 2812.54 628.824C2808.64 623.516 2805.82 617.235 2804.08 609.974C2802.77 602.687 2802.11 593.685 2802.11 582.962V144V143.4L2801.52 143.508L2721.91 158.165L2721.5 158.24V158.656V599.817C2721.5 618.9 2723.26 636.038 2726.78 651.227L2726.78 651.236L2726.78 651.245C2730.75 665.969 2737.36 678.499 2746.63 688.823L2746.64 688.832C2755.92 698.672 2768.27 706.283 2783.68 711.678Z" fill="#F9A54B" stroke="white"/>
<path d="M2450.44 581.281L2450.45 581.275L2450.45 581.268C2455.47 574.657 2461.99 569.584 2470.02 566.052C2478.6 562.506 2487.93 560.066 2498.03 558.735C2508.66 557.401 2519.03 556.734 2529.15 556.734C2540.79 556.734 2551.42 557.401 2561.02 558.734C2570.41 560.038 2577.62 561.339 2582.65 562.636V651.402C2568 654.018 2546.62 655.33 2518.5 655.33C2495.22 655.33 2476.81 651.772 2463.22 644.695C2449.73 637.228 2442.95 624.055 2442.95 605.029C2442.95 595.314 2445.46 587.412 2450.44 581.281ZM2582.65 492.064V504.817C2570.18 502.21 2558.45 500.467 2547.45 499.588C2536.28 498.249 2525.62 497.58 2515.46 497.58C2493.63 497.58 2472.56 499.588 2452.24 503.604C2432.42 507.178 2414.88 513.434 2399.61 522.378C2384.34 530.881 2372.11 542.075 2362.94 555.958L2362.94 555.958L2362.93 555.969C2354.25 569.879 2349.93 586.91 2349.93 607.035C2349.93 628.038 2353.74 645.726 2361.39 660.076L2361.4 660.088C2369.55 674.417 2380.51 686.062 2394.26 695.019L2394.27 695.023C2408.53 703.973 2425.57 710.454 2445.39 714.474C2465.2 718.492 2487.04 720.5 2510.9 720.5C2546.91 720.5 2579.13 718.494 2607.55 714.48C2636.45 710.915 2658.01 707.794 2672.22 705.117L2672.63 705.041V704.626V492.732C2672.63 472.192 2669.83 453.425 2664.24 436.436C2659.15 418.98 2650.23 404.201 2637.49 392.108C2625.25 380.01 2608.7 370.618 2587.86 363.917C2567.04 357.221 2541.38 351.5 2510.9 351.5C2498.21 351.5 2484.18 351.933 2471.38 353.116C2458.6 354.298 2447.01 356.231 2439.23 359.248C2419.42 366.928 2408.41 373.623 2400.78 380.125C2395.67 384.477 2392.07 388.759 2388.38 393.144C2386.58 395.285 2384.76 397.451 2382.73 399.662L2382.6 399.805V400V448V448.775L2383.3 448.456C2384.77 447.792 2386.41 446.352 2388.43 444.545C2388.53 444.462 2388.62 444.377 2388.72 444.292C2390.72 442.508 2393.15 440.339 2396.28 438.027C2402.82 433.19 2412.44 427.721 2427.44 423.988C2453.89 418.654 2478.24 418.637 2497.96 419C2517.56 419.361 2530.3 422.452 2540.39 425.999L2540.4 426.002C2550.93 429.527 2559.22 436.944 2565.28 443.605L2565.3 443.619L2565.31 443.631C2571.84 449.812 2576.36 457.089 2578.86 465.47C2581.39 473.888 2582.65 482.752 2582.65 492.064Z" fill="#F9A54B" stroke="white"/>
<path d="M2178.54 143.5H2178.29L2178.14 143.706L1920.76 497.988L1920.66 498.12V498.282V582.027V582.527H1921.16H2175.53V720V720.5H2176.03H2274.96H2275.46V720V582.527H2311.57H2312.07L2312.07 582.03C2312.22 557.712 2320.66 534.705 2330.17 521.796C2334.46 515.976 2336.53 513.94 2340.19 510.343C2340.81 509.739 2341.47 509.09 2342.19 508.373L2355.78 497.389L2356.88 496.5H2355.46H2274.34L2275.46 144.002L2275.46 143.5H2274.96H2178.54ZM2029.58 496.241L2175.53 296.921V496.241H2029.58Z" fill="#F04950" stroke="white"/>
<path d="M1649.36 720.244L1649.5 720.5H1649.79H1730.09H1730.38L1730.53 720.244C1756.27 674.285 1782.53 621.637 1809.3 562.301C1836.59 502.51 1861.3 438.482 1883.44 370.218L1883.61 369.685L1883.06 369.573L1794.2 351.51L1793.75 351.418L1793.62 351.859C1789.75 365.066 1781.83 387.713 1774.74 407.997C1771.45 417.383 1768.35 426.263 1765.9 433.467C1758.19 455.763 1749.95 478.283 1741.2 501.027L1741.2 501.033C1732.97 523.33 1724.48 545.182 1715.73 566.587C1707.15 587.136 1699.07 605.755 1691.49 622.443C1683.89 605.752 1675.55 587.131 1666.47 566.582C1657.72 545.177 1648.97 523.326 1640.22 501.03C1631.99 478.287 1624.01 455.767 1616.3 433.47C1612.97 422.978 1607.87 408.997 1602.79 395.062C1602.35 393.873 1601.92 392.685 1601.49 391.499C1595.98 376.398 1590.67 361.71 1587.85 351.917L1587.72 351.476L1587.27 351.566L1496.82 369.573L1496.27 369.683L1496.44 370.218C1518.58 438.481 1543.04 502.508 1569.81 562.298L1569.81 562.303C1597.1 621.638 1623.61 674.286 1649.36 720.244Z" fill="#3276B5" stroke="white"/>
<path d="M1313.06 404.366L1313.07 404.37L1313.08 404.373C1327.61 408.706 1339.19 413.509 1347.82 418.774V637.098C1340.82 638.527 1331.71 639.957 1320.51 641.389C1309.65 642.36 1296.34 642.846 1280.57 642.846C1244.21 642.846 1215.79 631.932 1195.22 610.152C1174.65 587.88 1164.34 557.353 1164.34 518.509C1164.34 481.104 1172.49 451.534 1188.73 429.747C1205.48 408.006 1231.7 397.093 1267.51 397.093C1283.78 397.093 1298.96 399.519 1313.06 404.366ZM1448.61 719.949L1449.17 720.007L1449.16 719.45L1447.59 143.999L1447.59 143.421L1447.02 143.505L1348.25 158.106L1347.82 158.169V158.601V341.056C1336.51 335.818 1323.11 331.053 1307.64 326.758C1291.8 322.363 1273.53 320.169 1252.81 320.169C1222.29 320.169 1195.29 325.044 1171.82 334.807C1148.35 344.08 1128.43 357.504 1112.05 375.081C1095.67 392.657 1083.12 413.89 1074.39 438.77L1074.39 438.776C1066.21 463.17 1062.12 490.48 1062.12 520.7C1062.12 551.415 1067.03 579.22 1076.85 604.108L1076.86 604.119C1087.22 628.515 1101.68 649.5 1120.23 667.07L1120.24 667.075L1120.24 667.08C1139.35 684.163 1162.26 697.335 1188.98 706.602C1215.71 715.87 1245.97 720.5 1279.75 720.5C1312.42 720.5 1345.64 716.64 1375.02 712.263L1448.61 719.949Z" fill="#3276B5" stroke="white"/>
<path d="M522.361 718.186C681.71 718.186 810.887 589.691 810.887 431.186C810.887 272.68 681.71 144.186 522.361 144.186C363.012 144.186 233.834 272.68 233.834 431.186C233.834 589.691 363.012 718.186 522.361 718.186Z" fill="url(#paint0_radial)" stroke="white" stroke-width="2"/>
<path d="M981.191 496H643.404V832H981.191V496Z" fill="#3276B5" stroke="white" stroke-width="2"/>
<path fill-rule="evenodd" clip-rule="evenodd" d="M0 352H402.128L201.064 0L0 352Z" fill="#F04950" stroke="white" stroke-width="2"/>
</g>
<defs>
<radialGradient id="paint0_radial" cx="0" cy="0" r="1" gradientUnits="userSpaceOnUse" gradientTransform="translate(522.361 431.185) scale(927.325 663.01)">
<stop stop-color="#33B8A5"/>
<stop offset="1" stop-color="#33B8A5" stop-opacity="0"/>
</radialGradient>
<clipPath id="clip0">
<rect width="3024" height="832" fill="white"/>
</clipPath>
</defs>
</svg>
