<svg xmlns="http://www.w3.org/2000/svg" xmlns:xlink="http://www.w3.org/1999/xlink" width="53" height="90" viewBox="0 20 53 100">
  <defs>
    <path id="iji-a" d="M38.841162,0 C44.5323169,2.65478261 49.1895986,7.0635913 52.1826056,12.7175304 L52.1826056,12.7175304 C52.4367817,13.1983826 52.6734155,13.6855913 52.8999718,14.1757913 L52.8999718,14.1757913 L52.8999718,0 L38.841162,0 Z M0,0 L0,14.5710174 C2.61640845,8.61832174 7.11357042,3.74436522 12.9361056,0.649486957 L12.9361056,0.649486957 C13.3645845,0.4214 13.797169,0.205278261 14.2334859,0 L14.2334859,0 L0,0 Z M14.4585493,5.4064087 C8.55427465,8.54466087 4.22208451,13.7981391 2.26145775,20.1999043 L2.26145775,20.1999043 C0.300457746,26.6001739 0.945042254,33.3844522 4.07764085,39.3008783 L4.07764085,39.3008783 C7.2098662,45.2158087 12.4542535,49.5558174 18.8441127,51.5199826 L18.8441127,51.5199826 C25.2339718,53.4837739 32.0060282,52.8376522 37.9106761,49.7005217 L37.9106761,49.7005217 C43.8153239,46.5622696 48.1471408,41.3087913 50.1073944,34.9074 L50.1073944,34.9074 C50.8512606,32.478087 51.2203944,29.992687 51.2203944,27.5218696 L51.2203944,27.5218696 C51.2203944,24.2355478 50.5683451,20.9727826 49.2791761,17.8947304 L49.2791761,17.8947304 C49.8782254,20.9783913 49.7162394,24.1813304 48.7697042,27.2702261 L48.7697042,27.2702261 C47.2513662,32.2264435 43.8955704,36.2946174 39.3218944,38.7243043 L39.3218944,38.7243043 C36.4841549,40.2322957 33.3877606,40.9965739 30.2641197,40.9965739 L30.2641197,40.9965739 C28.3531338,40.9965739 26.4328169,40.7101565 24.5539296,40.1335826 L24.5539296,40.1335826 C19.6051479,38.6125043 15.5428099,35.2517739 13.1167535,30.671713 L13.1167535,30.671713 C8.10974648,21.2162 11.7163592,9.4428 21.1578239,4.42750435 L21.1578239,4.42750435 C22.9217535,3.49047826 24.786831,2.84323478 26.6955775,2.4854 L26.6955775,2.4854 C26.5134366,2.48166087 26.331669,2.47941739 26.1499014,2.47941739 L26.1499014,2.47941739 C22.1177958,2.47941739 18.1215211,3.46056522 14.4585493,5.4064087 L14.4585493,5.4064087 Z M21.4709718,5.53727826 C13.6015915,9.71874783 10.5951479,19.534713 14.7690845,27.4179217 L14.7690845,27.4179217 C16.7912958,31.2363217 20.1769507,34.0380522 24.3012465,35.3059913 L24.3012465,35.3059913 C28.4259155,36.5739304 32.7972958,36.1566435 36.6099366,34.1307826 L36.6099366,34.1307826 C40.4222042,32.1052957 43.2177676,28.7146522 44.4837958,24.5814174 L44.4837958,24.5814174 C45.6300141,20.8370522 45.3922606,16.8918957 43.8339859,13.342713 L43.8339859,13.342713 C44.1896831,15.2575217 44.0833099,17.2426261 43.4962042,19.1578087 L43.4962042,19.1578087 C42.5399648,22.2833478 40.4255634,24.8472696 37.542662,26.3791913 L37.542662,26.3791913 C35.7552183,27.3289304 33.8035493,27.8112783 31.8350845,27.8112783 L31.8350845,27.8112783 C30.6310141,27.8112783 29.4202254,27.6314261 28.2370563,27.2672348 L28.2370563,27.2672348 C25.1182676,26.3077739 22.5578451,24.1903043 21.0286831,21.3029478 L21.0286831,21.3029478 C17.8736901,15.3424 20.1467183,7.9206 26.0957817,4.75916522 L26.0957817,4.75916522 C27.0445563,4.25513043 28.0302817,3.89056522 29.0298169,3.65612174 L29.0298169,3.65612174 C29.0242183,3.65612174 29.0182465,3.65612174 29.0126479,3.65612174 L29.0126479,3.65612174 C26.4623028,3.65612174 23.8768732,4.25924348 21.4709718,5.53727826 L21.4709718,5.53727826 Z M28.2157817,6.07272174 C26.6298873,6.91552174 25.3709507,8.1356 24.4852535,9.5632 L24.4852535,9.5632 C25.4362676,8.94661739 26.5671831,8.58466957 27.7843169,8.58466957 L27.7843169,8.58466957 C31.145338,8.58466957 33.8707324,11.3146087 33.8707324,14.6824435 L33.8707324,14.6824435 C33.8707324,18.0495304 31.145338,20.7798435 27.7843169,20.7798435 L27.7843169,20.7798435 C26.4832042,20.7798435 25.2802535,20.3674174 24.2907958,19.6704435 L24.2907958,19.6704435 C25.5359225,21.8526 27.5297676,23.4548174 29.9401479,24.1966609 L29.9401479,24.1966609 C32.4509296,24.9684174 35.1121268,24.7137826 37.4321831,23.4813652 L37.4321831,23.4813652 C39.7537324,22.2478261 41.4560775,20.1830783 42.2264437,17.6666435 L42.2264437,17.6666435 C42.9975563,15.1513304 42.7437535,12.4857043 41.5124366,10.1599652 L41.5124366,10.1599652 C39.7481338,6.8284 36.3333662,4.92593015 32.8077465,4.92593015 L32.8077465,4.92593015 C31.2546972,4.92555652 29.6807465,5.2946087 28.2157817,6.07272174 L28.2157817,6.07272174 Z M0,85.8523043 L4.09779577,85.8523043 L4.09779577,70.4885913 L6.8209507,70.4885913 L13.3963099,79.382113 L13.3963099,70.4885913 L16.7252324,70.4885913 L16.7252324,85.8523043 L21.4347676,85.8523043 L17.6008521,70.4885913 L21.3877394,70.4885913 L23.4304789,79.4935391 L26.1943169,70.4444696 L29.0036901,70.4444696 L31.7675282,79.5780435 L33.8315423,70.4885913 L37.5639366,70.4885913 L33.7300211,85.8523043 L42.2167394,85.8523043 C39.0763028,84.6785913 37.054838,81.6910261 37.054838,78.1893304 L37.054838,78.1893304 L37.054838,78.1444609 C37.054838,73.6219826 40.4621408,69.939687 45.2661056,69.939687 L45.2661056,69.939687 C48.9055634,69.939687 51.7384507,72.0287391 52.8999718,75.0069565 L52.8999718,75.0069565 L52.8999718,38.5205217 C50.2593028,44.2937391 45.8334296,49.02 40.139662,52.0464522 L40.139662,52.0464522 C25.9994859,59.5624783 8.39378169,54.1478435 0.893535211,39.9780348 L0.893535211,39.9780348 C0.570683099,39.3681826 0.276943662,38.7482348 0,38.1234261 L0,38.1234261 L0,85.8523043 Z M40.5509718,78.0984696 L40.5509718,78.1444609 C40.5509718,80.8706609 42.5086127,83.0576783 45.2661056,83.0576783 L45.2661056,83.0576783 C48.0239718,83.0576783 49.9999014,80.9162783 49.9999014,78.1893304 L49.9999014,78.1893304 L49.9999014,78.1444609 C49.9999014,75.4171391 47.9795563,73.2929391 45.2216901,73.2929391 L45.2216901,73.2929391 C42.4638239,73.2929391 40.5509718,75.3718957 40.5509718,78.0984696 L40.5509718,78.0984696 Z M7.44799296,85.8523043 L14.1304718,85.8523043 L7.44799296,76.7927652 L7.44799296,85.8523043 Z M24.5890141,85.8523043 L30.5548732,85.8523043 L27.5566408,76.8013652 L24.5890141,85.8523043 Z M48.2217887,85.8523043 L52.8999718,85.8523043 L52.8999718,81.2303652 C52.0762324,83.3519478 50.4093451,85.0379217 48.2217887,85.8523043 L48.2217887,85.8523043 Z"/>
    <linearGradient id="iji-b" x1="31.938%" x2="68.062%" y1="100.865%" y2="-.865%">
      <stop offset="0%" stop-color="#42A8BA"/>
      <stop offset="100%" stop-color="#0E647C"/>
    </linearGradient>
  </defs>
  <g fill="none" fill-rule="evenodd">
    <g transform="translate(0 26)">
      <mask id="iji-c" fill="#fff">
        <use xlink:href="#iji-a"/>
      </mask>
      <path fill="url(#iji-b)" d="M38.841162,0 C44.5323169,2.65478261 49.1895986,7.0635913 52.1826056,12.7175304 L52.1826056,12.7175304 C52.4367817,13.1983826 52.6734155,13.6855913 52.8999718,14.1757913 L52.8999718,14.1757913 L52.8999718,0 L38.841162,0 Z M0,0 L0,14.5710174 C2.61640845,8.61832174 7.11357042,3.74436522 12.9361056,0.649486957 L12.9361056,0.649486957 C13.3645845,0.4214 13.797169,0.205278261 14.2334859,0 L14.2334859,0 L0,0 Z M14.4585493,5.4064087 C8.55427465,8.54466087 4.22208451,13.7981391 2.26145775,20.1999043 L2.26145775,20.1999043 C0.300457746,26.6001739 0.945042254,33.3844522 4.07764085,39.3008783 L4.07764085,39.3008783 C7.2098662,45.2158087 12.4542535,49.5558174 18.8441127,51.5199826 L18.8441127,51.5199826 C25.2339718,53.4837739 32.0060282,52.8376522 37.9106761,49.7005217 L37.9106761,49.7005217 C43.8153239,46.5622696 48.1471408,41.3087913 50.1073944,34.9074 L50.1073944,34.9074 C50.8512606,32.478087 51.2203944,29.992687 51.2203944,27.5218696 L51.2203944,27.5218696 C51.2203944,24.2355478 50.5683451,20.9727826 49.2791761,17.8947304 L49.2791761,17.8947304 C49.8782254,20.9783913 49.7162394,24.1813304 48.7697042,27.2702261 L48.7697042,27.2702261 C47.2513662,32.2264435 43.8955704,36.2946174 39.3218944,38.7243043 L39.3218944,38.7243043 C36.4841549,40.2322957 33.3877606,40.9965739 30.2641197,40.9965739 L30.2641197,40.9965739 C28.3531338,40.9965739 26.4328169,40.7101565 24.5539296,40.1335826 L24.5539296,40.1335826 C19.6051479,38.6125043 15.5428099,35.2517739 13.1167535,30.671713 L13.1167535,30.671713 C8.10974648,21.2162 11.7163592,9.4428 21.1578239,4.42750435 L21.1578239,4.42750435 C22.9217535,3.49047826 24.786831,2.84323478 26.6955775,2.4854 L26.6955775,2.4854 C26.5134366,2.48166087 26.331669,2.47941739 26.1499014,2.47941739 L26.1499014,2.47941739 C22.1177958,2.47941739 18.1215211,3.46056522 14.4585493,5.4064087 L14.4585493,5.4064087 Z M21.4709718,5.53727826 C13.6015915,9.71874783 10.5951479,19.534713 14.7690845,27.4179217 L14.7690845,27.4179217 C16.7912958,31.2363217 20.1769507,34.0380522 24.3012465,35.3059913 L24.3012465,35.3059913 C28.4259155,36.5739304 32.7972958,36.1566435 36.6099366,34.1307826 L36.6099366,34.1307826 C40.4222042,32.1052957 43.2177676,28.7146522 44.4837958,24.5814174 L44.4837958,24.5814174 C45.6300141,20.8370522 45.3922606,16.8918957 43.8339859,13.342713 L43.8339859,13.342713 C44.1896831,15.2575217 44.0833099,17.2426261 43.4962042,19.1578087 L43.4962042,19.1578087 C42.5399648,22.2833478 40.4255634,24.8472696 37.542662,26.3791913 L37.542662,26.3791913 C35.7552183,27.3289304 33.8035493,27.8112783 31.8350845,27.8112783 L31.8350845,27.8112783 C30.6310141,27.8112783 29.4202254,27.6314261 28.2370563,27.2672348 L28.2370563,27.2672348 C25.1182676,26.3077739 22.5578451,24.1903043 21.0286831,21.3029478 L21.0286831,21.3029478 C17.8736901,15.3424 20.1467183,7.9206 26.0957817,4.75916522 L26.0957817,4.75916522 C27.0445563,4.25513043 28.0302817,3.89056522 29.0298169,3.65612174 L29.0298169,3.65612174 C29.0242183,3.65612174 29.0182465,3.65612174 29.0126479,3.65612174 L29.0126479,3.65612174 C26.4623028,3.65612174 23.8768732,4.25924348 21.4709718,5.53727826 L21.4709718,5.53727826 Z M28.2157817,6.07272174 C26.6298873,6.91552174 25.3709507,8.1356 24.4852535,9.5632 L24.4852535,9.5632 C25.4362676,8.94661739 26.5671831,8.58466957 27.7843169,8.58466957 L27.7843169,8.58466957 C31.145338,8.58466957 33.8707324,11.3146087 33.8707324,14.6824435 L33.8707324,14.6824435 C33.8707324,18.0495304 31.145338,20.7798435 27.7843169,20.7798435 L27.7843169,20.7798435 C26.4832042,20.7798435 25.2802535,20.3674174 24.2907958,19.6704435 L24.2907958,19.6704435 C25.5359225,21.8526 27.5297676,23.4548174 29.9401479,24.1966609 L29.9401479,24.1966609 C32.4509296,24.9684174 35.1121268,24.7137826 37.4321831,23.4813652 L37.4321831,23.4813652 C39.7537324,22.2478261 41.4560775,20.1830783 42.2264437,17.6666435 L42.2264437,17.6666435 C42.9975563,15.1513304 42.7437535,12.4857043 41.5124366,10.1599652 L41.5124366,10.1599652 C39.7481338,6.8284 36.3333662,4.92593015 32.8077465,4.92593015 L32.8077465,4.92593015 C31.2546972,4.92555652 29.6807465,5.2946087 28.2157817,6.07272174 L28.2157817,6.07272174 Z M0,85.8523043 L4.09779577,85.8523043 L4.09779577,70.4885913 L6.8209507,70.4885913 L13.3963099,79.382113 L13.3963099,70.4885913 L16.7252324,70.4885913 L16.7252324,85.8523043 L21.4347676,85.8523043 L17.6008521,70.4885913 L21.3877394,70.4885913 L23.4304789,79.4935391 L26.1943169,70.4444696 L29.0036901,70.4444696 L31.7675282,79.5780435 L33.8315423,70.4885913 L37.5639366,70.4885913 L33.7300211,85.8523043 L42.2167394,85.8523043 C39.0763028,84.6785913 37.054838,81.6910261 37.054838,78.1893304 L37.054838,78.1893304 L37.054838,78.1444609 C37.054838,73.6219826 40.4621408,69.939687 45.2661056,69.939687 L45.2661056,69.939687 C48.9055634,69.939687 51.7384507,72.0287391 52.8999718,75.0069565 L52.8999718,75.0069565 L52.8999718,38.5205217 C50.2593028,44.2937391 45.8334296,49.02 40.139662,52.0464522 L40.139662,52.0464522 C25.9994859,59.5624783 8.39378169,54.1478435 0.893535211,39.9780348 L0.893535211,39.9780348 C0.570683099,39.3681826 0.276943662,38.7482348 0,38.1234261 L0,38.1234261 L0,85.8523043 Z M40.5509718,78.0984696 L40.5509718,78.1444609 C40.5509718,80.8706609 42.5086127,83.0576783 45.2661056,83.0576783 L45.2661056,83.0576783 C48.0239718,83.0576783 49.9999014,80.9162783 49.9999014,78.1893304 L49.9999014,78.1893304 L49.9999014,78.1444609 C49.9999014,75.4171391 47.9795563,73.2929391 45.2216901,73.2929391 L45.2216901,73.2929391 C42.4638239,73.2929391 40.5509718,75.3718957 40.5509718,78.0984696 L40.5509718,78.0984696 Z M7.44799296,85.8523043 L14.1304718,85.8523043 L7.44799296,76.7927652 L7.44799296,85.8523043 Z M24.5890141,85.8523043 L30.5548732,85.8523043 L27.5566408,76.8013652 L24.5890141,85.8523043 Z M48.2217887,85.8523043 L52.8999718,85.8523043 L52.8999718,81.2303652 C52.0762324,83.3519478 50.4093451,85.0379217 48.2217887,85.8523043 L48.2217887,85.8523043 Z" mask="url(#iji-c)"/>
    </g>
  </g>
</svg>
